<svg width="301" height="301" viewBox="0 0 301 301" fill="none" xmlns="http://www.w3.org/2000/svg">
<rect width="301" height="301" rx="20" fill="#FF5959"/>
<path d="M276.735 136.864C272.481 129.184 267.461 121.852 261.672 114.905C259.021 111.729 256.197 108.656 253.268 105.653L252.396 104.78C249.397 101.814 246.329 99.0199 243.155 96.3665L188.028 151.56L187.086 152.467C178.858 147.022 169.687 143.6 160.272 142.273L169.513 133.022L221.223 81.2496C212.924 76.6061 204.312 72.8711 195.419 70.0079C188.969 67.9129 182.413 66.2729 175.753 65.1205C172.092 64.4926 168.431 64.0036 164.735 63.6548C155.599 62.7817 146.394 62.7817 137.258 63.6548C133.561 64.0036 129.9 64.4926 126.239 65.1205C119.579 66.2729 113.023 67.9129 106.573 70.0079C97.6821 72.8711 89.0688 76.6061 80.7698 81.2496L132.48 133.022L141.72 142.273C132.306 143.6 123.136 147.022 114.906 152.467L113.965 151.56L58.8409 96.3678C55.6682 99.0212 52.5989 101.814 49.6004 104.782L48.7283 105.655C45.7992 108.657 42.9747 111.729 40.3245 114.906C34.5356 121.853 29.5153 129.184 25.261 136.865C20.6244 145.138 16.8597 153.795 14 162.663L21.3917 170.099L35.4443 184.133C37.3272 174.602 40.3952 165.246 44.6848 156.309C48.4847 148.314 53.2274 140.669 58.9456 133.547L77.6008 152.225C71.9874 159.696 67.6977 167.83 64.6638 176.348C61.2463 185.984 59.4681 196.107 59.3634 206.232V208.082C59.4681 218.241 61.2463 228.33 64.6638 238L76.9383 225.711L86.1788 216.425C85.3067 210.281 85.3067 204.031 86.1788 197.888C87.5392 188.426 90.9215 179.246 96.3961 171.006L113.97 188.636L115.574 190.207C117.421 186.297 120.002 182.596 123.244 179.349C126.488 176.102 130.149 173.553 134.054 171.669C144.758 166.572 157.241 166.572 167.946 171.669C171.851 173.555 175.513 176.103 178.756 179.349C181.999 182.596 184.579 186.296 186.426 190.207L188.03 188.636L205.604 171.006C211.079 179.244 214.461 188.426 215.821 197.888C216.693 204.032 216.693 210.281 215.821 216.425L225.062 225.711L237.336 238C240.754 228.33 242.532 218.241 242.637 208.082V206.232C242.532 196.109 240.754 185.984 237.336 176.348C234.302 167.83 230.014 159.696 224.399 152.225L243.054 133.547C248.773 140.669 253.515 148.314 257.315 156.309C261.604 165.246 264.673 174.602 266.556 184.133L280.608 170.099L288 162.663C285.14 153.795 281.376 145.138 276.738 136.864H276.735ZM128.021 91.4791C131.508 90.7804 135.03 90.2219 138.551 89.8732C146.815 89.0001 155.184 89.0001 163.447 89.8732C166.97 90.2219 170.491 90.7804 173.978 91.4791L150.999 114.486L128.02 91.4791H128.021Z" fill="#41210A"/>
</svg>
