<svg xmlns="http://www.w3.org/2000/svg" width="360" height="320" viewBox="0 0 360 320">
  <g fill="none" fill-rule="evenodd">
    <path fill="#FFD7C6" d="M109.293439,212.18086 C50.5171282,166.970417 -21.8784283,161.064752 31.8137783,91.293233 C85.5073964,21.5217142 176.679699,1.61037927 235.45601,46.8194109 C294.230909,92.0298537 314.489696,210.683629 260.797489,280.456559 C207.103871,350.229489 168.068339,257.391303 109.293439,212.18086"/>
    <path fill="#FF704C" d="M106.25047 3.74157128C104.579311 4.88618338 104.414477 7.25171503 104.416985 9.28149381 104.419549 10.8610585 104.422085 12.4406232 104.422085 14.0201879 104.424621 14.5543402 104.427157 15.0986668 104.60467 15.6048397 104.974912 16.6756879 106.029847 17.3344758 107.054351 17.8152129 110.863275 19.6058949 115.181916 20.0815448 119.381369 19.8119251 119.847975 19.7814021 120.334868 19.7356176 120.738077 19.4990644 121.080423 19.2955778 121.328942 18.9750864 121.567317 18.6571386 122.637467 17.2098402 123.565607 15.6557114 124.333985 14.0227315 125.028822 12.5398229 125.601936 10.9119301 125.361026 9.28912456 125.120115 7.67140613 124.105754 6.29024088 123.083786 5.01590608 121.607891 3.18198315 119.845439 1.30481932 117.522553.946174197 116.328144.76049268 115.105839 1.00976376 113.926645 1.28701424M83.4764094 55.9636233C81.0938088 57.318378 78.5281268 58.8831325 77.6050915 61.4773982 77.2287576 62.542763 77.1677305 63.6952008 76.8295385 64.7733705 76.5193173 65.767028 75.9777016 66.6736125 75.659852 67.664709 75.2428333 68.9631224 75.2199481 70.3537307 75.2021485 71.7212903 75.1818062 73.3833618 75.1665494 75.0479943 75.1563782 76.7100658 75.1512926 77.5603088 75.1487498 78.4259177 75.4055723 79.2326242 75.6522236 79.9957941 76.1175554 80.6642081 76.6032296 81.3018904 82.5635453 89.1410288 92.6609915 93.9274874 102.356676 92.4549279 104.512967 92.1271234 106.61586 91.5124898 108.708582 90.8927344 110.819104 90.2678569 113.046594 89.5635894 114.498531 87.8989569 115.13423 87.1742015 115.581762 86.3034707 116.024209 85.4429838 116.893845 83.7553025 117.758396 82.0650603 118.628033 80.3722572 119.373072 78.9201855 120.12574 77.4553089 120.596157 75.8905544 121.567506 72.6534845 121.26237 69.0450735 119.76212 66.0205644 119.319673 65.1267848 118.778058 64.2867856 118.226271 63.4595913 116.713307 61.1880083 115.103716 58.9830105 113.407671 56.84972 111.220865 54.1094788 108.726382 51.3769206 105.410575 50.2833851 100.85134 48.780094 95.9691701 50.7008237 91.2039689 51.2539939M31.9444026 12.0475205C24.3751135 14.721477 17.0929442 18.211694 10.260511 22.4414072 8.87318914 23.3011674 7.48332639 24.2069862 6.41361483 25.4403326 5.42267064 26.5815619 4.744255 27.9530842 4.07854378 29.3118123 2.19320893 33.1577039.285006138 37.1545654.102062595 41.4431311-.187598015 48.1907134 3.78888317 54.2832403 7.60020698 59.8409759 8.84778031 61.6577311 10.1131398 63.4975155 11.7799588 64.933008 13.2587524 66.2072955 15.0068796 67.1207907 16.7473841 68.0035802 19.5067826 69.4058081 22.3347849 70.7722127 25.3711395 71.360739 27.3962229 71.752237 29.469583 71.7855015 31.5327797 71.818766 36.9753501 71.9032068 42.450952 71.9799711 47.8274594 71.1304461 49.8931969 70.8054772 51.989425 70.3218621 53.7553384 69.1883092 55.5923965 68.006139 56.9365233 66.2098543 58.242537 64.4493929 62.0436973 59.3215374 66.0125558 53.7203021 66.0862414 47.320718 66.1065684 45.4220809 65.7762537 43.5413554 65.4510207 41.673424 65.1359513 39.8873746 64.8208819 38.1013251 64.5083533 36.3152756 64.2390198 34.7774308 63.9671453 33.2293506 63.4106921 31.7708289 62.1021375 28.3317881 59.3630662 25.691096 57.1626619 22.7484644 56.1920448 21.4485888 55.3179812 20.0770666 54.2762193 18.8334849 49.8627063 13.5572184 42.7990529 11.1033195 35.9513744 10.867909" transform="rotate(-53 214.468 -152.325)"/>
  </g>
</svg>
