<?xml version="1.0" encoding="UTF-8" standalone="no"?>
<!-- Created with Inkscape (http://www.inkscape.org/) -->

<svg
   version="1.1"
   id="svg1347"
   xml:space="preserve"
   width="682.66669"
   height="682.66669"
   viewBox="0 0 682.66669 682.66669"
   xmlns="http://www.w3.org/2000/svg"
   xmlns:svg="http://www.w3.org/2000/svg"><defs
     id="defs1351"><clipPath
       clipPathUnits="userSpaceOnUse"
       id="clipPath1361"><path
         d="M 0,512 H 512 V 0 H 0 Z"
         id="path1359" /></clipPath></defs><g
     id="g1353"
     transform="matrix(1.3333333,0,0,-1.3333333,0,682.66667)"><g
       id="g1355"><g
         id="g1357"
         clip-path="url(#clipPath1361)"><g
           id="g1363"
           transform="translate(430.6191,474.9917)"><path
             d="M 0,0 C 0,14.917 -12.092,27.008 -27.008,27.008 H -389.174 C -404.09,27.008 -416.183,14.917 -416.183,0 V -42.546 H 0 Z"
             style="fill:none;stroke:#000000;stroke-width:20;stroke-linecap:round;stroke-linejoin:round;stroke-miterlimit:10;stroke-dasharray:none;stroke-opacity:1"
             id="path1365" /></g><g
           id="g1367"
           transform="translate(274.1748,109.041)"><path
             d="m 0,0 h 107.161 l -8.405,68.592 c -0.329,2.638 2.519,4.511 4.82,3.166 L 156.443,40.789 V 323.401 H -259.738 V 27.006 C -259.738,12.089 -247.649,0 -232.731,0 h 145.127"
             style="fill:none;stroke:#000000;stroke-width:20;stroke-linecap:round;stroke-linejoin:round;stroke-miterlimit:10;stroke-dasharray:none;stroke-opacity:1"
             id="path1369" /></g><g
           id="g1371"
           transform="translate(372.9292,177.6309)"><path
             d="m 0,0 15.473,-126.24 c 0.347,-2.827 3.926,-3.844 5.707,-1.62 l 17.815,22.246 c 1.367,1.706 4.001,1.583 5.202,-0.244 l 39.644,-60.322 c 0.976,-1.485 2.972,-1.898 4.457,-0.922 l 17.443,11.464 17.442,11.463 c 1.485,0.977 1.898,2.972 0.922,4.458 L 84.46,-79.396 c -1.2,1.827 -0.269,4.294 1.84,4.872 l 27.488,7.528 c 2.747,0.752 3.234,4.441 0.776,5.881 L 4.821,3.169 C 2.522,4.516 -0.324,2.645 0,0 Z"
             style="fill:none;stroke:#000000;stroke-width:20;stroke-linecap:round;stroke-linejoin:round;stroke-miterlimit:10;stroke-dasharray:none;stroke-opacity:1"
             id="path1373" /></g><path
           d="M 159.664,304.124 H 92.56 v 66.842 h 67.104 z"
           style="fill:none;stroke:#000000;stroke-width:20;stroke-linecap:round;stroke-linejoin:round;stroke-miterlimit:10;stroke-dasharray:none;stroke-opacity:1"
           id="path1375" /><g
           id="g1377"
           transform="translate(221.7451,370.9653)"><path
             d="M 0,0 H 130.93"
             style="fill:none;stroke:#000000;stroke-width:20;stroke-linecap:round;stroke-linejoin:round;stroke-miterlimit:10;stroke-dasharray:none;stroke-opacity:1"
             id="path1379" /></g><g
           id="g1381"
           transform="translate(221.7451,307.7954)"><path
             d="M 0,0 H 130.93"
             style="fill:none;stroke:#000000;stroke-width:20;stroke-linecap:round;stroke-linejoin:round;stroke-miterlimit:10;stroke-dasharray:none;stroke-opacity:1"
             id="path1383" /></g><g
           id="g1385"
           transform="translate(92.5601,244.6255)"><path
             d="M 0,0 H 260.115"
             style="fill:none;stroke:#000000;stroke-width:20;stroke-linecap:round;stroke-linejoin:round;stroke-miterlimit:10;stroke-dasharray:none;stroke-opacity:1"
             id="path1387" /></g><g
           id="g1389"
           transform="translate(92.5601,181.4556)"><path
             d="M 0,0 H 216.065"
             style="fill:none;stroke:#000000;stroke-width:20;stroke-linecap:round;stroke-linejoin:round;stroke-miterlimit:10;stroke-dasharray:none;stroke-opacity:1"
             id="path1391" /></g><g
           id="g1393"
           transform="translate(53.6792,466.3486)"><path
             d="M 0,0 V 0"
             style="fill:none;stroke:#000000;stroke-width:20;stroke-linecap:round;stroke-linejoin:round;stroke-miterlimit:10;stroke-dasharray:none;stroke-opacity:1"
             id="path1395" /></g><g
           id="g1397"
           transform="translate(90.3184,466.3486)"><path
             d="M 0,0 V 0"
             style="fill:none;stroke:#000000;stroke-width:20;stroke-linecap:round;stroke-linejoin:round;stroke-miterlimit:10;stroke-dasharray:none;stroke-opacity:1"
             id="path1399" /></g><g
           id="g1401"
           transform="translate(126.958,466.3486)"><path
             d="M 0,0 V 0"
             style="fill:none;stroke:#000000;stroke-width:20;stroke-linecap:round;stroke-linejoin:round;stroke-miterlimit:10;stroke-dasharray:none;stroke-opacity:1"
             id="path1403" /></g><g
           id="g1405"
           transform="translate(230.7974,109.041)"><path
             d="M 0,0 V 0"
             style="fill:none;stroke:#000000;stroke-width:20;stroke-linecap:round;stroke-linejoin:round;stroke-miterlimit:10;stroke-dasharray:none;stroke-opacity:1"
             id="path1407" /></g></g></g></g></svg>
