<svg width="30" height="30" viewBox="0 0 30 30" fill="none" xmlns="http://www.w3.org/2000/svg">
<path d="M8.83638 13.8874C8.0548 13.8874 7.41895 14.5233 7.41895 15.3049C7.41895 16.0864 8.0548 16.7223 8.83638 16.7223C9.61796 16.7223 10.2538 16.0864 10.2538 15.3049C10.2538 14.5233 9.61792 13.8874 8.83638 13.8874Z" fill="#797B7E"/>
<path d="M14.8929 7.61642C13.9929 7.61642 13.2607 8.34864 13.2607 9.24861C13.2607 10.1486 13.9929 10.8808 14.8929 10.8808C15.7929 10.8808 16.5251 10.1486 16.5251 9.24861C16.5251 8.34864 15.7929 7.61642 14.8929 7.61642Z" fill="#797B7E"/>
<path d="M11.696 10.0254C11.1099 9.43929 10.1562 9.43929 9.56995 10.0254C8.98384 10.6115 8.98384 11.5653 9.57 12.1515C9.86307 12.4445 10.248 12.591 10.633 12.591C11.018 12.591 11.403 12.4445 11.6961 12.1514C12.2821 11.5653 12.2821 10.6115 11.696 10.0254Z" fill="#797B7E"/>
<path d="M11.3296 18.6531C11.0863 18.4098 10.7627 18.2757 10.4185 18.2757C10.0743 18.2757 9.75068 18.4098 9.50731 18.6531C9.2639 18.8965 9.12988 19.2201 9.12988 19.5643C9.12988 19.9085 9.2639 20.2321 9.50731 20.4755C9.75068 20.7189 10.0743 20.8529 10.4185 20.8529C10.7626 20.8529 11.0863 20.7189 11.3297 20.4754C11.832 19.973 11.832 19.1555 11.3296 18.6531Z" fill="#797B7E"/>
<path d="M26.0133 11.8978C25.9394 10.2578 25.4578 8.01209 22.364 5.17889L21.0767 4L20.928 5.73918C20.9275 5.74404 20.9271 5.7489 20.9267 5.75372C19.1553 4.60909 17.1172 4.00844 14.9787 4.00844C12.0416 4.00844 9.28036 5.15221 7.20352 7.229C5.12668 9.30584 3.98291 12.0671 3.98291 15.0042C3.98291 17.9413 5.12668 20.7026 7.20352 22.7794C9.28036 24.8563 12.0416 26 14.9787 26C16.4151 26 17.2304 25.3982 17.6614 24.8934C18.3169 24.1257 18.4148 23.2388 18.4148 22.7786C18.4148 21.9036 18.0887 21.3403 17.8268 20.8878C17.6119 20.5166 17.4699 20.2713 17.4699 19.8578C17.4699 19.3277 17.4699 18.8699 19.4945 18.8699H20.0454L20.455 24.4653C20.5013 25.3273 21.2173 26 22.0738 26C22.0983 26 22.123 25.9994 22.1478 25.9983C22.5806 25.9788 22.98 25.7918 23.2722 25.472C23.5498 25.1681 23.6992 24.7787 23.6967 24.3694L24.4506 15.2314C25.4503 14.4706 26.0741 13.2467 26.0133 11.8978ZM19.4945 17.1519C18.6996 17.1518 17.7892 17.2008 17.065 17.5641C16.4659 17.8646 15.7518 18.5065 15.7518 19.8578C15.7518 20.7328 16.0779 21.296 16.3398 21.7486C16.5547 22.1198 16.6967 22.365 16.6967 22.7785C16.6967 23.2305 16.5294 24.2819 14.9787 24.2819C9.86294 24.2819 5.701 20.1199 5.701 15.0042C5.701 9.88842 9.86294 5.72653 14.9787 5.72653C16.9589 5.72653 18.8368 6.33665 20.4269 7.49381C20.1733 7.9725 19.8525 8.37334 19.5227 8.78562C18.8304 9.65078 18.0458 10.6313 18.119 12.2549C18.1666 13.3109 18.6216 14.2852 19.4004 14.9983C19.523 15.1106 19.6514 15.2144 19.7848 15.3093L19.9197 17.1519H19.4945ZM22.0776 23.0979L21.5583 16.0032C21.7241 16.0244 21.8923 16.0352 22.0618 16.0352C22.1225 16.0352 22.1835 16.0338 22.2445 16.031C22.3866 16.0245 22.5265 16.0106 22.664 15.9897L22.0776 23.0979ZM22.1668 14.3146C21.5713 14.3414 21.001 14.1344 20.5607 13.7312C20.1199 13.3275 19.8623 12.7757 19.8353 12.1775C19.7913 11.1998 20.2413 10.6375 20.8641 9.85899C21.3508 9.25076 21.9185 8.54126 22.285 7.53267C23.9406 9.3821 24.2442 10.804 24.2969 11.9751C24.3526 13.2094 23.397 14.2589 22.1668 14.3146Z" fill="#797B7E"/>
</svg>
