<svg id="Layer_1" enable-background="new 0 0 68 68" viewBox="0 0 68 68" xmlns="http://www.w3.org/2000/svg"><g><path d="m11.0365009 35.3714905c-.2770004 0-.5.2230225-.5.5v27.2130127c0 1.664978 1.3540001 3.0189819 3.0180016 3.0189819h40.8909912c1.6640015 0 3.0180054-1.3540039 3.0180054-3.0189819v-51.3389893c0-.0200195-.0090027-.0380249-.012001-.0579834-.0029984-.0230103-.0070038-.0440063-.0139999-.0670166-.0210037-.085022-.0569992-.1660156-.1210022-.2290039l-9.348999-9.348999c-.064003-.0640259-.1449966-.0999756-.2320023-.1220093-.0179977-.0039673-.0339966-.0079956-.0519943-.0100098-.0230026-.0039673-.0450058-.0139771-.0690002-.0139771h-34.0599977c-1.6640015 0-3.0180016 1.3540039-3.0180016 3.0180054v25.3380128c0 .2769775.2229996.5.5.5.276001 0 .5-.2230225.5-.5v-25.3380127c0-1.1130371.9049988-2.0180054 2.0180016-2.0180054h33.5589981v8.8529663c0 .276001.223999.5.5.5h8.8499985v50.835022c0 1.1130371-.9060059 2.0189819-2.0180054 2.0189819h-40.8909912c-1.1130028 0-2.0180016-.9059448-2.0180016-2.0189819v-27.2130127c0-.2769776-.223999-.5-.5-.5m37.0770016-24.1220093v-7.6449585l7.6449966 7.6449585z"/><path d="m18.4445019 15.5298157h29.7640018c.276001 0 .5-.223999.5-.5 0-.2759399-.223999-.5-.5-.5h-29.7640018c-.276001 0-.5.2240601-.5.5 0 .276001.223999.5.5.5"/><path d="m18.4445019 20.6040344h29.7640018c.276001 0 .5-.223999.5-.5 0-.2759399-.223999-.5-.5-.5h-29.7640018c-.276001 0-.5.2240601-.5.5 0 .276001.223999.5.5.5"/><path d="m18.4445019 25.6786804h29.7640018c.276001 0 .5-.223999.5-.5 0-.2759399-.223999-.5-.5-.5h-29.7640018c-.276001 0-.5.2240601-.5.5 0 .276001.223999.5.5.5"/><path d="m18.4445019 30.7530212h29.7640018c.276001 0 .5-.223999.5-.5 0-.2759399-.223999-.5-.5-.5h-29.7640018c-.276001 0-.5.2240601-.5.5 0 .276001.223999.5.5.5"/><path d="m44.2082062 49.0049133c.0679932-.0579834.1339951-.1209717.1939926-.1869507.3970032-.4360352.5920029-1.0220337.5370026-1.6130371-.1049957-1.0620117-1.0629959-1.8930054-2.1800003-1.8930054h-1.3809967c-.276001 0-.5.2230225-.5.5 0 .276001.223999.5.5.5h1.3809967c.6090012 0 1.1300049.4360352 1.1839981.9890137.0300064.3129883-.0699997.6119995-.2799988.8430176-.2080002.2290039-.5049973.3599854-.8139954.3599854-.0009995 0-.0019989.0009766-.003006.0009766h-3.3549957c-.276001 0-.5.2230225-.5.5 0 .276001.223999.5.5.5h3.3580017.0009995c.6059952 0 1.0979996.493042 1.0979996 1.0990601 0 .605957-.4930038 1.0999756-1.098999 1.0999756-.0009995 0-.0019989 0-.003006 0h-3.3549957c-.276001 0-.5.223999-.5.5 0 .2769775.223999.5.5.5h3.3580017.0009995c.6059952.0009766 1.0979996.4899902 1.0979996 1.09198 0 .6060181-.4930038 1.1000366-1.098999 1.1000366-.0009995 0-.0019989.0009766-.003006.0009766h-3.3549957c-.276001 0-.5.2230225-.5.5 0 .276001.223999.5.5.5h3.3580017c.0009995 0 .0009995-.0009766.0009995-.0009766.3099976.0009766.6069946.1329956.8159943.3639526.2110062.2340088.3100052.5360107.2779999.8510132-.0549927.5480347-.5719986.9769897-1.1769943.9769897h-9.0770035c-1.5459976 0-3.0680027-.4060059-4.4010029-1.1739502l-.9199982-.5280151v-10.0980226c3.8280048-.3380127 5.4790058-2.9920044 6.9830036-7.4019775.0839996-.2440186.2460022-.5570068.538002-.6560059.2429962-.0830078.5579987-.0109863.8639984.1920166.409996.2749634.685997.7819824.7369995 1.3519897.1230011 1.5169678-.3470001 3.3139648-1.5250015 5.8250122-.0719986.1549683-.060997.3369751.0309982.480957.0920029.144043.2509995.2319946.4220047.2319946h2.0889969c.276001 0 .5-.223999.5-.5 0-.2769775-.223999-.5-.5-.5h-1.3129959c1.0179977-2.3189697 1.4179993-4.0739746 1.2919998-5.6229858-.0770035-.8720093-.5170059-1.6560059-1.1780014-2.098999-.5670013-.3779907-1.2030029-.4890137-1.7399979-.3070068-.3730011.1260376-.878006.4509888-1.1640015 1.2789917-1.4160004 4.1520386-2.7940006 6.3630371-6.036005 6.6960449v-1.119995c0-.7290039-.7009964-1.3210449-1.5629959-1.3210449h-3.2130051c-1.0429993 0-1.8909988.8480225-1.8909988 1.8909912v2.6719971c0 .2770386.223999.5.5.5.2770004 0 .5-.2229614.5-.5v-2.6719971c0-.4909668.4000015-.8909912.8909988-.8909912h3.2130051c.3389969 0 .5629959.1929932.5629959.3210449v1.6659546c0 .0050049-.0029984.0100098-.0029984.0150146v10.8549805c0 .0040283.0029984.007019.0029984.0110474v1.7839966c0 .1309814-.2149963.3129883-.5629959.3129883h-3.2130051c-.4909973 0-.8909988-.3989868-.8909988-.8900146v-6.9229736c0-.276001-.2229996-.5-.5-.5-.276001 0-.5.223999-.5.5v6.9229736c0 1.0419922.8479996 1.8900146 1.8909988 1.8900146h3.2130051c.8769989 0 1.5629959-.5770264 1.5629959-1.3129883v-.9299927l.4209976.2409668c1.4840012.8560181 3.1790009 1.3079834 4.9000034 1.3079834h9.0770035c1.1119995 0 2.0670013-.8239746 2.1709976-1.8769531.060997-.5910034-.1330032-1.1820068-.5299988-1.6210327-.0630035-.0689697-.1299973-.1339722-.201004-.1939697.4530029-.3860474.7410049-.960022.7410049-1.6000366 0-.6369629-.2870026-1.2089844-.7399979-1.5929565.4529953-.3850098.7399979-.960022.7399979-1.598999-.0000001-.6400149-.2870026-1.2140505-.7399979-1.5990603"/></g></svg>