<svg width="512" height="512" viewBox="0 0 512 512" fill="none" xmlns="http://www.w3.org/2000/svg">
<g clip-path="url(#clip0_401_2249)">
<path d="M441.363 0H151.925C136.66 0 124.242 12.418 124.242 27.683V40.614H111.281C96.0161 40.614 83.5981 53.032 83.5981 68.297V81.227H70.6451C55.3761 81.227 42.9551 93.643 42.9551 108.904V484.325C42.9551 499.586 55.3761 512.002 70.6451 512.002H360.069C375.337 512.002 387.759 499.586 387.759 484.325V471.388H400.72C415.985 471.388 428.403 458.97 428.403 443.705V430.775H441.364C456.629 430.775 469.047 418.356 469.047 403.091V27.683C469.045 12.418 456.627 0 441.363 0ZM360.069 492H70.6451C66.4051 492 62.9551 488.557 62.9551 484.323V108.902C62.9551 104.669 66.4051 101.225 70.6451 101.225H294.362V164.566C294.362 170.088 298.84 174.566 304.362 174.566H367.759V484.323C367.758 488.557 364.309 492 360.069 492ZM353.603 154.566H314.362V115.354L353.603 154.566ZM408.402 443.704C408.402 447.947 404.962 451.387 400.719 451.387H387.758V164.616C387.758 164.613 387.755 164.429 387.75 164.14C387.707 161.704 386.705 159.379 384.984 157.653C384.983 157.652 384.983 157.652 384.983 157.652C384.931 157.598 311.43 84.151 311.43 84.151C311.42 84.141 311.31 84.038 311.137 83.875C309.303 82.159 306.876 81.208 304.364 81.225H304.362H103.598V68.295C103.598 64.052 107.038 60.612 111.281 60.612H400.719C404.962 60.612 408.402 64.052 408.402 68.295V443.704ZM449.045 403.091C449.045 407.327 445.599 410.775 441.362 410.775H428.401V68.296C428.401 53.031 415.983 40.613 400.718 40.613H144.242V27.683C144.242 23.447 147.689 20 151.925 20H441.362C445.598 20 449.045 23.446 449.045 27.683V403.091Z" fill="#797B7E"/>
</g>
<defs>
<clipPath id="clip0_401_2249">
<rect width="512" height="512" fill="white"/>
</clipPath>
</defs>
</svg>
