<svg width="512" height="512" viewBox="0 0 512 512" fill="none" xmlns="http://www.w3.org/2000/svg">
<path d="M448 176V128C448 115.27 442.943 103.061 433.941 94.0589C424.939 85.0571 412.73 80 400 80V64C400 51.2696 394.943 39.0606 385.941 30.0589C376.939 21.0571 364.73 16 352 16H160C147.27 16 135.061 21.0571 126.059 30.0589C117.057 39.0606 112 51.2696 112 64V80C99.2696 80 87.0606 85.0571 78.0589 94.0589C69.0571 103.061 64 115.27 64 128V176C51.2696 176 39.0606 181.057 30.0589 190.059C21.0571 199.061 16 211.27 16 224V448C16 460.73 21.0571 472.939 30.0589 481.941C39.0606 490.943 51.2696 496 64 496H448C460.73 496 472.939 490.943 481.941 481.941C490.943 472.939 496 460.73 496 448V224C496 211.27 490.943 199.061 481.941 190.059C472.939 181.057 460.73 176 448 176ZM144 64C144 59.7565 145.686 55.6869 148.686 52.6863C151.687 49.6857 155.757 48 160 48H352C356.243 48 360.313 49.6857 363.314 52.6863C366.314 55.6869 368 59.7565 368 64V80H144V64ZM96 128C96 123.757 97.6857 119.687 100.686 116.686C103.687 113.686 107.757 112 112 112H400C404.243 112 408.313 113.686 411.314 116.686C414.314 119.687 416 123.757 416 128V176H96V128ZM464 448C464 452.243 462.314 456.313 459.314 459.314C456.313 462.314 452.243 464 448 464H64C59.7565 464 55.6869 462.314 52.6863 459.314C49.6857 456.313 48 452.243 48 448V224C48 219.757 49.6857 215.687 52.6863 212.686C55.6869 209.686 59.7565 208 64 208H448C452.243 208 456.313 209.686 459.314 212.686C462.314 215.687 464 219.757 464 224V448Z" fill="#797B7E"/>
<path d="M336 307.2L244 249.6C238.84 246.41 232.921 244.655 226.856 244.517C220.791 244.379 214.799 245.862 209.498 248.814C204.198 251.766 199.782 256.079 196.706 261.309C193.63 266.538 192.005 272.493 192 278.56V393.44C191.98 399.507 193.588 405.468 196.655 410.702C199.722 415.937 204.137 420.252 209.44 423.2C214.749 426.161 220.752 427.648 226.829 427.507C232.906 427.367 238.834 425.603 244 422.4L336 364.8C340.895 361.755 344.932 357.512 347.732 352.473C350.531 347.434 352 341.765 352 336C352 330.235 350.531 324.566 347.732 319.527C344.932 314.488 340.895 310.245 336 307.2ZM319.04 337.76L227.04 395.2C226.729 395.362 226.383 395.443 226.033 395.435C225.682 395.427 225.34 395.331 225.036 395.156C224.733 394.98 224.479 394.731 224.298 394.431C224.117 394.131 224.014 393.79 224 393.44V278.56C223.962 278.204 224.034 277.844 224.205 277.53C224.377 277.215 224.64 276.961 224.96 276.8C225.324 276.678 225.717 276.678 226.08 276.8H227.04L319.04 334.24C319.338 334.427 319.583 334.687 319.753 334.995C319.923 335.303 320.012 335.648 320.012 336C320.012 336.352 319.923 336.697 319.753 337.005C319.583 337.313 319.338 337.573 319.04 337.76Z" fill="#797B7E"/>
</svg>
