<?xml version="1.0"?>
<svg xmlns="http://www.w3.org/2000/svg" data-name="Layer 1" id="Layer_1" viewBox="0 0 128 128"><title/><path d="M109,122V26a1.99585,1.99585,0,0,0-.03827-.38611l-.00043-.00488a1.99116,1.99116,0,0,0-.17242-.48437c-.01935-.03961-.03973-.07727-.06177-.11566a1.98631,1.98631,0,0,0-.313-.423l-24-24a1.98816,1.98816,0,0,0-.42279-.31287c-.03845-.022-.07617-.04254-.11578-.06189a1.99118,1.99118,0,0,0-.48425-.17242L83.38593.03821A1.99872,1.99872,0,0,0,83,0H25a6.00656,6.00656,0,0,0-6,6V122a6.00656,6.00656,0,0,0,6,6h78A6.00656,6.00656,0,0,0,109,122ZM85,6.82861,102.17139,24H87a2.002,2.002,0,0,1-2-2ZM23,122V6a2.002,2.002,0,0,1,2-2H81V22a6.00656,6.00656,0,0,0,6,6h18v94a2.002,2.002,0,0,1-2,2H25A2.002,2.002,0,0,1,23,122Z"/><path d="M93,94H70.14044a9.82991,9.82991,0,0,1-4.33087,1H62.19043a9.82946,9.82946,0,0,1-4.33081-1H35a2,2,0,0,0,0,4H93a2,2,0,0,0,0-4Z"/><path d="M35,90H48.34808a9.85568,9.85568,0,0,1-2.16144-1.62915L43.81671,86H35a2,2,0,0,0,0,4Z"/><path d="M93,86H84.18372l-2.37091,2.37085A9.84844,9.84844,0,0,1,79.652,90H93a2,2,0,0,0,0-4Z"/><path d="M93,78H87.18762c.02618.29144.057.58252.057.876a9.81063,9.81063,0,0,1-.516,3.124H93a2,2,0,0,0,0-4Z"/><path d="M35,82h6.27118a9.81277,9.81277,0,0,1-.51581-3.124c0-.29346.03082-.58453.057-.876H35a2,2,0,0,0,0,4Z"/><path d="M35,74h2.93988a9.81918,9.81918,0,0,1-.92883-4H35a2,2,0,0,0,0,4Z"/><path d="M93,70H90.989a9.81918,9.81918,0,0,1-.92883,4H93a2,2,0,0,0,0-4Z"/><path d="M35,66h2.011a9.81913,9.81913,0,0,1,.92877-4H35a2,2,0,0,0,0,4Z"/><path d="M93,62H90.06018a9.81936,9.81936,0,0,1,.92877,4H93a2,2,0,0,0,0-4Z"/><path d="M35,58h5.81244c-.02618-.29144-.05707-.58264-.05707-.876A9.81285,9.81285,0,0,1,41.2713,54H35a2,2,0,0,0,0,4Z"/><path d="M93,54H86.72876a9.81423,9.81423,0,0,1,.51587,3.124c0,.29333-.03088.58453-.05707.876H93a2,2,0,0,0,0-4Z"/><path d="M33,48a2.0001,2.0001,0,0,0,2,2h8.8158l2.372-2.372a9.84915,9.84915,0,0,1,2.16-1.628H35A2.0001,2.0001,0,0,0,33,48Z"/><path d="M93,46H79.652a9.85369,9.85369,0,0,1,2.16077,1.6286L84.1842,50H93a2,2,0,0,0,0-4Z"/><path d="M93,38H35a2,2,0,0,0,0,4H57.85956a9.82972,9.82972,0,0,1,4.33087-1h3.61914a9.82972,9.82972,0,0,1,4.33087,1H93a2,2,0,0,0,0-4Z"/><path d="M81.543,53.01605l-2.559-2.559a5.81848,5.81848,0,0,0-6.838-1.02338q-.38708-.17038-.7807-.32422A5.82007,5.82007,0,0,0,65.80951,45h-3.619a5.81994,5.81994,0,0,0-5.55579,4.10944q-.39359.15381-.78076.32422a5.81848,5.81848,0,0,0-6.83777,1.02319L46.457,53.01605a5.81992,5.81992,0,0,0-1.02222,6.83527q-.17093.38828-.32538.78333A5.82015,5.82015,0,0,0,41,66.19049v3.619a5.82,5.82,0,0,0,4.10944,5.55579q.15381.39359.32422.78076a5.81857,5.81857,0,0,0,1.0235,6.838l2.5589,2.5589a5.81847,5.81847,0,0,0,6.83783,1.02344q.38708.17038.78082.32422A5.82,5.82,0,0,0,62.19049,91h3.619a5.82015,5.82015,0,0,0,5.55585-4.10944q.39359-.15381.78076-.32422A5.81857,5.81857,0,0,0,78.98395,85.543l2.559-2.55908a5.81857,5.81857,0,0,0,1.02338-6.83783q.17038-.38708.32422-.78076A5.82,5.82,0,0,0,87,69.80951v-3.619a5.82015,5.82015,0,0,0-4.10944-5.55585q-.15427-.39468-.32538-.78333A5.81983,5.81983,0,0,0,81.543,53.01605ZM83,66.19049v3.619A1.80952,1.80952,0,0,1,81.19049,71.619H79.86816a16.16857,16.16857,0,0,1-2.092,5.03906l.93835.93835a1.80948,1.80948,0,0,1,0,2.559l-2.559,2.55908a1.80956,1.80956,0,0,1-2.559,0l-.93835-.93835a16.16833,16.16833,0,0,1-5.03906,2.092v1.32233A1.80957,1.80957,0,0,1,65.80951,87h-3.619A1.80952,1.80952,0,0,1,60.381,85.19049V83.86816a16.16806,16.16806,0,0,1-5.03912-2.092l-.93829.93835a1.80963,1.80963,0,0,1-2.55908,0l-2.559-2.55908a1.80948,1.80948,0,0,1,0-2.559l.93835-.93835a16.16857,16.16857,0,0,1-2.092-5.03906H46.80951A1.80952,1.80952,0,0,1,45,69.80951v-3.619a1.80953,1.80953,0,0,1,1.80951-1.80957h1.32233a16.16978,16.16978,0,0,1,2.092-5.03906l-.93835-.93835a1.80948,1.80948,0,0,1,0-2.559l2.559-2.55908a1.80963,1.80963,0,0,1,2.55908,0l.93835.93842a16.16712,16.16712,0,0,1,5.03906-2.092V50.80951A1.80948,1.80948,0,0,1,62.19049,49h3.619a1.80953,1.80953,0,0,1,1.80957,1.80951v1.32233a16.16739,16.16739,0,0,1,5.039,2.092l.93842-.93842a1.80956,1.80956,0,0,1,2.559,0l2.559,2.55908a1.80948,1.80948,0,0,1,0,2.559l-.93835.93835a16.16978,16.16978,0,0,1,2.092,5.03906h1.32233A1.80953,1.80953,0,0,1,83,66.19049Z"/><path d="M64,58A10,10,0,1,0,74,68,10.0113,10.0113,0,0,0,64,58Zm0,16a6,6,0,1,1,6-6A6,6,0,0,1,64,74Z"/></svg>
