<svg width="30" height="30" viewBox="0 0 30 30" fill="none" xmlns="http://www.w3.org/2000/svg">
<mask id="mask0_401_2317" style="mask-type:luminance" maskUnits="userSpaceOnUse" x="4" y="4" width="22" height="22">
<path d="M4 4H26V26H4V4Z" fill="white"/>
</mask>
<g mask="url(#mask0_401_2317)">
<path d="M17.0711 6.97695C17.8308 7.17302 18.5485 7.47401 19.2075 7.86374C19.2075 7.86374 19.525 7.54616 19.8815 7.18956C20.1405 6.93037 20.4918 6.78501 20.8581 6.78501C21.2239 6.78501 21.5754 6.93037 21.8343 7.18956C22.1484 7.5037 22.4963 7.85162 22.8104 8.16577C23.0697 8.42465 23.215 8.77605 23.215 9.14193C23.215 9.5082 23.0697 9.85955 22.8104 10.1184C22.4538 10.475 22.1363 10.7926 22.1363 10.7926C22.526 11.4515 22.827 12.1692 23.0231 12.9289H23.9747C24.7372 12.9289 25.3555 13.5472 25.3555 14.3097V15.6904C25.3555 16.4529 24.7372 17.0711 23.9747 17.0711H23.0231C22.827 17.8309 22.526 18.5485 22.1363 19.2074C22.1363 19.2074 22.4538 19.525 22.8104 19.8816C23.0697 20.1405 23.215 20.4919 23.215 20.8581C23.215 21.224 23.0697 21.5754 22.8104 21.8343C22.4963 22.1484 22.1484 22.4964 21.8343 22.8105C21.5754 23.0697 21.2239 23.215 20.8581 23.215C20.4918 23.215 20.1405 23.0697 19.8815 22.8105C19.525 22.4539 19.2075 22.1363 19.2075 22.1363C18.5485 22.526 17.8308 22.827 17.0711 23.0231V23.9747C17.0711 24.7373 16.4529 25.3555 15.6903 25.3555H14.3096C13.5471 25.3555 12.9289 24.7373 12.9289 23.9747V23.0231C12.1692 22.827 11.4515 22.526 10.7925 22.1363C10.7925 22.1363 10.475 22.4539 10.1184 22.8105C9.85952 23.0697 9.50812 23.215 9.1419 23.215C8.77602 23.215 8.42458 23.0697 8.16573 22.8105C7.85163 22.4964 7.50367 22.1484 7.18953 21.8343C6.93034 21.5754 6.78498 21.224 6.78498 20.8581C6.78498 20.4919 6.93034 20.1405 7.18953 19.8816C7.54613 19.525 7.86371 19.2074 7.86371 19.2074C7.47398 18.5485 7.17303 17.8309 6.97692 17.0711H6.02529C5.26277 17.0711 4.64453 16.4529 4.64453 15.6904V14.3097C4.64453 13.5472 5.26277 12.9289 6.02529 12.9289H6.97692C7.17303 12.1692 7.47398 11.4515 7.86371 10.7926C7.86371 10.7926 7.54613 10.475 7.18953 10.1184C6.93034 9.85955 6.78498 9.5082 6.78498 9.14193C6.78498 8.77605 6.93034 8.42465 7.18953 8.16577C7.50367 7.85162 7.85163 7.5037 8.16573 7.18956C8.42458 6.93037 8.77602 6.78501 9.1419 6.78501C9.50812 6.78501 9.85952 6.93037 10.1184 7.18956C10.475 7.54616 10.7925 7.86374 10.7925 7.86374C11.4515 7.47401 12.1692 7.17302 12.9289 6.97695V6.02528C12.9289 5.26275 13.5471 4.64456 14.3096 4.64456H15.6903C16.4529 4.64456 17.0711 5.26275 17.0711 6.02528V6.97695Z" stroke="#797B7E" stroke-width="1.4" stroke-miterlimit="10" stroke-linecap="round" stroke-linejoin="round"/>
<path d="M15.0001 10.8578C17.2862 10.8578 19.1423 12.7139 19.1423 15C19.1423 17.2861 17.2862 19.1422 15.0001 19.1422C12.7139 19.1422 10.8579 17.2861 10.8579 15C10.8579 12.7139 12.7139 10.8578 15.0001 10.8578Z" stroke="#797B7E" stroke-width="1.4" stroke-miterlimit="10" stroke-linecap="round" stroke-linejoin="round"/>
</g>
</svg>
