<svg width="30" height="30" viewBox="0 0 30 30" fill="none" xmlns="http://www.w3.org/2000/svg">
<path fill-rule="evenodd" clip-rule="evenodd" d="M18.6542 3.99994L23.6976 9.04333V25.1081C23.6976 25.5986 23.2962 26 22.8057 26H7.19512C6.70459 26 6.30322 25.5987 6.30322 25.1081V4.89179C6.30322 4.40126 6.70454 3.99994 7.19512 3.99994H18.6542Z" stroke="#797B7E" stroke-miterlimit="2.6131" stroke-linecap="round" stroke-linejoin="round"/>
<path d="M23.3657 9.04332H18.5459V4.22351" stroke="#797B7E" stroke-miterlimit="2.6131" stroke-linecap="round" stroke-linejoin="round"/>
<path d="M16.5891 11.3164C17.2489 9.01625 15.9191 6.61686 13.619 5.95713C11.319 5.2974 8.9196 6.62716 8.25987 8.92724C7.60014 11.2273 8.92991 13.6267 11.2299 14.2865C13.53 14.9462 15.9294 13.6164 16.5891 11.3164Z" stroke="#797B7E" stroke-miterlimit="2.6131" stroke-linecap="round" stroke-linejoin="round"/>
<path d="M11.3958 11.5528C10.6329 11.8074 10.0791 12.5299 10.0791 13.3755V13.5414M14.7696 13.5414V13.3755C14.7696 12.5299 14.2158 11.8074 13.4529 11.5528" stroke="#797B7E" stroke-miterlimit="2.6131" stroke-linecap="round" stroke-linejoin="round"/>
<path d="M21.9085 16.7886H14.9727M13.1841 16.7886H8.09131" stroke="#797B7E" stroke-miterlimit="2.6131" stroke-linecap="round" stroke-linejoin="round"/>
<path d="M15 21.2602H8.09131M8.09131 19.0244H17.1907M18.9793 19.0244H21.9085" stroke="#797B7E" stroke-miterlimit="2.6131" stroke-linecap="round" stroke-linejoin="round"/>
<path d="M18.1396 14.5528H21.9088" stroke="#797B7E" stroke-miterlimit="2.6131" stroke-linecap="round" stroke-linejoin="round"/>
<path fill-rule="evenodd" clip-rule="evenodd" d="M12.4247 8.00067C13.2679 8.00067 13.9578 8.69055 13.9578 9.53379V10.3004C13.9578 11.1436 13.2679 11.8335 12.4247 11.8335C11.5815 11.8335 10.8916 11.1436 10.8916 10.3004V9.53379C10.8916 8.69059 11.5815 8.00067 12.4247 8.00067Z" stroke="#797B7E" stroke-miterlimit="22.9256" stroke-linecap="round" stroke-linejoin="round"/>
</svg>
