<svg id="Icon" viewBox="0 0 24 24" xmlns="http://www.w3.org/2000/svg"><path d="m21 16.25h-.672c-.087-.386-.241-.746-.447-1.07l.476-.477c.293-.293.293-.768 0-1.061s-.768-.293-1.061 0l-.476.477c-.325-.206-.684-.36-1.07-.447v-.672c0-.414-.336-.75-.75-.75s-.75.336-.75.75v.672c-.386.087-.745.241-1.07.447l-.476-.477c-.293-.293-.768-.293-1.061 0s-.293.768 0 1.061l.476.477c-.206.325-.36.684-.447 1.07h-.672c-.414 0-.75.336-.75.75s.336.75.75.75h.672c.087.386.241.746.447 1.07l-.476.477c-.293.293-.293.768 0 1.061.146.146.338.22.53.22s.384-.073.53-.22l.476-.477c.325.206.684.36 1.07.447v.672c0 .414.336.75.75.75s.75-.336.75-.75v-.672c.386-.087.745-.241 1.07-.447l.476.477c.146.146.338.22.53.22s.384-.073.53-.22c.293-.293.293-.768 0-1.061l-.476-.477c.206-.325.36-.684.447-1.07h.672c.414 0 .75-.336.75-.75s-.336-.75-.75-.75zm-2.65 2.1c-.006.006-.008.014-.013.02-.346.337-.816.547-1.336.547s-.991-.21-1.336-.547c-.006-.006-.008-.014-.013-.02s-.014-.008-.02-.013c-.337-.346-.547-.817-.547-1.336s.21-.99.547-1.336c.006-.006.014-.007.02-.013s.008-.014.013-.02c.346-.337.816-.547 1.336-.547s.991.21 1.336.547c.006.006.008.014.013.02s.014.008.02.013c.337.346.547.816.547 1.336s-.21.991-.547 1.336c-.006.006-.014.007-.02.013zm-6.35-6.6c-2.619 0-4.75-2.131-4.75-4.75s2.131-4.75 4.75-4.75 4.75 2.131 4.75 4.75-2.131 4.75-4.75 4.75zm0-8c-1.792 0-3.25 1.458-3.25 3.25s1.458 3.25 3.25 3.25 3.25-1.458 3.25-3.25-1.458-3.25-3.25-3.25zm-.28 17.25c0-.414-.336-.75-.75-.75h-4.97c-.689 0-1.25-.561-1.25-1.25 0-2.344 1.907-4.25 4.25-4.25h2c.414 0 .75-.336.75-.75s-.336-.75-.75-.75h-2c-3.17 0-5.75 2.579-5.75 5.75 0 1.517 1.233 2.75 2.75 2.75h4.97c.414 0 .75-.336.75-.75z"/></svg>