<svg width="512" height="511" viewBox="0 0 512 511" fill="none" xmlns="http://www.w3.org/2000/svg">
<path d="M67.1797 68.3945H67.0781C61.5547 68.3945 57.0781 72.8711 57.0781 78.3945C57.0781 83.918 61.5547 88.3945 67.0781 88.3945H67.1797C72.7031 88.3945 77.1797 83.918 77.1797 78.3945C77.1797 72.8711 72.7031 68.3945 67.1797 68.3945Z" fill="#797B7E"/>
<path d="M116.711 68.3945H116.609C111.086 68.3945 106.609 72.8711 106.609 78.3945C106.609 83.918 111.086 88.3945 116.609 88.3945H116.711C122.234 88.3945 126.711 83.918 126.711 78.3945C126.711 72.8711 122.234 68.3945 116.711 68.3945Z" fill="#797B7E"/>
<path d="M166.242 68.3945H166.141C160.617 68.3945 156.141 72.8711 156.141 78.3945C156.141 83.918 160.617 88.3945 166.141 88.3945H166.242C171.766 88.3945 176.242 83.918 176.242 78.3945C176.242 72.8711 171.766 68.3945 166.242 68.3945Z" fill="#797B7E"/>
<path d="M444.309 68.3945H251.379C245.855 68.3945 241.379 72.8711 241.379 78.3945C241.379 83.9141 245.855 88.3945 251.379 88.3945H444.309C449.832 88.3945 454.309 83.9141 454.309 78.3945C454.309 72.8711 449.832 68.3945 444.309 68.3945Z" fill="#797B7E"/>
<path d="M262.891 472.438C260.262 472.438 257.691 473.508 255.82 475.367C253.961 477.227 252.891 479.809 252.891 482.438C252.891 485.066 253.961 487.648 255.82 489.508C257.691 491.367 260.262 492.438 262.891 492.438C265.52 492.438 268.102 491.367 269.961 489.508C271.828 487.648 272.891 485.066 272.891 482.438C272.891 479.809 271.828 477.227 269.961 475.367C268.102 473.508 265.52 472.438 262.891 472.438Z" fill="#797B7E"/>
<path d="M480.23 20.5H31.7695C14.2539 20.5 0 34.7539 0 52.2695V460.668C0 478.188 14.2539 492.438 31.7695 492.438H221C226.523 492.438 231 487.961 231 482.438C231 476.914 226.523 472.438 221 472.438H31.7695C25.2813 472.438 20 467.16 20 460.668V136.289H492V460.668C492 467.156 486.719 472.438 480.23 472.438H303.668C298.145 472.438 293.668 476.914 293.668 482.438C293.668 487.961 298.145 492.438 303.668 492.438H480.23C497.746 492.438 512 478.188 512 460.668V52.2695C512 34.7539 497.746 20.5 480.23 20.5ZM20 116.285V52.2695C20 45.7813 25.2813 40.5 31.7695 40.5H480.23C486.719 40.5 492 45.7813 492 52.2695V116.289H20V116.285Z" fill="#797B7E"/>
<path d="M178.039 250.5C178.039 230.648 161.891 214.5 142.039 214.5H108.371C102.848 214.5 98.3711 218.977 98.3711 224.5V328.5C98.3711 334.023 102.848 338.5 108.371 338.5H142.039C161.891 338.5 178.039 322.352 178.039 302.5C178.039 292.285 173.758 283.059 166.898 276.5C173.758 269.941 178.039 260.715 178.039 250.5ZM158.039 302.5C158.039 311.32 150.859 318.5 142.039 318.5H118.371V286.5H142.039C150.859 286.5 158.039 293.676 158.039 302.5ZM118.371 266.5V234.5H142.039C150.863 234.5 158.039 241.68 158.039 250.5C158.039 259.32 150.863 266.5 142.039 266.5H118.371Z" fill="#797B7E"/>
<path d="M206.648 214.5C201.125 214.5 196.648 218.977 196.648 224.5V305.371C196.648 323.641 211.512 338.5 229.777 338.5C235.301 338.5 239.777 334.023 239.777 328.5C239.777 322.977 235.301 318.5 229.777 318.5C222.539 318.5 216.648 312.609 216.648 305.371V224.5C216.648 218.977 212.172 214.5 206.648 214.5Z" fill="#797B7E"/>
<path d="M324.867 302.289C324.867 282.32 308.625 266.074 288.656 266.074C268.688 266.074 252.445 282.32 252.445 302.289C252.445 322.258 268.691 338.5 288.656 338.5C308.625 338.5 324.867 322.258 324.867 302.289ZM272.445 302.289C272.445 293.348 279.719 286.074 288.656 286.074C297.594 286.074 304.867 293.348 304.867 302.289C304.867 311.227 297.598 318.5 288.656 318.5C279.715 318.5 272.445 311.227 272.445 302.289Z" fill="#797B7E"/>
<path d="M377.414 366.5C368.477 366.5 361.203 359.227 361.203 350.289C361.203 344.766 356.727 340.289 351.203 340.289C345.68 340.289 341.203 344.766 341.203 350.289C341.203 370.258 357.449 386.5 377.414 386.5C397.383 386.5 413.629 370.258 413.629 350.289V302.289C413.629 282.32 397.383 266.074 377.414 266.074C357.449 266.074 341.203 282.32 341.203 302.289C341.203 322.258 357.449 338.5 377.414 338.5C383.242 338.5 388.746 337.109 393.629 334.652V350.289C393.629 359.227 386.355 366.5 377.414 366.5ZM377.414 318.5C368.477 318.5 361.203 311.227 361.203 302.289C361.203 293.348 368.477 286.074 377.414 286.074C386.355 286.074 393.629 293.348 393.629 302.289C393.629 311.227 386.355 318.5 377.414 318.5Z" fill="#797B7E"/>
<path d="M108.371 436.5H403.629C409.152 436.5 413.629 432.023 413.629 426.5C413.629 420.977 409.152 416.5 403.629 416.5H108.371C102.852 416.5 98.3711 420.977 98.3711 426.5C98.3711 432.023 102.852 436.5 108.371 436.5Z" fill="#797B7E"/>
</svg>
