<svg width="512" height="512" viewBox="0 0 512 512" fill="none" xmlns="http://www.w3.org/2000/svg">
<path d="M100 323.265H160C171.046 323.265 180 314.311 180 303.265C180 292.219 171.046 283.265 160 283.265H100C88.954 283.265 80 292.219 80 303.265C80 314.311 88.954 323.265 100 323.265Z" fill="#797B7E"/>
<path d="M100 243.265H160C171.046 243.265 180 234.311 180 223.265C180 212.219 171.046 203.265 160 203.265H100C88.954 203.265 80 212.219 80 223.265C80 234.311 88.954 243.265 100 243.265Z" fill="#797B7E"/>
<path d="M217.441 303.265C217.441 314.311 226.395 323.265 237.441 323.265C279.262 323.265 318.58 306.979 348.152 277.407L494.412 131.133C517.86 107.686 517.864 69.731 494.412 46.28C471.019 22.886 432.954 22.886 409.559 46.28L263.299 192.554C233.728 222.127 217.441 261.444 217.441 303.265ZM437.845 74.565C445.641 66.767 458.331 66.767 466.128 74.565C473.944 82.379 473.947 95.032 466.128 102.849L319.867 249.123C303.148 265.843 282.243 276.858 259.515 281.191C263.848 258.464 274.864 237.559 291.582 220.839L437.845 74.565Z" fill="#797B7E"/>
<path d="M60 483.265C74.776 483.265 88.978 477.843 99.992 467.995L127.639 443.265H332C387.141 443.265 432 398.405 432 343.265V298.402C432 287.356 423.046 278.402 412 278.402C400.954 278.402 392 287.356 392 298.402V343.265C392 376.349 365.084 403.265 332 403.265H120C115.08 403.265 110.333 405.078 106.666 408.358L73.328 438.179C69.659 441.459 64.926 443.265 60 443.265C48.972 443.265 40 434.293 40 423.265V183.265C40 150.181 66.916 123.265 100 123.265H267.749C278.795 123.265 287.749 114.311 287.749 103.265C287.749 92.219 278.795 83.265 267.749 83.265H100C44.859 83.265 0 128.125 0 183.265V423.265C0 456.349 26.916 483.265 60 483.265Z" fill="#797B7E"/>
</svg>
