<svg width="512" height="512" viewBox="0 0 512 512" fill="none" xmlns="http://www.w3.org/2000/svg">
<g clip-path="url(#clip0_426_2263)">
<mask id="mask0_426_2263" style="mask-type:luminance" maskUnits="userSpaceOnUse" x="0" y="0" width="512" height="512">
<path d="M512 0H0V512H512V0Z" fill="white"/>
</mask>
<g mask="url(#mask0_426_2263)">
<path d="M502.901 96.8288C496.267 88.9868 486.977 84.1969 476.74 83.3419L116.185 53.236C105.947 52.381 95.9926 55.564 88.1497 62.1969C80.3387 68.8039 75.5557 78.0469 74.6737 88.2338L67.4197 156.29H38.4549C17.2509 156.29 0 173.54 0 194.744V420.446C0 441.649 17.2509 458.9 38.4549 458.9H400.266C421.471 458.9 438.722 441.649 438.722 420.446V383.833L451.561 384.905C452.644 384.995 453.721 385.04 454.789 385.04C474.557 385.04 491.409 369.831 493.083 349.783L511.864 124.865C512.718 114.628 509.535 104.672 502.901 96.8288ZM38.4549 176.289H400.266C410.442 176.289 418.722 184.568 418.722 194.744V215.31H19.9999V194.744C19.9999 184.568 28.2789 176.289 38.4549 176.289ZM19.9999 235.31H418.722V276.799H19.9999V235.31ZM400.266 438.9H38.4549C28.2789 438.9 19.9999 430.621 19.9999 420.446V296.799H418.722V420.446C418.722 430.621 410.442 438.9 400.266 438.9ZM491.933 123.2L473.152 348.118C472.305 358.259 463.364 365.824 453.225 364.974L438.722 363.763V194.744C438.722 173.54 421.471 156.29 400.266 156.29H87.5337L94.5726 90.2498C94.5806 90.1738 94.5876 90.0988 94.5936 90.0218C95.4406 79.8809 104.377 72.3169 114.521 73.1669L475.077 103.273C479.99 103.683 484.449 105.982 487.632 109.746C490.815 113.51 492.343 118.287 491.933 123.2Z" fill="#797B7E"/>
<path d="M376.872 326.531H280.63C275.107 326.531 270.63 331.008 270.63 336.531V399.32C270.63 404.843 275.107 409.32 280.63 409.32H376.872C382.395 409.32 386.872 404.843 386.872 399.32V336.531C386.872 331.008 382.395 326.531 376.872 326.531ZM366.872 389.32H290.63V346.531H366.872V389.32Z" fill="#797B7E"/>
</g>
</g>
<defs>
<clipPath id="clip0_426_2263">
<rect width="512" height="512" fill="white"/>
</clipPath>
</defs>
</svg>
