<svg width="128" height="128" viewBox="0 0 128 128" fill="none" xmlns="http://www.w3.org/2000/svg">
<g clip-path="url(#clip0_426_2236)">
<mask id="mask0_426_2236" style="mask-type:luminance" maskUnits="userSpaceOnUse" x="0" y="0" width="128" height="128">
<path d="M128 0H0V128H128V0Z" fill="white"/>
</mask>
<g mask="url(#mask0_426_2236)">
<path d="M109 122V26C109 25.8704 108.987 25.741 108.962 25.6139L108.961 25.609C108.925 25.4408 108.867 25.278 108.789 25.1246C108.77 25.085 108.749 25.0474 108.727 25.009C108.642 24.8547 108.537 24.7125 108.414 24.586L84.4141 0.58598C84.2877 0.463427 84.1455 0.358216 83.9913 0.27311C83.9529 0.25111 83.9152 0.23057 83.8755 0.21122C83.7223 0.133065 83.5595 0.0751093 83.3913 0.0388L83.3859 0.03821C83.2588 0.0129934 83.1296 0.000196546 83 0H25C23.4092 0.00173639 21.8841 0.634435 20.7593 1.75928C19.6344 2.88412 19.0017 4.40923 19 6V122C19.0017 123.591 19.6344 125.116 20.7593 126.241C21.8841 127.366 23.4092 127.998 25 128H103C104.591 127.998 106.116 127.366 107.241 126.241C108.366 125.116 108.998 123.591 109 122ZM85 6.82861L102.171 24H87C86.4697 23.9995 85.9613 23.7886 85.5864 23.4136C85.2114 23.0387 85.0005 22.5303 85 22V6.82861ZM23 122V6C23.0005 5.46973 23.2114 4.96133 23.5864 4.58637C23.9613 4.21141 24.4697 4.00053 25 4H81V22C81.0017 23.5908 81.6344 25.1159 82.7593 26.2407C83.8841 27.3656 85.4092 27.9983 87 28H105V122C104.999 122.53 104.789 123.039 104.414 123.414C104.039 123.789 103.53 123.999 103 124H25C24.4697 123.999 23.9613 123.789 23.5864 123.414C23.2114 123.039 23.0005 122.53 23 122Z" fill="#797B7E"/>
<path d="M93 94H70.1404C68.7921 94.6596 67.3106 95.0017 65.8096 95H62.1904C60.6894 95.0017 59.2079 94.6596 57.8596 94H35C34.4696 94 33.9609 94.2107 33.5858 94.5858C33.2107 94.9609 33 95.4696 33 96C33 96.5304 33.2107 97.0391 33.5858 97.4142C33.9609 97.7893 34.4696 98 35 98H93C93.5304 98 94.0391 97.7893 94.4142 97.4142C94.7893 97.0391 95 96.5304 95 96C95 95.4696 94.7893 94.9609 94.4142 94.5858C94.0391 94.2107 93.5304 94 93 94Z" fill="#797B7E"/>
<path d="M35 90H48.3481C47.5561 89.5589 46.8288 89.0107 46.1866 88.3708L43.8167 86H35C34.4696 86 33.9609 86.2107 33.5858 86.5858C33.2107 86.9609 33 87.4696 33 88C33 88.5304 33.2107 89.0391 33.5858 89.4142C33.9609 89.7893 34.4696 90 35 90Z" fill="#797B7E"/>
<path d="M93.0003 86H84.184L81.8131 88.3708C81.1712 89.0107 80.4441 89.559 79.6523 90H93.0003C93.5307 90 94.0394 89.7893 94.4145 89.4142C94.7895 89.0391 95.0003 88.5304 95.0003 88C95.0003 87.4696 94.7895 86.9609 94.4145 86.5858C94.0394 86.2107 93.5307 86 93.0003 86Z" fill="#797B7E"/>
<path d="M92.9999 78H87.1875C87.2137 78.2914 87.2445 78.5825 87.2445 78.876C87.2428 79.9384 87.0685 80.9935 86.7285 82H92.9999C93.5303 82 94.039 81.7893 94.4141 81.4142C94.7892 81.0391 94.9999 80.5304 94.9999 80C94.9999 79.4696 94.7892 78.9609 94.4141 78.5858C94.039 78.2107 93.5303 78 92.9999 78Z" fill="#797B7E"/>
<path d="M35 82H41.2712C40.9313 80.9935 40.7571 79.9384 40.7554 78.876C40.7554 78.5825 40.7862 78.2915 40.8124 78H35C34.4696 78 33.9609 78.2107 33.5858 78.5858C33.2107 78.9609 33 79.4696 33 80C33 80.5304 33.2107 81.0391 33.5858 81.4142C33.9609 81.7893 34.4696 82 35 82Z" fill="#797B7E"/>
<path d="M35 74H37.9399C37.3518 72.747 37.0353 71.3839 37.0111 70H35C34.4696 70 33.9609 70.2107 33.5858 70.5858C33.2107 70.9609 33 71.4696 33 72C33 72.5304 33.2107 73.0391 33.5858 73.4142C33.9609 73.7893 34.4696 74 35 74Z" fill="#797B7E"/>
<path d="M93.0004 70H90.9893C90.9651 71.3839 90.6485 72.747 90.0605 74H93.0004C93.5308 74 94.0395 73.7893 94.4146 73.4142C94.7897 73.0391 95.0004 72.5304 95.0004 72C95.0004 71.4696 94.7897 70.9609 94.4146 70.5858C94.0395 70.2107 93.5308 70 93.0004 70Z" fill="#797B7E"/>
<path d="M35 66H37.011C37.0352 64.6161 37.3517 63.253 37.9398 62H35C34.4696 62 33.9609 62.2107 33.5858 62.5858C33.2107 62.9609 33 63.4696 33 64C33 64.5304 33.2107 65.0391 33.5858 65.4142C33.9609 65.7893 34.4696 66 35 66Z" fill="#797B7E"/>
<path d="M93.0004 62H90.0605C90.6485 63.253 90.9651 64.6161 90.9893 66H93.0004C93.5308 66 94.0395 65.7893 94.4146 65.4142C94.7897 65.0391 95.0004 64.5304 95.0004 64C95.0004 63.4696 94.7897 62.9609 94.4146 62.5858C94.0395 62.2107 93.5308 62 93.0004 62Z" fill="#797B7E"/>
<path d="M35 58H40.8124C40.7863 57.7086 40.7554 57.4174 40.7554 57.124C40.7571 56.0616 40.9313 55.0065 41.2713 54H35C34.4696 54 33.9609 54.2107 33.5858 54.5858C33.2107 54.9609 33 55.4696 33 56C33 56.5304 33.2107 57.0391 33.5858 57.4142C33.9609 57.7893 34.4696 58 35 58Z" fill="#797B7E"/>
<path d="M92.9998 54H86.7285C87.0684 55.0065 87.2426 56.0616 87.2444 57.124C87.2444 57.4173 87.2135 57.7085 87.1873 58H92.9998C93.5302 58 94.0389 57.7893 94.414 57.4142C94.789 57.0391 94.9998 56.5304 94.9998 56C94.9998 55.4696 94.789 54.9609 94.414 54.5858C94.0389 54.2107 93.5302 54 92.9998 54Z" fill="#797B7E"/>
<path d="M33 48C33 48.5304 33.2107 49.0391 33.5858 49.4142C33.9609 49.7893 34.4696 50 35 50H43.8158L46.1878 47.628C46.8295 46.9886 47.5564 46.4407 48.3478 46H35C34.4696 46 33.9609 46.2107 33.5858 46.5858C33.2107 46.9609 33 47.4696 33 48Z" fill="#797B7E"/>
<path d="M93.0003 46H79.6523C80.444 46.4409 81.1711 46.989 81.813 47.6286L84.1845 50H93.0003C93.5307 50 94.0394 49.7893 94.4145 49.4142C94.7895 49.0391 95.0003 48.5304 95.0003 48C95.0003 47.4696 94.7895 46.9609 94.4145 46.5858C94.0394 46.2107 93.5307 46 93.0003 46Z" fill="#797B7E"/>
<path d="M93 38H35C34.4696 38 33.9609 38.2107 33.5858 38.5858C33.2107 38.9609 33 39.4696 33 40C33 40.5304 33.2107 41.0391 33.5858 41.4142C33.9609 41.7893 34.4696 42 35 42H57.8596C59.2079 41.3404 60.6894 40.9983 62.1904 41H65.8096C67.3106 40.9983 68.7921 41.3404 70.1404 42H93C93.5304 42 94.0391 41.7893 94.4142 41.4142C94.7893 41.0391 95 40.5304 95 40C95 39.4696 94.7893 38.9609 94.4142 38.5858C94.0391 38.2107 93.5304 38 93 38Z" fill="#797B7E"/>
<path d="M81.543 53.016L78.984 50.4571C78.1035 49.5776 76.9642 49.0037 75.7335 48.8195C74.5028 48.6353 73.2454 48.8506 72.146 49.4337C71.888 49.3201 71.6277 49.212 71.3653 49.1095C70.9998 47.9208 70.2631 46.8804 69.2633 46.1409C68.2635 45.4014 67.0531 45.0015 65.8095 45H62.1905C60.9469 45.0015 59.7365 45.4013 58.7367 46.1409C57.7369 46.8804 57.0002 47.9208 56.6347 49.1094C56.3723 49.212 56.1121 49.3201 55.854 49.4337C54.7546 48.8506 53.4973 48.6353 52.2666 48.8195C51.0359 49.0037 49.8967 49.5775 49.0162 50.4568L46.457 53.016C45.5786 53.8966 45.0054 55.0354 44.8214 56.2655C44.6375 57.4956 44.8524 58.7523 45.4348 59.8513C45.3208 60.1102 45.2124 60.3713 45.1094 60.6347C43.9207 61.0002 42.8804 61.7368 42.1409 62.7367C41.4014 63.7365 41.0015 64.9469 41 66.1905V69.8095C41.0015 71.0531 41.4014 72.2635 42.1409 73.2633C42.8804 74.2631 43.9208 74.9998 45.1094 75.3653C45.212 75.6277 45.3201 75.8879 45.4337 76.146C44.8506 77.2454 44.6354 78.5028 44.8196 79.7336C45.0038 80.9643 45.5777 82.1035 46.4572 82.984L49.0161 85.5429C49.8965 86.4223 51.0358 86.9962 52.2665 87.1804C53.4972 87.3646 54.7545 87.1494 55.8539 86.5664C56.1119 86.68 56.3722 86.788 56.6347 86.8906C57.0002 88.0793 57.7369 89.1196 58.7367 89.8591C59.7365 90.5986 60.9469 90.9985 62.1905 91H65.8095C67.0531 90.9985 68.2635 90.5986 69.2633 89.8591C70.2632 89.1196 70.9998 88.0792 71.3653 86.8906C71.6277 86.788 71.888 86.6799 72.1461 86.5663C73.2455 87.1494 74.5028 87.3646 75.7335 87.1804C76.9642 86.9963 78.1034 86.4224 78.9839 85.543L81.543 82.9839C82.4223 82.1034 82.9962 80.9642 83.1804 79.7335C83.3646 78.5028 83.1494 77.2455 82.5663 76.1461C82.6799 75.888 82.788 75.6278 82.8905 75.3653C84.0792 74.9998 85.1196 74.2632 85.8591 73.2634C86.5986 72.2635 86.9985 71.0531 87 69.8095V66.1905C86.9985 64.9469 86.5986 63.7365 85.8591 62.7367C85.1196 61.7368 84.0792 61.0002 82.8906 60.6347C82.7877 60.3715 82.6793 60.1104 82.5652 59.8513C83.1476 58.7523 83.3625 57.4956 83.1786 56.2655C82.9946 55.0354 82.4214 53.8966 81.543 53.016ZM83 66.1905V69.8095C83 70.2894 82.8093 70.7497 82.47 71.089C82.1307 71.4284 81.6704 71.619 81.1905 71.619H79.8682C79.4613 73.4051 78.7539 75.109 77.7762 76.6581L78.7145 77.5964C78.8825 77.7644 79.0158 77.9639 79.1068 78.1834C79.1977 78.403 79.2445 78.6383 79.2445 78.8759C79.2445 79.1135 79.1977 79.3488 79.1068 79.5684C79.0158 79.7879 78.8825 79.9874 78.7145 80.1554L76.1555 82.7145C75.8162 83.0538 75.3559 83.2444 74.876 83.2444C74.3961 83.2444 73.9359 83.0538 73.5965 82.7145L72.6582 81.7761C71.1091 82.7539 69.4052 83.4613 67.6191 83.8681V85.1905C67.6191 85.6704 67.4284 86.1307 67.0891 86.47C66.7497 86.8094 66.2894 87 65.8095 87H62.1905C61.7106 87 61.2503 86.8093 60.911 86.47C60.5716 86.1307 60.381 85.6704 60.381 85.1905V83.8682C58.5949 83.4613 56.8909 82.7539 55.3419 81.7762L54.4036 82.7145C54.0642 83.0538 53.604 83.2445 53.1241 83.2445C52.6441 83.2445 52.1839 83.0538 51.8445 82.7145L49.2855 80.1554C49.1175 79.9874 48.9842 79.7879 48.8933 79.5684C48.8023 79.3489 48.7555 79.1136 48.7555 78.8759C48.7555 78.6383 48.8023 78.403 48.8933 78.1835C48.9842 77.9639 49.1175 77.7645 49.2855 77.5964L50.2239 76.6581C49.2461 75.109 48.5387 73.4051 48.1319 71.619H46.8095C46.3296 71.619 45.8693 71.4284 45.53 71.089C45.1906 70.7497 45 70.2894 45 69.8095V66.1905C45 65.9529 45.0468 65.7176 45.1377 65.498C45.2287 65.2785 45.362 65.079 45.53 64.911C45.698 64.7429 45.8975 64.6096 46.117 64.5187C46.3366 64.4278 46.5719 64.3809 46.8095 64.3809H48.1318C48.5387 62.5949 49.2461 60.8909 50.2238 59.3419L49.2855 58.4035C49.1175 58.2355 48.9842 58.036 48.8932 57.8165C48.8023 57.597 48.7555 57.3617 48.7555 57.124C48.7555 56.8864 48.8023 56.6511 48.8932 56.4316C48.9842 56.212 49.1175 56.0126 49.2855 55.8445L51.8445 53.2854C52.1839 52.9461 52.6441 52.7555 53.124 52.7555C53.6039 52.7555 54.0642 52.9461 54.4036 53.2854L55.3419 54.2239C56.891 53.2461 58.5949 52.5387 60.381 52.1319V50.8095C60.381 50.5719 60.4278 50.3366 60.5187 50.117C60.6096 49.8975 60.7429 49.698 60.911 49.53C61.079 49.362 61.2785 49.2287 61.498 49.1377C61.7176 49.0468 61.9529 49 62.1905 49H65.8095C66.0471 49 66.2824 49.0468 66.502 49.1377C66.7215 49.2287 66.921 49.362 67.089 49.53C67.2571 49.698 67.3904 49.8975 67.4813 50.117C67.5722 50.3366 67.6191 50.5719 67.6191 50.8095V52.1318C69.4051 52.5387 71.109 53.2461 72.6581 54.2238L73.5965 53.2854C73.9358 52.9461 74.3961 52.7555 74.876 52.7555C75.3559 52.7555 75.8161 52.9461 76.1555 53.2854L78.7145 55.8445C78.8825 56.0125 79.0158 56.212 79.1067 56.4315C79.1977 56.6511 79.2445 56.8864 79.2445 57.124C79.2445 57.3616 79.1977 57.5969 79.1067 57.8165C79.0158 58.036 78.8825 58.2355 78.7145 58.4035L77.7761 59.3419C78.7539 60.8909 79.4613 62.5949 79.8681 64.3809H81.1905C81.4281 64.3809 81.6634 64.4277 81.8829 64.5187C82.1025 64.6096 82.302 64.7429 82.47 64.9109C82.638 65.079 82.7713 65.2784 82.8623 65.498C82.9532 65.7175 83 65.9529 83 66.1905Z" fill="#797B7E"/>
<path d="M64 58C62.0222 58 60.0888 58.5865 58.4443 59.6853C56.7998 60.7841 55.5181 62.3459 54.7612 64.1732C54.0043 66.0004 53.8063 68.0111 54.1922 69.9509C54.578 71.8907 55.5304 73.6725 56.9289 75.0711C58.3275 76.4696 60.1093 77.422 62.0491 77.8079C63.9889 78.1937 65.9996 77.9957 67.8268 77.2388C69.6541 76.4819 71.2159 75.2002 72.3147 73.5557C73.4135 71.9112 74 69.9778 74 68C73.997 65.3488 72.9425 62.807 71.0678 60.9322C69.1931 59.0575 66.6513 58.003 64 58ZM64 74C62.8133 74 61.6533 73.6481 60.6666 72.9888C59.6799 72.3295 58.9109 71.3925 58.4567 70.2961C58.0026 69.1997 57.8838 67.9933 58.1153 66.8295C58.3468 65.6656 58.9182 64.5965 59.7574 63.7574C60.5965 62.9182 61.6656 62.3468 62.8295 62.1153C63.9933 61.8838 65.1997 62.0026 66.2961 62.4567C67.3925 62.9108 68.3295 63.6799 68.9888 64.6666C69.6481 65.6533 70 66.8133 70 68C70 69.5913 69.3679 71.1174 68.2426 72.2426C67.1174 73.3679 65.5913 74 64 74Z" fill="#797B7E"/>
</g>
</g>
<defs>
<clipPath id="clip0_426_2236">
<rect width="128" height="128" fill="white"/>
</clipPath>
</defs>
</svg>
