<svg width="218" height="218" viewBox="0 0 218 218" fill="none" xmlns="http://www.w3.org/2000/svg">
<path d="M179.479 38.1921C182.048 40.7609 183.701 44.9119 183.605 51.2514C183.508 57.6197 181.624 65.5949 177.8 74.7393C170.165 92.9951 155.346 114.608 134.976 134.976L144.611 144.611C165.918 123.304 181.897 100.256 190.37 79.9959C194.599 69.8822 197.096 60.1354 197.228 51.4592C197.361 42.7541 195.094 34.5378 189.113 28.5578L179.479 38.1921ZM134.976 134.976C114.608 155.346 92.9951 170.165 74.7394 177.8C65.595 181.624 57.6199 183.508 51.2516 183.605C44.912 183.701 40.7609 182.048 38.1921 179.479L28.5578 189.113C34.5379 195.094 42.7542 197.361 51.4593 197.228C60.1356 197.096 69.8824 194.599 79.996 190.37C100.256 181.897 123.304 165.918 144.611 144.611L134.976 134.976ZM38.1921 179.479C35.6232 176.911 33.9697 172.76 34.0664 166.419C34.1635 160.051 36.0472 152.076 39.8711 142.932C47.5055 124.676 62.3255 103.063 82.6944 82.6945L73.0601 73.0602C51.7533 94.3667 35.7734 117.415 27.301 137.675C23.0717 147.789 20.5753 157.536 20.443 166.212C20.3102 174.917 22.5777 183.134 28.5578 189.113L38.1921 179.479ZM82.6944 82.6945C103.063 62.3255 124.676 47.5055 142.932 39.8711C152.076 36.0472 160.051 34.1635 166.419 34.0664C172.759 33.9697 176.911 35.6232 179.479 38.1921L189.113 28.5578C183.134 22.5777 174.917 20.3102 166.212 20.443C157.536 20.5753 147.788 23.0717 137.675 27.301C117.415 35.7734 94.3667 51.7534 73.0601 73.0602L82.6944 82.6945ZM29.1788 28.5578C23.1987 34.5378 20.9311 42.7541 21.0639 51.4592C21.1963 60.1354 23.6926 69.8822 27.9219 79.9959C36.3943 100.256 52.3743 123.304 73.681 144.611L83.3154 134.976C62.9464 114.608 48.1264 92.9951 40.4921 74.7393C36.6681 65.5949 34.7845 57.6198 34.6874 51.2514C34.5906 44.9119 36.2443 40.7609 38.813 38.1922L29.1788 28.5578ZM73.681 144.611C94.988 165.918 118.036 181.897 138.296 190.37C148.41 194.599 158.156 197.096 166.833 197.228C175.538 197.361 183.754 195.094 189.734 189.113L180.1 179.479C177.531 182.048 173.38 183.701 167.041 183.605C160.672 183.508 152.697 181.624 143.553 177.8C125.296 170.165 103.684 155.346 83.3154 134.976L73.681 144.611ZM189.734 189.113C195.714 183.134 197.982 174.917 197.849 166.212C197.717 157.536 195.221 147.789 190.991 137.675C182.519 117.415 166.538 94.3667 145.232 73.0602L135.598 82.6945C155.966 103.063 170.787 124.676 178.421 142.932C182.245 152.076 184.128 160.051 184.225 166.419C184.323 172.76 182.668 176.911 180.1 179.479L189.734 189.113ZM145.232 73.0602C123.925 51.7534 100.877 35.7734 80.617 27.301C70.5033 23.0717 60.7565 20.5753 52.0802 20.443C43.3751 20.3102 35.1588 22.5777 29.1788 28.5578L38.813 38.1922C41.3819 35.6233 45.533 33.9697 51.8725 34.0664C58.2408 34.1635 66.216 36.0472 75.3604 39.8711C93.6164 47.5055 115.228 62.3255 135.598 82.6945L145.232 73.0602Z" fill="#797B7E"/>
</svg>
