<svg width="512" height="512" viewBox="0 0 512 512" fill="none" xmlns="http://www.w3.org/2000/svg">
<path fill-rule="evenodd" clip-rule="evenodd" d="M244.687 42.0196C250.936 35.7713 261.065 35.7713 267.313 42.0196L341.98 116.686C348.228 122.935 348.228 133.065 341.98 139.314L267.313 213.98C261.065 220.228 250.936 220.228 244.687 213.98L170.02 139.314C163.771 133.065 163.771 122.935 170.02 116.686L244.687 42.0196ZM203.961 128L256 180.039L308.039 128L256 75.9607L203.961 128Z" fill="#797B7E"/>
<path fill-rule="evenodd" clip-rule="evenodd" d="M244.687 298.02C250.936 291.772 261.065 291.772 267.313 298.02L341.98 372.687C348.228 378.935 348.228 389.065 341.98 395.313L267.313 469.98C261.065 476.228 250.936 476.228 244.687 469.98L170.02 395.313C163.771 389.065 163.771 378.935 170.02 372.687L244.687 298.02ZM203.961 384L256 436.038L308.039 384L256 331.962L203.961 384Z" fill="#797B7E"/>
<path fill-rule="evenodd" clip-rule="evenodd" d="M372.687 170.02C378.936 163.771 389.065 163.771 395.313 170.02L469.98 244.687C476.228 250.935 476.228 261.065 469.98 267.313L395.313 341.98C389.065 348.228 378.936 348.228 372.687 341.98L298.02 267.313C291.772 261.065 291.772 250.935 298.02 244.687L372.687 170.02ZM331.962 256L384 308.038L436.039 256L384 203.961L331.962 256Z" fill="#797B7E"/>
<path fill-rule="evenodd" clip-rule="evenodd" d="M116.686 170.02C122.935 163.771 133.066 163.771 139.314 170.02L213.98 244.687C220.228 250.935 220.228 261.065 213.98 267.313L139.314 341.98C133.066 348.228 122.935 348.228 116.686 341.98L42.0197 267.313C35.7714 261.065 35.7714 250.935 42.0197 244.687L116.686 170.02ZM75.9609 256L128 308.038L180.039 256L128 203.961L75.9609 256Z" fill="#797B7E"/>
</svg>
