<svg width="30" height="30" viewBox="0 0 30 30" fill="none" xmlns="http://www.w3.org/2000/svg">
<path d="M13.9716 26H7.02841C6.22577 25.9982 5.45651 25.6759 4.88896 25.1037C4.32141 24.5314 4.00177 23.7558 4 22.9465V19.0535C4.00177 18.2442 4.32141 17.4686 4.88896 16.8963C5.45651 16.3241 6.22577 16.0018 7.02841 16H13.9716C14.7742 16.0018 15.5435 16.3241 16.111 16.8963C16.6786 17.4686 16.9982 18.2442 17 19.0535V22.9397C17 23.7502 16.6812 24.5276 16.1134 25.1013C15.5457 25.675 14.7754 25.9982 13.9716 26ZM7.02841 17.4421C6.60456 17.4421 6.19806 17.6119 5.89835 17.9141C5.59864 18.2163 5.43027 18.6261 5.43027 19.0535V22.9397C5.43027 23.3671 5.59864 23.777 5.89835 24.0792C6.19806 24.3813 6.60456 24.5511 7.02841 24.5511H13.9716C14.3954 24.5511 14.8019 24.3813 15.1016 24.0792C15.4014 23.777 15.5697 23.3671 15.5697 22.9397V19.0535C15.5697 18.6261 15.4014 18.2163 15.1016 17.9141C14.8019 17.6119 14.3954 17.4421 13.9716 17.4421H7.02841Z" fill="#797B7E"/>
<path d="M22.8958 26H22.1042C21.2815 25.9982 20.493 25.6759 19.9112 25.1037C19.3295 24.5314 19.0018 23.7558 19 22.9465V19.0535C19.0018 18.2442 19.3295 17.4686 19.9112 16.8963C20.493 16.3241 21.2815 16.0018 22.1042 16H22.8958C23.7185 16.0018 24.507 16.3241 25.0888 16.8963C25.6705 17.4686 25.9982 18.2442 26 19.0535V22.9397C26 23.7502 25.6732 24.5276 25.0912 25.1013C24.5093 25.675 23.7197 25.9982 22.8958 26ZM22.1042 17.4421C21.6746 17.4492 21.2649 17.6221 20.9636 17.9235C20.6624 18.225 20.4935 18.6308 20.4936 19.0535V22.9397C20.4936 23.3671 20.6662 23.777 20.9734 24.0792C21.2806 24.3813 21.6973 24.5511 22.1318 24.5511H22.9233C23.3578 24.5511 23.7744 24.3813 24.0817 24.0792C24.3889 23.777 24.5615 23.3671 24.5615 22.9397V19.0535C24.5615 18.6261 24.3889 18.2163 24.0817 17.9141C23.7744 17.6119 23.3578 17.4421 22.9233 17.4421H22.1042Z" fill="#797B7E"/>
<path d="M22.9716 14H16.0284C15.2258 13.9982 14.4565 13.6759 13.889 13.1037C13.3214 12.5314 13.0018 11.7558 13 10.9465V7.05349C13.0018 6.2442 13.3214 5.46857 13.889 4.89632C14.4565 4.32407 15.2258 4.00179 16.0284 4H22.9716C23.7742 4.00179 24.5435 4.32407 25.111 4.89632C25.6786 5.46857 25.9982 6.2442 26 7.05349V10.9397C26 11.7502 25.6812 12.5276 25.1134 13.1013C24.5457 13.675 23.7754 13.9982 22.9716 14ZM16.0284 5.44211C15.6046 5.44211 15.1981 5.61188 14.8984 5.91407C14.5986 6.21626 14.4303 6.62612 14.4303 7.05349V10.9397C14.4303 11.3671 14.5986 11.777 14.8984 12.0792C15.1981 12.3813 15.6046 12.5511 16.0284 12.5511H22.9716C23.3954 12.5511 23.8019 12.3813 24.1016 12.0792C24.4014 11.777 24.5697 11.3671 24.5697 10.9397V7.05349C24.5697 6.62612 24.4014 6.21626 24.1016 5.91407C23.8019 5.61188 23.3954 5.44211 22.9716 5.44211H16.0284Z" fill="#797B7E"/>
<path d="M7.89577 14H7.10423C6.28149 13.9982 5.49298 13.6759 4.91122 13.1037C4.32945 12.5314 4.00182 11.7558 4 10.9465V7.05349C4.00182 6.2442 4.32945 5.46857 4.91122 4.89632C5.49298 4.32407 6.28149 4.00179 7.10423 4H7.89577C8.71851 4.00179 9.50702 4.32407 10.0888 4.89632C10.6705 5.46857 10.9982 6.2442 11 7.05349V10.9397C11 11.7502 10.6732 12.5276 10.0912 13.1013C9.50925 13.675 8.7197 13.9982 7.89577 14ZM7.10423 5.44211C6.66976 5.44211 6.25309 5.61188 5.94588 5.91407C5.63867 6.21626 5.46608 6.62612 5.46608 7.05349V10.9397C5.46608 11.3671 5.63867 11.777 5.94588 12.0792C6.25309 12.3813 6.66976 12.5511 7.10423 12.5511H7.89577C8.32426 12.544 8.73286 12.3721 9.03396 12.0721C9.33505 11.7721 9.50465 11.3681 9.50639 10.9465V7.05349C9.50645 6.63077 9.33765 6.22497 9.03636 5.92354C8.73508 5.62212 8.32545 5.44922 7.89577 5.44211H7.10423Z" fill="#797B7E"/>
</svg>
