<svg width="512" height="512" viewBox="0 0 512 512" fill="none" xmlns="http://www.w3.org/2000/svg">
<path d="M139.024 200.56C131.072 200.56 124.624 207.008 124.624 214.96C124.624 222.912 131.072 229.36 139.024 229.36H293.424C301.376 229.36 307.824 222.912 307.824 214.96C307.824 207.008 301.376 200.56 293.424 200.56H139.024Z" fill="#797B7E"/>
<path d="M208.448 282.304H139.024C131.072 282.304 124.624 288.752 124.624 296.704C124.624 304.656 131.072 311.104 139.024 311.104H208.448C216.4 311.104 222.848 304.656 222.848 296.704C222.848 288.752 216.4 282.304 208.448 282.304Z" fill="#797B7E"/>
<path d="M206.32 465.6H96.7201C73.1521 465.6 54.0001 446.368 54.0001 422.72V131.04C54.0001 107.392 73.1521 88.16 96.7201 88.16H126.464V91.776C126.464 112.784 143.552 129.856 164.56 129.856H302.16C323.168 129.856 340.256 112.784 340.256 91.776V88.16H369.856C393.808 88.16 412.56 106.992 412.56 131.04V213.12C412.56 221.072 419.008 227.52 426.96 227.52C434.912 227.52 441.36 221.072 441.36 213.12V131.04C441.36 91.52 409.28 59.36 369.84 59.36H340.24V55.68C340.24 34.672 323.152 17.6 302.144 17.6H164.544C143.536 17.6 126.448 34.672 126.448 55.68V59.36H96.7201C57.2801 59.36 25.1841 91.52 25.1841 131.04V422.72C25.1841 462.24 57.2801 494.4 96.7201 494.4H206.32C214.272 494.4 220.72 487.952 220.72 480C220.72 472.048 214.272 465.6 206.32 465.6ZM155.28 55.68C155.28 50.56 159.44 46.4 164.56 46.4H302.16C307.28 46.4 311.44 50.56 311.44 55.68V91.76C311.44 96.88 307.28 101.04 302.16 101.04H164.56C159.44 101.04 155.28 96.88 155.28 91.76V55.68Z" fill="#797B7E"/>
<path d="M471.52 277.728C451.808 258 417.392 257.984 397.664 277.728L270 405.392C265.888 409.504 263.2 414.72 262.224 420.464L255.216 461.888C253.728 470.768 256.656 479.888 263.024 486.24C268.288 491.504 275.408 494.384 282.72 494.384C284.272 494.384 285.808 494.256 287.344 494L328.752 487.008C334.496 486.032 339.712 483.344 343.824 479.232L471.488 351.568C491.856 331.216 491.856 298.096 471.52 277.728ZM323.968 458.624L283.632 466.672L290.384 425.76L381.888 334.256L415.024 367.392L323.968 458.624ZM451.136 331.2L435.36 347.008L402.24 313.888L418.032 298.096C422.448 293.68 428.336 291.232 434.576 291.232C440.848 291.232 446.72 293.664 451.136 298.096C460.272 307.232 460.272 322.064 451.136 331.2Z" fill="#797B7E"/>
</svg>
