<svg width="512" height="512" viewBox="0 0 512 512" fill="none" xmlns="http://www.w3.org/2000/svg">
<path d="M397 28.086H115C51.589 28.086 0 79.675 0 143.086V253.086C0 311.416 43.648 359.741 100 367.112V468.913C100 474.98 103.654 480.45 109.26 482.771C111.115 483.54 113.065 483.913 114.997 483.913C118.9 483.913 122.737 482.389 125.606 479.519L237.04 368.086H397C460.411 368.086 512 316.497 512 253.086V143.086C512 79.675 460.411 28.086 397 28.086ZM482 253.086C482 299.955 443.869 338.086 397 338.086H230.827C226.848 338.086 223.033 339.666 220.221 342.479L130 432.7V353.086C130 344.802 123.284 338.086 115 338.086C68.131 338.086 30 299.955 30 253.086V143.086C30 96.217 68.131 58.086 115 58.086H397C443.869 58.086 482 96.217 482 143.086V253.086Z" fill="#797B7E"/>
<path d="M182.7 155.856C188.7 155.856 192.1 149.456 192.1 142.056C192.1 135.656 189.299 128.656 182.7 128.656H113.302C106.501 128.656 99.7021 131.856 99.7021 138.256V265.254C99.7021 271.654 107.501 274.854 115.302 274.854C123.101 274.854 130.902 271.654 130.902 265.254V213.654H161.101C167.701 213.654 170.501 207.254 170.501 201.854C170.501 195.454 167.101 189.654 161.101 189.654H130.902V155.855H182.7V155.856Z" fill="#797B7E"/>
<path d="M265.903 137.856C263.704 130.856 254.704 127.456 245.503 127.456C236.304 127.456 227.304 130.856 225.105 137.856L187.906 259.854C187.705 260.654 187.506 261.454 187.506 262.054C187.506 269.454 198.906 274.854 207.506 274.854C212.506 274.854 216.506 273.254 217.705 269.054L224.506 244.054H266.705L273.504 269.054C274.705 273.254 278.705 274.854 283.703 274.854C292.305 274.854 303.703 269.454 303.703 262.054C303.703 261.454 303.504 260.654 303.305 259.854L265.903 137.856ZM230.903 220.054L245.503 166.455L260.103 220.054H230.903Z" fill="#797B7E"/>
<path d="M372.7 128.656C345.1 128.656 323.702 141.256 323.702 175.855V228.854C323.702 259.254 340.302 272.653 363.1 275.454V287.054C363.1 293.454 367.901 296.654 372.7 296.654C377.501 296.654 382.3 293.454 382.3 287.054V275.454C405.101 272.654 421.9 259.254 421.9 228.854V175.855C421.899 141.256 400.3 128.656 372.7 128.656ZM390.7 228.854C390.7 238.054 387.501 243.854 382.3 246.854V238.054C382.3 231.454 377.501 228.654 372.7 228.654C367.901 228.654 363.1 231.454 363.1 238.054V246.854C357.7 243.854 354.901 238.054 354.901 228.854V175.855C354.901 162.255 361.501 155.856 372.7 155.856C383.901 155.856 390.7 162.256 390.7 175.855V228.854Z" fill="#797B7E"/>
</svg>
