<svg width="68" height="68" viewBox="0 0 68 68" fill="none" xmlns="http://www.w3.org/2000/svg">
<path d="M11.0366 35.3715C10.7596 35.3715 10.5366 35.5945 10.5366 35.8715V63.0845C10.5366 64.7495 11.8906 66.1035 13.5546 66.1035H54.4456C56.1096 66.1035 57.4636 64.7495 57.4636 63.0845V11.7455C57.4636 11.7255 57.4546 11.7075 57.4516 11.6875C57.4486 11.6645 57.4446 11.6435 57.4376 11.6205C57.4166 11.5355 57.3806 11.4545 57.3166 11.3915L47.9676 2.04248C47.9036 1.97845 47.8226 1.94251 47.7356 1.92047C47.7176 1.9165 47.7016 1.91248 47.6836 1.91046C47.6606 1.90649 47.6386 1.89648 47.6146 1.89648H13.5546C11.8906 1.89648 10.5366 3.25049 10.5366 4.91449V30.2525C10.5366 30.5295 10.7596 30.7525 11.0366 30.7525C11.3126 30.7525 11.5366 30.5295 11.5366 30.2525V4.91449C11.5366 3.80145 12.4416 2.89648 13.5546 2.89648H47.1136V11.7495C47.1136 12.0255 47.3376 12.2495 47.6136 12.2495H56.4636V63.0845C56.4636 64.1975 55.5576 65.1035 54.4456 65.1035H13.5546C12.4416 65.1035 11.5366 64.1975 11.5366 63.0845V35.8715C11.5366 35.5945 11.3126 35.3715 11.0366 35.3715ZM48.1136 11.2495V3.60449L55.7586 11.2495H48.1136Z" fill="#797B7E"/>
<path d="M18.4448 15.5298H48.2088C48.4848 15.5298 48.7088 15.3058 48.7088 15.0298C48.7088 14.7538 48.4848 14.5298 48.2088 14.5298H18.4448C18.1688 14.5298 17.9448 14.7538 17.9448 15.0298C17.9448 15.3058 18.1688 15.5298 18.4448 15.5298Z" fill="#797B7E"/>
<path d="M18.4448 20.604H48.2088C48.4848 20.604 48.7088 20.38 48.7088 20.104C48.7088 19.8281 48.4848 19.604 48.2088 19.604H18.4448C18.1688 19.604 17.9448 19.8281 17.9448 20.104C17.9448 20.38 18.1688 20.604 18.4448 20.604Z" fill="#797B7E"/>
<path d="M18.4448 25.6786H48.2088C48.4848 25.6786 48.7088 25.4547 48.7088 25.1786C48.7088 24.9027 48.4848 24.6786 48.2088 24.6786H18.4448C18.1688 24.6786 17.9448 24.9027 17.9448 25.1786C17.9448 25.4547 18.1688 25.6786 18.4448 25.6786Z" fill="#797B7E"/>
<path d="M18.4448 30.753H48.2088C48.4848 30.753 48.7088 30.529 48.7088 30.253C48.7088 29.9771 48.4848 29.753 48.2088 29.753H18.4448C18.1688 29.753 17.9448 29.9771 17.9448 30.253C17.9448 30.529 18.1688 30.753 18.4448 30.753Z" fill="#797B7E"/>
<path d="M44.2082 49.0049C44.2761 48.9469 44.3421 48.8839 44.4021 48.8179C44.7992 48.3819 44.9942 47.7959 44.9391 47.2049C44.8342 46.1429 43.8762 45.3119 42.7591 45.3119H41.3782C41.1022 45.3119 40.8782 45.5349 40.8782 45.8119C40.8782 46.0879 41.1022 46.3119 41.3782 46.3119H42.7591C43.3682 46.3119 43.8892 46.7479 43.9431 47.3009C43.9732 47.6139 43.8731 47.9129 43.6631 48.1439C43.4551 48.3729 43.1582 48.5039 42.8492 48.5039C42.8482 48.5039 42.8472 48.5049 42.8461 48.5049H39.4912C39.2152 48.5049 38.9912 48.7279 38.9912 49.0049C38.9912 49.2809 39.2152 49.5049 39.4912 49.5049H42.8492C43.4551 49.5049 43.9482 49.9979 43.9482 50.604C43.9482 51.2099 43.4551 51.7039 42.8492 51.7039C42.8482 51.7039 42.8472 51.7039 42.8461 51.7039H39.4912C39.2152 51.7039 38.9912 51.9279 38.9912 52.2039C38.9912 52.4809 39.2152 52.7039 39.4912 52.7039H42.8492C43.4551 52.7049 43.9482 53.1939 43.9482 53.7959C43.9482 54.4019 43.4551 54.8959 42.8492 54.8959C42.8482 54.8959 42.8472 54.8969 42.8461 54.8969H39.4912C39.2152 54.8969 38.9912 55.1199 38.9912 55.3969C38.9912 55.6729 39.2152 55.8969 39.4912 55.8969H42.8492C42.8502 55.8969 42.8502 55.8959 42.8502 55.8959C43.1602 55.8969 43.4571 56.0289 43.6661 56.2599C43.8772 56.4939 43.9762 56.7959 43.9441 57.1109C43.8892 57.6589 43.3721 58.0879 42.7672 58.0879H33.6901C32.1442 58.0879 30.6221 57.6819 29.2891 56.914L28.3691 56.3859V46.2879C32.1972 45.9499 33.8482 43.2959 35.3522 38.8859C35.4362 38.6419 35.5982 38.3289 35.8902 38.2299C36.1332 38.1469 36.4482 38.2189 36.7542 38.4219C37.1641 38.6969 37.4401 39.2039 37.4912 39.7739C37.6142 41.2909 37.1442 43.0879 35.9662 45.599C35.8942 45.7539 35.9052 45.9359 35.9971 46.0799C36.0892 46.224 36.2481 46.3119 36.4192 46.3119H38.5082C38.7842 46.3119 39.0082 46.0879 39.0082 45.8119C39.0082 45.5349 38.7842 45.3119 38.5082 45.3119H37.1952C38.2132 42.9929 38.6132 41.2379 38.4872 39.6889C38.4102 38.8169 37.9701 38.0329 37.3092 37.5899C36.7422 37.2119 36.1061 37.1009 35.5692 37.2829C35.1962 37.4089 34.6911 37.7339 34.4052 38.5619C32.9892 42.7139 31.6112 44.9249 28.3691 45.2579V44.138C28.3691 43.4089 27.6682 42.8169 26.8062 42.8169H23.5931C22.5501 42.8169 21.7021 43.6649 21.7021 44.7079V47.3799C21.7021 47.6569 21.9261 47.8799 22.2021 47.8799C22.4791 47.8799 22.7021 47.6569 22.7021 47.3799V44.7079C22.7021 44.2169 23.1021 43.8169 23.5931 43.8169H26.8062C27.1451 43.8169 27.3691 44.0099 27.3691 44.138V45.8039C27.3691 45.8089 27.3661 45.8139 27.3661 45.8189V56.6739C27.3661 56.6779 27.3691 56.6809 27.3691 56.6849V58.4689C27.3691 58.5999 27.1542 58.7819 26.8062 58.7819H23.5931C23.1021 58.7819 22.7021 58.3829 22.7021 57.8919V50.9689C22.7021 50.6929 22.4791 50.4689 22.2021 50.4689C21.9261 50.4689 21.7021 50.6929 21.7021 50.9689V57.8919C21.7021 58.9339 22.5501 59.7819 23.5931 59.7819H26.8062C27.6832 59.7819 28.3691 59.2049 28.3691 58.4689V57.539L28.7901 57.7799C30.2741 58.6359 31.9691 59.0879 33.6901 59.0879H42.7672C43.8792 59.0879 44.8342 58.2639 44.9382 57.2109C44.9991 56.6199 44.8051 56.0289 44.4082 55.5899C44.3451 55.5209 44.2782 55.4559 44.2071 55.3959C44.6602 55.0099 44.9482 54.4359 44.9482 53.7959C44.9482 53.1589 44.6611 52.5869 44.2082 52.203C44.6611 51.8179 44.9482 51.2429 44.9482 50.604C44.9482 49.9639 44.6611 49.3899 44.2082 49.0049Z" fill="#797B7E"/>
</svg>
