<svg width="40" height="40" viewBox="0 0 40 40" fill="none" xmlns="http://www.w3.org/2000/svg">
<path d="M39.9993 8.97544V7.66516H34.3652V8.97544H36.5271V31.0245H34.3652V32.3348H39.9993V31.0245H37.8374V8.97544H39.9993Z" fill="#797B7E"/>
<path d="M0.243097 27.0018L6.83718 12.1108C7.29691 11.084 8.1344 10.4622 9.2698 10.4622H9.51301C10.6477 10.4622 11.4587 11.0838 11.918 12.1108L18.5123 27.0018C18.6474 27.2991 18.7287 27.5693 18.7287 27.8397C18.7287 28.9477 17.8638 29.8395 16.7557 29.8395C15.7828 29.8395 15.1341 29.272 14.7559 28.407L13.4858 25.4344H5.16196L3.83769 28.5424C3.48627 29.353 2.7838 29.8395 1.9189 29.8395C0.837491 29.8395 0 28.9747 0 27.8936C0 27.5963 0.107965 27.2991 0.243097 27.0018ZM11.9453 21.7589L9.32366 15.516L6.70228 21.7589H11.9453Z" fill="#797B7E"/>
<path d="M20.7012 25.5154V25.4613C20.7012 22.2993 23.1065 20.8399 26.5387 20.8399C27.9982 20.8399 29.0523 21.0832 30.0793 21.4346V21.1914C30.0793 19.4886 29.0252 18.5429 26.9712 18.5429C25.8362 18.5429 24.9173 18.705 24.1336 18.9483C23.8905 19.0294 23.7282 19.0563 23.5387 19.0563C22.5931 19.0563 21.8364 18.3266 21.8364 17.3808C21.8364 16.6511 22.2957 16.0295 22.9442 15.7862C24.2414 15.2997 25.647 15.0295 27.5658 15.0295C29.8087 15.0295 31.4304 15.624 32.4574 16.651C33.5384 17.7319 34.0248 19.3265 34.0248 21.2724V27.8665C34.0248 28.9747 33.133 29.8394 32.0249 29.8394C30.8357 29.8394 30.0521 29.0016 30.0521 28.1367V28.1097C29.0522 29.2177 27.6736 29.9473 25.674 29.9473C22.9442 29.9476 20.7012 28.3803 20.7012 25.5154ZM30.133 24.5694V23.8398C29.4304 23.5155 28.5116 23.2993 27.5117 23.2993C25.7548 23.2993 24.674 24.002 24.674 25.2991V25.3532C24.674 26.4613 25.5929 27.1098 26.917 27.1098C28.8358 27.1099 30.133 26.056 30.133 24.5694Z" fill="#797B7E"/>
</svg>
