<svg width="421" height="421" viewBox="0 0 421 421" fill="none" xmlns="http://www.w3.org/2000/svg">
<g clip-path="url(#clip0_426_2386)">
<path d="M354.48 144C354.48 64.471 290.009 0 210.48 0C130.951 0 66.48 64.471 66.48 144C45.92 146.56 26.48 160 26.48 191.2V266.4C26.48 301.6 51.12 314.4 74.48 314.4H97.68C102.098 314.4 105.68 310.818 105.68 306.4V151.52C105.68 147.102 102.098 143.52 97.68 143.52H82.48C82.48 72.828 139.788 15.52 210.48 15.52C281.172 15.52 338.48 72.828 338.48 143.52H323.28C318.862 143.52 315.28 147.102 315.28 151.52V306.16C315.28 310.578 318.862 314.16 323.28 314.16H338.48C336.24 369.12 309.84 382 257.12 384.32V378.96C257.12 370.123 249.957 362.96 241.12 362.96H190.8C181.963 362.96 174.8 370.123 174.8 378.96V404.96C174.8 413.797 181.963 420.96 190.8 420.96H241.28C250.117 420.96 257.28 413.797 257.28 404.96V400.32C308 398 351.84 387.52 354.48 313.68C375.04 311.12 394.48 297.68 394.48 266.48V191.28C394.48 159.92 375.12 146.56 354.48 144ZM89.68 158.96V298.16H74.08C62.24 298.16 42.08 294 42.08 266.16V190.96C42.08 163.36 62 158.96 74.08 158.96H89.68ZM241.28 392.88V405.04H190.8V379.04H241.28V392.88ZM378.48 266.4C378.48 294 358.56 298.4 346.48 298.4H331.28V159.52H346.88C358.72 159.52 378.88 163.68 378.88 191.52L378.48 266.4Z" fill="#797B7E"/>
</g>
<defs>
<clipPath id="clip0_426_2386">
<rect width="420.96" height="420.96" fill="white"/>
</clipPath>
</defs>
</svg>
