<svg width="512" height="512" viewBox="0 0 512 512" fill="none" xmlns="http://www.w3.org/2000/svg">
<path d="M441.239 137.656L306.547 2.964C304.649 1.066 302.076 0 299.391 0H109.598C86.5489 0 67.7979 18.751 67.7979 41.8V470.2C67.7979 493.249 86.5489 512 109.598 512H402.402C425.451 512 444.202 493.249 444.202 470.2V144.811C444.202 142.128 443.136 139.553 441.239 137.656ZM309.511 34.549L409.654 134.69H331.072C319.183 134.69 309.512 125.018 309.512 113.128V34.549H309.511ZM423.964 470.2C423.964 482.089 414.292 491.762 402.402 491.762H109.598C97.7089 491.762 88.0359 482.089 88.0359 470.2V41.8C88.0359 29.911 97.7089 20.238 109.598 20.238H289.272V113.13C289.272 136.179 308.022 154.93 331.071 154.93H423.964V470.2Z" fill="#797B7E"/>
<path d="M336.949 257.012H175.051C169.463 257.012 164.932 261.543 164.932 267.131C164.932 272.719 169.463 277.25 175.051 277.25H336.949C342.539 277.25 347.068 272.719 347.068 267.131C347.068 261.543 342.539 257.012 336.949 257.012Z" fill="#797B7E"/>
<path d="M336.949 302.208H175.051C169.463 302.208 164.932 306.739 164.932 312.327C164.932 317.915 169.463 322.446 175.051 322.446H336.949C342.539 322.446 347.068 317.915 347.068 312.327C347.068 306.739 342.539 302.208 336.949 302.208Z" fill="#797B7E"/>
<path d="M336.949 347.404H175.051C169.463 347.404 164.932 351.935 164.932 357.523C164.932 363.111 169.463 367.642 175.051 367.642H336.949C342.539 367.642 347.068 363.111 347.068 357.523C347.068 351.935 342.539 347.404 336.949 347.404Z" fill="#797B7E"/>
<path d="M284.332 392.601H175.051C169.463 392.601 164.932 397.132 164.932 402.72C164.932 408.308 169.463 412.839 175.051 412.839H284.332C289.922 412.839 294.451 408.308 294.451 402.72C294.451 397.132 289.922 392.601 284.332 392.601Z" fill="#797B7E"/>
</svg>
