<svg width="220" height="218" viewBox="0 0 220 218" fill="none" xmlns="http://www.w3.org/2000/svg">
<path fill-rule="evenodd" clip-rule="evenodd" d="M55.8332 70.3958C41.7761 70.3958 25.2083 80.5346 25.2083 99.9167C25.2083 119.299 41.7761 129.438 55.8332 129.438C69.5374 129.438 76.1211 123.214 84.3598 115.231C87.0745 112.601 91.4273 112.649 94.082 115.338C96.7367 118.029 96.6881 122.342 93.9729 124.972L93.7713 125.168C85.3842 133.296 75.3059 143.063 55.8332 143.063C36.557 143.063 11.4583 128.979 11.4583 99.9167C11.4583 70.8546 36.557 56.7708 55.8332 56.7708C83.3748 56.7708 97.8568 74.3763 113.202 93.0306C113.906 93.8863 114.612 94.7437 115.321 95.603C115.549 95.8782 115.775 96.1525 116 96.425C132.772 116.742 143.252 129.438 164.167 129.438C178.224 129.438 194.792 119.299 194.792 99.9167C194.792 80.5347 178.224 70.3958 164.167 70.3958C150.618 70.3958 139.965 80.4122 135.64 84.6024C132.926 87.233 128.573 87.1848 125.918 84.4947C123.263 81.8047 123.312 77.4915 126.027 74.8609C126.087 74.8034 126.148 74.7434 126.212 74.6814C130.462 70.5585 144.675 56.7708 164.167 56.7708C183.442 56.7708 208.542 70.8546 208.542 99.9167C208.542 128.979 183.442 143.063 164.167 143.063C136.625 143.063 122.143 125.457 106.798 106.803C106.094 105.947 105.388 105.09 104.679 104.23C104.451 103.955 104.225 103.681 104 103.408C87.228 83.0914 76.7477 70.3958 55.8332 70.3958Z" fill="#797B7E"/>
</svg>
