<svg width="512" height="512" viewBox="0 0 512 512" fill="none" xmlns="http://www.w3.org/2000/svg">
<path d="M50.163 10.041C22.503 10.041 0 32.544 0 60.204C0 87.864 22.503 110.367 50.163 110.367C77.823 110.367 100.326 87.864 100.326 60.204C100.326 32.544 77.823 10.041 50.163 10.041ZM50.163 90.367C33.531 90.367 20 76.836 20 60.204C20 43.572 33.531 30.041 50.163 30.041C66.795 30.041 80.326 43.572 80.326 60.204C80.326 76.836 66.795 90.367 50.163 90.367Z" fill="#797B7E"/>
<path d="M180.693 110.367H461.836C489.496 110.367 511.999 87.864 511.999 60.204C511.999 32.544 489.496 10.041 461.836 10.041H180.693C153.034 10.041 130.531 32.544 130.531 60.204C130.531 87.864 153.034 110.367 180.693 110.367ZM180.693 30.041H461.836C478.468 30.041 491.999 43.572 491.999 60.204C491.999 76.836 478.468 90.367 461.836 90.367H180.693C164.061 90.367 150.531 76.836 150.531 60.204C150.531 43.572 164.061 30.041 180.693 30.041Z" fill="#797B7E"/>
<path d="M190.734 70.204H451.795C457.317 70.204 461.795 65.727 461.795 60.204C461.795 54.681 457.317 50.204 451.795 50.204H190.734C185.211 50.204 180.734 54.681 180.734 60.204C180.734 65.727 185.212 70.204 190.734 70.204Z" fill="#797B7E"/>
<path d="M50.163 140.236C22.503 140.236 0 162.739 0 190.399C0 218.06 22.503 240.563 50.163 240.563C77.823 240.563 100.326 218.06 100.326 190.399C100.326 162.739 77.823 140.236 50.163 140.236ZM50.163 220.564C33.531 220.564 20 207.032 20 190.399C20 173.767 33.531 160.236 50.163 160.236C66.795 160.236 80.326 173.767 80.326 190.399C80.326 207.032 66.795 220.564 50.163 220.564Z" fill="#797B7E"/>
<path d="M461.837 140.236H180.693C153.034 140.236 130.531 162.739 130.531 190.399C130.531 218.06 153.034 240.563 180.693 240.563H461.836C489.496 240.563 511.999 218.06 511.999 190.399C512 162.739 489.497 140.236 461.837 140.236ZM461.837 220.564H180.693C164.061 220.564 150.531 207.032 150.531 190.4C150.531 173.768 164.061 160.237 180.693 160.237H461.836C478.468 160.237 491.999 173.768 491.999 190.4C492 207.032 478.469 220.564 461.837 220.564Z" fill="#797B7E"/>
<path d="M451.796 180.399H190.734C185.211 180.399 180.734 184.876 180.734 190.399C180.734 195.922 185.211 200.399 190.734 200.399H451.795C457.317 200.399 461.795 195.922 461.795 190.399C461.796 184.876 457.318 180.399 451.796 180.399Z" fill="#797B7E"/>
<path d="M50.163 271.102C22.503 271.102 0 293.605 0 321.266C0 348.926 22.503 371.429 50.163 371.429C77.823 371.429 100.326 348.926 100.326 321.266C100.326 293.605 77.823 271.102 50.163 271.102ZM50.163 351.429C33.531 351.429 20 337.897 20 321.266C20 304.634 33.531 291.102 50.163 291.102C66.795 291.102 80.326 304.634 80.326 321.266C80.326 337.897 66.795 351.429 50.163 351.429Z" fill="#797B7E"/>
<path d="M461.837 271.102H180.693C153.034 271.102 130.531 293.605 130.531 321.266C130.531 348.926 153.034 371.429 180.693 371.429H461.836C489.496 371.429 511.999 348.926 511.999 321.266C512 293.605 489.497 271.102 461.837 271.102ZM461.837 351.429H180.693C164.061 351.429 150.531 337.898 150.531 321.266C150.531 304.634 164.061 291.102 180.693 291.102H461.836C478.468 291.102 491.999 304.634 491.999 321.266C492 337.897 478.469 351.429 461.837 351.429Z" fill="#797B7E"/>
<path d="M451.796 311.266H190.734C185.211 311.266 180.734 315.743 180.734 321.266C180.734 326.789 185.211 331.266 190.734 331.266H451.795C457.317 331.266 461.795 326.789 461.795 321.266C461.796 315.743 457.318 311.266 451.796 311.266Z" fill="#797B7E"/>
<path d="M50.163 401.633C22.503 401.633 0 424.136 0 451.796C0 479.456 22.503 501.959 50.163 501.959C77.823 501.959 100.326 479.456 100.326 451.796C100.326 424.136 77.823 401.633 50.163 401.633ZM50.163 481.959C33.531 481.959 20 468.428 20 451.796C20 435.164 33.531 421.633 50.163 421.633C66.795 421.633 80.326 435.164 80.326 451.796C80.326 468.428 66.795 481.959 50.163 481.959Z" fill="#797B7E"/>
<path d="M461.837 401.633H180.693C153.034 401.633 130.531 424.136 130.531 451.796C130.531 479.456 153.034 501.959 180.693 501.959H461.836C489.496 501.959 511.999 479.456 511.999 451.796C511.999 424.136 489.497 401.633 461.837 401.633ZM461.837 481.959H180.693C164.061 481.959 150.531 468.428 150.531 451.796C150.531 435.164 164.061 421.633 180.693 421.633H461.836C478.468 421.633 491.999 435.164 491.999 451.796C491.999 468.428 478.469 481.959 461.837 481.959Z" fill="#797B7E"/>
<path d="M451.796 441.796H190.734C185.211 441.796 180.734 446.273 180.734 451.796C180.734 457.319 185.211 461.796 190.734 461.796H451.795C457.317 461.796 461.795 457.319 461.795 451.796C461.796 446.273 457.318 441.796 451.796 441.796Z" fill="#797B7E"/>
</svg>
