<svg width="512" height="512" viewBox="0 0 512 512" fill="none" xmlns="http://www.w3.org/2000/svg">
<path d="M106.667 149.333H64.0002C52.6877 149.322 41.8419 144.823 33.8427 136.824C25.8436 128.825 21.3448 117.979 21.3335 106.667V64C21.3448 52.6875 25.8436 41.8417 33.8427 33.8426C41.8419 25.8435 52.6877 21.3446 64.0002 21.3333H106.667C117.979 21.3446 128.825 25.8435 136.824 33.8426C144.823 41.8417 149.322 52.6875 149.333 64V106.667C149.322 117.979 144.823 128.825 136.824 136.824C128.825 144.823 117.979 149.322 106.667 149.333ZM64.0002 64V106.667H106.699L106.667 64H64.0002Z" fill="#797B7E"/>
<path d="M277.333 149.333H234.667C223.354 149.322 212.508 144.823 204.509 136.824C196.51 128.825 192.011 117.979 192 106.667V64C192.011 52.6875 196.51 41.8417 204.509 33.8426C212.508 25.8435 223.354 21.3446 234.667 21.3333H277.333C288.646 21.3446 299.492 25.8435 307.491 33.8426C315.49 41.8417 319.989 52.6875 320 64V106.667C319.989 117.979 315.49 128.825 307.491 136.824C299.492 144.823 288.646 149.322 277.333 149.333ZM234.667 64V106.667H277.365L277.333 64H234.667Z" fill="#797B7E"/>
<path d="M448 149.333H405.333C394.021 149.322 383.175 144.823 375.176 136.824C367.177 128.825 362.678 117.979 362.667 106.667V64C362.678 52.6875 367.177 41.8417 375.176 33.8426C383.175 25.8435 394.021 21.3446 405.333 21.3333H448C459.312 21.3446 470.158 25.8435 478.157 33.8426C486.156 41.8417 490.655 52.6875 490.667 64V106.667C490.655 117.979 486.156 128.825 478.157 136.824C470.158 144.823 459.312 149.322 448 149.333ZM405.333 64V106.667H448.032L448 64H405.333Z" fill="#797B7E"/>
<path d="M106.667 320H64.0002C52.6877 319.989 41.8419 315.49 33.8427 307.491C25.8436 299.492 21.3448 288.646 21.3335 277.333V234.667C21.3448 223.354 25.8436 212.508 33.8427 204.509C41.8419 196.51 52.6877 192.011 64.0002 192H106.667C117.979 192.011 128.825 196.51 136.824 204.509C144.823 212.508 149.322 223.354 149.333 234.667V277.333C149.322 288.646 144.823 299.492 136.824 307.491C128.825 315.49 117.979 319.989 106.667 320ZM64.0002 234.667V277.333H106.699L106.667 234.667H64.0002Z" fill="#797B7E"/>
<path d="M277.333 320H234.667C223.354 319.989 212.508 315.49 204.509 307.491C196.51 299.492 192.011 288.646 192 277.333V234.667C192.011 223.354 196.51 212.508 204.509 204.509C212.508 196.51 223.354 192.011 234.667 192H277.333C288.646 192.011 299.492 196.51 307.491 204.509C315.49 212.508 319.989 223.354 320 234.667V277.333C319.989 288.646 315.49 299.492 307.491 307.491C299.492 315.49 288.646 319.989 277.333 320ZM234.667 234.667V277.333H277.365L277.333 234.667H234.667Z" fill="#797B7E"/>
<path d="M448 320H405.333C394.021 319.989 383.175 315.49 375.176 307.491C367.177 299.492 362.678 288.646 362.667 277.333V234.667C362.678 223.354 367.177 212.508 375.176 204.509C383.175 196.51 394.021 192.011 405.333 192H448C459.312 192.011 470.158 196.51 478.157 204.509C486.156 212.508 490.655 223.354 490.667 234.667V277.333C490.655 288.646 486.156 299.492 478.157 307.491C470.158 315.49 459.312 319.989 448 320ZM405.333 234.667V277.333H448.032L448 234.667H405.333Z" fill="#797B7E"/>
<path d="M106.667 490.667H64.0002C52.6877 490.655 41.8419 486.156 33.8427 478.157C25.8436 470.158 21.3448 459.312 21.3335 448V405.333C21.3448 394.021 25.8436 383.175 33.8427 375.176C41.8419 367.177 52.6877 362.678 64.0002 362.667H106.667C117.979 362.678 128.825 367.177 136.824 375.176C144.823 383.175 149.322 394.021 149.333 405.333V448C149.322 459.312 144.823 470.158 136.824 478.157C128.825 486.156 117.979 490.655 106.667 490.667ZM64.0002 405.333V448H106.699L106.667 405.333H64.0002Z" fill="#797B7E"/>
<path d="M277.333 490.667H234.667C223.354 490.655 212.508 486.156 204.509 478.157C196.51 470.158 192.011 459.312 192 448V405.333C192.011 394.021 196.51 383.175 204.509 375.176C212.508 367.177 223.354 362.678 234.667 362.667H277.333C288.646 362.678 299.492 367.177 307.491 375.176C315.49 383.175 319.989 394.021 320 405.333V448C319.989 459.312 315.49 470.158 307.491 478.157C299.492 486.156 288.646 490.655 277.333 490.667ZM234.667 405.333V448H277.365L277.333 405.333H234.667Z" fill="#797B7E"/>
<path d="M448 490.667H405.333C394.021 490.655 383.175 486.156 375.176 478.157C367.177 470.158 362.678 459.312 362.667 448V405.333C362.678 394.021 367.177 383.175 375.176 375.176C383.175 367.177 394.021 362.678 405.333 362.667H448C459.312 362.678 470.158 367.177 478.157 375.176C486.156 383.175 490.655 394.021 490.667 405.333V448C490.655 459.312 486.156 470.158 478.157 478.157C470.158 486.156 459.312 490.655 448 490.667ZM405.333 405.333V448H448.032L448 405.333H405.333Z" fill="#797B7E"/>
</svg>
