<svg width="40" height="40" viewBox="0 0 40 40" fill="none" xmlns="http://www.w3.org/2000/svg">
<g clip-path="url(#clip0_592_3574)">
<path d="M37.5007 40H30.834C29.4557 40 28.334 38.8783 28.334 37.5V30.8333C28.334 29.455 29.4557 28.3333 30.834 28.3333H37.5007C38.879 28.3333 40.0007 29.455 40.0007 30.8333V37.5C40.0007 38.8783 38.879 40 37.5007 40ZM30.834 30C30.374 30 30.0007 30.3733 30.0007 30.8333V37.5C30.0007 37.96 30.374 38.3333 30.834 38.3333H37.5007C37.9607 38.3333 38.334 37.96 38.334 37.5V30.8333C38.334 30.3733 37.9607 30 37.5007 30H30.834Z" fill="#797B7E"/>
<path d="M22.5 15H2.5C1.12167 15 0 13.8783 0 12.5V2.5C0 1.12167 1.12167 0 2.5 0H22.5C23.8783 0 25 1.12167 25 2.5V12.5C25 13.8783 23.8783 15 22.5 15ZM2.5 1.66667C2.04 1.66667 1.66667 2.04 1.66667 2.5V12.5C1.66667 12.96 2.04 13.3333 2.5 13.3333H22.5C22.96 13.3333 23.3333 12.96 23.3333 12.5V2.5C23.3333 2.04 22.96 1.66667 22.5 1.66667H2.5Z" fill="#797B7E"/>
<path d="M39.1667 20H0.833333C0.373333 20 0 19.6266 0 19.1666C0 18.7066 0.373333 18.3333 0.833333 18.3333H39.1667C39.6267 18.3333 40 18.7066 40 19.1666C40 19.6266 39.6267 20 39.1667 20Z" fill="#797B7E"/>
<path d="M39.1667 25H0.833333C0.373333 25 0 24.6266 0 24.1666C0 23.7066 0.373333 23.3333 0.833333 23.3333H39.1667C39.6267 23.3333 40 23.7066 40 24.1666C40 24.6266 39.6267 25 39.1667 25Z" fill="#797B7E"/>
<path d="M24.1667 30H0.833333C0.373333 30 0 29.6266 0 29.1666C0 28.7066 0.373333 28.3333 0.833333 28.3333H24.1667C24.6267 28.3333 25 28.7066 25 29.1666C25 29.6266 24.6267 30 24.1667 30Z" fill="#797B7E"/>
<path d="M24.1667 35H0.833333C0.373333 35 0 34.6266 0 34.1666C0 33.7066 0.373333 33.3333 0.833333 33.3333H24.1667C24.6267 33.3333 25 33.7066 25 34.1666C25 34.6266 24.6267 35 24.1667 35Z" fill="#797B7E"/>
<path d="M24.1667 40H0.833333C0.373333 40 0 39.6266 0 39.1666C0 38.7066 0.373333 38.3333 0.833333 38.3333H24.1667C24.6267 38.3333 25 38.7066 25 39.1666C25 39.6266 24.6267 40 24.1667 40Z" fill="#797B7E"/>
<path d="M39.1673 3.33335H29.1673C28.7073 3.33335 28.334 2.96002 28.334 2.50002C28.334 2.04002 28.7073 1.66669 29.1673 1.66669H39.1673C39.6273 1.66669 40.0007 2.04002 40.0007 2.50002C40.0007 2.96002 39.6273 3.33335 39.1673 3.33335Z" fill="#797B7E"/>
<path d="M39.1673 8.33335H29.1673C28.7073 8.33335 28.334 7.96002 28.334 7.50002C28.334 7.04002 28.7073 6.66669 29.1673 6.66669H39.1673C39.6273 6.66669 40.0007 7.04002 40.0007 7.50002C40.0007 7.96002 39.6273 8.33335 39.1673 8.33335Z" fill="#797B7E"/>
<path d="M39.1673 13.3334H29.1673C28.7073 13.3334 28.334 12.96 28.334 12.5C28.334 12.04 28.7073 11.6667 29.1673 11.6667H39.1673C39.6273 11.6667 40.0007 12.04 40.0007 12.5C40.0007 12.96 39.6273 13.3334 39.1673 13.3334Z" fill="#797B7E"/>
</g>
<defs>
<clipPath id="clip0_592_3574">
<rect width="40" height="40" fill="white"/>
</clipPath>
</defs>
</svg>
