<svg width="512" height="512" viewBox="0 0 512 512" fill="none" xmlns="http://www.w3.org/2000/svg">
<g clip-path="url(#clip0_426_2486)">
<path d="M272.57 165.56H25C18.3696 165.56 12.0107 162.926 7.32233 158.238C2.63392 153.549 0 147.19 0 140.56C0 133.93 2.63392 127.571 7.32233 122.882C12.0107 118.194 18.3696 115.56 25 115.56H272.6C279.23 115.56 285.589 118.194 290.278 122.882C294.966 127.571 297.6 133.93 297.6 140.56C297.6 147.19 294.966 153.549 290.278 158.238C285.589 162.926 279.23 165.56 272.6 165.56H272.57Z" fill="#797B7E"/>
<path d="M487 165.56H424.42C417.79 165.56 411.431 162.926 406.742 158.238C402.054 153.549 399.42 147.19 399.42 140.56C399.42 133.93 402.054 127.571 406.742 122.882C411.431 118.194 417.79 115.56 424.42 115.56H487C493.63 115.56 499.989 118.194 504.678 122.882C509.366 127.571 512 133.93 512 140.56C512 147.19 509.366 153.549 504.678 158.238C499.989 162.926 493.63 165.56 487 165.56Z" fill="#797B7E"/>
<path d="M487 396.44H239.43C232.8 396.44 226.441 393.806 221.753 389.118C217.064 384.429 214.43 378.07 214.43 371.44C214.43 364.81 217.064 358.451 221.753 353.762C226.441 349.074 232.8 346.44 239.43 346.44H487C493.631 346.44 499.989 349.074 504.678 353.762C509.366 358.451 512 364.81 512 371.44C512 378.07 509.366 384.429 504.678 389.118C499.989 393.806 493.631 396.44 487 396.44Z" fill="#797B7E"/>
<path d="M87.58 396.44H25C18.3696 396.44 12.0107 393.806 7.32233 389.118C2.63392 384.429 0 378.07 0 371.44C0 364.81 2.63392 358.451 7.32233 353.762C12.0107 349.074 18.3696 346.44 25 346.44H87.58C94.2104 346.44 100.569 349.074 105.258 353.762C109.946 358.451 112.58 364.81 112.58 371.44C112.58 378.07 109.946 384.429 105.258 389.118C100.569 393.806 94.2104 396.44 87.58 396.44Z" fill="#797B7E"/>
<path d="M163.51 470.52C143.547 470.522 124.033 464.604 107.433 453.515C90.8343 442.426 77.8963 426.664 70.2556 408.221C62.6149 389.779 60.6147 369.485 64.508 349.906C68.4013 330.327 78.0131 312.342 92.128 298.225C106.243 284.109 124.227 274.495 143.806 270.6C163.385 266.705 183.679 268.703 202.122 276.342C220.565 283.981 236.329 296.917 247.419 313.515C258.51 330.113 264.43 349.628 264.43 369.59C264.411 396.351 253.773 422.011 234.851 440.934C215.929 459.858 190.271 470.499 163.51 470.52ZM163.51 318.67C153.436 318.668 143.588 321.654 135.211 327.249C126.834 332.845 120.305 340.799 116.449 350.105C112.593 359.412 111.583 369.653 113.548 379.534C115.513 389.414 120.364 398.49 127.487 405.613C134.61 412.736 143.686 417.587 153.566 419.552C163.447 421.517 173.688 420.507 182.995 416.651C192.301 412.795 200.255 406.266 205.851 397.889C211.446 389.512 214.432 379.664 214.43 369.59C214.409 356.092 209.037 343.152 199.492 333.608C189.948 324.063 177.008 318.691 163.51 318.67Z" fill="#797B7E"/>
<path d="M348.49 241.49C328.528 241.49 309.014 235.571 292.416 224.48C275.819 213.39 262.882 197.627 255.243 179.184C247.604 160.742 245.605 140.448 249.499 120.87C253.394 101.291 263.006 83.3071 277.122 69.1918C291.237 55.0764 309.221 45.4638 328.8 41.5694C348.378 37.675 368.672 39.6737 387.114 47.3129C405.557 54.952 421.32 67.8885 432.41 84.4864C443.501 101.084 449.42 120.598 449.42 140.56C449.402 167.323 438.762 192.984 419.838 211.908C400.914 230.832 375.253 241.472 348.49 241.49ZM348.49 89.6401C338.417 89.6401 328.569 92.6273 320.194 98.224C311.818 103.821 305.29 111.775 301.436 121.082C297.581 130.389 296.573 140.63 298.539 150.51C300.505 160.389 305.357 169.464 312.481 176.587C319.604 183.709 328.68 188.559 338.56 190.523C348.44 192.487 358.681 191.477 367.987 187.62C377.293 183.764 385.247 177.235 390.842 168.858C396.437 160.481 399.422 150.633 399.42 140.56C399.399 127.06 394.026 114.119 384.479 104.574C374.932 95.029 361.99 89.6586 348.49 89.6401Z" fill="#797B7E"/>
</g>
<defs>
<clipPath id="clip0_426_2486">
<rect width="512" height="512" fill="white"/>
</clipPath>
</defs>
</svg>
