<svg width="512" height="512" viewBox="0 0 512 512" fill="none" xmlns="http://www.w3.org/2000/svg">
<path d="M277.333 485.333H234.667C164.267 485.333 121.813 471.253 113.92 399.787C112.64 390.187 112 378.667 112 362.667V149.333C112 133.333 112.64 121.813 114.133 111.573C121.813 40.7467 164.267 26.6667 234.667 26.6667H277.333C347.733 26.6667 390.187 40.7467 398.08 112.213C399.36 121.813 400 133.333 400 149.333V362.667C400 378.667 399.36 390.187 397.867 400.427C390.187 471.253 347.733 485.333 277.333 485.333ZM234.667 58.6667C164.053 58.6667 150.613 72.96 145.92 115.627C144.64 124.8 144 134.827 144 149.333V362.667C144 377.173 144.64 387.2 145.707 395.733C150.4 439.04 164.053 453.333 234.667 453.333H277.333C347.947 453.333 361.387 439.04 366.08 396.373C367.36 387.413 368 377.173 368 362.667V149.333C368 135.04 367.36 124.8 366.293 116.267C361.6 72.96 347.947 58.6667 277.333 58.6667H234.667Z" fill="#797B7E"/>
<path d="M120.96 414.295H113.707C47.7865 414.295 26.6665 393.175 26.6665 327.042V184.962C26.6665 118.828 47.7865 97.7084 113.707 97.7084H120.96C124.587 97.7084 127.573 97.7084 130.987 97.9217C135.467 98.135 139.52 100.268 142.293 103.895C145.067 107.522 146.347 111.788 145.707 116.268C144.64 124.802 144 134.828 144 149.335V362.669C144 377.175 144.64 387.202 145.707 395.735C146.347 400.215 145.067 404.695 142.293 408.109C139.52 411.522 135.467 413.655 130.987 414.082C127.573 414.295 124.587 414.295 120.96 414.295ZM112.427 129.708C65.7065 129.922 58.6665 137.388 58.6665 184.962V327.042C58.6665 374.615 65.7065 382.082 112.427 382.295C112.213 376.535 112 370.135 112 362.669V149.335C112 141.868 112.213 135.468 112.427 129.708Z" fill="#797B7E"/>
<path d="M398.287 414.295H391.034C387.407 414.295 384.42 414.295 381.007 414.082C376.527 413.869 372.474 411.735 369.7 408.109C366.927 404.695 365.647 400.215 366.287 395.735C367.567 387.202 367.994 376.962 367.994 362.669V149.335C367.994 135.042 367.354 124.802 366.287 116.268C365.647 111.788 366.927 107.308 369.7 103.895C372.474 100.482 376.527 98.3484 381.007 97.9217C384.42 97.7084 387.407 97.7084 391.034 97.7084H398.287C464.207 97.7084 485.327 118.828 485.327 184.962V327.042C485.327 393.175 464.207 414.295 398.287 414.295ZM399.567 129.708C399.78 135.468 399.994 141.868 399.994 149.335V362.669C399.994 370.135 399.78 376.535 399.567 382.295C446.287 382.082 453.327 374.615 453.327 327.042V184.962C453.327 137.388 446.287 129.922 399.567 129.708Z" fill="#797B7E"/>
</svg>
