<svg fill="none" height="512" viewBox="0 0 20 20" width="512" xmlns="http://www.w3.org/2000/svg"><g fill="rgb(0,0,0)"><path clip-rule="evenodd" d="m8.24052 9 .81562 2.3304c.18245.5212.75293.7959 1.27416.6135.5213-.1825.796-.753.6136-1.2743l-3.33487-9.52802c-.23931-.68375-.88461-1.14158-1.60903-1.14158s-1.36972.457829-1.60904 1.14158l-3.33482 9.52802c-.182448.5213.09223 1.0918.61351 1.2743.52128.1824 1.09176-.0923 1.27421-.6135l.81562-2.3304zm-.7-2-1.54052-4.40148-1.54052 4.40148z" fill-rule="evenodd"/><path clip-rule="evenodd" d="m15.5 5c.6085 0 1.1808.15531 1.6793.42845.1807-.259.4809-.42845.8207-.42845.5523 0 1 .44772 1 1v5c0 .5523-.4477 1-1 1-.3398 0-.64-.1694-.8207-.4284-.4985.2731-1.0708.4284-1.6793.4284-1.933 0-3.5-1.567-3.5-3.5s1.567-3.5 3.5-3.5zm0 5c.8284 0 1.5-.67157 1.5-1.5s-.6716-1.5-1.5-1.5-1.5.67157-1.5 1.5.6716 1.5 1.5 1.5z" fill-rule="evenodd"/><path d="m2 14c-.55229 0-1.000002.4477-1.000002 1s.447712 1 1.000002 1h16c.5523 0 1-.4477 1-1s-.4477-1-1-1z"/><path d="m2 18c-.55229 0-1.000002.4477-1.000002 1s.447712 1 1.000002 1h12c.5523 0 1-.4477 1-1s-.4477-1-1-1z"/></g></svg>