<svg width="40" height="40" viewBox="0 0 40 40" fill="none" xmlns="http://www.w3.org/2000/svg">
<g clip-path="url(#clip0_592_3567)">
<path d="M1.17188 8.92461C1.81906 8.92461 2.34375 8.39992 2.34375 7.75273V2.34375H7.75273C8.39992 2.34375 8.92461 1.81906 8.92461 1.17188C8.92461 0.524687 8.39992 0 7.75273 0H1.17188C0.524687 0 0 0.524687 0 1.17188V7.75273C0 8.4 0.524687 8.92461 1.17188 8.92461Z" fill="#797B7E"/>
<path d="M38.8289 0H32.248C31.6009 0 31.0762 0.524687 31.0762 1.17188C31.0762 1.81906 31.6009 2.34375 32.248 2.34375H37.657V7.75273C37.657 8.39992 38.1817 8.92461 38.8289 8.92461C39.4761 8.92461 40.0008 8.39992 40.0008 7.75273V1.17188C40.0008 0.524687 39.4761 0 38.8289 0Z" fill="#797B7E"/>
<path d="M38.8289 31.0754C38.1817 31.0754 37.657 31.6001 37.657 32.2473V37.6562H32.248C31.6009 37.6562 31.0762 38.1809 31.0762 38.8281C31.0762 39.4753 31.6009 40 32.248 40H38.8289C39.4761 40 40.0008 39.4753 40.0008 38.8281V32.2473C40.0008 31.6 39.4761 31.0754 38.8289 31.0754Z" fill="#797B7E"/>
<path d="M7.75273 37.6562H2.34375V32.2473C2.34375 31.6001 1.81906 31.0754 1.17188 31.0754C0.524687 31.0754 0 31.6001 0 32.2473V38.8281C0 39.4753 0.524687 40 1.17188 40H7.75273C8.39992 40 8.92461 39.4753 8.92461 38.8281C8.92461 38.1809 8.4 37.6562 7.75273 37.6562Z" fill="#797B7E"/>
<path d="M32.7867 14.9516V7.55077C32.7867 7.18358 32.4891 6.88593 32.1211 6.88593H20.0008H7.88047C7.5125 6.88593 7.21484 7.18358 7.21484 7.55077V14.9516C7.21484 15.3195 7.5125 15.6172 7.88047 15.6172H11.4148C11.782 15.6172 12.0797 15.3195 12.0797 14.9516V12.4164C12.0797 12.0484 12.3781 11.7508 12.7453 11.7508H16.9023C17.2703 11.7508 17.568 12.0484 17.568 12.4164V30.7086C17.568 31.0765 17.2703 31.3742 16.9023 31.3742H15.0844C14.7164 31.3742 14.4188 31.6719 14.4188 32.0398V35.5742C14.4188 35.9414 14.7164 36.239 15.0844 36.239H20.0008H24.9172C25.2852 36.239 25.5828 35.9414 25.5828 35.5742V32.0398C25.5828 31.6719 25.2852 31.3742 24.9172 31.3742H23.0992C22.7313 31.3742 22.4336 31.0765 22.4336 30.7086V12.4164C22.4336 12.0484 22.7313 11.7508 23.0992 11.7508H27.2562C27.6234 11.7508 27.9219 12.0484 27.9219 12.4164V14.9516C27.9219 15.3195 28.2195 15.6172 28.5867 15.6172H32.1211C32.4891 15.6172 32.7867 15.3195 32.7867 14.9516Z" fill="#797B7E"/>
</g>
<defs>
<clipPath id="clip0_592_3567">
<rect width="40" height="40" fill="white"/>
</clipPath>
</defs>
</svg>
