<svg width="30" height="30" viewBox="0 0 30 30" fill="none" xmlns="http://www.w3.org/2000/svg">
<path d="M25.4971 11.8492C27.1384 10.2079 27.4489 7.74004 26.4288 5.7858L23.6643 8.55029L21.4651 6.35101L24.2296 3.58657C22.2754 2.56649 19.8074 2.87703 18.1661 4.51824C16.5956 6.08877 16.2438 8.41622 17.1101 10.3261L3.83092 22.5445C2.74251 23.5241 2.69802 25.216 3.73348 26.2515C4.76889 27.2869 6.46085 27.2424 7.44044 26.154L19.6892 12.9052C21.5992 13.7715 23.9266 13.4197 25.4971 11.8492Z" stroke="#797B7E" stroke-width="1.2" stroke-miterlimit="10" stroke-linecap="round" stroke-linejoin="round"/>
<path d="M5.46499 25.0081C5.73474 25.0081 5.95341 24.7894 5.95341 24.5197C5.95341 24.2499 5.73474 24.0312 5.46499 24.0312C5.19524 24.0312 4.97656 24.2499 4.97656 24.5197C4.97656 24.7894 5.19524 25.0081 5.46499 25.0081Z" fill="#797B7E"/>
<path d="M25.373 22.1519L22.1367 25.3883" stroke="#797B7E" stroke-width="1.2" stroke-miterlimit="10" stroke-linecap="round" stroke-linejoin="round"/>
<path d="M17.6693 15.0895C18.3647 14.9191 19.2818 15.181 19.8248 15.724L19.5501 16.2745C19.4453 16.483 19.3944 16.7079 19.3944 16.9307C19.3944 18.0207 20.5443 18.7326 21.5199 18.2448L22.0704 17.9696L26.5362 23.6261C27.1923 24.457 27.1195 25.6445 26.3742 26.3898C25.6269 27.1366 24.4393 27.2065 23.6105 26.5517L17.9539 22.086L18.2292 21.5356C18.5158 20.9622 18.3946 20.2809 17.9539 19.8404C17.5068 19.3937 16.8241 19.2825 16.2589 19.5657L15.7084 19.8404C15.2352 19.3672 15.0195 18.4983 15.0882 17.8812" stroke="#797B7E" stroke-width="1.2" stroke-miterlimit="10" stroke-linecap="round" stroke-linejoin="round"/>
<path d="M23.7218 20.0607L20.0454 23.7372" stroke="#797B7E" stroke-width="1.2" stroke-miterlimit="10" stroke-linecap="round" stroke-linejoin="round"/>
<path d="M12.7897 14.3015L5.41781 6.92968L4.85621 7.49117L2.98486 4.12309L4.1079 3L7.47598 4.8714L6.91449 5.43295L14.3486 12.8671" stroke="#797B7E" stroke-width="1.2" stroke-miterlimit="10" stroke-linecap="round" stroke-linejoin="round"/>
<path d="M14.7759 18.22L11.7832 15.2273" stroke="#797B7E" stroke-width="1.2" stroke-miterlimit="10" stroke-linecap="round" stroke-linejoin="round"/>
</svg>
