<svg width="30" height="30" viewBox="0 0 30 30" fill="none" xmlns="http://www.w3.org/2000/svg">
<path d="M25.4971 11.8493C27.1384 10.208 27.4489 7.7401 26.4288 5.78586L23.6643 8.55035L21.4651 6.35107L24.2296 3.58663C22.2754 2.56655 19.8074 2.87709 18.1661 4.5183C16.5956 6.08883 16.2438 8.41628 17.1101 10.3262L3.83092 22.5446C2.74251 23.5242 2.69802 25.2161 3.73348 26.2516C4.76889 27.287 6.46085 27.2425 7.44044 26.1541L19.6892 12.9053C21.5992 13.7716 23.9266 13.4198 25.4971 11.8493Z" stroke="#797B7E" stroke-width="1.2" stroke-miterlimit="10" stroke-linecap="round" stroke-linejoin="round"/>
<path d="M5.46499 25.0082C5.73474 25.0082 5.95341 24.7894 5.95341 24.5197C5.95341 24.2499 5.73474 24.0312 5.46499 24.0312C5.19524 24.0312 4.97656 24.2499 4.97656 24.5197C4.97656 24.7894 5.19524 25.0082 5.46499 25.0082Z" fill="#797B7E"/>
<path d="M25.373 22.1519L22.1367 25.3883" stroke="#797B7E" stroke-width="1.2" stroke-miterlimit="10" stroke-linecap="round" stroke-linejoin="round"/>
<path d="M17.6693 15.0896C18.3647 14.9192 19.2818 15.1811 19.8248 15.7241L19.5501 16.2746C19.4453 16.4831 19.3944 16.708 19.3944 16.9308C19.3944 18.0208 20.5443 18.7327 21.5199 18.2449L22.0704 17.9697L26.5362 23.6262C27.1923 24.4571 27.1195 25.6446 26.3742 26.3899C25.6269 27.1367 24.4393 27.2066 23.6105 26.5518L17.9539 22.0861L18.2292 21.5357C18.5158 20.9623 18.3946 20.281 17.9539 19.8405C17.5068 19.3938 16.8241 19.2826 16.2589 19.5658L15.7084 19.8405C15.2352 19.3673 15.0195 18.4984 15.0882 17.8813" stroke="#797B7E" stroke-width="1.2" stroke-miterlimit="10" stroke-linecap="round" stroke-linejoin="round"/>
<path d="M23.7218 20.0607L20.0454 23.7372" stroke="#797B7E" stroke-width="1.2" stroke-miterlimit="10" stroke-linecap="round" stroke-linejoin="round"/>
<path d="M12.7897 14.3015L5.41781 6.92968L4.85621 7.49117L2.98486 4.12309L4.1079 3L7.47598 4.8714L6.91449 5.43295L14.3486 12.8671" stroke="#797B7E" stroke-width="1.2" stroke-miterlimit="10" stroke-linecap="round" stroke-linejoin="round"/>
<path d="M14.7759 18.22L11.7832 15.2273" stroke="#797B7E" stroke-width="1.2" stroke-miterlimit="10" stroke-linecap="round" stroke-linejoin="round"/>
</svg>
