<svg width="24" height="24" viewBox="0 0 24 24" fill="none" xmlns="http://www.w3.org/2000/svg">
<path d="M21 16.25H20.328C20.241 15.864 20.087 15.504 19.881 15.18L20.357 14.703C20.65 14.41 20.65 13.935 20.357 13.642C20.064 13.349 19.589 13.349 19.296 13.642L18.82 14.119C18.495 13.913 18.136 13.759 17.75 13.672V13C17.75 12.586 17.414 12.25 17 12.25C16.586 12.25 16.25 12.586 16.25 13V13.672C15.864 13.759 15.505 13.913 15.18 14.119L14.704 13.642C14.411 13.349 13.936 13.349 13.643 13.642C13.35 13.935 13.35 14.41 13.643 14.703L14.119 15.18C13.913 15.505 13.759 15.864 13.672 16.25H13C12.586 16.25 12.25 16.586 12.25 17C12.25 17.414 12.586 17.75 13 17.75H13.672C13.759 18.136 13.913 18.496 14.119 18.82L13.643 19.297C13.35 19.59 13.35 20.065 13.643 20.358C13.789 20.504 13.981 20.578 14.173 20.578C14.365 20.578 14.557 20.505 14.703 20.358L15.179 19.881C15.504 20.087 15.863 20.241 16.249 20.328V21C16.249 21.414 16.585 21.75 16.999 21.75C17.413 21.75 17.749 21.414 17.749 21V20.328C18.135 20.241 18.494 20.087 18.819 19.881L19.295 20.358C19.441 20.504 19.633 20.578 19.825 20.578C20.017 20.578 20.209 20.505 20.355 20.358C20.648 20.065 20.648 19.59 20.355 19.297L19.879 18.82C20.085 18.495 20.239 18.136 20.326 17.75H20.998C21.412 17.75 21.748 17.414 21.748 17C21.748 16.586 21.412 16.25 20.998 16.25H21ZM18.35 18.35C18.344 18.356 18.342 18.364 18.337 18.37C17.991 18.707 17.521 18.917 17.001 18.917C16.481 18.917 16.01 18.707 15.665 18.37C15.659 18.364 15.657 18.356 15.652 18.35C15.647 18.344 15.638 18.342 15.632 18.337C15.295 17.991 15.085 17.52 15.085 17.001C15.085 16.482 15.295 16.011 15.632 15.665C15.638 15.659 15.646 15.658 15.652 15.652C15.658 15.646 15.66 15.638 15.665 15.632C16.011 15.295 16.481 15.085 17.001 15.085C17.521 15.085 17.992 15.295 18.337 15.632C18.343 15.638 18.345 15.646 18.35 15.652C18.355 15.658 18.364 15.66 18.37 15.665C18.707 16.011 18.917 16.481 18.917 17.001C18.917 17.521 18.707 17.992 18.37 18.337C18.364 18.343 18.356 18.344 18.35 18.35ZM12 11.75C9.381 11.75 7.25 9.619 7.25 7C7.25 4.381 9.381 2.25 12 2.25C14.619 2.25 16.75 4.381 16.75 7C16.75 9.619 14.619 11.75 12 11.75ZM12 3.75C10.208 3.75 8.75 5.208 8.75 7C8.75 8.792 10.208 10.25 12 10.25C13.792 10.25 15.25 8.792 15.25 7C15.25 5.208 13.792 3.75 12 3.75ZM11.72 21C11.72 20.586 11.384 20.25 10.97 20.25H6C5.311 20.25 4.75 19.689 4.75 19C4.75 16.656 6.657 14.75 9 14.75H11C11.414 14.75 11.75 14.414 11.75 14C11.75 13.586 11.414 13.25 11 13.25H9C5.83 13.25 3.25 15.829 3.25 19C3.25 20.517 4.483 21.75 6 21.75H10.97C11.384 21.75 11.72 21.414 11.72 21Z" fill="#797B7E"/>
</svg>
