<svg width="30" height="30" viewBox="0 0 30 30" fill="none" xmlns="http://www.w3.org/2000/svg">
<path fill-rule="evenodd" clip-rule="evenodd" d="M18.6542 4L23.6976 9.04339V25.1082C23.6976 25.5987 23.2962 26.0001 22.8057 26.0001H7.19512C6.70459 26.0001 6.30322 25.5988 6.30322 25.1082V4.89185C6.30322 4.40132 6.70454 4 7.19512 4H18.6542Z" stroke="#797B7E" stroke-miterlimit="2.6131" stroke-linecap="round" stroke-linejoin="round"/>
<path d="M23.3657 9.04332H18.5459V4.22351" stroke="#797B7E" stroke-miterlimit="2.6131" stroke-linecap="round" stroke-linejoin="round"/>
<path d="M16.5891 11.3164C17.2489 9.01625 15.9191 6.61686 13.619 5.95713C11.319 5.2974 8.9196 6.62716 8.25987 8.92724C7.60014 11.2273 8.92991 13.6267 11.2299 14.2865C13.53 14.9462 15.9294 13.6164 16.5891 11.3164Z" stroke="#797B7E" stroke-miterlimit="2.6131" stroke-linecap="round" stroke-linejoin="round"/>
<path d="M11.3958 11.5529C10.6329 11.8075 10.0791 12.53 10.0791 13.3756V13.5415M14.7696 13.5415V13.3756C14.7696 12.53 14.2158 11.8075 13.4529 11.5529" stroke="#797B7E" stroke-miterlimit="2.6131" stroke-linecap="round" stroke-linejoin="round"/>
<path d="M21.9085 16.7886H14.9727M13.1841 16.7886H8.09131" stroke="#797B7E" stroke-miterlimit="2.6131" stroke-linecap="round" stroke-linejoin="round"/>
<path d="M15 21.2602H8.09131M8.09131 19.0244H17.1907M18.9793 19.0244H21.9085" stroke="#797B7E" stroke-miterlimit="2.6131" stroke-linecap="round" stroke-linejoin="round"/>
<path d="M18.1396 14.5529H21.9088" stroke="#797B7E" stroke-miterlimit="2.6131" stroke-linecap="round" stroke-linejoin="round"/>
<path fill-rule="evenodd" clip-rule="evenodd" d="M12.4247 8.00061C13.2679 8.00061 13.9578 8.69049 13.9578 9.53373V10.3003C13.9578 11.1435 13.2679 11.8334 12.4247 11.8334C11.5815 11.8334 10.8916 11.1435 10.8916 10.3003V9.53373C10.8916 8.69053 11.5815 8.00061 12.4247 8.00061Z" stroke="#797B7E" stroke-miterlimit="22.9256" stroke-linecap="round" stroke-linejoin="round"/>
</svg>
