<svg id="Layer_1" enable-background="new 0 0 124 124" height="512" viewBox="0 0 124 124" width="512" xmlns="http://www.w3.org/2000/svg"><path d="m103 93.991h-82v-10.161c0-22.644 18.356-41 41-41 22.644 0 41 18.356 41 41z" fill="#fff"/><path d="m81.179 79.806v7.351" fill="#fff"/><path d="m81.18 89.157c-1.104 0-2-.896-2-2v-7.351c0-1.104.896-2 2-2s2 .896 2 2v7.351c0 1.104-.896 2-2 2z" fill="#1c7fff"/><path d="m42.821 79.806v7.351" fill="#fff"/><path d="m42.82 89.157c-1.104 0-2-.896-2-2v-7.351c0-1.104.896-2 2-2s2 .896 2 2v7.351c0 1.104-.895 2-2 2z" fill="#1c7fff"/><ellipse cx="62" cy="25.905" fill="#fff" rx="24.179" ry="23.905"/><path d="m89.481 90.067h-4.334c-.591-2.869-1.773-5.646-3.546-8.053l3.152-2.869c.788-.74.788-1.851.098-2.592l-3.841-3.61c-.788-.74-1.97-.74-2.758-.093l-3.152 2.87c-2.462-1.574-5.319-2.777-8.471-3.332v-4.073c0-1.018-.886-1.944-1.97-1.944h-5.319c-.985.093-1.97.833-1.97 1.851l.098 4.258c-3.053.555-6.008 1.666-8.569 3.332l-3.053-2.962c-.788-.74-1.97-.74-2.758-.093l-3.743 3.517c-.788.74-.788 1.851-.098 2.592l3.053 2.962c-1.674 2.314-2.955 4.998-3.546 7.96h-4.334c-.985.093-1.97.833-1.97 1.851v4.998c.098.926.886 1.851 1.97 1.851h4.334c.591 2.869 1.773 5.646 3.546 8.053l-3.152 2.869c-.788.74-.788 1.851-.098 2.592l3.743 3.517c.788.74 1.97.74 2.758.093l3.152-2.869c2.462 1.574 5.319 2.777 8.471 3.332v4.073c.098.926.886 1.851 1.97 1.851h5.319c.985-.093 1.97-.833 1.97-1.851v-4.073c3.053-.555 6.008-1.666 8.569-3.332l3.053 2.962c.788.74 1.97.74 2.758.093l3.743-3.517c.788-.74.788-1.851.098-2.592l-2.955-2.962c1.674-2.314 2.955-4.998 3.546-7.96h4.334c.985-.093 1.97-.833 1.97-1.851v-4.998c0-1.11-.886-1.851-2.068-1.851z" fill="#25e1bb"/><path d="m79.929 44.756c5.074-4.727 8.251-11.427 8.251-18.851 0-14.284-11.744-25.905-26.18-25.905s-26.18 11.621-26.18 25.905c0 7.428 3.181 14.132 8.26 18.859-14.784 6.808-25.08 21.751-25.08 39.066v10.161c0 1.104.896 2 2 2h9.451v.647l.011.212c.217 2.041 1.957 3.639 3.959 3.639h2.763c.571 2.034 1.416 3.975 2.495 5.735l-1.9 1.73c-1.564 1.471-1.649 3.848-.192 5.412l3.837 3.612c1.495 1.402 3.814 1.481 5.397.179l2.129-1.935c1.982 1.11 4.066 1.938 6.223 2.473v2.453l.011.211c.216 2.041 1.955 3.64 3.958 3.64h5.413l.094-.009c2.121-.2 3.783-1.888 3.783-3.842v-2.457c2.232-.551 4.36-1.379 6.28-2.442l1.974 1.914c1.495 1.403 3.815 1.481 5.397.179l3.842-3.604c1.565-1.47 1.65-3.848.146-5.462l-1.794-1.799c1.133-1.82 1.984-3.731 2.543-5.71h2.76l.187-.009c2.122-.199 3.784-1.886 3.784-3.842v-.925h9.449c1.104 0 2-.896 2-2v-10.161c0-17.314-10.289-32.265-25.071-39.074zm-40.109-18.851c0-12.078 9.95-21.905 22.18-21.905s22.18 9.827 22.18 21.905-9.95 21.905-22.18 21.905-22.18-9.827-22.18-21.905zm49.729 70.824c-.015.015-.024.024-.039.039h-4.265c-.953 0-1.774.673-1.961 1.608v.001c-.503 2.52-1.581 4.936-3.205 7.179-.575.795-.489 1.89.204 2.585l2.787 2.792-3.553 3.339c-.027 0-.043 0-.07-.001l-3.053-2.962c-.67-.65-1.701-.75-2.484-.241-2.255 1.467-4.964 2.519-7.836 3.041-.951.173-1.642 1.001-1.642 1.968v3.816c-.042.042-.066.066-.108.108l-5.096.019c-.021-.021-.033-.033-.055-.055v-3.889c0-.971-.697-1.801-1.653-1.97-2.721-.479-5.325-1.504-7.741-3.048-.762-.486-1.755-.402-2.423.207l-3.088 2.811c-.02.011-.063.027-.105-.013l-3.52-3.308 3.004-2.734c.758-.69.872-1.84.264-2.665-1.543-2.094-2.649-4.608-3.197-7.27-.191-.929-1.011-1.594-1.959-1.591l-4.261.014c-.017-.017-.026-.026-.043-.043v-4.638c.015-.015.024-.024.039-.039h4.265c.954 0 1.775-.673 1.961-1.608.503-2.521 1.582-4.936 3.205-7.18.583-.805.486-1.916-.227-2.608l-2.858-2.773 3.544-3.331c.03 0 .049 0 .079.001l3.05 2.958c.67.65 1.7.75 2.483.241 2.255-1.467 4.965-2.519 7.836-3.041.968-.176 1.664-1.03 1.641-2.014l-.094-4.026c.014-.015.022-.023.037-.038l5.218-.056v4.073c0 .971.697 1.801 1.653 1.969 2.722.479 5.326 1.505 7.741 3.048.761.486 1.754.402 2.422-.207l3.088-2.811c.021-.01.065-.027.106.012l3.619 3.4-3.004 2.735c-.757.69-.871 1.84-.264 2.665 1.543 2.095 2.649 4.609 3.197 7.271v.001c.192.929 1.01 1.596 1.958 1.596h4.335l.068.068zm11.451-4.738h-7.451v-.073c0-2.196-1.749-3.852-4.068-3.852h-2.764c-.571-2.034-1.416-3.975-2.495-5.735l1.899-1.729c1.565-1.47 1.65-3.848.193-5.413l-3.936-3.705c-1.494-1.403-3.814-1.48-5.397-.18l-2.13 1.935c-1.982-1.109-4.065-1.938-6.223-2.473v-2.453c0-2.138-1.818-3.943-3.97-3.943h-5.318l-.187.009c-2.122.199-3.783 1.887-3.783 3.889l.061 2.604c-2.218.551-4.333 1.375-6.243 2.434l-1.973-1.914c-1.495-1.405-3.815-1.482-5.398-.181l-3.842 3.604c-1.565 1.471-1.65 3.848-.193 5.413l1.926 1.872c-1.125 1.813-1.972 3.716-2.529 5.688h-2.759l-.187.009c-2.122.199-3.784 1.886-3.784 3.842v.351h-7.449v-8.16c0-16.446 10.234-30.541 24.666-36.264 4.121 2.679 9.045 4.244 14.334 4.244s10.213-1.565 14.334-4.244c14.432 5.723 24.666 19.819 24.666 36.264z" fill="#1c7fff"/><ellipse cx="62" cy="94.232" fill="#fff" rx="11.903" ry="11.185"/></svg>