<svg id="svg8" height="512" viewBox="0 0 8.466666 8.4666665" width="512" xmlns="http://www.w3.org/2000/svg" xmlns:svg="http://www.w3.org/2000/svg"><g id="layer1" transform="translate(-33.022 -30.617)"><path id="rect34693" d="m35.402904 35.422722h.410497c.293158 0 .529167.236008.529167.529167v.410496c0 .293159-.236009.529167-.529167.529167h-.410497c-.293158 0-.529167-.236008-.529167-.529167v-.410496c0-.293159.236009-.529167.529167-.529167z" fill="#64ddff" stroke-linecap="round" stroke-linejoin="round" stroke-width="3.969" paint-order="fill markers stroke"/><path id="rect23620-2" d="m34.60859 31.41076c-.43516 0-.79296.35976-.79296.79492v1.39062c0 .43516.3578.79297.79296.79297h1.39063c.43516 0 .79492-.35781.79492-.79297v-1.39062c0-.43516-.35976-.79492-.79492-.79492zm0 .52929h1.39063c.15115 0 .26562.11447.26562.26563v1.39062c0 .15116-.11447.26367-.26562.26367h-1.39063c-.15115 0-.26562-.11251-.26562-.26367v-1.39062c0-.15116.11447-.26563.26562-.26563z" fill="#009cff" font-variant-ligatures="normal" font-variant-position="normal" font-variant-caps="normal" font-variant-numeric="normal" font-variant-alternates="normal" font-variant-east-asian="normal" font-feature-settings="normal" font-variation-settings="normal" text-indent="0" text-align="start" text-decoration-line="none" text-decoration-style="solid" text-decoration-color="#000000" text-transform="none" text-orientation="mixed" white-space="normal" shape-padding="0" shape-margin="0" inline-size="0" isolation="auto" mix-blend-mode="normal" solid-color="#000000" solid-opacity="1" vector-effect="none" paint-order="fill markers stroke"/><path id="rect23625-4" d="m39.51707 31.64362c-.30958-.30958-.81876-.31096-1.12833-.001l-.94465.94465c-.30958.30958-.30958.82014 0 1.12971l.94465.94465c.30957.30958.81875.3082 1.12833-.001l.94465-.94465c.30958-.30957.30958-.81737 0-1.12695zm-.37427.37427.94465.94465c.10876.10875.11014.27104.001.37979l-.94465.94465c-.10875.10876-.27242.10876-.38117 0l-.94465-.94465c-.10876-.10875-.10876-.27242 0-.38117l.94465-.94465c.10875-.10876.27104-.10738.37979.001z" fill="#005fc1" font-variant-ligatures="normal" font-variant-position="normal" font-variant-caps="normal" font-variant-numeric="normal" font-variant-alternates="normal" font-variant-east-asian="normal" font-feature-settings="normal" font-variation-settings="normal" text-indent="0" text-align="start" text-decoration-line="none" text-decoration-style="solid" text-decoration-color="#000000" text-transform="none" text-orientation="mixed" white-space="normal" shape-padding="0" shape-margin="0" inline-size="0" isolation="auto" mix-blend-mode="normal" solid-color="#000000" solid-opacity="1" vector-effect="none" paint-order="fill markers stroke"/><g fill="#009cff"><path id="path23627-1" d="m34.60859 35.04552c-.43516 0-.79296.35781-.79296.79297v1.6582c0 .43516.3578.79297.79296.79297h1.39063c.43516 0 .79492-.35781.79492-.79297v-1.6582c0-.43516-.35976-.79297-.79492-.79297zm0 .5293h1.39063c.15115 0 .26562.11251.26562.26367v1.6582c0 .15116-.11447.26368-.26562.26368h-1.39063c-.15115 0-.26562-.11252-.26562-.26368v-1.6582c0-.15116.11447-.26367.26562-.26367z" font-variant-ligatures="normal" font-variant-position="normal" font-variant-caps="normal" font-variant-numeric="normal" font-variant-alternates="normal" font-variant-east-asian="normal" font-feature-settings="normal" font-variation-settings="normal" text-indent="0" text-align="start" text-decoration-line="none" text-decoration-style="solid" text-decoration-color="#000000" text-transform="none" text-orientation="mixed" white-space="normal" shape-padding="0" shape-margin="0" inline-size="0" isolation="auto" mix-blend-mode="normal" solid-color="#000000" solid-opacity="1" vector-effect="none" paint-order="fill markers stroke"/><path id="path23629-6" d="m38.23359 35.30529c-.43516 0-.79492.35976-.79492.79492v1.39648c0 .43516.35976.79297.79492.79297h1.66602c.43516 0 .79492-.35781.79492-.79297v-1.39648c0-.43516-.35976-.79492-.79492-.79492zm0 .52929h1.66602c.15115 0 .26563.11447.26563.26563v1.39648c0 .15116-.11447.26368-.26563.26368h-1.66602c-.15115 0-.26562-.11252-.26562-.26368v-1.39648c0-.15116.11447-.26563.26562-.26563z" font-variant-ligatures="normal" font-variant-position="normal" font-variant-caps="normal" font-variant-numeric="normal" font-variant-alternates="normal" font-variant-east-asian="normal" font-feature-settings="normal" font-variation-settings="normal" text-indent="0" text-align="start" text-decoration-line="none" text-decoration-style="solid" text-decoration-color="#000000" text-transform="none" text-orientation="mixed" white-space="normal" shape-padding="0" shape-margin="0" inline-size="0" isolation="auto" mix-blend-mode="normal" solid-color="#000000" solid-opacity="1" vector-effect="none" paint-order="fill markers stroke"/></g></g></svg>