<svg id="Capa_1" enable-background="new 0 0 510 510" height="512" viewBox="0 0 510 510" width="512" xmlns="http://www.w3.org/2000/svg" xmlns:xlink="http://www.w3.org/1999/xlink"><linearGradient id="lg1"><stop offset="0" stop-color="#deecf1"/><stop offset="1" stop-color="#d9b1ee"/></linearGradient><linearGradient id="SVGID_1_" gradientUnits="userSpaceOnUse" x1="-12.785" x2="71.215" xlink:href="#lg1" y1="284.472" y2="333.806"/><linearGradient id="SVGID_00000155145395023284881630000009390692663249672625_" gradientUnits="userSpaceOnUse" x1="-19.752" x2="64.248" xlink:href="#lg1" y1="296.334" y2="345.667"/><linearGradient id="SVGID_00000138538175682367222330000016394441005418641803_" gradientUnits="userSpaceOnUse" x1="35.79" x2="119.79" xlink:href="#lg1" y1="201.764" y2="251.097"/><linearGradient id="lg2"><stop offset="0" stop-color="#8379c1" stop-opacity="0"/><stop offset=".2831" stop-color="#8374be" stop-opacity=".283"/><stop offset=".5864" stop-color="#8268b5" stop-opacity=".586"/><stop offset=".898" stop-color="#8152a6" stop-opacity=".898"/><stop offset="1" stop-color="#814aa0"/></linearGradient><linearGradient id="SVGID_00000063625345778579276110000014493388812538794130_" gradientUnits="userSpaceOnUse" x1="73.827" x2="88.661" xlink:href="#lg2" y1="263.16" y2="248.326"/><linearGradient id="SVGID_00000143605191805391562100000017830824226976608690_" gradientUnits="userSpaceOnUse" x1="6.736" x2="90.736" xlink:href="#lg1" y1="251.233" y2="300.566"/><linearGradient id="SVGID_00000079487913538934019630000008421415520279388054_" gradientUnits="userSpaceOnUse" x1="184.175" x2="280.675" xlink:href="#lg1" y1="463.493" y2="509.993"/><linearGradient id="SVGID_00000101814626595454384080000006230175305700004263_" gradientUnits="userSpaceOnUse" x1="179.464" x2="275.964" xlink:href="#lg1" y1="473.267" y2="519.767"/><linearGradient id="SVGID_00000124145370513722818080000010070330755281633443_" gradientUnits="userSpaceOnUse" x1="225.9" x2="322.4" xlink:href="#lg1" y1="376.902" y2="423.402"/><linearGradient id="SVGID_00000032633466051912299900000013284423758964039581_" gradientUnits="userSpaceOnUse" x1="191.906" x2="288.406" xlink:href="#lg1" y1="447.447" y2="493.947"/><linearGradient id="SVGID_00000125580002282340946290000017204082518310278025_" gradientUnits="userSpaceOnUse" x1="81.828" x2="143.855" y1="348.437" y2="398.938"><stop offset="0" stop-color="#fff5c6"/><stop offset="1" stop-color="#fee45a"/></linearGradient><linearGradient id="lg3"><stop offset="0" stop-color="#fea613" stop-opacity="0"/><stop offset=".174" stop-color="#fda016" stop-opacity=".174"/><stop offset=".3957" stop-color="#f9911e" stop-opacity=".396"/><stop offset=".6432" stop-color="#f4772b" stop-opacity=".643"/><stop offset=".9076" stop-color="#ec523d" stop-opacity=".908"/><stop offset="1" stop-color="#e94444"/></linearGradient><linearGradient id="SVGID_00000098911625281880524720000018099506560602284423_" gradientUnits="userSpaceOnUse" x1="146.981" x2="204.617" xlink:href="#lg3" y1="382.878" y2="427.34"/><linearGradient id="SVGID_00000168114200749603880270000000122500139505563058_" gradientUnits="userSpaceOnUse" x1="18.183" x2="182.309" xlink:href="#lg3" y1="370.549" y2="385.918"/><linearGradient id="SVGID_00000117641736504107706750000002431543001530579885_" gradientUnits="userSpaceOnUse" x1="145.245" x2="172.231" xlink:href="#lg3" y1="365.979" y2="338.993"/><linearGradient id="lg4"><stop offset="0" stop-color="#9be69d"/><stop offset="1" stop-color="#0bb494"/></linearGradient><linearGradient id="SVGID_00000151545703974813160570000002826355638796375701_" gradientUnits="userSpaceOnUse" x1="252.487" x2="324.748" xlink:href="#lg4" y1="353.513" y2="425.774"/><linearGradient id="lg5"><stop offset="0" stop-color="#01525a" stop-opacity="0"/><stop offset="1" stop-color="#01525a"/></linearGradient><linearGradient id="SVGID_00000064355557911884224510000015139329088084892303_" gradientUnits="userSpaceOnUse" x1="287.659" x2="278.659" xlink:href="#lg5" y1="415.604" y2="381.271"/><linearGradient id="SVGID_00000049921052210496941630000001916999321601443479_" gradientUnits="userSpaceOnUse" x1="272.211" x2="237.211" xlink:href="#lg5" y1="400.172" y2="406.172"/><linearGradient id="SVGID_00000108288124451866831720000010088919842559903618_" gradientUnits="userSpaceOnUse" x1="83.786" x2="150.961" xlink:href="#lg4" y1="176.214" y2="243.389"/><linearGradient id="SVGID_00000158005456194359252960000006655822749966155957_" gradientUnits="userSpaceOnUse" x1="101.667" x2="55.323" xlink:href="#lg5" y1="227.05" y2="227.05"/><linearGradient id="SVGID_00000053540502878491464070000009613970976562548646_" gradientUnits="userSpaceOnUse" x1="290.892" x2="383.696" y1="133.108" y2="225.911"><stop offset="0" stop-color="#deecf1"/><stop offset="1" stop-color="#8ebac5"/></linearGradient><linearGradient id="lg6"><stop offset="0" stop-color="#678d98" stop-opacity="0"/><stop offset=".2265" stop-color="#638892" stop-opacity=".227"/><stop offset=".5216" stop-color="#597b82" stop-opacity=".522"/><stop offset=".8533" stop-color="#476567" stop-opacity=".853"/><stop offset="1" stop-color="#3e5959"/></linearGradient><linearGradient id="SVGID_00000084530103533037659550000011741916441780113074_" gradientUnits="userSpaceOnUse" x1="383.392" x2="439.473" xlink:href="#lg6" y1="225.608" y2="281.688"/><linearGradient id="SVGID_00000040566917819734555250000011919831952134463918_" gradientUnits="userSpaceOnUse" x1="391.294" x2="302.96" xlink:href="#lg6" y1="258.707" y2="170.373"/><linearGradient id="lg7"><stop offset="0" stop-color="#ffa1ae"/><stop offset="1" stop-color="#ff4565"/></linearGradient><linearGradient id="SVGID_00000134942763480225541110000000832261341478559892_" gradientUnits="userSpaceOnUse" x1="162.345" x2="236.281" xlink:href="#lg7" y1="270.655" y2="344.591"/><linearGradient id="SVGID_00000023984491436002558870000007052884469880238240_" gradientUnits="userSpaceOnUse" x1="416.256" x2="476.464" xlink:href="#lg7" y1="22.744" y2="82.952"/><linearGradient id="SVGID_00000110462408024255299100000008079070122866749829_" gradientUnits="userSpaceOnUse" x1="274.96" x2="381.914" xlink:href="#lg4" y1="142.373" y2="249.327"/><linearGradient id="SVGID_00000065063813672466333650000008871715734607861679_" gradientUnits="userSpaceOnUse" x1="321.294" x2="321.294" xlink:href="#lg4" y1="126.5" y2="266.972"/><linearGradient id="SVGID_00000183965377286018500170000013608218758111805312_" gradientUnits="userSpaceOnUse" x1="362.294" x2="299.938" xlink:href="#lg4" y1="229.707" y2="167.351"/><linearGradient id="SVGID_00000132064297502197918780000006901760015916196496_" gradientUnits="userSpaceOnUse" x1="296.294" x2="354.164" y1="163.707" y2="221.577"><stop offset="0" stop-color="#a6e7f0"/><stop offset=".1713" stop-color="#90e2ed"/><stop offset=".5295" stop-color="#56d7e7"/><stop offset="1" stop-color="#02c7dd"/></linearGradient><linearGradient id="lg8"><stop offset="0" stop-color="#0199b1" stop-opacity="0"/><stop offset="1" stop-color="#0199b1"/></linearGradient><linearGradient id="SVGID_00000129915827641403742470000012428106768733739951_" gradientUnits="userSpaceOnUse" x1="300.446" x2="263.446" xlink:href="#lg8" y1="186.171" y2="181.671"/><linearGradient id="SVGID_00000066499716934963463530000013350841045883146153_" gradientUnits="userSpaceOnUse" x1="309.951" x2="291.451" xlink:href="#lg8" y1="169.394" y2="137.894"/><linearGradient id="lg9"><stop offset="0" stop-color="#fd4755" stop-opacity="0"/><stop offset=".2586" stop-color="#f74453" stop-opacity=".259"/><stop offset=".6211" stop-color="#e53b4c" stop-opacity=".621"/><stop offset="1" stop-color="#ca2e43"/></linearGradient><linearGradient id="SVGID_00000027587185461475492750000004303102883265565623_" gradientUnits="userSpaceOnUse" x1="234.374" x2="259.041" xlink:href="#lg9" y1="324.152" y2="383.485"/><linearGradient id="SVGID_00000157285304240614995720000005474911995664819617_" gradientUnits="userSpaceOnUse" x1="464.107" x2="510.107" xlink:href="#lg9" y1="90.486" y2="107.819"/><linearGradient id="lg10"><stop offset="0" stop-color="#deecf1" stop-opacity="0"/><stop offset="1" stop-color="#d9b1ee"/></linearGradient><linearGradient id="SVGID_00000055686063852600280470000017533416123231343750_" gradientUnits="userSpaceOnUse" x1="291.819" x2="274.819" xlink:href="#lg10" y1="439.837" y2="464.837"/><linearGradient id="SVGID_00000009549064847097840730000001350715655447884704_" gradientUnits="userSpaceOnUse" x1="240.626" x2="223.626" xlink:href="#lg10" y1="405.025" y2="430.025"/><linearGradient id="SVGID_00000162311523913614591080000006208875137277816979_" gradientUnits="userSpaceOnUse" x1="117.104" x2="88.739" xlink:href="#lg10" y1="262.77" y2="291.135"/><linearGradient id="SVGID_00000157989965241530141180000001023279423919431582_" gradientUnits="userSpaceOnUse" x1="74.204" x2="45.84" xlink:href="#lg10" y1="219.871" y2="248.236"/><linearGradient id="SVGID_00000088835100851690701920000015608515033397093525_" gradientUnits="userSpaceOnUse" x1="112.494" x2="83.153" xlink:href="#lg2" y1="224.493" y2="253.834"/><linearGradient id="SVGID_00000029732355131620963410000003202579466200909976_" gradientUnits="userSpaceOnUse" x1="317.333" x2="265.026" xlink:href="#lg5" y1="427.264" y2="427.264"/><g><g><path d="m60.733 308.419-21.443 21.443c-2.961 2.961-2.961 7.761 0 10.722s7.761 2.961 10.722 0l21.444-21.444c2.961-2.961 2.961-7.761 0-10.722s-7.762-2.96-10.723.001z" fill="url(#SVGID_1_)"/><path d="m23.664 302.601-21.443 21.444c-2.961 2.961-2.961 7.761 0 10.722s7.761 2.961 10.722 0l21.443-21.444c2.961-2.961 2.961-7.761 0-10.722s-7.761-2.961-10.722 0z" fill="url(#SVGID_00000155145395023284881630000009390692663249672625_)"/><path d="m141.036 195.951c-2.961-2.961-7.761-2.961-10.722 0l-74.485 74.485c-2.961 2.961-2.961 7.761 0 10.722s7.761 2.961 10.722 0l74.485-74.485c2.961-2.961 2.961-7.761 0-10.722z" fill="url(#SVGID_00000138538175682367222330000016394441005418641803_)"/><path d="m141.036 195.951c-2.961-2.961-7.761-2.961-10.722 0l-74.485 74.485c-2.961 2.961-2.961 7.761 0 10.722s7.761 2.961 10.722 0l74.485-74.485c2.961-2.961 2.961-7.761 0-10.722z" fill="url(#SVGID_00000063625345778579276110000014493388812538794130_)"/><path d="m29.26 275.562 11.199-11.199c2.961-2.961 2.961-7.761 0-10.722s-7.761-2.961-10.722 0l-11.199 11.199c-2.961 2.961-2.961 7.761 0 10.722 2.961 2.96 7.761 2.96 10.722 0z" fill="url(#SVGID_00000143605191805391562100000017830824226976608690_)"/></g><g><path d="m248.067 475.614-21.444 21.443c-2.961 2.961-2.961 7.761 0 10.722s7.761 2.961 10.722 0l21.444-21.444c2.961-2.961 2.961-7.761 0-10.722s-7.762-2.96-10.722.001z" fill="url(#SVGID_00000079487913538934019630000008421415520279388054_)"/><path d="m210.997 469.796-21.444 21.444c-2.961 2.961-2.961 7.761 0 10.722s7.761 2.961 10.722 0l21.443-21.443c2.961-2.961 2.961-7.761 0-10.722-2.959-2.962-7.76-2.962-10.721-.001z" fill="url(#SVGID_00000101814626595454384080000006230175305700004263_)"/><path d="m328.369 363.146c-2.961-2.961-7.761-2.961-10.722 0l-74.485 74.485c-2.961 2.961-2.961 7.761 0 10.722s7.761 2.961 10.722 0l74.485-74.485c2.961-2.961 2.961-7.761 0-10.722z" fill="url(#SVGID_00000124145370513722818080000010070330755281633443_)"/><path d="m197.927 461.424 11.199-11.199c2.961-2.961 2.961-7.761 0-10.722s-7.761-2.961-10.722 0l-11.199 11.199c-2.961 2.961-2.961 7.761 0 10.722 2.961 2.96 7.761 2.96 10.722 0z" fill="url(#SVGID_00000032633466051912299900000013284423758964039581_)"/></g><g><g><path d="m138.291 282.155c-40.53 2.143-61.447 36.866-68.746 52.205-.806 1.693 1.476 4.095 3.226 3.377.061-.025.123-.05.184-.074.725-.289 1.491-.357 2.251-.248 4.615.66 5.478 6.968 1.326 9.089-4.611 2.356-9.337 5.661-13.95 10.274-24.851 24.851-17 46.148-26.214 57.758-.652.821.39 2.32 1.537 2.22 1.759-.154 4.053-.436 6.741-.953 1.313-.253 2.804 1.17 2.636 2.519-1.885 15.115-5.573 34.643 2.939 43.156 13.563 13.563 46.504 4.74 70.391-3.806 3.239-1.159 7.376 3.003 6.109 6.178-.019.048-.039.097-.059.145-.566 1.38 1.329 3.179 2.664 2.544 4.402-2.095 10.828-5.612 17.303-10.779 8.259-6.59 17.555-11.776 27.603-15.043 10.49-3.411 22.138-9.392 34.478-21.731 24.402-24.402 19.963-51.296 19.586-59.672-1.986-17.393-10.836-35.859-25.983-51.006-19.008-19.01-43.242-28.114-64.022-26.153z" fill="url(#SVGID_00000125580002282340946290000017204082518310278025_)"/><path d="m120.612 457.671c3.239-1.159 7.376 3.003 6.109 6.178-.019.048-.039.097-.059.145-.566 1.38 1.329 3.179 2.664 2.544 4.402-2.095 10.828-5.612 17.303-10.779 8.259-6.59 17.555-11.776 27.603-15.043 10.49-3.411 22.138-9.392 34.478-21.731 24.402-24.402 19.963-51.296 19.586-59.672-1.986-17.393-10.836-35.859-25.983-51.006-19.008-19.008-43.243-28.113-64.023-26.152-15.913.841-28.802 6.706-39.031 14.448v167.757c7.41-1.929 14.73-4.32 21.353-6.689z" fill="url(#SVGID_00000098911625281880524720000018099506560602284423_)"/><path d="m64.537 388.885c-.625.787.373 2.223 1.473 2.127 1.686-.147 3.884-.418 6.459-.913 1.258-.242 2.687 1.122 2.526 2.413-1.806 14.484-5.341 33.197 2.817 41.355 12.997 12.997 44.562 4.542 67.453-3.647 3.104-1.11 7.068 2.877 5.854 5.92-.018.046-.037.093-.056.139-.542 1.322 1.273 3.047 2.553 2.438 11.593-5.516 37.836-21.325 39.455-51.956 1.482-15.705-5.399-34.021-19.765-48.387-11.448-11.448-25.404-18.136-38.549-19.637-6.33-.285-26.656-3.64-45.099 14.803-23.815 23.812-16.291 44.22-25.121 55.345z" fill="url(#SVGID_00000168114200749603880270000000122500139505563058_)"/><path d="m208.711 418.985c24.402-24.402 19.963-51.296 19.586-59.672-1.986-17.393-10.836-35.859-25.983-51.006-19.008-19.008-43.243-28.113-64.023-26.152-27.015 1.428-45.313 17.331-56.676 32.32l114.925 114.924c3.967-2.852 8.03-6.273 12.171-10.414z" fill="url(#SVGID_00000117641736504107706750000002431543001530579885_)"/></g><g><g><path d="m321.465 308.694-17.179-17.178-88.258 88.258 21.04 21.04-12.768 12.768.012.012-7.409 7.409c-2.961 2.961-2.961 7.761 0 10.722 2.879 2.879 7.492 2.95 10.467.231l20.421-20.421 32.178 32.178-10.069 10.069c-2.961 2.961-2.961 7.761 0 10.722s7.761 2.961 10.722 0l10.17-10.17c8.498 6.798 20.926 6.268 28.801-1.607l1.874-1.874c39.254-39.256 39.254-102.902-.002-142.159z" fill="url(#SVGID_00000151545703974813160570000002826355638796375701_)"/><path d="m321.465 308.694-17.179-17.178-88.258 88.258 21.04 21.04-12.768 12.768.012.012-7.409 7.409c-2.961 2.961-2.961 7.761 0 10.722 2.879 2.879 7.492 2.95 10.467.231l20.421-20.421 32.178 32.178-10.069 10.069c-2.961 2.961-2.961 7.761 0 10.722s7.761 2.961 10.722 0l10.17-10.17c8.498 6.798 20.926 6.268 28.801-1.607l1.874-1.874c39.254-39.256 39.254-102.902-.002-142.159z" fill="url(#SVGID_00000064355557911884224510000015139329088084892303_)"/><path d="m290.79 454.334c8.498 6.798 20.926 6.268 28.801-1.607l1.874-1.874c34.258-34.258 38.616-87.088 13.083-126.076l-86.758 86.758z" fill="url(#SVGID_00000049921052210496941630000001916999321601443479_)"/><path d="m218.484 205.713-17.178-17.178c-39.256-39.256-102.903-39.256-142.159 0l-1.874 1.874c-8.452 8.452-8.452 22.157 0 30.609l2.532 2.532-4.171 4.171.012.012-7.409 7.409c-2.961 2.961-2.961 7.761 0 10.722 2.879 2.879 7.492 2.95 10.467.231l11.823-11.823 32.178 32.178-9.805 9.805c-2.961 2.961-2.961 7.761 0 10.722s7.761 2.961 10.722 0l9.805-9.805 16.801 16.801z" fill="url(#SVGID_00000108288124451866831720000010088919842559903618_)"/><path d="m130.226 293.971 88.258-88.258-17.178-17.178c-15.945-15.945-35.914-25.413-56.638-28.405l-74.142 74.142z" fill="url(#SVGID_00000158005456194359252960000006655822749966155957_)"/></g><path d="m205.333 379.621c9.341 9.341 22.414 12.906 35.55 11.511 30.369-3.226 86.381-21.528 86.381-21.528 107.457-46.042 182.736-152.756 182.736-277.063v-58.152c0-18.993-15.396-34.389-34.388-34.389h-58.152c-124.308 0-231.022 75.279-277.063 182.735 0 0-18.302 56.013-21.528 86.381-1.396 13.136 2.17 26.209 11.511 35.55z" fill="url(#SVGID_00000053540502878491464070000009613970976562548646_)"/><path d="m510 92.54v-58.152c0-9.496-3.849-18.093-10.072-24.316l-332.072 332.072 37.477 37.477c9.341 9.341 22.414 13.906 35.55 12.511 151.27-16.071 269.117-144.059 269.117-299.592z" fill="url(#SVGID_00000084530103533037659550000011741916441780113074_)"/><path d="m477.24 229.276-98.258-98.258-115.377 115.377 102.859 102.859c47.06-28.98 85.545-70.53 110.776-119.978z" fill="url(#SVGID_00000040566917819734555250000011919831952134463918_)"/><path d="m140.406 182.739c-11.565 26.992-19.311 56.009-22.537 86.377-1.396 13.136 3.17 26.209 12.511 35.55l74.954 74.954c9.341 9.341 22.414 13.906 35.55 12.511 30.369-3.226 59.386-10.972 86.377-22.537z" fill="url(#SVGID_00000134942763480225541110000000832261341478559892_)"/><path d="m475.612 0h-58.152c-35.963 0-70.447 6.312-102.421 17.87l177.091 177.092c11.558-31.975 17.87-66.459 17.87-102.421v-58.152c0-18.993-15.396-34.389-34.388-34.389z" fill="url(#SVGID_00000023984491436002558870000007052884469880238240_)"/><g><circle cx="321.293" cy="188.707" fill="url(#SVGID_00000110462408024255299100000008079070122866749829_)" r="81.584"/><circle cx="321.293" cy="188.707" fill="url(#SVGID_00000065063813672466333650000008871715734607861679_)" r="71.496"/><circle cx="321.293" cy="188.707" fill="url(#SVGID_00000183965377286018500170000013608218758111805312_)" r="59.494"/><circle cx="321.293" cy="188.707" fill="url(#SVGID_00000132064297502197918780000006901760015916196496_)" r="50.844"/><circle cx="321.293" cy="188.707" fill="url(#SVGID_00000129915827641403742470000012428106768733739951_)" r="50.844"/><circle cx="321.293" cy="188.707" fill="url(#SVGID_00000066499716934963463530000013350841045883146153_)" r="50.844"/></g><path d="m327.26 369.59c-26.99 11.57-56.01 19.32-86.38 22.54-13.13 1.4-26.21-3.17-35.55-12.51l-37.47-37.47 65.98-65.98z" fill="url(#SVGID_00000027587185461475492750000004303102883265565623_)"/><path d="m510 34.39v58.15c0 35.96-6.31 70.45-17.87 102.42l-88.54-88.54 96.34-96.35c6.22 6.23 10.07 14.83 10.07 24.32z" fill="url(#SVGID_00000157285304240614995720000005474911995664819617_)"/></g></g><path d="m291.342 432.339-21.444 21.444c-2.961 2.961-2.961 7.761 0 10.722s7.761 2.961 10.722 0l21.444-21.444c2.961-2.961 2.961-7.761 0-10.722s-7.761-2.961-10.722 0z" fill="url(#SVGID_00000055686063852600280470000017533416123231343750_)"/><path d="m227.369 431.956 24.377-24.377c2.961-2.961 2.961-7.761 0-10.722s-7.761-2.961-10.722 0l-16.724 16.725.012.012-7.409 7.409c-2.961 2.961-2.961 7.761 0 10.722 2.878 2.879 7.491 2.951 10.466.231z" fill="url(#SVGID_00000009549064847097840730000001350715655447884704_)"/><path d="m114.342 254.81-21.444 21.444c-2.961 2.961-2.961 7.761 0 10.722s7.761 2.961 10.722 0l21.444-21.444c2.961-2.961 2.961-7.761 0-10.722s-7.761-2.961-10.722 0z" fill="url(#SVGID_00000162311523913614591080000006208875137277816979_)"/><path d="m58.703 246.094 24.377-24.377c2.961-2.961 2.961-7.761 0-10.722s-7.761-2.961-10.722 0l-16.725 16.725.012.012-7.409 7.409c-2.961 2.961-2.961 7.761 0 10.722 2.879 2.879 7.492 2.951 10.467.231z" fill="url(#SVGID_00000157989965241530141180000001023279423919431582_)"/><path d="m141.036 195.951c-2.961-2.961-7.761-2.961-10.722 0l-49.054 49.054 10.722 10.722 49.054-49.054c2.961-2.961 2.961-7.761 0-10.722z" fill="url(#SVGID_00000088835100851690701920000015608515033397093525_)"/><path d="m319.591 452.728 1.874-1.874c15.624-15.624 25.008-35.114 28.194-55.389l-58.869 58.869c8.498 6.798 20.927 6.268 28.801-1.606z" fill="url(#SVGID_00000029732355131620963410000003202579466200909976_)"/></g></svg>