<svg height="512" viewBox="0 0 64 64" width="512" xmlns="http://www.w3.org/2000/svg"><g id="Option"><path d="m57 30.08v4.92a2 2 0 0 1 -2 2h-30a2 2 0 0 1 -2-2v-6a2 2 0 0 1 2-2h28" fill="#e6e7e8"/><path d="m47 54h-22a2 2 0 0 1 -2-2v-6a2 2 0 0 1 2-2h30a2 2 0 0 1 2 2v4.92c0 1.7-1.79 3.08-4 3.08" fill="#e6e7e8"/><circle cx="13" cy="49" fill="#00b1ff" r="5"/><rect fill="#00b1ff" height="10" rx="2" width="10" x="8" y="10"/><rect fill="#00b1ff" height="10" rx="2" width="10" x="8" y="27"/><path d="m31 10h24a2 2 0 0 1 2 2v6a2 2 0 0 1 -2 2h-30a2 2 0 0 1 -2-2v-6a2 2 0 0 1 2-2" fill="#e6e7e8"/><g fill="#00d"><path d="m55 38h-30a3 3 0 0 1 -3-3v-6a3 3 0 0 1 3-3h28a1 1 0 0 1 0 2h-28a1 1 0 0 0 -1 1v6a1 1 0 0 0 1 1h30a1 1 0 0 0 1-1v-4.92a1 1 0 0 1 2 0v4.92a3 3 0 0 1 -3 3z"/><path d="m53 55a1 1 0 0 1 0-2c1.63 0 3-1 3-2.08v-4.92a1 1 0 0 0 -1-1h-30a1 1 0 0 0 -1 1v6a1 1 0 0 0 1 1h22a1 1 0 0 1 0 2h-22a3 3 0 0 1 -3-3v-6a3 3 0 0 1 3-3h30a3 3 0 0 1 3 3v4.92c0 2.25-2.24 4.08-5 4.08z"/><path d="m13 55a6 6 0 1 1 6-6 6 6 0 0 1 -6 6zm0-10a4 4 0 1 0 4 4 4 4 0 0 0 -4-4z"/><path d="m16 21h-6a3 3 0 0 1 -3-3v-6a3 3 0 0 1 3-3h6a3 3 0 0 1 3 3v6a3 3 0 0 1 -3 3zm-6-10a1 1 0 0 0 -1 1v6a1 1 0 0 0 1 1h6a1 1 0 0 0 1-1v-6a1 1 0 0 0 -1-1z"/><path d="m16 38h-6a3 3 0 0 1 -3-3v-6a3 3 0 0 1 3-3h6a3 3 0 0 1 3 3v6a3 3 0 0 1 -3 3zm-6-10a1 1 0 0 0 -1 1v6a1 1 0 0 0 1 1h6a1 1 0 0 0 1-1v-6a1 1 0 0 0 -1-1z"/><path d="m55 21h-30a3 3 0 0 1 -3-3v-6a3 3 0 0 1 3-3 1 1 0 0 1 0 2 1 1 0 0 0 -1 1v6a1 1 0 0 0 1 1h30a1 1 0 0 0 1-1v-6a1 1 0 0 0 -1-1h-24a1 1 0 0 1 0-2h24a3 3 0 0 1 3 3v6a3 3 0 0 1 -3 3z"/></g></g></svg>