<svg id="Layer_1" viewBox="0 0 512 512" xmlns="http://www.w3.org/2000/svg" data-name="Layer 1"><path d="m256 117.383a125.808 125.808 0 0 0 -92.211 211.39l-13.013 48.548a15 15 0 0 0 21.988 16.879l50.911-29.4a125.82 125.82 0 1 0 32.325-247.417z" fill="#2ec4b6"/><path d="m256 117.383v251.609a125.8 125.8 0 1 0 0-251.609z" fill="#2ab5a4"/><path d="m503.8 253.874c.163-6.121.332-12.451.052-19.081a71.478 71.478 0 0 0 -71.78-68.262c-29.659-67.852-97.412-115.394-176.072-115.394s-146.413 47.542-176.069 115.394a71.468 71.468 0 0 0 -71.781 68.287c-.279 6.6-.11 12.935.053 19.056.173 6.5.352 13.224.032 20.76a71.5 71.5 0 0 0 68.229 74.389q1.569.067 3.13.068a70.967 70.967 0 0 0 26.386-5.071 15 15 0 0 0 8.613-21.664 162.014 162.014 0 0 1 -20.643-79.168c0-89.354 72.7-162.05 162.05-162.05s162.05 72.7 162.05 162.05a161.5 161.5 0 0 1 -132.15 159.288 41.585 41.585 0 1 0 1.325 30.208 192.331 192.331 0 0 0 130.075-85.231 70.977 70.977 0 0 0 15.11 1.637q1.565 0 3.137-.067a71.5 71.5 0 0 0 68.217-74.383c-.318-7.54-.14-14.264.036-20.766z" fill="#2ea8e6"/><path d="m503.8 253.874c.163-6.121.332-12.451.052-19.081a71.485 71.485 0 0 0 -74.394-68.216 73.3 73.3 0 0 0 -9.746 1.1 15 15 0 0 0 -11.463 19.915 162.3 162.3 0 0 1 -10.849 134.775 15 15 0 0 0 8.619 21.653 70.961 70.961 0 0 0 26.391 5.07q1.565 0 3.137-.067a71.5 71.5 0 0 0 68.217-74.383c-.318-7.54-.14-14.264.036-20.766z" fill="#176f93"/><path d="m408.379 188.031c-.048-.146-.08-.3-.133-.443a15 15 0 0 1 11.463-19.915 73.3 73.3 0 0 1 9.746-1.1c.876-.038 1.745-.04 2.614-.046-29.656-67.848-97.408-115.389-176.069-115.39v30c70 .001 129.766 44.613 152.379 106.894z" fill="#1794c6"/><path d="m114.593 322.356a162.3 162.3 0 0 1 -10.839-134.768 15 15 0 0 0 -11.463-19.915 73.373 73.373 0 0 0 -9.779-1.1 71.472 71.472 0 0 0 -74.362 68.245c-.279 6.6-.11 12.935.053 19.056.173 6.5.352 13.224.032 20.76a71.5 71.5 0 0 0 68.229 74.389q1.569.067 3.13.068a70.967 70.967 0 0 0 26.386-5.071 15 15 0 0 0 8.613-21.664z" fill="#176f93"/><path d="m93.95 243.187a161.567 161.567 0 0 1 9.8-55.6 15 15 0 0 0 -11.463-19.915 73.373 73.373 0 0 0 -9.779-1.1 71.554 71.554 0 0 0 -12.169.533 100.017 100.017 0 0 0 -16.6 52.114c-.311 8.485-.123 16.615.059 24.478.193 8.351.393 16.986.036 26.665-1.181 31.967 12.077 60.872 33.096 78.338a71.062 71.062 0 0 0 19.05-4.683 15 15 0 0 0 8.613-21.664 162.021 162.021 0 0 1 -20.643-79.166z" fill="#0d647f"/><path d="m418.05 243.187a161.567 161.567 0 0 0 -9.8-55.6 15 15 0 0 1 11.463-19.915 73.387 73.387 0 0 1 9.78-1.1 71.537 71.537 0 0 1 12.168.533 100.017 100.017 0 0 1 16.6 52.114c.311 8.485.123 16.615-.059 24.478-.193 8.351-.392 16.986-.036 26.665 1.189 31.963-12.069 60.868-33.087 78.337a71.06 71.06 0 0 1 -19.051-4.683 15 15 0 0 1 -8.613-21.664 162.021 162.021 0 0 0 20.635-79.165z" fill="#0d647f"/><path d="m206.026 258.187a15 15 0 0 1 -.029-30h.029a15 15 0 0 1 0 30z" fill="#e6e9f2"/><path d="m256 258.186a14.375 14.375 0 0 1 -1.48-.071 14.224 14.224 0 0 1 -1.45-.219c-.48-.1-.96-.22-1.43-.36a14.253 14.253 0 0 1 -1.38-.5 13.359 13.359 0 0 1 -1.33-.62c-.43-.23-.85-.49-1.26-.761a14.561 14.561 0 0 1 -1.18-.869c-.38-.31-.75-.651-1.1-.99s-.68-.721-.99-1.1a14.339 14.339 0 0 1 -.87-1.18c-.27-.41-.53-.83-.76-1.26s-.43-.88-.62-1.33a14.253 14.253 0 0 1 -.5-1.38c-.14-.471-.26-.951-.36-1.431s-.17-.969-.22-1.449a14.661 14.661 0 0 1 -.07-1.48 14.464 14.464 0 0 1 .07-1.47c.05-.49.13-.98.22-1.46s.22-.96.36-1.42a13.441 13.441 0 0 1 .5-1.39c.19-.45.4-.89.62-1.32a14.692 14.692 0 0 1 .76-1.27c.27-.4.56-.8.87-1.18s.65-.75.99-1.1.72-.67 1.1-.989c.38-.3.77-.6 1.18-.87s.83-.52 1.26-.75.88-.44 1.33-.63a14.452 14.452 0 0 1 1.38-.491 15.421 15.421 0 0 1 2.88-.579 14.542 14.542 0 0 1 2.95 0 11.768 11.768 0 0 1 1.46.22 11.35 11.35 0 0 1 1.42.359 14.634 14.634 0 0 1 1.39.491q.675.285 1.32.63a14.425 14.425 0 0 1 1.26.75c.41.27.81.57 1.19.87.38.319.75.65 1.09.989s.68.721 1 1.1c.3.38.6.78.87 1.18a14.6 14.6 0 0 1 .75 1.27q.345.645.63 1.32c.19.45.35.919.5 1.39s.26.94.36 1.42.17.97.22 1.46.07.98.07 1.47-.03.99-.07 1.48-.13.969-.22 1.449-.22.96-.36 1.431-.31.93-.5 1.38-.4.9-.63 1.33-.48.85-.75 1.26-.57.8-.87 1.18c-.32.379-.65.75-1 1.1s-.71.68-1.09.99a14.723 14.723 0 0 1 -1.19.869 14.281 14.281 0 0 1 -1.26.761 13.2 13.2 0 0 1 -1.32.62 14.432 14.432 0 0 1 -1.39.5c-.46.14-.94.26-1.42.36a14 14 0 0 1 -1.46.219 14.183 14.183 0 0 1 -1.47.071z" fill="#e6e9f2"/><path d="m270.711 240.256c-.1-.48-.22-.96-.36-1.42s-.31-.94-.5-1.39-.4-.89-.63-1.32a14.6 14.6 0 0 0 -.75-1.27c-.27-.4-.57-.8-.87-1.18-.32-.38-.65-.75-1-1.1s-.71-.669-1.09-.989c-.38-.3-.78-.6-1.19-.87a14.425 14.425 0 0 0 -1.26-.75q-.645-.345-1.32-.63a14.634 14.634 0 0 0 -1.39-.491 11.35 11.35 0 0 0 -1.42-.359 11.768 11.768 0 0 0 -1.46-.22 14.359 14.359 0 0 0 -1.471-.075v29.995a14.183 14.183 0 0 0 1.47-.071 14 14 0 0 0 1.46-.219c.48-.1.96-.22 1.42-.36a14.432 14.432 0 0 0 1.39-.5 13.2 13.2 0 0 0 1.32-.62 14.517 14.517 0 0 0 1.26-.76c.41-.271.81-.561 1.19-.87s.75-.651 1.09-.99.68-.721 1-1.1c.3-.38.6-.77.87-1.18s.52-.83.75-1.26.44-.88.63-1.33.35-.92.5-1.38.26-.951.36-1.431.17-.969.22-1.449.07-.99.07-1.48-.03-.98-.07-1.47-.13-.981-.219-1.461z" fill="#cfd7e6"/><path d="m306 258.187a15 15 0 0 1 -.028-30h.028a15 15 0 1 1 0 30z" fill="#cfd7e6"/><circle cx="247.865" cy="419.274" fill="#176f93" r="41.588" transform="matrix(.973 -.23 .23 .973 -89.699 68.164)"/><path d="m247.865 377.685v83.178a41.589 41.589 0 0 0 0-83.178z" fill="#0d647f"/><path d="m406.02 344.02a15 15 0 0 1 -9.472-19.863 161.256 161.256 0 0 1 -110.648 78.319 41.438 41.438 0 0 1 1.324 30.211 192.331 192.331 0 0 0 130.076-85.234 71.812 71.812 0 0 1 -11.28-3.433z" fill="#1794c6"/></svg>