<svg width="300" height="299" viewBox="0 0 300 299" fill="none" xmlns="http://www.w3.org/2000/svg">
<g clip-path="url(#clip0_145_33)">
<path d="M62.8963 16.4633C66.5361 13.2696 66.8848 7.74591 63.6732 4.12502C60.4629 0.504141 54.9082 0.157962 51.2678 3.35166C19.0588 31.6095 0.585938 72.2347 0.585938 114.81C0.585938 119.638 4.52109 123.552 9.375 123.552C14.2289 123.552 18.1641 119.638 18.1641 114.81C18.1641 77.2496 34.4684 41.4039 62.8963 16.4633ZM248.732 3.35166C245.091 0.157962 239.537 0.504723 236.327 4.12502C233.116 7.74591 233.464 13.2696 237.104 16.4633C265.532 41.4039 281.836 77.2496 281.836 114.81C281.836 119.638 285.771 123.552 290.625 123.552C295.479 123.552 299.414 119.638 299.414 114.81C299.414 72.2347 280.941 31.6095 248.732 3.35166ZM75.6668 28.5626C50.2939 50.2244 35.7422 81.6602 35.7422 114.81C35.7422 119.638 39.6773 123.552 44.5312 123.552C49.3852 123.552 53.3203 119.638 53.3203 114.81C53.3203 86.766 65.6379 60.1657 87.1154 41.8293C90.7986 38.6846 91.2217 33.1655 88.06 29.5021C84.8982 25.8381 79.3488 25.4179 75.6668 28.5626ZM224.333 28.5626C220.65 25.4179 215.101 25.8387 211.94 29.5021C208.778 33.1655 209.201 38.6846 212.885 41.8293C234.362 60.1657 246.68 86.766 246.68 114.81C246.68 119.638 250.615 123.552 255.469 123.552C260.323 123.552 264.258 119.638 264.258 114.81C264.258 81.6602 249.706 50.2244 224.333 28.5626ZM167.578 245.938H132.422C127.568 245.938 123.633 249.852 123.633 254.68V272.164C123.633 286.624 135.461 298.389 150 298.389C164.539 298.389 176.367 286.624 176.367 272.164V254.68C176.367 249.852 172.432 245.938 167.578 245.938Z" fill="url(#paint0_linear_145_33)"/>
<path d="M261.682 248.498C240.672 227.599 229.102 199.814 229.102 170.261V114.81C229.102 74.3823 198.285 40.9842 158.789 36.6215V8.74187C158.789 3.91403 154.854 0 150 0C145.146 0 141.211 3.91403 141.211 8.74187V36.6215C101.715 40.9842 70.8985 74.3823 70.8985 114.81V170.261C70.8985 199.814 59.328 227.599 38.3181 248.497C32.8788 253.903 36.5931 263.422 44.5314 263.422H255.469C263.385 263.422 267.135 253.918 261.682 248.498Z" fill="url(#paint1_linear_145_33)"/>
</g>
<defs>
<linearGradient id="paint0_linear_145_33" x1="150" y1="298.389" x2="150" y2="1.16561" gradientUnits="userSpaceOnUse">
<stop stop-color="#ADDCFF"/>
<stop offset="0.5028" stop-color="#EAF6FF"/>
<stop offset="1" stop-color="#EAF6FF"/>
</linearGradient>
<linearGradient id="paint1_linear_145_33" x1="150.001" y1="263.422" x2="150.001" y2="0" gradientUnits="userSpaceOnUse">
<stop stop-color="#5558FF"/>
<stop offset="1" stop-color="#00C0FF"/>
</linearGradient>
<clipPath id="clip0_145_33">
<rect width="300" height="298.389" fill="white"/>
</clipPath>
</defs>
</svg>
