<svg width="300" height="300" viewBox="0 0 300 300" fill="none" xmlns="http://www.w3.org/2000/svg">
<path d="M244.57 106.055L246.68 79.8041C247.062 74.4627 242.853 70.3125 237.891 70.3125H62.1094C57.1389 70.3125 52.9389 74.4709 53.3203 79.8041L55.4297 106.055L38.5547 114.844L56.8359 123.633L69.4916 275.918C70.8984 289.628 82.1484 300 95.8588 300H204.141C217.851 300 229.101 289.628 230.508 275.742L243.164 123.633L261.445 114.844L244.57 106.055ZM114.844 52.7344C119.702 52.7344 123.633 48.8033 123.633 43.9453C123.633 29.4059 135.461 17.5781 150 17.5781C164.539 17.5781 176.367 29.4059 176.367 43.9453C176.367 48.8033 180.298 52.7344 185.156 52.7344C190.014 52.7344 193.945 48.8033 193.945 43.9453C193.945 19.715 174.23 0 150 0C125.77 0 106.055 19.715 106.055 43.9453C106.055 48.8033 109.986 52.7344 114.844 52.7344Z" fill="url(#paint0_linear_145_39)"/>
<path d="M44.5312 106.055C39.6088 106.055 35.7422 109.921 35.7422 114.844C35.7422 119.765 39.6088 123.633 44.5312 123.633H56.8359L55.4297 106.055H44.5312ZM255.469 106.055H244.57L243.164 123.633H255.469C260.391 123.633 264.258 119.765 264.258 114.844C264.258 109.921 260.391 106.055 255.469 106.055ZM237.891 35.1562H62.1094C47.5699 35.1562 35.7422 46.984 35.7422 61.5234V79.1016C35.7422 83.9596 39.6732 87.8906 44.5312 87.8906H255.469C260.327 87.8906 264.258 83.9596 264.258 79.1016V61.5234C264.258 46.984 252.43 35.1562 237.891 35.1562ZM110.535 131.692C110.14 126.86 105.883 123.178 101.05 123.667C96.2092 124.071 92.6215 128.311 93.0252 133.152L101.814 238.621C102.224 243.606 106.703 247.121 111.299 246.646C116.14 246.243 119.728 242.002 119.324 237.161L110.535 131.692ZM198.949 123.667C194.023 123.187 189.868 126.86 189.465 131.692L180.676 237.161C180.272 242.002 183.86 246.242 188.701 246.646C193.305 247.122 197.776 243.592 198.185 238.621L206.974 133.152C207.378 128.31 203.79 124.071 198.949 123.667ZM150 123.633C145.142 123.633 141.211 127.564 141.211 132.422V237.891C141.211 242.749 145.142 246.68 150 246.68C154.858 246.68 158.789 242.749 158.789 237.891V132.422C158.789 127.564 154.858 123.633 150 123.633Z" fill="url(#paint1_linear_145_39)"/>
<defs>
<linearGradient id="paint0_linear_145_39" x1="150" y1="300" x2="150" y2="0" gradientUnits="userSpaceOnUse">
<stop stop-color="#FD3A84"/>
<stop offset="1" stop-color="#FFA68D"/>
</linearGradient>
<linearGradient id="paint1_linear_145_39" x1="150" y1="246.688" x2="150" y2="35.1562" gradientUnits="userSpaceOnUse">
<stop stop-color="#FFC2CC"/>
<stop offset="1" stop-color="#FFF2F4"/>
</linearGradient>
</defs>
</svg>
