<svg width="300" height="299" viewBox="0 0 300 299" fill="none" xmlns="http://www.w3.org/2000/svg">
<g clip-path="url(#clip0_145_47)">
<path d="M296.414 58.5239L288.727 50.8893C286.412 48.5873 283.324 47.3226 280.037 47.3226C276.75 47.3226 273.662 48.5931 271.348 50.8951L231.539 90.4842V79.8832C231.539 62.4228 219.123 48.2201 203.859 48.2201H27.668C12.4043 48.2201 -0.0117188 62.4228 -0.0117188 79.8832V168.054C-0.0117188 185.514 12.4043 199.717 27.668 199.717H56.8008C56.9707 199.717 57.2812 199.717 57.7266 200.375C58.248 201.139 58.4062 202.001 58.2129 203.021L51.8965 236.724C50.9766 241.748 52.9453 246.696 56.9297 249.347C58.6934 250.507 60.6445 251.072 62.5723 251.072C65.4199 251.072 68.2207 249.843 70.3125 247.482L107.156 206.343C111.135 201.885 115.699 199.717 121.102 199.717H203.848C219.111 199.717 231.527 185.514 231.527 168.054V140.354L296.426 75.8211C301.207 71.0423 301.201 63.2853 296.414 58.5239ZM223.57 135.079C223.547 135.103 223.518 135.132 223.494 135.155L205.705 152.849L193.898 141.117L230.068 105.147C230.133 105.089 230.197 105.025 230.256 104.961L265.447 69.9641L277.254 81.6957L223.57 135.079ZM189.891 150.325L196.447 156.841L187.846 158.881L189.891 150.325ZM222.152 168.048C222.152 180.356 213.943 190.375 203.859 190.375H121.113C112.986 190.375 105.932 193.662 100.154 200.131L63.2988 241.281C62.707 241.946 62.3789 241.724 62.1328 241.567C61.3008 241.013 60.8906 239.708 61.1309 238.402L67.4414 204.717C68.0801 201.314 67.3945 197.91 65.4902 195.119C63.3926 192.059 60.3047 190.375 56.8008 190.375H27.668C17.5781 190.375 9.375 180.362 9.375 168.048V79.8832C9.375 67.5688 17.5781 57.5565 27.668 57.5565H203.859C213.949 57.5565 222.152 67.5746 222.152 79.8832V99.8147L183.949 137.807C183.334 138.419 182.9 139.188 182.701 140.027L176.953 164.097C176.578 165.676 177.047 167.331 178.201 168.479C179.092 169.365 180.287 169.843 181.518 169.843C181.881 169.843 182.244 169.802 182.607 169.715L206.789 163.98C207.633 163.782 208.406 163.351 209.021 162.739L222.158 149.678V168.048H222.152ZM289.781 69.2298L283.887 75.0927L272.08 63.3611L277.98 57.4923C278.525 56.9504 279.252 56.6531 280.037 56.6531C280.822 56.6531 281.549 56.9504 282.094 57.4923C282.094 57.4923 282.094 57.4923 282.1 57.4982L289.787 65.1269C290.918 66.2517 290.912 68.0992 289.781 69.2298ZM75.6094 119.181V82.7389C75.6094 80.1629 77.707 78.0707 80.3027 78.0707C82.8984 78.0707 84.9961 80.1571 84.9961 82.7389V114.513H99.123C101.713 114.513 103.816 116.599 103.816 119.181C103.816 121.763 101.719 123.849 99.123 123.849H80.3027C77.7129 123.849 75.6094 121.763 75.6094 119.181ZM121.857 123.849C134.314 123.849 144.457 113.767 144.457 101.371V100.543C144.457 88.153 134.32 78.0649 121.857 78.0649C109.395 78.0649 99.2637 88.1472 99.2637 100.543V101.371C99.2637 113.767 109.4 123.849 121.857 123.849ZM108.645 100.549C108.645 93.3049 114.574 87.407 121.857 87.407C129.141 87.407 135.07 93.3049 135.07 100.549V101.377C135.07 108.621 129.141 114.518 121.857 114.518C114.574 114.518 108.645 108.621 108.645 101.377V100.549ZM42.1523 123.849H57.5801C65.2207 123.849 71.4434 117.666 71.4434 110.06C71.4434 105.666 69.3574 101.75 66.123 99.226C67.4883 97.093 68.2852 94.5637 68.2852 91.8537C68.2852 84.2541 62.0742 78.0649 54.4395 78.0649H42.1523C39.5625 78.0649 37.459 80.1513 37.459 82.733V119.175C37.459 121.763 39.5625 123.849 42.1523 123.849ZM57.5801 114.518H46.8457V105.631H57.5859C60.0527 105.631 62.0625 107.618 62.0625 110.066C62.0566 112.52 60.0527 114.518 57.5801 114.518ZM46.8457 87.407H54.4453C56.9062 87.407 58.9043 89.406 58.9043 91.8596C58.9043 94.3073 56.9062 96.2946 54.4453 96.2946H46.8457V87.407ZM148.875 101.377V100.549C148.875 88.1588 159.012 78.0707 171.475 78.0707C177.539 78.0707 183.24 80.4427 187.529 84.7553C189.352 86.5853 189.34 89.54 187.494 91.3584C185.654 93.1708 182.684 93.1592 180.855 91.3234C178.342 88.7941 175.002 87.4012 171.469 87.4012C164.186 87.4012 158.256 93.2991 158.256 100.543V101.371C158.256 108.615 164.186 114.513 171.469 114.513C177.41 114.513 182.449 110.59 184.107 105.211H175.857C173.268 105.211 171.164 103.125 171.164 100.543C171.164 97.9614 173.262 95.875 175.857 95.875H189.375C191.965 95.875 194.068 97.9614 194.068 100.543V101.371C194.068 113.761 183.932 123.849 171.469 123.849C159.006 123.849 148.875 113.767 148.875 101.377ZM173.021 141.368C173.021 143.944 170.924 146.036 168.328 146.036H42.1523C39.5625 146.036 37.459 143.949 37.459 141.368C37.459 138.786 39.5566 136.7 42.1523 136.7H168.334C170.924 136.705 173.021 138.792 173.021 141.368ZM166.863 167.057C166.863 169.633 164.766 171.725 162.17 171.725H42.1523C39.5625 171.725 37.459 169.639 37.459 167.057C37.459 164.475 39.5566 162.389 42.1523 162.389H162.17C164.76 162.395 166.863 164.481 166.863 167.057Z" fill="url(#paint0_linear_145_47)"/>
</g>
<defs>
<linearGradient id="paint0_linear_145_47" x1="-0.0105469" y1="149.193" x2="300.009" y2="149.193" gradientUnits="userSpaceOnUse">
<stop stop-color="#A647FE"/>
<stop offset="0.1488" stop-color="#A04CFC"/>
<stop offset="0.3414" stop-color="#905AF8"/>
<stop offset="0.5582" stop-color="#7571F0"/>
<stop offset="0.7908" stop-color="#5191E5"/>
<stop offset="1" stop-color="#29B4D9"/>
</linearGradient>
<clipPath id="clip0_145_47">
<rect width="300" height="298.389" fill="white"/>
</clipPath>
</defs>
</svg>
