<svg id="Capa_1" enable-background="new 0 0 512 512" height="512" viewBox="0 0 512 512" width="512" xmlns="http://www.w3.org/2000/svg" xmlns:xlink="http://www.w3.org/1999/xlink"><linearGradient id="SVGID_1_" gradientUnits="userSpaceOnUse" x1="256" x2="256" y1="270" y2="0"><stop offset="0" stop-color="#5357ff"/><stop offset="1" stop-color="#00c0ff"/></linearGradient><linearGradient id="SVGID_2_" gradientUnits="userSpaceOnUse" x1="282.756" x2="282.756" y1="512" y2="59.998"><stop offset="0" stop-color="#96dcff"/><stop offset=".5028" stop-color="#e5f5ff"/><stop offset="1" stop-color="#e5f5ff"/></linearGradient><g><path d="m467 270h-422c-24.813 0-45-20.187-45-45v-180c0-24.813 20.187-45 45-45h422c24.813 0 45 20.187 45 45v180c0 24.813-20.187 45-45 45z" fill="url(#SVGID_1_)"/><path d="m491 409.357v57.643c0 24.853-20.147 45-45 45h-145.147c-20.033 0-38.867-7.801-53.032-21.967l-61.522-61.521c-10.701-10.701-14.437-26.529-9.652-40.885 8.717-26.151 40.672-35.826 62.431-18.903l41.922 32.606v-151.83c0-20.711 16.789-37.5 37.5-37.5 20.711 0 37.5 16.789 37.5 37.5v82.293l80.686 13.448c31.342 5.224 54.314 32.341 54.314 64.116zm-313.241-246.8c0 26.081-21.22 47.3-47.302 47.3-8.713 0-40.557.142-40.878.143-.021 0-.045 0-.066 0-3.966 0-7.771-1.571-10.583-4.37-2.827-2.815-4.417-6.64-4.417-10.63v-120c0-8.284 6.716-15 15-15h34.858c23.496 0 42.612 19.116 42.612 42.612 0 8.528-2.528 16.472-6.859 23.141 10.745 8.678 17.635 21.949 17.635 36.804zm-73.246-72.557v25.256s17.289-.032 19.858-.032c6.954 0 12.612-5.658 12.612-12.612s-5.658-12.612-12.612-12.612zm43.246 72.557c0-9.54-7.762-17.301-17.302-17.301 0 0-23.496.018-25.944.028v34.653c9.636-.038 21.187-.08 25.944-.08 9.54 0 17.302-7.761 17.302-17.3zm282.912-99.824c-6.942-4.52-16.234-2.556-20.755 4.388l-25.464 39.116-25.751-39.438c-4.529-6.938-13.825-8.887-20.761-4.359-6.937 4.529-8.888 13.824-4.358 20.76l35.879 54.948-.139 56.814c-.021 8.286 6.678 15.018 14.962 15.038h.038c8.267 0 14.979-6.692 14.999-14.963l.14-56.865 35.598-54.684c4.519-6.943 2.554-16.235-4.388-20.755zm-150.399 141.128c25.514-12.848 30.869-32.31 30.869-46.375v-82.486c0-8.284-6.716-15-15-15s-15 6.716-15 15v82.486c0 5.749-1.633 13.17-14.361 19.581-3.92 1.974-8.175 2.933-13.007 2.933-.017 0-.033 0-.049 0-5.298-.007-9.898-1.305-14.064-3.966-9.877-6.311-11.901-11.944-11.901-18.461v-82.573c0-8.284-6.716-15-15-15s-15 6.716-15 15v82.573c0 18.108 8.663 32.824 25.751 43.742 8.997 5.747 19.148 8.669 30.173 8.684h.088c9.496.001 18.413-2.064 26.501-6.138z" fill="url(#SVGID_2_)"/></g></svg>