<svg width="300" height="299" viewBox="0 0 300 299" fill="none" xmlns="http://www.w3.org/2000/svg">
<path d="M300 70.5178V44.2921C300 29.8308 288.172 18.0665 273.633 18.0665H61.5234C46.984 18.0665 35.1562 29.8308 35.1562 44.2921V70.5178L54.0293 88.0015H58.4701L35.1562 105.485H26.3672C11.8277 105.485 0 117.249 0 131.711V254.097C0 268.558 11.8277 280.323 26.3672 280.323H238.477C253.016 280.323 264.844 268.558 264.844 254.097V192.904L282.422 177.445V114.227C282.422 99.7657 270.594 88.0015 256.055 88.0015H273.911L300 70.5178Z" fill="url(#paint0_linear_145_75)"/>
<path d="M43.9453 157.937H97.2656C102.124 157.937 106.055 154.027 106.055 149.195C106.055 144.363 102.124 140.453 97.2656 140.453H43.9453C39.0873 140.453 35.1562 144.363 35.1562 149.195C35.1562 154.027 39.0873 157.937 43.9453 157.937ZM132.422 175.42H43.9453C39.0873 175.42 35.1562 179.33 35.1562 184.162C35.1562 188.994 39.0873 192.904 43.9453 192.904H132.422C137.28 192.904 141.211 188.994 141.211 184.162C141.211 179.33 137.28 175.42 132.422 175.42ZM35.1562 70.5178V105.485H238.477C253.016 105.485 264.844 117.25 264.844 131.711V192.904H273.633C288.172 192.904 300 181.14 300 166.678V70.5178H35.1562Z" fill="url(#paint1_linear_145_75)"/>
<defs>
<linearGradient id="paint0_linear_145_75" x1="150" y1="280.323" x2="150" y2="18.0665" gradientUnits="userSpaceOnUse">
<stop stop-color="#A93AFF"/>
<stop offset="1" stop-color="#FF81FF"/>
</linearGradient>
<linearGradient id="paint1_linear_145_75" x1="167.578" y1="236.144" x2="167.578" y2="63.6182" gradientUnits="userSpaceOnUse">
<stop stop-color="#FFBEF9"/>
<stop offset="1" stop-color="#FFF1FF"/>
</linearGradient>
</defs>
</svg>
