<svg width="300" height="301" viewBox="0 0 300 301" fill="none" xmlns="http://www.w3.org/2000/svg">
<g clip-path="url(#clip0_145_53)">
<path d="M264.844 41.0571H241.406V35.1918C241.406 15.7859 225.636 0 206.25 0H93.75C74.3637 0 58.5938 15.7859 58.5938 35.1918V41.0571H35.1562C15.77 41.0571 0 56.8429 0 76.2488V223.468C0 242.874 15.77 258.659 35.1562 258.659H58.5938V265.111C58.5938 284.517 74.3637 300.303 93.75 300.303H206.25C225.636 300.303 241.406 284.517 241.406 265.111V258.659H264.844C284.23 258.659 300 242.874 300 223.468V76.2488C300 56.8429 284.23 41.0571 264.844 41.0571ZM35.1562 235.198C28.6949 235.198 23.4375 229.936 23.4375 223.468V76.2488C23.4375 69.781 28.6949 64.5182 35.1562 64.5182H58.5938V235.198H35.1562ZM217.969 265.111C217.969 271.579 212.711 276.842 206.25 276.842H93.75C87.2887 276.842 82.0312 271.579 82.0312 265.111V35.1918C82.0312 28.7239 87.2887 23.4612 93.75 23.4612H206.25C212.711 23.4612 217.969 28.7239 217.969 35.1918V265.111ZM276.562 223.468C276.562 229.936 271.305 235.198 264.844 235.198H241.406V64.5182H264.844C271.305 64.5182 276.562 69.781 276.562 76.2488V223.468Z" fill="url(#paint0_linear_145_53)"/>
</g>
<defs>
<linearGradient id="paint0_linear_145_53" x1="150" y1="0" x2="150" y2="300.303" gradientUnits="userSpaceOnUse">
<stop stop-color="#2AF598"/>
<stop offset="1" stop-color="#009EFD"/>
</linearGradient>
<clipPath id="clip0_145_53">
<rect width="300" height="300.303" fill="white"/>
</clipPath>
</defs>
</svg>
