<svg width="300" height="346" viewBox="0 0 300 346" fill="none" xmlns="http://www.w3.org/2000/svg">
<path fill-rule="evenodd" clip-rule="evenodd" d="M199.857 61.0131H200.25H212.25H212.643C216.505 61.0128 220.053 61.0125 223.018 61.2908C226.215 61.5906 229.713 62.2771 233.168 64.2981C238.107 67.1877 242.122 71.7982 244.639 77.4693C246.399 81.4356 246.998 85.4515 247.259 89.1221C247.5 92.5267 247.5 96.5994 247.5 101.034V115.715C247.5 120.149 247.5 124.222 247.259 127.626C246.998 131.297 246.399 135.313 244.639 139.279C242.122 144.95 238.107 149.561 233.168 152.45C229.713 154.471 226.215 155.158 223.018 155.458C220.053 155.736 216.505 155.736 212.643 155.735H199.857C195.995 155.736 192.447 155.736 189.482 155.458C186.285 155.158 182.787 154.471 179.332 152.45C174.393 149.561 170.377 144.95 167.86 139.279C166.101 135.313 165.502 131.297 165.241 127.626C165 124.222 165 120.149 165 115.715C165 115.565 165 115.414 165 115.263V101.485C165 101.335 165 101.184 165 101.034C165 96.5994 165 92.5265 165.241 89.1221C165.502 85.4515 166.101 81.4356 167.86 77.4693C170.377 71.7982 174.393 67.1877 179.332 64.2981C182.787 62.2771 186.285 61.5906 189.482 61.2908C192.447 61.0125 195.995 61.0128 199.857 61.0131ZM189.503 87.3428C189.635 87.2955 190.133 87.1491 191.315 87.0382C193.251 86.8565 195.864 86.8465 200.25 86.8465H212.25C216.636 86.8465 219.249 86.8565 221.185 87.0382C222.367 87.1491 222.865 87.2955 222.997 87.3428C223.668 87.7479 224.215 88.3762 224.568 89.145C224.608 89.2979 224.736 89.8685 224.834 91.2258C224.991 93.4495 225 96.4496 225 101.485V115.263C225 120.299 224.991 123.299 224.834 125.523C224.736 126.88 224.608 127.451 224.568 127.604C224.215 128.372 223.668 129.001 222.997 129.406C222.865 129.453 222.367 129.599 221.185 129.71C219.249 129.892 216.636 129.902 212.25 129.902H200.25C195.864 129.902 193.251 129.892 191.315 129.71C190.133 129.599 189.635 129.453 189.503 129.406C188.832 129.001 188.285 128.372 187.932 127.604C187.892 127.451 187.764 126.88 187.666 125.523C187.509 123.299 187.5 120.299 187.5 115.263V101.485C187.5 96.4496 187.509 93.4495 187.666 91.2258C187.764 89.8685 187.892 89.2979 187.932 89.145C188.285 88.3762 188.832 87.7479 189.503 87.3428Z" fill="url(#paint0_linear_145_177)"/>
<path fill-rule="evenodd" clip-rule="evenodd" d="M100.143 284.902C100.013 284.902 99.8814 284.902 99.75 284.902H87.75C87.6186 284.902 87.4875 284.902 87.3567 284.902C83.4945 284.902 79.9473 284.902 76.982 284.625C73.785 284.325 70.2875 283.638 66.8328 281.618C61.8936 278.728 57.8778 274.117 55.3611 268.446C53.6009 264.48 53.003 260.464 52.7418 256.794C52.4996 253.389 52.4997 249.316 52.5 244.881V230.201C52.4997 225.766 52.4996 221.693 52.7418 218.288C53.003 214.618 53.6009 210.602 55.3611 206.636C57.8778 200.964 61.8936 196.354 66.8328 193.464C70.2875 191.444 73.785 190.757 76.982 190.457C79.9473 190.18 83.4945 190.18 87.3569 190.18H100.143C104.006 190.18 107.553 190.18 110.518 190.457C113.715 190.757 117.213 191.444 120.667 193.464C125.607 196.354 129.622 200.964 132.139 206.636C133.899 210.602 134.497 214.618 134.758 218.288C135.001 221.693 135 225.766 135 230.201V230.652V244.43V244.881C135 249.316 135.001 253.389 134.758 256.794C134.497 260.464 133.899 264.48 132.139 268.446C129.622 274.117 125.607 278.728 120.667 281.618C117.213 283.638 113.715 284.325 110.518 284.625C107.553 284.902 104.006 284.902 100.143 284.902ZM110.498 258.573C110.365 258.619 109.868 258.766 108.686 258.878C106.749 259.058 104.136 259.069 99.75 259.069H87.75C83.364 259.069 80.7512 259.058 78.8142 258.878C77.6321 258.766 77.1351 258.619 77.0019 258.573C76.3325 258.168 75.7853 257.539 75.4325 256.77C75.3911 256.618 75.2636 256.046 75.1671 254.689C75.0089 252.466 75 249.466 75 244.43V230.652C75 225.616 75.0089 222.616 75.1671 220.393C75.2636 219.036 75.3911 218.464 75.4325 218.312C75.7853 217.542 76.3325 216.914 77.0019 216.509C77.1351 216.463 77.6321 216.316 78.8142 216.204C80.7512 216.023 83.364 216.013 87.75 216.013H99.75C104.136 216.013 106.749 216.023 108.686 216.204C109.868 216.316 110.365 216.463 110.498 216.509C111.168 216.914 111.715 217.542 112.068 218.312C112.109 218.464 112.236 219.036 112.333 220.393C112.491 222.616 112.5 225.616 112.5 230.652V244.43C112.5 249.466 112.491 252.466 112.333 254.689C112.236 256.046 112.109 256.618 112.068 256.77C111.715 257.539 111.168 258.168 110.498 258.573Z" fill="url(#paint1_linear_145_177)"/>
<path d="M104.545 78.7576C100.152 73.7132 100.152 65.5349 104.545 60.4906C108.939 55.4464 116.062 55.4466 120.455 60.491L150.369 94.8383C150.696 95.206 151.005 95.5962 151.29 96.0072C152.829 98.2168 153.75 101.019 153.75 104.069V104.189C153.738 105.676 153.504 107.162 153.047 108.574C152.501 110.263 151.637 111.846 150.455 113.203L120.455 147.648C116.062 152.692 108.938 152.692 104.545 147.648C100.152 142.603 100.152 134.425 104.545 129.381L115.341 116.985H111.75C103.164 116.985 97.4004 116.995 92.9622 117.412C88.6554 117.816 86.5961 118.537 85.2377 119.332C81.7097 121.396 78.8414 124.689 77.0436 128.74C76.3515 130.299 75.7233 132.664 75.3714 137.609C75.0087 142.704 75 149.321 75 159.18V164.347C75 171.48 69.9633 177.263 63.75 177.263C57.5369 177.263 52.5 171.48 52.5 164.347V158.656C52.4999 149.457 52.4997 141.778 52.9461 135.505C53.4117 128.963 54.4184 122.82 56.996 117.012C60.9509 108.1 67.2612 100.855 75.023 96.3141C80.0819 93.3546 85.4318 92.1988 91.13 91.6642C96.5934 91.1517 103.281 91.1519 111.294 91.152H115.34L104.545 78.7576Z" fill="url(#paint2_linear_145_177)"/>
<path d="M207.037 228.503C202.599 228.919 196.836 228.93 188.25 228.93H184.659L195.455 216.535C199.848 211.491 199.848 203.312 195.455 198.267C191.061 193.223 183.939 193.223 179.545 198.267L149.545 232.712C148.363 234.069 147.499 235.653 146.953 237.341C146.499 238.743 146.25 240.262 146.25 241.846C146.25 244.897 147.17 247.699 148.71 249.908C148.996 250.318 149.303 250.709 149.63 251.078L179.545 285.424C183.939 290.468 191.061 290.468 195.455 285.424C199.848 280.379 199.848 272.202 195.455 267.158L184.661 254.763H188.706C196.719 254.763 203.406 254.763 208.87 254.252C214.569 253.716 219.918 252.56 224.977 249.602C232.738 245.06 239.049 237.815 243.005 228.904C245.582 223.095 246.588 216.953 247.055 210.411C247.5 204.137 247.5 196.459 247.5 187.259V181.569C247.5 174.435 242.463 168.652 236.25 168.652C230.037 168.652 225 174.435 225 181.569V186.735C225 196.593 224.991 203.21 224.628 208.306C224.277 213.251 223.649 215.615 222.957 217.176C221.159 221.226 218.291 224.519 214.763 226.584C213.404 227.378 211.344 228.1 207.037 228.503Z" fill="url(#paint3_linear_145_177)"/>
<defs>
<linearGradient id="paint0_linear_145_177" x1="52.5" y1="56.7076" x2="52.5" y2="289.208" gradientUnits="userSpaceOnUse">
<stop stop-color="#E100FF"/>
<stop offset="1" stop-color="#7F00FF"/>
</linearGradient>
<linearGradient id="paint1_linear_145_177" x1="52.5" y1="56.7076" x2="52.5" y2="289.208" gradientUnits="userSpaceOnUse">
<stop stop-color="#E100FF"/>
<stop offset="1" stop-color="#7F00FF"/>
</linearGradient>
<linearGradient id="paint2_linear_145_177" x1="52.5" y1="56.7076" x2="52.5" y2="289.208" gradientUnits="userSpaceOnUse">
<stop stop-color="#E100FF"/>
<stop offset="1" stop-color="#7F00FF"/>
</linearGradient>
<linearGradient id="paint3_linear_145_177" x1="52.5" y1="56.7076" x2="52.5" y2="289.208" gradientUnits="userSpaceOnUse">
<stop stop-color="#E100FF"/>
<stop offset="1" stop-color="#7F00FF"/>
</linearGradient>
</defs>
</svg>
