<svg width="300" height="299" viewBox="0 0 300 299" fill="none" xmlns="http://www.w3.org/2000/svg">
<path opacity="0.4" d="M224.875 134.251V183.983C224.901 187.098 224.734 190.213 224.375 193.308C221.5 226.876 201.627 243.536 165 243.536H160.001C158.45 243.541 156.92 243.903 155.532 244.593C154.144 245.283 152.935 246.283 152 247.515L137.003 267.408C135.733 269.433 133.964 271.104 131.865 272.262C129.766 273.421 127.405 274.028 125.004 274.028C122.603 274.028 120.242 273.421 118.143 272.262C116.044 271.104 114.275 269.433 113.004 267.408L98.002 247.515C97.0017 246.355 95.7786 245.406 94.4046 244.723C93.0305 244.04 91.5331 243.636 90.0002 243.536H85.0015C45.1272 243.536 25.1265 233.714 25.1265 183.983V134.251C25.1265 97.823 42.0027 78.0547 75.6265 75.1952C78.7382 74.8372 81.8691 74.6712 85.0015 74.6978H165C204.874 74.698 224.832 94.5492 224.875 134.251Z" fill="url(#paint0_linear_145_55)"/>
<path d="M125.052 174.161H124.991C121.68 174.153 118.508 172.838 116.171 170.505C113.834 168.173 112.524 165.012 112.528 161.719C112.532 158.426 113.85 155.269 116.193 152.942C118.535 150.615 121.711 149.308 125.022 149.308C128.333 149.308 131.508 150.615 133.851 152.942C136.193 155.269 137.512 158.426 137.516 161.719C137.52 165.012 136.209 168.173 133.872 170.505C131.535 172.838 128.363 174.153 125.052 174.161Z" fill="url(#paint1_linear_145_55)"/>
<path d="M168.766 174.161H168.705C165.39 174.153 162.215 172.837 159.876 170.502C157.537 168.167 156.225 165.003 156.229 161.707C156.233 158.411 157.552 155.251 159.897 152.921C162.242 150.592 165.421 149.283 168.735 149.283C172.049 149.283 175.228 150.592 177.573 152.921C179.918 155.251 181.237 158.411 181.241 161.707C181.245 165.003 179.934 168.167 177.594 170.502C175.255 172.837 172.08 174.153 168.766 174.161Z" fill="url(#paint2_linear_145_55)"/>
<path d="M81.3266 174.161H81.2656C77.9547 174.153 74.7824 172.838 72.4455 170.505C70.1086 168.173 68.7982 165.012 68.8023 161.719C68.8063 158.426 70.1244 155.269 72.467 152.942C74.8096 150.615 77.9852 149.308 81.2961 149.308C84.6071 149.308 87.7826 150.615 90.1252 152.942C92.4678 155.269 93.7859 158.426 93.79 161.719C93.794 165.012 92.4837 168.173 90.1468 170.505C87.8099 172.838 84.6376 174.153 81.3266 174.161Z" fill="url(#paint3_linear_145_55)"/>
<path d="M274.875 84.5198V134.251C274.875 170.804 258.042 190.489 224.375 193.308C224.734 190.213 224.901 187.098 224.875 183.983V134.251C224.875 94.5905 204.917 74.7393 165 74.6978H85.001C81.8687 74.6712 78.7377 74.8373 75.626 75.1952C78.501 41.7507 98.3737 24.9663 135.001 24.9663H215C254.874 24.9665 274.833 44.8176 274.875 84.5198Z" fill="url(#paint4_linear_145_55)"/>
<defs>
<linearGradient id="paint0_linear_145_55" x1="25.1252" y1="174.363" x2="224.875" y2="174.363" gradientUnits="userSpaceOnUse">
<stop stop-color="#16B0E2"/>
<stop offset="1" stop-color="#6E5AF0"/>
</linearGradient>
<linearGradient id="paint1_linear_145_55" x1="112.488" y1="161.732" x2="137.513" y2="161.732" gradientUnits="userSpaceOnUse">
<stop stop-color="#16B0E2"/>
<stop offset="1" stop-color="#6E5AF0"/>
</linearGradient>
<linearGradient id="paint2_linear_145_55" x1="156.2" y1="161.732" x2="181.238" y2="161.732" gradientUnits="userSpaceOnUse">
<stop stop-color="#16B0E2"/>
<stop offset="1" stop-color="#6E5AF0"/>
</linearGradient>
<linearGradient id="paint3_linear_145_55" x1="68.7629" y1="161.732" x2="93.7879" y2="161.732" gradientUnits="userSpaceOnUse">
<stop stop-color="#16B0E2"/>
<stop offset="1" stop-color="#6E5AF0"/>
</linearGradient>
<linearGradient id="paint4_linear_145_55" x1="75.6254" y1="109.14" x2="274.875" y2="109.14" gradientUnits="userSpaceOnUse">
<stop stop-color="#16B0E2"/>
<stop offset="1" stop-color="#6E5AF0"/>
</linearGradient>
</defs>
</svg>
