<svg width="300" height="301" viewBox="0 0 300 301" fill="none" xmlns="http://www.w3.org/2000/svg">
<g clip-path="url(#clip0_145_62)">
<path d="M299.414 150.303C299.414 179.911 290.625 208.704 273.999 233.573C271.74 236.953 268.028 238.78 264.246 238.78C262.008 238.78 259.744 238.141 257.744 236.802C252.363 233.206 250.919 225.928 254.514 220.547C268.556 199.547 275.977 175.258 275.977 150.303C275.977 139.58 274.635 128.93 271.99 118.653C270.376 112.386 274.15 105.996 280.417 104.382C286.688 102.771 293.074 106.543 294.688 112.81C297.823 124.996 299.414 137.609 299.414 150.303ZM214.884 258.64C195.2 270.562 172.561 276.866 149.414 276.866C79.628 276.866 22.8516 220.089 22.8516 150.303C22.8516 80.5169 79.628 23.7404 149.414 23.7404C175.253 23.7404 200.098 31.4721 221.267 46.0999C226.591 49.778 233.89 48.4437 237.57 43.1199C241.248 37.7961 239.916 30.497 234.59 26.8166C209.486 9.47193 180.034 0.302917 149.414 0.302917C109.348 0.302917 71.679 15.9058 43.3479 44.2368C15.0169 72.5678 -0.585938 110.237 -0.585938 150.303C-0.585938 190.369 15.0169 228.038 43.3479 256.369C71.679 284.7 109.348 300.303 149.414 300.303C176.843 300.303 203.682 292.828 227.028 278.685C232.565 275.332 234.334 268.127 230.981 262.59C227.625 257.054 220.42 255.287 214.884 258.64ZM150.545 184.283C148.689 184.356 146.956 183.697 145.61 182.415L84.2354 124.222C79.5388 119.768 72.1207 119.965 67.6689 124.661C63.2149 129.358 63.4117 136.776 68.1084 141.228L129.472 199.412C135.139 204.8 142.47 207.725 150.238 207.725C150.655 207.725 151.071 207.716 151.488 207.7C159.716 207.368 167.274 203.806 172.767 197.67C172.907 197.517 173.039 197.359 173.17 197.196L296.828 43.3877C300.884 38.3431 300.083 30.9662 295.038 26.9127C289.996 22.8569 282.617 23.658 278.561 28.7026L155.145 182.211C153.932 183.477 152.307 184.212 150.545 184.283Z" fill="url(#paint0_linear_145_62)"/>
</g>
<defs>
<linearGradient id="paint0_linear_145_62" x1="-0.585938" y1="150.303" x2="299.414" y2="150.303" gradientUnits="userSpaceOnUse">
<stop stop-color="#00F2FE"/>
<stop offset="0.0208" stop-color="#03EFFE"/>
<stop offset="0.2931" stop-color="#24D2FE"/>
<stop offset="0.5538" stop-color="#3CBDFE"/>
<stop offset="0.7956" stop-color="#4AB0FE"/>
<stop offset="1" stop-color="#4FACFE"/>
</linearGradient>
<clipPath id="clip0_145_62">
<rect width="300" height="300" fill="white" transform="translate(0 0.302979)"/>
</clipPath>
</defs>
</svg>
