<svg width="300" height="301" viewBox="0 0 300 301" fill="none" xmlns="http://www.w3.org/2000/svg">
<g clip-path="url(#clip0_145_64)">
<path d="M150 300.303C232.843 300.303 300 233.146 300 150.303C300 67.4603 232.843 0.302979 150 0.302979C67.1573 0.302979 0 67.4603 0 150.303C0 233.146 67.1573 300.303 150 300.303Z" fill="url(#paint0_linear_145_64)"/>
<path d="M219.434 181.182L188.555 150.303L219.434 119.424C225.469 113.389 225.469 103.662 219.434 97.6272L202.676 80.8694C196.641 74.8342 186.914 74.8342 180.879 80.8694L150 111.748L119.121 80.8694C113.086 74.8342 103.359 74.8342 97.3242 80.8694L80.5664 97.6272C74.5313 103.662 74.5313 113.389 80.5664 119.424L111.445 150.303L80.5664 181.182C74.5313 187.217 74.5313 196.944 80.5664 202.979L97.3242 219.737C103.359 225.772 113.086 225.772 119.121 219.737L150 188.858L180.879 219.737C186.914 225.772 196.641 225.772 202.676 219.737L219.434 202.979C225.469 196.944 225.469 187.217 219.434 181.182Z" fill="url(#paint1_linear_145_64)"/>
</g>
<defs>
<linearGradient id="paint0_linear_145_64" x1="43.9342" y1="44.2372" x2="256.066" y2="256.369" gradientUnits="userSpaceOnUse">
<stop stop-color="#FD7F60"/>
<stop offset="1" stop-color="#FA262A"/>
</linearGradient>
<linearGradient id="paint1_linear_145_64" x1="88.9148" y1="89.2346" x2="211.035" y2="211.355" gradientUnits="userSpaceOnUse">
<stop stop-color="#FFECE7"/>
<stop offset="1" stop-color="#FCBCA3"/>
</linearGradient>
<clipPath id="clip0_145_64">
<rect width="300" height="300" fill="white" transform="translate(0 0.302979)"/>
</clipPath>
</defs>
</svg>
