<svg width="300" height="300" viewBox="0 0 300 300" fill="none" xmlns="http://www.w3.org/2000/svg">
<path fill-rule="evenodd" clip-rule="evenodd" d="M158.839 28.6611C153.957 23.7796 146.043 23.7796 141.161 28.6611L103.661 66.1611C98.7796 71.0428 98.7796 78.9572 103.661 83.8389L141.161 121.339C146.043 126.22 153.957 126.22 158.839 121.339L196.339 83.8389C201.22 78.9572 201.22 71.0428 196.339 66.1611L158.839 28.6611ZM141.161 178.661C146.043 173.78 153.957 173.78 158.839 178.661L196.339 216.161C201.22 221.043 201.22 228.957 196.339 233.839L158.839 271.339C153.957 276.22 146.043 276.22 141.161 271.339L103.661 233.839C98.7796 228.957 98.7796 221.043 103.661 216.161L141.161 178.661ZM216.161 103.661C221.043 98.7796 228.957 98.7796 233.839 103.661L271.339 141.161C276.22 146.043 276.22 153.957 271.339 158.839L233.839 196.339C228.957 201.22 221.043 201.22 216.161 196.339L178.661 158.839C173.78 153.957 173.78 146.043 178.661 141.161L216.161 103.661ZM66.1611 103.661C71.0428 98.7796 78.9572 98.7796 83.8389 103.661L121.339 141.161C126.22 146.043 126.22 153.957 121.339 158.839L83.8389 196.339C78.9572 201.22 71.0428 201.22 66.1611 196.339L28.6611 158.839C23.7796 153.957 23.7796 146.043 28.6611 141.161L66.1611 103.661Z" fill="url(#paint0_linear_145_299)"/>
<defs>
<linearGradient id="paint0_linear_145_299" x1="150" y1="25" x2="150" y2="275" gradientUnits="userSpaceOnUse">
<stop stop-color="#0D84F1"/>
<stop offset="1" stop-color="#875BE3"/>
</linearGradient>
</defs>
</svg>
