<svg viewBox="0 0 32 32" xmlns="http://www.w3.org/2000/svg" xmlns:xlink="http://www.w3.org/1999/xlink"><linearGradient id="New_Gradient_Swatch" gradientUnits="userSpaceOnUse" x1="2.29" x2="29.12" y1="29.71" y2="2.88"><stop offset="0" stop-color="#c21500"/><stop offset=".21" stop-color="#cd3500"/><stop offset=".66" stop-color="#e98500"/><stop offset="1" stop-color="#ffc500"/></linearGradient><g id="Layer"><path d="m17 5a3 3 0 0 0 -3-3h-9a3 3 0 0 0 -3 3v9a3 3 0 0 0 3 3h9a3 3 0 0 0 3-3zm-12-1h9a1 1 0 0 1 1 1v5.13l-1.45-1a1 1 0 0 0 -1.1 0l-2.32 1.54-2.42-2.38a1 1 0 0 0 -1.31-.09l-2.4 1.8v-5a1 1 0 0 1 1-1zm9 11h-9a1 1 0 0 1 -1-1v-1.5l2.91-2.18 3.38 3.39a1 1 0 0 0 1.42 0 1 1 0 0 0 0-1.42l-.14-.13 1.43-1 2 1.34v1.5a1 1 0 0 1 -1 1zm13 4h-7a3 3 0 0 0 -3 3v5a3 3 0 0 0 3 3h7a3 3 0 0 0 3-3v-5a3 3 0 0 0 -3-3zm1 8a1 1 0 0 1 -1 1h-7a1 1 0 0 1 -1-1v-5a1 1 0 0 1 1-1h7a1 1 0 0 1 1 1zm-1-25h-5a3 3 0 0 0 -3 3v9a3 3 0 0 0 3 3h5a3 3 0 0 0 3-3v-9a3 3 0 0 0 -3-3zm1 12a1 1 0 0 1 -1 1h-5a1 1 0 0 1 -1-1v-9a1 1 0 0 1 1-1h5a1 1 0 0 1 1 1zm-16 5h-7a3 3 0 0 0 -3 3v7a1 1 0 0 0 .53.88 1 1 0 0 0 1-.05l2.77-1.83h5.7a3 3 0 0 0 3-3v-3a3 3 0 0 0 -3-3zm1 6a1 1 0 0 1 -1 1h-6a1 1 0 0 0 -.55.17l-1.45.96v-5.13a1 1 0 0 1 1-1h7a1 1 0 0 1 1 1zm14-12a1 1 0 0 1 -1 1h-3a1 1 0 0 1 0-2h3a1 1 0 0 1 1 1zm0-3.5a1 1 0 0 1 -1 1h-3a1 1 0 0 1 0-2h3a1 1 0 0 1 1 1zm0-3.5a1 1 0 0 1 -1 1h-3a1 1 0 0 1 0-2h3a1 1 0 0 1 1 1zm-1.5 18.5a1 1 0 0 1 -.55.89l-2 1a1 1 0 0 1 -.45.11 1 1 0 0 1 -.53-.15 1 1 0 0 1 -.47-.85v-2a1 1 0 0 1 1.5-.89l2 1a1 1 0 0 1 .5.89z" fill="url(#New_Gradient_Swatch)"/></g></svg>