<svg width="300" height="300" viewBox="0 0 300 300" fill="none" xmlns="http://www.w3.org/2000/svg">
<g clip-path="url(#clip0_145_156)">
<path d="M66.0822 173.253C55.4409 173.253 46.7837 164.642 46.7837 154.058C46.7837 143.474 55.4409 134.863 66.0822 134.863C76.7234 134.863 85.3806 143.474 85.3806 154.058C85.38 164.642 76.7228 173.253 66.0822 173.253ZM148.538 49.9424C136.285 49.9424 126.316 59.858 126.316 72.0454C126.316 84.2328 136.285 94.1484 148.538 94.1484C160.792 94.1484 170.761 84.2328 170.761 72.0454C170.761 59.858 160.792 49.9424 148.538 49.9424ZM105.019 82.5636C97.0391 74.6272 84.0541 74.6272 76.073 82.5642C68.0931 90.5013 68.0931 103.417 76.0736 111.355C80.0638 115.324 85.3045 117.307 90.5463 117.307C95.7881 117.307 101.029 115.324 105.02 111.355C112.999 103.417 112.999 90.5019 105.019 82.5636ZM87.6218 194.29C82.9355 194.29 78.5298 196.105 75.2164 199.401C71.9023 202.697 70.0777 207.078 70.0777 211.74C70.0777 216.401 71.9023 220.783 75.2164 224.079C78.5298 227.375 82.9355 229.19 87.6218 229.19C92.3076 229.19 96.7139 227.375 100.028 224.079C106.867 217.276 106.867 206.205 100.027 199.401C96.7144 196.105 92.3082 194.29 87.6218 194.29ZM278.667 153.058L268.403 276.81C268.438 282.352 266.404 287.625 262.624 291.741C258.645 296.072 253.208 298.604 247.315 298.868C246.978 298.883 246.641 298.891 246.307 298.891C234.647 298.892 224.898 289.781 224.267 278.109L218.691 202.336H211.19C183.625 202.336 183.625 208.535 183.625 215.714C183.625 221.314 185.558 224.635 188.484 229.662C192.051 235.79 196.49 243.417 196.49 255.267C196.49 261.5 195.157 273.509 186.233 283.905C180.365 290.741 169.264 298.891 149.707 298.891C109.718 298.891 72.1238 283.402 43.8475 255.278C15.5725 227.154 0 189.761 0 149.987C0 110.213 15.5725 72.8205 43.8487 44.6955C72.1249 16.5717 109.719 1.08282 149.708 1.08282C178.824 1.08282 206.571 9.2186 230.688 24.7191C230.694 24.6521 230.702 24.5874 230.707 24.521L232.732 0.969173L250.26 16.933C292.382 55.3 298.939 85.7125 299.944 107.92C300.772 126.185 292.278 142.756 278.667 153.058ZM249.184 48.8083C244.194 62.4666 236.465 72.0745 229.838 80.3111C221.358 90.8527 215.23 98.4686 215.83 111.709C216.198 119.81 219.705 127.282 225.707 132.748C231.701 138.208 239.466 141.011 247.574 140.649C264.323 139.895 277.334 125.683 276.576 108.968C275.858 93.1075 271.726 73.8526 249.184 48.8083ZM216.98 179.07L215.143 154.102C213.329 152.818 211.577 151.426 209.909 149.907C199.306 140.249 193.11 127.056 192.463 112.756C191.467 90.7699 202.149 77.491 211.574 65.7751C216.065 60.1937 220.43 54.7668 223.882 48.2867C202.234 32.6177 176.669 24.3496 149.707 24.3496C80.0562 24.3496 23.3913 80.7104 23.3913 149.987C23.3913 219.265 80.0562 275.625 149.707 275.625C170.82 275.625 173.099 261.388 173.099 255.267C173.099 249.667 171.166 246.346 168.24 241.32C164.673 235.191 160.234 227.564 160.234 215.715C160.234 197.416 169.957 188.723 178.114 184.654C187.973 179.734 200.368 179.071 211.192 179.071H216.98V179.07ZM254.344 163.329C252.472 163.614 250.567 163.804 248.633 163.891C247.802 163.928 246.971 163.948 246.145 163.948C243.835 163.948 241.548 163.792 239.289 163.505L246.36 259.592L254.344 163.329Z" fill="url(#paint0_linear_145_156)"/>
</g>
<defs>
<linearGradient id="paint0_linear_145_156" x1="150.007" y1="0.954265" x2="150.007" y2="298.891" gradientUnits="userSpaceOnUse">
<stop stop-color="#2AF598"/>
<stop offset="1" stop-color="#009EFD"/>
</linearGradient>
<clipPath id="clip0_145_156">
<rect width="300" height="298.389" fill="white" transform="translate(0 0.735474)"/>
</clipPath>
</defs>
</svg>
