<svg width="300" height="301" viewBox="0 0 300 301" fill="none" xmlns="http://www.w3.org/2000/svg">
<g clip-path="url(#clip0_145_203)">
<path d="M175.781 228.696C175.781 208.48 187.558 189.847 205.84 181.058C209.004 179.652 210.937 176.488 210.937 173.148V61.7034L158.203 52.9143L149.414 0.179932H8.78906C3.8666 0.179932 0 4.04653 0 8.96899V255.063C0 259.984 3.8666 263.852 8.78906 263.852H172.969C175.957 263.852 178.77 262.269 180.352 259.808C182.109 257.172 182.285 254.009 180.878 251.195C177.538 244.34 175.781 236.781 175.781 228.696ZM268.483 208.65C265.17 205.328 260.741 203.5 256.055 203.5C251.368 203.5 246.939 205.328 243.626 208.65L220.898 231.378L215.749 226.228C212.436 222.906 208.007 221.078 203.32 221.078C198.634 221.078 194.205 222.906 190.892 226.228C187.579 229.55 185.742 233.961 185.742 238.656C185.742 243.352 187.579 247.763 190.892 251.085L208.47 268.663C211.783 271.985 216.212 273.813 220.898 273.813C225.585 273.813 230.014 271.985 233.327 268.663L268.483 233.507C275.332 226.657 275.332 215.5 268.483 208.65Z" fill="url(#paint0_linear_145_203)"/>
<path d="M208.3 55.5504L155.566 2.81606C153.984 1.05884 151.699 0.179932 149.414 0.179932V52.9143C149.414 57.7682 153.349 61.7034 158.203 61.7034H210.938C210.938 59.4182 210.059 57.1331 208.3 55.5504ZM61.5234 70.4924H96.6797C101.538 70.4924 105.469 66.5614 105.469 61.7034C105.469 56.8454 101.538 52.9143 96.6797 52.9143H61.5234C56.6654 52.9143 52.7344 56.8454 52.7344 61.7034C52.7344 66.5614 56.6654 70.4924 61.5234 70.4924ZM149.414 105.649H61.5234C56.6654 105.649 52.7344 109.58 52.7344 114.438C52.7344 119.296 56.6654 123.227 61.5234 123.227H149.414C154.272 123.227 158.203 119.296 158.203 114.438C158.203 109.58 154.272 105.649 149.414 105.649ZM149.414 140.805H61.5234C56.6654 140.805 52.7344 144.736 52.7344 149.594C52.7344 154.452 56.6654 158.383 61.5234 158.383H149.414C154.272 158.383 158.203 154.452 158.203 149.594C158.203 144.736 154.272 140.805 149.414 140.805ZM149.414 175.961H61.5234C56.6654 175.961 52.7344 179.892 52.7344 184.75C52.7344 189.608 56.6654 193.539 61.5234 193.539H149.414C154.272 193.539 158.203 189.608 158.203 184.75C158.203 179.892 154.272 175.961 149.414 175.961ZM229.688 159.555C190.136 159.555 159.375 192.029 159.375 229.867C159.375 269.342 191.798 300.18 229.688 300.18C268.466 300.18 300 268.637 300 229.867C300 191.098 268.466 159.555 229.688 159.555ZM262.269 227.292L227.112 262.448C225.396 264.165 223.147 265.024 220.898 265.024C218.65 265.024 216.401 264.165 214.685 262.448L197.106 244.87C193.673 241.437 193.673 235.875 197.106 232.442C200.539 229.009 206.102 229.009 209.535 232.442L220.898 243.806L249.841 214.864C253.274 211.431 258.836 211.431 262.269 214.864C265.702 218.297 265.702 223.859 262.269 227.292Z" fill="url(#paint1_linear_145_203)"/>
</g>
<defs>
<linearGradient id="paint0_linear_145_203" x1="136.81" y1="273.813" x2="136.81" y2="0.179932" gradientUnits="userSpaceOnUse">
<stop stop-color="#5558FF"/>
<stop offset="1" stop-color="#00C0FF"/>
</linearGradient>
<linearGradient id="paint1_linear_145_203" x1="176.367" y1="300.18" x2="176.367" y2="0.179932" gradientUnits="userSpaceOnUse">
<stop stop-color="#ADDCFF"/>
<stop offset="0.5028" stop-color="#EAF6FF"/>
<stop offset="1" stop-color="#EAF6FF"/>
</linearGradient>
<clipPath id="clip0_145_203">
<rect width="300" height="300" fill="white" transform="translate(0 0.179932)"/>
</clipPath>
</defs>
</svg>
