<svg width="300" height="301" viewBox="0 0 300 301" fill="none" xmlns="http://www.w3.org/2000/svg">
<g clip-path="url(#clip0_145_83)">
<path d="M276.888 189.004C272.761 189.004 269.417 192.353 269.417 196.485V262.91C269.402 275.301 259.377 285.342 247.002 285.353H37.3578C24.983 285.342 14.9577 275.301 14.9431 262.91V67.9578C14.9577 55.57 24.983 45.5289 37.3578 45.5142H103.697C107.824 45.5142 111.169 42.1652 111.169 38.0331C111.169 33.9038 107.824 30.5519 103.697 30.5519H37.3578C16.7351 30.5753 0.0233486 47.3086 0 67.9578V262.913C0.0233486 283.562 16.7351 300.295 37.3578 300.319H247.002C267.625 300.295 284.336 283.562 284.36 262.913V196.485C284.36 192.353 281.015 189.004 276.888 189.004Z" fill="url(#paint0_linear_145_83)"/>
<path d="M281.4 11.3024C268.27 -1.84516 246.981 -1.84516 233.851 11.3024L100.554 144.771C99.6401 145.686 98.9805 146.82 98.6361 148.065L81.1071 211.43C80.3862 214.028 81.1188 216.81 83.0217 218.718C84.9275 220.624 87.706 221.357 90.3006 220.638L153.584 203.084C154.827 202.739 155.96 202.078 156.873 201.164L290.168 67.6918C303.278 54.5355 303.278 33.2375 290.168 20.0811L281.4 11.3024ZM116.833 149.634L225.927 40.3972L261.11 75.626L152.014 184.863L116.833 149.634ZM109.805 163.755L137.914 191.903L99.033 202.689L109.805 163.755ZM279.602 57.113L271.678 65.0471L236.492 29.8154L244.419 21.8813C251.712 14.5784 263.539 14.5784 270.832 21.8813L279.602 30.66C286.884 37.9717 286.884 49.8042 279.602 57.113Z" fill="url(#paint1_linear_145_83)"/>
</g>
<defs>
<linearGradient id="paint0_linear_145_83" x1="142.18" y1="-0.240322" x2="142.18" y2="319.954" gradientUnits="userSpaceOnUse">
<stop stop-color="#00EFD1"/>
<stop offset="1" stop-color="#00ACEA"/>
</linearGradient>
<linearGradient id="paint1_linear_145_83" x1="190.417" y1="-0.240332" x2="190.417" y2="319.954" gradientUnits="userSpaceOnUse">
<stop stop-color="#00EFD1"/>
<stop offset="1" stop-color="#00ACEA"/>
</linearGradient>
<clipPath id="clip0_145_83">
<rect width="300" height="300.387" fill="white" transform="translate(0 0.302979)"/>
</clipPath>
</defs>
</svg>
