<svg id="Capa_1" enable-background="new 0 0 512.02 512.02" height="512" viewBox="0 0 512.02 512.02" width="512" xmlns="http://www.w3.org/2000/svg"><g><path d="m384.01 512.01h-223c-8.284 0-15-6.716-15-15s6.716-15 15-15h223c8.284 0 15 6.716 15 15s-6.716 15-15 15z" fill="#f2d1a3"/><path d="m498.83 130.76-117.57-117.57c-17.585-17.585-46.051-17.589-63.64 0l-28.21 28.22c-15.53 96.12-122.31 123.57-123.98 123.99-.638.622-74.127 74.116-76.02 76.01-.95 47.63-48 48-48 48l-28.22 28.21c-17.54 17.54-17.54 46.09 0 63.64l117.57 117.57c17.585 17.585 46.051 17.589 63.64 0 28.538-28.528 28.31-28.122 28.21-28.22 0 0 .37-47.05 48-48 .1 0 76.1-75.902 76-76 0 0 27.12-108.35 124-124 .1 0-.552.573 28.22-28.21 17.54-17.54 17.54-46.09 0-63.64z" fill="#ff8493"/><path d="m498.83 194.4c-29.005 29.015-28.12 28.21-28.22 28.21-96.88 15.65-124 124-124 124 .1.098-75.9 76-76 76-47.63.95-48 48-48 48 .1.098.337-.317-28.21 28.22-17.585 17.585-46.051 17.589-63.64 0l-58.78-58.78 368.07-368.07 58.78 58.78c17.54 17.55 17.54 46.1 0 63.64z" fill="#ff3d7d"/><path d="m222.61 470.61c.101 0 .212-.202-28.21 28.22-17.585 17.585-46.051 17.589-63.64 0l-117.57-117.57c-17.54-17.55-17.54-46.1 0-63.64l28.22-28.21s24.15-.19 38.19-17.81c8.926 8.926 151.894 151.895 160.82 160.82-17.62 14.04-17.81 38.19-17.81 38.19z" fill="#00b4bc"/><path d="m222.61 470.61c.101 0 .212-.202-28.21 28.22-17.585 17.585-46.051 17.589-63.64 0l-58.78-58.78 88.03-88.04 80.41 80.41c-17.62 14.04-17.81 38.19-17.81 38.19z" fill="#0a617d"/><path d="m270.62 422.62-48 48c-10.072-10.072-171.136-171.137-181.21-181.21l48-48c10.074 10.074 171.137 171.137 181.21 181.21z" fill="#ffe278"/><path d="m167.374 337.244h67.882v128.142h-67.882z" fill="#ffc178" transform="matrix(.707 -.707 .707 .707 -224.809 259.894)"/><path d="m470.62 222.62-124 124c-10.072-10.072-171.137-171.137-181.21-181.21l124-124c10.074 10.074 171.137 171.137 181.21 181.21z" fill="#edf3ff"/><path d="m275.634 175.244h175.362v128.142h-175.362z" fill="#d8e5fb" transform="matrix(.707 -.707 .707 .707 -62.809 326.996)"/></g></svg>