<svg width="300" height="288" viewBox="0 0 300 288" fill="none" xmlns="http://www.w3.org/2000/svg">
<path d="M70.3125 49.6714V22.7432C70.3125 21.5529 70.8064 20.4113 71.6854 19.5696C72.5645 18.728 73.7568 18.2551 75 18.2551C76.2432 18.2551 77.4355 18.728 78.3146 19.5696C79.1936 20.4113 79.6875 21.5529 79.6875 22.7432V49.6714C79.6875 50.8617 79.1936 52.0032 78.3146 52.8449C77.4355 53.6865 76.2432 54.1594 75 54.1594C73.7568 54.1594 72.5645 53.6865 71.6854 52.8449C70.8064 52.0032 70.3125 50.8617 70.3125 49.6714ZM150 54.1594C151.242 54.1558 152.432 53.6818 153.31 52.8409C154.189 52 154.684 50.8606 154.688 49.6714V22.7432C154.688 21.5529 154.194 20.4113 153.315 19.5696C152.435 18.728 151.243 18.2551 150 18.2551C148.757 18.2551 147.565 18.728 146.685 19.5696C145.806 20.4113 145.312 21.5529 145.312 22.7432V49.6714C145.316 50.8606 145.811 52 146.69 52.8409C147.568 53.6818 148.758 54.1558 150 54.1594ZM225 54.1594C226.242 54.1558 227.432 53.6818 228.31 52.8409C229.189 52 229.684 50.8606 229.688 49.6714V22.7432C229.688 21.5529 229.194 20.4113 228.315 19.5696C227.435 18.728 226.243 18.2551 225 18.2551C223.757 18.2551 222.565 18.728 221.685 19.5696C220.806 20.4113 220.312 21.5529 220.312 22.7432V49.6714C220.316 50.8606 220.811 52 221.69 52.8409C222.568 53.6818 223.758 54.1558 225 54.1594ZM281.25 58.6474V247.145C281.248 253.096 278.778 258.802 274.383 263.01C269.988 267.218 264.028 269.583 257.812 269.585H42.1875C35.9722 269.583 30.0121 267.218 25.6172 263.01C21.2223 258.802 18.7522 253.096 18.75 247.145V58.6474C18.7522 52.6966 21.2223 46.9901 25.6172 42.7822C30.0121 38.5743 35.9722 36.2094 42.1875 36.2073H60.9375V49.6714C60.9375 53.2423 62.4191 56.6669 65.0563 59.1919C67.6935 61.7169 71.2704 63.1354 75 63.1354C78.7296 63.1354 82.3065 61.7169 84.9437 59.1919C87.5809 56.6669 89.0625 53.2423 89.0625 49.6714V36.2073H135.938V49.6714C135.938 53.2423 137.419 56.6669 140.056 59.1919C142.694 61.7169 146.27 63.1354 150 63.1354C153.73 63.1354 157.306 61.7169 159.944 59.1919C162.581 56.6669 164.062 53.2423 164.062 49.6714V36.2073H210.938V49.6714C210.938 53.2423 212.419 56.6669 215.056 59.1919C217.694 61.7169 221.27 63.1354 225 63.1354C228.73 63.1354 232.306 61.7169 234.944 59.1919C237.581 56.6669 239.062 53.2423 239.062 49.6714V36.2073H257.812C264.028 36.2094 269.988 38.5743 274.383 42.7822C278.778 46.9901 281.248 52.6966 281.25 58.6474ZM98.4375 78.8436C98.4412 80.0328 98.9363 81.1722 99.8145 82.0131C100.693 82.854 101.883 83.328 103.125 83.3316H196.875C198.118 83.3316 199.31 82.8587 200.19 82.0171C201.069 81.1754 201.562 80.0339 201.562 78.8436C201.562 77.6533 201.069 76.5117 200.19 75.67C199.31 74.8284 198.118 74.3555 196.875 74.3555H103.125C101.883 74.3591 100.693 74.8331 99.8145 75.674C98.9363 76.5149 98.4412 77.6543 98.4375 78.8436ZM271.875 108.016H28.125V247.145C28.1359 250.712 29.621 254.131 32.2559 256.654C34.8907 259.177 38.4613 260.598 42.1875 260.609H257.812C261.539 260.598 265.109 259.177 267.744 256.654C270.379 254.131 271.864 250.712 271.875 247.145V108.016ZM49.2188 157.384H67.9688C70.4529 157.377 72.8332 156.429 74.5898 154.747C76.3464 153.066 77.3364 150.786 77.3438 148.408V130.456C77.3365 128.077 76.3464 125.798 74.5899 124.117C72.8333 122.435 70.4529 121.487 67.9688 121.48H49.2188C46.7346 121.487 44.3542 122.435 42.5976 124.117C40.8411 125.798 39.851 128.077 39.8438 130.456V148.408C39.8511 150.786 40.8411 153.066 42.5977 154.747C44.3543 156.429 46.7346 157.377 49.2188 157.384ZM110.156 157.384H128.906C131.39 157.377 133.771 156.429 135.527 154.747C137.284 153.066 138.274 150.786 138.281 148.408V130.456C138.274 128.077 137.284 125.798 135.527 124.117C133.771 122.435 131.39 121.487 128.906 121.48H110.156C107.672 121.487 105.292 122.435 103.535 124.117C101.779 125.798 100.789 128.077 100.781 130.456V148.408C100.789 150.786 101.779 153.066 103.535 154.747C105.292 156.429 107.672 157.377 110.156 157.384ZM49.2188 202.264H67.9688C70.4529 202.257 72.8332 201.309 74.5898 199.628C76.3464 197.946 77.3364 195.667 77.3438 193.288V175.336C77.3365 172.958 76.3464 170.679 74.5899 168.997C72.8333 167.315 70.4529 166.367 67.9688 166.36H49.2188C46.7346 166.367 44.3542 167.315 42.5976 168.997C40.8411 170.679 39.851 172.958 39.8438 175.336V193.288C39.8511 195.667 40.8411 197.946 42.5977 199.628C44.3543 201.309 46.7346 202.257 49.2188 202.264ZM110.156 202.264H128.906C131.39 202.257 133.771 201.309 135.527 199.628C137.284 197.946 138.274 195.667 138.281 193.288V175.336C138.274 172.958 137.284 170.679 135.527 168.997C133.771 167.315 131.39 166.367 128.906 166.36H110.156C107.672 166.367 105.292 167.315 103.535 168.997C101.779 170.679 100.789 172.958 100.781 175.336V193.288C100.789 195.667 101.779 197.946 103.535 199.628C105.292 201.309 107.672 202.257 110.156 202.264ZM171.094 202.264H189.844C192.328 202.257 194.708 201.309 196.465 199.628C198.221 197.946 199.211 195.667 199.219 193.288V175.336C199.211 172.958 198.221 170.679 196.465 168.997C194.708 167.315 192.328 166.367 189.844 166.36H171.094C168.61 166.367 166.229 167.315 164.473 168.997C162.716 170.679 161.726 172.958 161.719 175.336V193.288C161.726 195.667 162.716 197.946 164.473 199.628C166.229 201.309 168.61 202.257 171.094 202.264ZM49.2188 247.145H67.9688C70.4529 247.138 72.8332 246.19 74.5898 244.508C76.3464 242.826 77.3364 240.547 77.3438 238.169V220.217C77.3365 217.838 76.3464 215.559 74.5899 213.877C72.8333 212.195 70.4529 211.247 67.9688 211.24H49.2188C46.7346 211.247 44.3542 212.195 42.5976 213.877C40.8411 215.559 39.851 217.838 39.8438 220.217V238.169C39.8511 240.547 40.8411 242.826 42.5977 244.508C44.3543 246.19 46.7346 247.138 49.2188 247.145ZM110.156 247.145H128.906C131.39 247.138 133.771 246.19 135.527 244.508C137.284 242.826 138.274 240.547 138.281 238.169V220.217C138.274 217.838 137.284 215.559 135.527 213.877C133.771 212.195 131.39 211.247 128.906 211.24H110.156C107.672 211.247 105.292 212.195 103.535 213.877C101.779 215.559 100.789 217.838 100.781 220.217V238.169C100.789 240.547 101.779 242.826 103.535 244.508C105.292 246.19 107.672 247.138 110.156 247.145ZM171.094 247.145H189.844C192.328 247.138 194.708 246.19 196.465 244.508C198.221 242.826 199.211 240.547 199.219 238.169V220.217C199.211 217.838 198.221 215.559 196.465 213.877C194.708 212.195 192.328 211.247 189.844 211.24H171.094C168.61 211.247 166.229 212.195 164.473 213.877C162.716 215.559 161.726 217.838 161.719 220.217V238.169C161.726 240.547 162.716 242.826 164.473 244.508C166.229 246.19 168.61 247.138 171.094 247.145ZM232.031 247.145H250.781C253.265 247.138 255.646 246.19 257.402 244.508C259.159 242.826 260.149 240.547 260.156 238.169V220.217C260.149 217.838 259.159 215.559 257.402 213.877C255.646 212.195 253.265 211.247 250.781 211.24H232.031C229.547 211.247 227.167 212.195 225.41 213.877C223.654 215.559 222.664 217.838 222.656 220.217V238.169C222.664 240.547 223.654 242.826 225.41 244.508C227.167 246.19 229.547 247.138 232.031 247.145Z" fill="url(#paint0_linear_145_51)"/>
<defs>
<linearGradient id="paint0_linear_145_51" x1="18.75" y1="143.92" x2="281.25" y2="143.92" gradientUnits="userSpaceOnUse">
<stop stop-color="#00C0FF"/>
<stop offset="1" stop-color="#5558FF"/>
</linearGradient>
</defs>
</svg>
