<svg width="300" height="301" viewBox="0 0 300 301" fill="none" xmlns="http://www.w3.org/2000/svg">
<g clip-path="url(#clip0_145_95)">
<path d="M150 0.302979C67.0992 0.302979 0 67.3911 0 150.303V288.584C0 295.056 5.24648 300.303 11.7188 300.303H150C232.9 300.303 300 233.215 300 150.303C300 67.4022 232.912 0.302979 150 0.302979ZM150 276.865H23.4375V150.303C23.4375 80.3555 80.0432 23.7405 150 23.7405C219.947 23.7405 276.562 80.3461 276.562 150.303C276.562 220.25 219.957 276.865 150 276.865ZM161.132 217.135C161.132 225.509 154.187 232.862 145.405 232.862C136.623 232.862 129.883 225.509 129.883 217.135C129.883 208.557 136.828 201.408 145.405 201.408C153.984 201.408 161.132 208.557 161.132 217.135ZM191.564 116.036C191.564 135.234 174.203 149.123 168.689 153.412C157.456 162.194 157.251 168.321 157.251 178.942C157.251 182.823 155.209 187.315 145.201 187.315C136.827 187.315 133.968 184.252 133.968 173.631C133.968 156.067 141.729 147.693 147.652 142.587C154.392 136.868 165.83 130.537 165.83 119.507C165.83 110.112 157.66 105.619 147.448 105.619C126.615 105.619 131.108 121.345 120.08 121.345C114.565 121.345 107.825 117.669 107.825 109.703C107.825 98.6743 120.488 82.3354 148.061 82.3354C174.203 82.3354 191.564 96.8368 191.564 116.036Z" fill="url(#paint0_linear_145_95)"/>
</g>
<defs>
<linearGradient id="paint0_linear_145_95" x1="0" y1="150.303" x2="300" y2="150.303" gradientUnits="userSpaceOnUse">
<stop stop-color="#80D8FF"/>
<stop offset="1" stop-color="#EA80FC"/>
</linearGradient>
<clipPath id="clip0_145_95">
<rect width="300" height="300" fill="white" transform="translate(0 0.302979)"/>
</clipPath>
</defs>
</svg>
