<svg id="Layer_1" enable-background="new 0 0 24 24" height="512" viewBox="0 0 24 24" width="512" xmlns="http://www.w3.org/2000/svg" xmlns:xlink="http://www.w3.org/1999/xlink"><linearGradient id="SVGID_1_" gradientUnits="userSpaceOnUse" x1="0" x2="24" y1="12" y2="12"><stop offset="0" stop-color="#da22ff"/><stop offset="1" stop-color="#9733ee"/></linearGradient><circle cx="12" cy="12" fill="url(#SVGID_1_)" r="12"/><g><g><path d="m12 20c-.2 0-.4-.1-.5-.2l-7.3-7.3c-.3-.3-.3-.7 0-1l7.3-7.3c.3-.3.7-.3 1 0l7.3 7.3c.3.3.3.7 0 1s-.7.3-1 0l-6.8-6.8-6.3 6.3 6.3 6.3 3.5-3.5c.3-.3.7-.3 1 0s.3.7 0 1l-4 4c-.1.1-.3.2-.5.2z" fill="#fff"/></g><g><path d="m17.5 20c-.1 0-.2 0-.4-.1-.4-.2-.5-.7-.3-.9.5-.9 1.5-3.6.3-4.8-1.3-1.3-4.7-1.5-5.8-1.5-.4 0-.7-.3-.7-.7s.3-.7.7-.7c.2 0 4.9-.1 6.9 1.8 2.2 2.2.1 6.3-.1 6.5-.1.3-.4.4-.6.4z" fill="#fff"/></g><g><path d="m12.7 14.2c-.2 0-.4-.1-.5-.2l-1.5-1.5c-.3-.3-.3-.7 0-1l1.5-1.5c.3-.3.7-.3 1 0s.3.7 0 1l-.9 1 .9.9c.3.3.3.7 0 1-.1.2-.3.3-.5.3z" fill="#fff"/></g></g></svg>