<svg width="300" height="301" viewBox="0 0 300 301" fill="none" xmlns="http://www.w3.org/2000/svg">
<g clip-path="url(#clip0_145_86)">
<path d="M178.614 42.4993C177.336 39.815 175.32 37.55 172.802 35.9688C170.284 34.3875 167.369 33.5554 164.396 33.5696H15.8037C12.8338 33.5698 9.92416 34.408 7.40922 35.9877C4.89428 37.5675 2.87608 39.8248 1.58653 42.5001C0.296975 45.1755 -0.2116 48.1604 0.119247 51.1119C0.450094 54.0633 1.60694 56.8616 3.45684 59.185L62.7772 133.691V257.661C62.7771 259.307 63.2102 260.924 64.033 262.349C64.8558 263.774 66.0393 264.958 67.4645 265.781C68.8897 266.603 70.5064 267.037 72.1521 267.037C73.7978 267.037 75.4144 266.604 76.8397 265.781L112.735 245.056C114.16 244.233 115.343 243.05 116.166 241.625C116.989 240.2 117.422 238.583 117.422 236.937V133.691L176.743 59.1897C178.607 56.8723 179.773 54.0721 180.104 51.1165C180.435 48.1609 179.919 45.172 178.614 42.4993ZM158.243 52.3196L148.391 64.6922H31.808L21.9566 52.3196H158.243ZM100.713 124.575C99.3917 126.235 98.6723 128.293 98.6723 130.414V231.525L81.5272 241.423V130.414C81.5271 128.293 80.8077 126.235 79.4863 124.575L46.7371 83.4422H133.463L100.713 124.575ZM177.24 85.9805C177.24 88.4669 178.228 90.8515 179.986 92.6096C181.744 94.3678 184.129 95.3555 186.615 95.3555H208.646C210.559 100.506 214.002 104.947 218.513 108.083C223.024 111.219 228.386 112.9 233.88 112.9C239.374 112.9 244.736 111.219 249.246 108.083C253.757 104.947 257.2 100.506 259.113 95.3555H290.625C293.111 95.3555 295.496 94.3678 297.254 92.6096C299.012 90.8515 300 88.4669 300 85.9805C300 83.4941 299.012 81.1095 297.254 79.3514C295.496 77.5932 293.111 76.6055 290.625 76.6055H259.116C257.203 71.4554 253.76 67.0139 249.249 63.8775C244.738 60.7411 239.376 59.06 233.882 59.06C228.388 59.06 223.026 60.7411 218.515 63.8775C214.004 67.0139 210.561 71.4554 208.648 76.6055H186.617C185.386 76.6053 184.166 76.8476 183.029 77.3186C181.891 77.7897 180.857 78.4802 179.987 79.3508C179.116 80.2213 178.425 81.2549 177.954 82.3924C177.483 83.53 177.24 84.7492 177.24 85.9805ZM233.882 77.8102C236.047 77.813 238.123 78.6743 239.655 80.2054C241.186 81.7364 242.047 83.8122 242.051 85.9776V85.9834C242.05 87.5992 241.57 89.1786 240.672 90.5218C239.774 91.865 238.498 92.9118 237.005 93.5297C235.512 94.1477 233.869 94.3091 232.285 93.9935C230.7 93.6779 229.244 92.8995 228.102 91.7568C226.96 90.614 226.182 89.1582 225.867 87.5734C225.552 85.9886 225.714 84.3459 226.332 82.8532C226.951 81.3604 227.998 80.0846 229.341 79.1869C230.685 78.2893 232.264 77.8102 233.88 77.8102H233.882ZM290.625 144.242H206.308C204.396 139.092 200.953 134.65 196.442 131.514C191.931 128.377 186.569 126.696 181.075 126.696C175.581 126.696 170.218 128.377 165.708 131.514C161.197 134.65 157.754 139.092 155.841 144.242H144.879C142.392 144.242 140.008 145.23 138.25 146.988C136.491 148.746 135.504 151.131 135.504 153.617C135.504 156.103 136.491 158.488 138.25 160.246C140.008 162.004 142.392 162.992 144.879 162.992H155.84C157.753 168.142 161.196 172.584 165.707 175.72C170.218 178.857 175.58 180.538 181.074 180.538C186.568 180.538 191.931 178.857 196.441 175.72C200.952 172.584 204.395 168.142 206.308 162.992H290.625C293.111 162.992 295.496 162.004 297.254 160.246C299.012 158.488 300 156.103 300 153.617C300 151.131 299.012 148.746 297.254 146.988C295.496 145.23 293.111 144.242 290.625 144.242ZM181.074 161.787C179.458 161.787 177.878 161.308 176.534 160.411C175.19 159.513 174.143 158.237 173.524 156.744C172.906 155.251 172.744 153.608 173.059 152.023C173.375 150.437 174.153 148.981 175.296 147.839C176.438 146.696 177.894 145.918 179.479 145.603C181.064 145.287 182.707 145.449 184.2 146.068C185.693 146.686 186.97 147.734 187.867 149.077C188.765 150.421 189.244 152.001 189.244 153.617C189.242 155.783 188.38 157.86 186.849 159.392C185.317 160.923 183.24 161.785 181.074 161.787ZM290.625 211.878H280.352C278.439 206.728 274.996 202.286 270.485 199.15C265.974 196.013 260.612 194.332 255.118 194.332C249.624 194.332 244.261 196.013 239.751 199.15C235.24 202.286 231.797 206.728 229.884 211.878H144.879C142.392 211.878 140.008 212.866 138.25 214.624C136.491 216.382 135.504 218.767 135.504 221.253C135.504 223.739 136.491 226.124 138.25 227.882C140.008 229.64 142.392 230.628 144.879 230.628H229.884C231.797 235.778 235.24 240.22 239.751 243.356C244.261 246.493 249.624 248.174 255.118 248.174C260.612 248.174 265.974 246.493 270.485 243.356C274.996 240.22 278.439 235.778 280.352 230.628H290.625C293.111 230.628 295.496 229.64 297.254 227.882C299.012 226.124 300 223.739 300 221.253C300 218.767 299.012 216.382 297.254 214.624C295.496 212.866 293.111 211.878 290.625 211.878ZM255.117 229.424C253.501 229.424 251.921 228.945 250.578 228.047C249.234 227.15 248.187 225.874 247.568 224.381C246.949 222.888 246.787 221.245 247.102 219.66C247.417 218.075 248.195 216.619 249.337 215.477C250.48 214.334 251.936 213.555 253.52 213.239C255.105 212.924 256.748 213.085 258.241 213.703C259.734 214.321 261.011 215.368 261.909 216.711C262.807 218.055 263.287 219.634 263.287 221.25V221.256C263.284 223.422 262.422 225.498 260.891 227.029C259.359 228.56 257.283 229.421 255.117 229.424Z" fill="url(#paint0_linear_145_86)"/>
</g>
<defs>
<linearGradient id="paint0_linear_145_86" x1="-9.5" y1="61.6108" x2="292.841" y2="236.167" gradientUnits="userSpaceOnUse">
<stop stop-color="#00F18F"/>
<stop offset="1" stop-color="#00A1FB"/>
</linearGradient>
<clipPath id="clip0_145_86">
<rect width="300" height="300" fill="white" transform="translate(0 0.302979)"/>
</clipPath>
</defs>
</svg>
