<svg width="300" height="310" viewBox="0 0 300 310" fill="none" xmlns="http://www.w3.org/2000/svg">
<path fill-rule="evenodd" clip-rule="evenodd" d="M237.5 257.878C237.5 250.777 243.096 245.021 250 245.021H250.125C257.029 245.021 262.625 250.777 262.625 257.878C262.625 264.979 257.029 270.735 250.125 270.735H250C243.096 270.735 237.5 264.979 237.5 257.878Z" fill="url(#paint0_linear_145_183)"/>
<path fill-rule="evenodd" clip-rule="evenodd" d="M37.5 257.878C37.5 250.777 43.0965 245.021 50 245.021H50.125C57.0285 245.021 62.625 250.777 62.625 257.878C62.625 264.979 57.0285 270.735 50.125 270.735H50C43.0965 270.735 37.5 264.979 37.5 257.878Z" fill="url(#paint1_linear_145_183)"/>
<path fill-rule="evenodd" clip-rule="evenodd" d="M87.5 257.878C87.5 250.777 93.0965 245.021 100 245.021H100.125C107.029 245.021 112.625 250.777 112.625 257.878C112.625 264.979 107.029 270.735 100.125 270.735H100C93.0965 270.735 87.5 264.979 87.5 257.878Z" fill="url(#paint2_linear_145_183)"/>
<path fill-rule="evenodd" clip-rule="evenodd" d="M137.5 257.878C137.5 250.777 143.096 245.021 150 245.021H150.125C157.029 245.021 162.625 250.777 162.625 257.878C162.625 264.979 157.029 270.735 150.125 270.735H150C143.096 270.735 137.5 264.979 137.5 257.878Z" fill="url(#paint3_linear_145_183)"/>
<path fill-rule="evenodd" clip-rule="evenodd" d="M187.5 257.878C187.5 250.777 193.096 245.021 200 245.021H200.125C207.029 245.021 212.625 250.777 212.625 257.878C212.625 264.979 207.029 270.735 200.125 270.735H200C193.096 270.735 187.5 264.979 187.5 257.878Z" fill="url(#paint4_linear_145_183)"/>
<path fill-rule="evenodd" clip-rule="evenodd" d="M237.5 52.1639C237.5 45.0632 243.096 39.3068 250 39.3068H250.125C257.029 39.3068 262.625 45.0632 262.625 52.1639C262.625 59.2646 257.029 65.021 250.125 65.021H250C243.096 65.021 237.5 59.2646 237.5 52.1639Z" fill="url(#paint5_linear_145_183)"/>
<path fill-rule="evenodd" clip-rule="evenodd" d="M37.5 52.1639C37.5 45.0632 43.0965 39.3068 50 39.3068H50.125C57.0285 39.3068 62.625 45.0632 62.625 52.1639C62.625 59.2646 57.0285 65.021 50.125 65.021H50C43.0965 65.021 37.5 59.2646 37.5 52.1639Z" fill="url(#paint6_linear_145_183)"/>
<path fill-rule="evenodd" clip-rule="evenodd" d="M87.5 52.1639C87.5 45.0632 93.0965 39.3068 100 39.3068H100.125C107.029 39.3068 112.625 45.0632 112.625 52.1639C112.625 59.2646 107.029 65.021 100.125 65.021H100C93.0965 65.021 87.5 59.2646 87.5 52.1639Z" fill="url(#paint7_linear_145_183)"/>
<path fill-rule="evenodd" clip-rule="evenodd" d="M137.5 52.1639C137.5 45.0632 143.096 39.3068 150 39.3068H150.125C157.029 39.3068 162.625 45.0632 162.625 52.1639C162.625 59.2646 157.029 65.021 150.125 65.021H150C143.096 65.021 137.5 59.2646 137.5 52.1639Z" fill="url(#paint8_linear_145_183)"/>
<path fill-rule="evenodd" clip-rule="evenodd" d="M37.5 116.45C37.5 102.248 48.693 90.7354 62.5 90.7354H237.5C251.307 90.7354 262.5 102.248 262.5 116.45V193.593C262.5 207.795 251.307 219.307 237.5 219.307H62.5C48.6931 219.307 37.5 207.795 37.5 193.593V116.45ZM237.5 116.45H62.5V193.593H237.5V116.45Z" fill="url(#paint9_linear_145_183)"/>
<defs>
<linearGradient id="paint0_linear_145_183" x1="150" y1="85.0139" x2="150" y2="219.307" gradientUnits="userSpaceOnUse">
<stop stop-color="#FD4685"/>
<stop offset="1" stop-color="#FF9D8C"/>
</linearGradient>
<linearGradient id="paint1_linear_145_183" x1="150" y1="85.0139" x2="150" y2="219.307" gradientUnits="userSpaceOnUse">
<stop stop-color="#FD4685"/>
<stop offset="1" stop-color="#FF9D8C"/>
</linearGradient>
<linearGradient id="paint2_linear_145_183" x1="150" y1="85.0139" x2="150" y2="219.307" gradientUnits="userSpaceOnUse">
<stop stop-color="#FD4685"/>
<stop offset="1" stop-color="#FF9D8C"/>
</linearGradient>
<linearGradient id="paint3_linear_145_183" x1="150" y1="85.0139" x2="150" y2="219.307" gradientUnits="userSpaceOnUse">
<stop stop-color="#FD4685"/>
<stop offset="1" stop-color="#FF9D8C"/>
</linearGradient>
<linearGradient id="paint4_linear_145_183" x1="150" y1="85.0139" x2="150" y2="219.307" gradientUnits="userSpaceOnUse">
<stop stop-color="#FD4685"/>
<stop offset="1" stop-color="#FF9D8C"/>
</linearGradient>
<linearGradient id="paint5_linear_145_183" x1="150" y1="85.0139" x2="150" y2="219.307" gradientUnits="userSpaceOnUse">
<stop stop-color="#FD4685"/>
<stop offset="1" stop-color="#FF9D8C"/>
</linearGradient>
<linearGradient id="paint6_linear_145_183" x1="150" y1="85.0139" x2="150" y2="219.307" gradientUnits="userSpaceOnUse">
<stop stop-color="#FD4685"/>
<stop offset="1" stop-color="#FF9D8C"/>
</linearGradient>
<linearGradient id="paint7_linear_145_183" x1="150" y1="85.0139" x2="150" y2="219.307" gradientUnits="userSpaceOnUse">
<stop stop-color="#FD4685"/>
<stop offset="1" stop-color="#FF9D8C"/>
</linearGradient>
<linearGradient id="paint8_linear_145_183" x1="150" y1="85.0139" x2="150" y2="219.307" gradientUnits="userSpaceOnUse">
<stop stop-color="#FD4685"/>
<stop offset="1" stop-color="#FF9D8C"/>
</linearGradient>
<linearGradient id="paint9_linear_145_183" x1="150" y1="85.0139" x2="150" y2="219.307" gradientUnits="userSpaceOnUse">
<stop stop-color="#FD4685"/>
<stop offset="1" stop-color="#FF9D8C"/>
</linearGradient>
</defs>
</svg>
