<svg width="300" height="276" viewBox="0 0 300 276" fill="none" xmlns="http://www.w3.org/2000/svg">
<path fill-rule="evenodd" clip-rule="evenodd" d="M225 174.589L254.231 147.735C265.219 137.653 265.219 121.295 254.231 111.213C246.328 103.955 234.891 101.915 225 105.109V34.7417C225 27.8884 222.038 21.3192 216.759 16.4806C211.491 11.6333 204.338 8.91266 196.875 8.91266C164.409 8.91266 98.0906 8.91266 65.625 8.91266C58.1625 8.91266 51.0094 11.6333 45.7406 16.4806C40.4625 21.3192 37.5 27.8884 37.5 34.7417V241.374C37.5 248.228 40.4625 254.797 45.7406 259.636C51.0094 264.483 58.1625 267.203 65.625 267.203H196.875C204.338 267.203 211.491 264.483 216.759 259.636C222.038 254.797 225 248.228 225 241.374V174.589ZM240.975 123.387C244.631 126.754 244.631 132.203 240.975 135.561L153.881 215.545H140.625V203.371L227.719 123.387C231.375 120.029 237.309 120.029 240.975 123.387ZM84.375 129.448H131.25C136.425 129.448 140.625 125.591 140.625 120.839C140.625 116.086 136.425 112.229 131.25 112.229H84.375C79.2 112.229 75 116.086 75 120.839C75 125.591 79.2 129.448 84.375 129.448ZM84.375 95.0096H178.125C183.3 95.0096 187.5 91.1525 187.5 86.3999C187.5 81.6473 183.3 77.7902 178.125 77.7902H84.375C79.2 77.7902 75 81.6473 75 86.3999C75 91.1525 79.2 95.0096 84.375 95.0096ZM84.375 60.5708H178.125C183.3 60.5708 187.5 56.7137 187.5 51.9611C187.5 47.2086 183.3 43.3514 178.125 43.3514H84.375C79.2 43.3514 75 47.2086 75 51.9611C75 56.7137 79.2 60.5708 84.375 60.5708Z" fill="url(#paint0_linear_145_70)"/>
<defs>
<linearGradient id="paint0_linear_145_70" x1="174.591" y1="8.91266" x2="174.591" y2="265.766" gradientUnits="userSpaceOnUse">
<stop stop-color="#FFA691"/>
<stop offset="1" stop-color="#FD3A84"/>
</linearGradient>
</defs>
</svg>
