<svg width="300" height="301" viewBox="0 0 300 301" fill="none" xmlns="http://www.w3.org/2000/svg">
<path d="M212.016 109.428H96.8906C90.6777 109.438 84.7222 111.911 80.3291 116.304C75.9359 120.697 73.4633 126.653 73.4531 132.865V235.287L111.844 184.334C113.705 181.907 116.1 179.94 118.844 178.587C121.587 177.233 124.605 176.529 127.664 176.529C130.723 176.529 133.741 177.233 136.484 178.587C139.228 179.94 141.623 181.907 143.484 184.334L154.453 198.865L165.375 184.334C167.241 181.906 169.641 179.94 172.388 178.586C175.135 177.233 178.156 176.529 181.219 176.529C184.281 176.529 187.303 177.233 190.05 178.586C192.797 179.94 195.196 181.906 197.062 184.334L235.453 235.053V132.865C235.443 126.653 232.97 120.697 228.577 116.304C224.184 111.911 218.228 109.438 212.016 109.428ZM183.703 160.615C160.641 160.053 160.641 126.209 183.703 125.647C206.766 126.209 206.766 160.053 183.703 160.615ZM235.312 250.381C234.738 256.161 232.035 261.52 227.73 265.418C223.424 269.317 217.824 271.475 212.016 271.475H96.8906C91.1127 271.477 85.5379 269.343 81.2376 265.484C76.9373 261.625 74.2149 256.313 73.5937 250.569L119.344 190.006C120.305 188.7 121.562 187.64 123.013 186.915C124.463 186.189 126.066 185.819 127.687 185.834C129.307 185.829 130.906 186.204 132.355 186.929C133.804 187.653 135.063 188.707 136.031 190.006L150.375 208.944C150.515 209.173 150.672 209.392 150.844 209.6L162.562 225.162C163.319 226.127 164.423 226.757 165.639 226.917C166.854 227.077 168.084 226.755 169.065 226.019C170.045 225.284 170.699 224.193 170.885 222.982C171.072 221.77 170.777 220.534 170.062 219.537L160.312 206.647L172.875 190.006C173.852 188.719 175.114 187.676 176.561 186.958C178.009 186.239 179.603 185.866 181.219 185.866C182.835 185.866 184.429 186.239 185.876 186.958C187.324 187.676 188.585 188.719 189.562 190.006C196.156 198.677 229.476 242.719 235.312 250.381ZM281.062 102.069L266.484 215.694C265.785 221.093 263.252 226.088 259.31 229.842C255.367 233.597 250.255 235.883 244.828 236.319V132.865C244.819 124.166 241.359 115.825 235.207 109.674C229.056 103.522 220.715 100.062 212.016 100.053C207.383 99.9757 119.664 100.16 117.937 100.053L120.328 81.4434C121.134 75.1983 124.386 69.5285 129.369 65.6791C134.353 61.8297 140.66 60.1153 146.906 60.9123L260.531 75.4905C266.771 76.308 272.434 79.5627 276.281 84.5431C280.128 89.5235 281.847 95.8244 281.062 102.069ZM64.0781 132.865V201.49C62.3651 201.646 55.8143 202.409 54.2344 202.381C48.3776 202.345 42.7387 200.157 38.3909 196.232C34.0431 192.308 31.2902 186.922 30.6562 181.1L18.8906 67.0998C18.2553 60.8437 20.1224 54.5905 24.0838 49.7069C28.0451 44.8233 33.7786 41.7063 40.0312 41.0373L153.984 29.2248C160.245 28.6015 166.499 30.4791 171.381 34.4482C176.264 38.4173 179.379 44.1558 180.047 50.4123L180.609 55.803L148.031 51.6311C139.328 50.5497 130.55 52.954 123.613 58.3195C116.676 63.685 112.142 71.5762 111 80.2717L108.469 100.053H96.8906C88.1911 100.063 79.8507 103.523 73.6992 109.674C67.5478 115.826 64.0877 124.166 64.0781 132.865ZM183.703 151.24C181.572 151.211 179.539 150.343 178.042 148.826C176.546 147.308 175.707 145.263 175.707 143.131C175.707 141 176.546 138.954 178.042 137.437C179.538 135.919 181.572 135.052 183.703 135.022C185.834 135.052 187.868 135.919 189.364 137.437C190.861 138.954 191.7 141 191.7 143.131C191.7 145.262 190.861 147.308 189.365 148.825C187.868 150.343 185.834 151.211 183.703 151.24Z" fill="url(#paint0_linear_145_90)"/>
<defs>
<linearGradient id="paint0_linear_145_90" x1="18.7594" y1="150.294" x2="281.25" y2="150.294" gradientUnits="userSpaceOnUse">
<stop stop-color="#FF81FF"/>
<stop offset="1" stop-color="#A93AFF"/>
</linearGradient>
</defs>
</svg>
