<svg width="300" height="300" viewBox="0 0 300 300" fill="none" xmlns="http://www.w3.org/2000/svg">
<g clip-path="url(#clip0_145_112)">
<path d="M296.541 154.999C294.255 157.257 291.268 158.386 288.281 158.386C285.269 158.386 282.258 157.238 279.968 154.945L270.703 145.669V188.108C270.703 194.545 265.457 199.763 258.984 199.763C252.512 199.763 247.266 194.545 247.266 188.108V122.204L158.14 32.9726C153.767 29.2462 147.327 29.2322 142.937 32.9405L52.729 122.487C52.7325 122.602 52.7343 122.718 52.7343 122.835V246.387C52.7343 259.241 63.2484 269.698 76.1718 269.698H106.641V174.703C106.641 168.266 111.887 163.048 118.359 163.048H182.812C189.285 163.048 194.531 168.266 194.531 174.703V269.698H223.828C236.751 269.698 247.266 259.241 247.266 246.387C247.266 239.949 252.512 234.731 258.984 234.731C265.457 234.731 270.703 239.949 270.703 246.387C270.703 272.095 249.675 293.01 223.828 293.01H182.812C176.34 293.01 171.094 287.792 171.094 281.354V186.359H130.078V281.354C130.078 287.792 124.832 293.01 118.359 293.01H76.1718C50.3249 293.01 29.2968 272.095 29.2968 246.387V145.748L19.9968 154.98C15.4165 159.527 7.99681 159.52 3.42415 154.964C-1.14792 150.407 -1.1403 143.028 3.44056 138.479L126.657 16.166C126.814 16.0099 126.976 15.8577 127.143 15.7103C140.526 3.85924 160.674 3.90178 174.007 15.8088C174.172 15.9568 174.335 16.1095 174.491 16.2669L296.594 138.515C301.157 143.082 301.132 150.462 296.541 154.999Z" fill="url(#paint0_linear_145_112)"/>
</g>
<defs>
<linearGradient id="paint0_linear_145_112" x1="-6.73309e-05" y1="149.93" x2="300" y2="149.93" gradientUnits="userSpaceOnUse">
<stop stop-color="#00F2FE"/>
<stop offset="0.021" stop-color="#03EFFE"/>
<stop offset="0.293" stop-color="#24D2FE"/>
<stop offset="0.554" stop-color="#3CBDFE"/>
<stop offset="0.796" stop-color="#4AB0FE"/>
<stop offset="1" stop-color="#4FACFE"/>
</linearGradient>
<clipPath id="clip0_145_112">
<rect width="300" height="298.389" fill="white" transform="translate(0 0.735474)"/>
</clipPath>
</defs>
</svg>
