<svg height="512" viewBox="0 0 32 32" width="512" xmlns="http://www.w3.org/2000/svg" xmlns:xlink="http://www.w3.org/1999/xlink"><linearGradient id="linear-gradient" gradientUnits="userSpaceOnUse" x1="16" x2="16" y1="28.934" y2="3"><stop offset="0" stop-color="#92fe9d"/><stop offset=".9993" stop-color="#00c9ff"/></linearGradient><g id="html"><path d="m16 3a13.01243 13.01243 0 0 0 -13 13c.71 17.25 25.29 17.24 26 0a13.01243 13.01243 0 0 0 -13-13zm-8.7 12.34 3.11-3.03a.99712.99712 0 1 1 1.39 1.43l-2.39 2.34 2.16 2.24a1.001 1.001 0 0 1 -1.44 1.39l-2.85-2.96a1.005 1.005 0 0 1 .02-1.41zm5.94 5.27a.99984.99984 0 0 1 -.35-1.37l4.5-7.5a.99985.99985 0 0 1 1.72 1.02l-4.5 7.5a1.002 1.002 0 0 1 -1.37.35zm6.96-2.35 2.39-2.34-2.16-2.24a1.001 1.001 0 0 1 1.44-1.39l2.85 2.96a1.00493 1.00493 0 0 1 -.02 1.41l-3.11 3.03a.9973.9973 0 0 1 -1.39-1.43z" fill="url(#linear-gradient)"/></g></svg>