<svg fill="none" height="64" viewBox="0 0 64 64" width="64" xmlns="http://www.w3.org/2000/svg" xmlns:xlink="http://www.w3.org/1999/xlink"><linearGradient id="paint0_linear_2813_2094" gradientUnits="userSpaceOnUse" x1="77.089" x2="23.618" y1="74.123" y2="13.654"><stop offset=".00265844" stop-color="#ff37df"/><stop offset="1" stop-color="#6e00ff"/></linearGradient><g clip-rule="evenodd" fill="url(#paint0_linear_2813_2094)" fill-rule="evenodd"><path d="m47 2c.9337 0 1.7432.64607 1.9502 1.55654l1.1066 4.8664c.5118 2.25086 2.2694 4.00846 4.5203 4.52026l4.8664 1.1066c.9104.207 1.5565 1.0165 1.5565 1.9502s-.6461 1.7432-1.5565 1.9502l-4.8664 1.1066c-2.2509.5118-4.0085 2.2694-4.5203 4.5203l-1.1066 4.8664c-.207.9104-1.0165 1.5565-1.9502 1.5565s-1.7432-.6461-1.9502-1.5565l-1.1066-4.8664c-.5118-2.2509-2.2694-4.0085-4.5203-4.5203l-4.8664-1.1066c-.9104-.207-1.5565-1.0165-1.5565-1.9502s.6461-1.7432 1.5565-1.9502l4.8664-1.1066c2.2509-.5118 4.0085-2.2694 4.5203-4.52026l1.1066-4.8664c.207-.91047 1.0165-1.55654 1.9502-1.55654z"/><path d="m35.188 23c-3.011 0-5.5 2.4358-5.5 5.5s2.489 5.5 5.5 5.5c3.0111 0 5.5-2.4358 5.5-5.5s-2.4889-5.5-5.5-5.5z"/><path d="m11 14h19.417c-.2692.6162-.417 1.2939-.417 2s.1478 1.3838.417 2h-19.417c-2.20914 0-4 1.7909-4 4v17.0217c8.8025-2.2267 17.6822.1448 24.1162 5.6382 4.2507-2.7198 9.2619-3.3954 13.8838-2.2544v-9.8225c.6162.2692 1.2939.417 2 .417s1.3838-.1478 2-.417v12.547c.0007.0301.0007.0603 0 .0905v8.7795c0 4.4183-3.5817 8-8 8h-30c-4.41828 0-8-3.5817-8-8v-32c0-4.4183 3.58172-8 8-8z"/></g></svg>