<svg width="300" height="301" viewBox="0 0 300 301" fill="none" xmlns="http://www.w3.org/2000/svg">
<g clip-path="url(#clip0_145_129)">
<path d="M96.1212 229.757C104.018 229.329 111.839 228.448 119.563 227.109V300.401H96.1212V229.757ZM0 300.401H23.4444V230.068H0V300.401ZM48.0606 230.068V300.401H71.505V230.068H48.0606ZM239.715 300.401H263.159V122.196C256.606 134.732 248.774 146.499 239.715 157.391V300.401ZM191.656 300.401H215.099V182.28C207.687 188.588 199.862 194.321 191.656 199.464V300.401ZM143.596 221.38V300.401H167.04V212.598C165.781 213.161 164.518 213.717 163.245 214.255C156.796 216.983 150.238 219.354 143.596 221.38ZM250.683 0.735474L200.949 50.4669L217.527 67.0448L238.142 46.4294C229.472 123.265 164.099 183.179 84.9838 183.179H0V206.624H84.9838C132.42 206.624 177.017 188.151 210.56 154.608C240.294 124.874 258.174 86.4471 261.852 45.0607L283.422 66.6306L300 50.0526L250.683 0.735474Z" fill="url(#paint0_linear_145_129)"/>
</g>
<defs>
<linearGradient id="paint0_linear_145_129" x1="150" y1="0.735532" x2="150" y2="300.4" gradientUnits="userSpaceOnUse">
<stop stop-color="#2AF598"/>
<stop offset="1" stop-color="#009EFD"/>
</linearGradient>
<clipPath id="clip0_145_129">
<rect width="300" height="300" fill="white" transform="translate(0 0.735474)"/>
</clipPath>
</defs>
</svg>
