<svg id="Gradient_Line_copy" height="512" viewBox="0 0 64 64" width="512" xmlns="http://www.w3.org/2000/svg" xmlns:xlink="http://www.w3.org/1999/xlink" data-name="Gradient Line copy"><linearGradient id="linear-gradient" gradientUnits="userSpaceOnUse" x1="3.5" x2="60.5" y1="32" y2="32"><stop offset="0" stop-color="#7f00ff"/><stop offset="1" stop-color="#e100ff"/></linearGradient><path d="m59 3.5h-54a1.49977 1.49977 0 0 0 -1.5 1.5v54a1.49977 1.49977 0 0 0 1.5 1.5h54a1.49977 1.49977 0 0 0 1.5-1.5v-54a1.49977 1.49977 0 0 0 -1.5-1.5zm-1.5 3v11h-51v-11zm-27 31h-24v-17h24zm-24 3h24v17h-24zm27 17v-37h24v37z" fill="url(#linear-gradient)"/></svg>