<svg id="Layer_1" enable-background="new 0 0 512 512" height="512" viewBox="0 0 512 512" width="512" xmlns="http://www.w3.org/2000/svg" xmlns:xlink="http://www.w3.org/1999/xlink"><linearGradient id="SVGID_1_" gradientUnits="userSpaceOnUse" x1="463.695" x2="48.656" y1="475.442" y2="60.403"><stop offset="0" stop-color="#ec2aff"/><stop offset="1" stop-color="#6ac6ff"/></linearGradient><path clip-rule="evenodd" d="m284.489 435.771c0 4.418-3.582 8-8 8-4.417 0-8-3.582-8-8v-11.555c0-4.418 3.583-8 8-8 4.418 0 8 3.582 8 8zm-81.652 62.174v-143.211c0-4.418 3.582-8 8-8h90.308c4.418 0 8 3.582 8 8v143.211h128.856c4.254 0 7.722-3.47 7.722-7.723v-234.913c-25.715.422-50.999-12.223-65.524-35.166-13.4 21.537-37.29 35.938-64.409 35.938-24.242 0-45.904-11.506-59.799-29.331-13.896 17.825-35.558 29.331-59.799 29.331-26.874 0-50.729-14.201-64.206-35.501-14.421 23.229-39.863 35.954-65.729 35.493v234.15c0 4.253 3.469 7.723 7.723 7.723h128.857zm130.93-159.333v-24.755c0-4.252 3.469-7.723 7.722-7.723h55.355c4.253 0 7.722 3.471 7.722 7.723v24.755c0 4.253-3.469 7.723-7.722 7.723h-55.355c-4.253 0-7.722-3.47-7.722-7.723zm-163.274 7.723h-55.354c-4.254 0-7.723-3.47-7.723-7.723v-24.755c0-4.252 3.469-7.723 7.723-7.723h55.354c4.254 0 7.722 3.471 7.722 7.723v24.755c0 4.253-3.468 7.723-7.722 7.723zm-76.228-331.542 323.451-.738 78.308 135.635c16.446 28.484 6.596 65.243-21.886 81.688-28.443 16.422-65.266 6.556-81.688-21.889l-16.863-29.207c0 32.89-26.908 59.799-59.797 59.799-32.89 0-59.799-26.909-59.799-59.799 0 32.89-26.909 59.799-59.799 59.799-32.653 0-59.798-26.676-59.798-59.43l-16.863 29.576c-16.446 28.483-53.203 38.333-81.688 21.889-28.443-16.423-38.308-53.245-21.887-81.688z" fill="url(#SVGID_1_)" fill-rule="evenodd"/></svg>