<svg width="300" height="267" viewBox="0 0 300 267" fill="none" xmlns="http://www.w3.org/2000/svg">
<path fill-rule="evenodd" clip-rule="evenodd" d="M50 55.8585C43.0965 55.8585 37.5 60.8332 37.5 66.9696C37.5 73.1061 43.0965 78.0807 50 78.0807H250C256.904 78.0807 262.5 73.1061 262.5 66.9696C262.5 60.8332 256.904 55.8585 250 55.8585H50ZM37.5 133.636C37.5 127.5 43.0965 122.525 50 122.525H250C256.904 122.525 262.5 127.5 262.5 133.636C262.5 139.773 256.904 144.747 250 144.747H50C43.0965 144.747 37.5 139.773 37.5 133.636ZM37.5 200.303C37.5 194.166 43.0965 189.192 50 189.192H250C256.904 189.192 262.5 194.166 262.5 200.303C262.5 206.44 256.904 211.414 250 211.414H50C43.0965 211.414 37.5 206.44 37.5 200.303Z" fill="url(#paint0_linear_145_49)"/>
<defs>
<linearGradient id="paint0_linear_145_49" x1="37.5" y1="55.8585" x2="183.027" y2="266.355" gradientUnits="userSpaceOnUse">
<stop stop-color="#4EA2EA"/>
<stop offset="0.244792" stop-color="#484DFF"/>
<stop offset="0.484375" stop-color="#CD0EF3"/>
<stop offset="0.723958" stop-color="#F640BB"/>
<stop offset="0.950204" stop-color="#FB6D64"/>
</linearGradient>
</defs>
</svg>
