<svg width="300" height="300" viewBox="0 0 300 300" fill="none" xmlns="http://www.w3.org/2000/svg">
<g clip-path="url(#clip0_145_143)">
<path d="M277.5 82.7922C289.926 82.7922 300 72.7727 300 60.413C300 48.0534 289.926 38.0339 277.5 38.0339C265.074 38.0339 255 48.0534 255 60.413C255 72.7727 265.074 82.7922 277.5 82.7922Z" fill="url(#paint0_linear_145_143)"/>
<path d="M217.5 82.7922H22.5C10.0786 82.7922 0 72.7677 0 60.413C0 48.0583 10.0786 38.0339 22.5 38.0339H217.5C229.921 38.0339 240 48.0583 240 60.413C240 72.7677 229.921 82.7922 217.5 82.7922Z" fill="url(#paint1_linear_145_143)"/>
<path d="M217.5 172.309H22.5C10.0786 172.309 0 162.284 0 149.93C0 137.575 10.0786 127.551 22.5 127.551H217.5C229.921 127.551 240 137.575 240 149.93C240 162.284 229.921 172.309 217.5 172.309Z" fill="url(#paint2_linear_145_143)"/>
<path d="M127.5 261.826H22.5C10.0786 261.826 0 251.801 0 239.446C0 227.092 10.0786 217.067 22.5 217.067H127.5C139.921 217.067 150 227.092 150 239.446C150 251.801 139.921 261.826 127.5 261.826Z" fill="url(#paint3_linear_145_143)"/>
</g>
<defs>
<linearGradient id="paint0_linear_145_143" x1="288.774" y1="41.1714" x2="125.894" y2="324.784" gradientUnits="userSpaceOnUse">
<stop stop-color="#72EDF2"/>
<stop offset="1" stop-color="#5151E5"/>
</linearGradient>
<linearGradient id="paint1_linear_145_143" x1="170.651" y1="-26.6663" x2="7.77062" y2="256.962" gradientUnits="userSpaceOnUse">
<stop stop-color="#72EDF2"/>
<stop offset="1" stop-color="#5151E5"/>
</linearGradient>
<linearGradient id="paint2_linear_145_143" x1="209.62" y1="-4.28747" x2="46.74" y2="279.34" gradientUnits="userSpaceOnUse">
<stop stop-color="#72EDF2"/>
<stop offset="1" stop-color="#5151E5"/>
</linearGradient>
<linearGradient id="paint3_linear_145_143" x1="214.84" y1="-1.28872" x2="51.9599" y2="282.339" gradientUnits="userSpaceOnUse">
<stop stop-color="#72EDF2"/>
<stop offset="1" stop-color="#5151E5"/>
</linearGradient>
<clipPath id="clip0_145_143">
<rect width="300" height="298.389" fill="white" transform="translate(0 0.735474)"/>
</clipPath>
</defs>
</svg>
