<svg width="300" height="300" viewBox="0 0 300 300" fill="none" xmlns="http://www.w3.org/2000/svg">
<path d="M132.422 97.4789C137.276 97.4789 141.211 93.5648 141.211 88.737C141.211 83.9091 137.276 79.9951 132.422 79.9951C127.568 79.9951 123.633 83.9091 123.633 88.737C123.633 93.5648 127.568 97.4789 132.422 97.4789ZM173.792 82.5565C170.359 79.1419 164.797 79.1419 161.364 82.5565L126.207 117.524C122.774 120.939 122.774 126.471 126.207 129.886C129.641 133.3 135.203 133.3 138.636 129.886L173.792 94.9181C177.225 91.5029 177.225 85.9711 173.792 82.5565ZM158.789 123.704C158.789 128.532 162.724 132.446 167.578 132.446C172.432 132.446 176.367 128.532 176.367 123.704C176.367 118.877 172.432 114.963 167.578 114.963C162.724 114.963 158.789 118.877 158.789 123.704ZM264.844 202.381H158.789C153.931 202.381 150 206.291 150 211.123C150 215.955 153.931 219.865 158.789 219.865C168.479 219.865 176.367 227.711 176.367 237.349C176.367 246.987 168.479 254.833 158.789 254.833C153.931 254.833 150 258.743 150 263.574C150 268.406 153.931 272.316 158.789 272.316H264.844C284.233 272.316 300 256.634 300 237.349C300 218.064 284.233 202.381 264.844 202.381Z" fill="url(#paint0_linear_145_131)"/>
<path d="M193.499 75.3171L205.936 62.9467C209.369 59.5321 209.369 53.9997 205.936 50.5851C202.503 47.1706 196.941 47.1706 193.508 50.5851L181.071 62.9555C177.638 66.37 177.638 71.9025 181.071 75.3171C184.504 78.7316 190.066 78.7316 193.499 75.3171ZM106.501 137.124L94.0641 149.495C90.6311 152.909 90.6311 158.442 94.0641 161.856C97.4977 165.271 103.059 165.271 106.492 161.856L118.929 149.486C122.363 146.071 122.363 140.539 118.929 137.124C115.496 133.71 109.934 133.71 106.501 137.124ZM193.499 137.124C190.066 133.71 184.504 133.71 181.071 137.124C177.638 140.539 177.638 146.071 181.071 149.486L193.508 161.856C196.941 165.271 202.503 165.271 205.936 161.856C209.369 158.442 209.369 152.909 205.936 149.495L193.499 137.124ZM106.501 75.3171C109.935 78.7316 115.496 78.7316 118.929 75.3171C122.363 71.9025 122.363 66.37 118.929 62.9555L106.492 50.5851C103.059 47.1706 97.4971 47.1706 94.0641 50.5851C90.6311 53.9997 90.6311 59.5321 94.0641 62.9467L106.501 75.3171ZM220.312 97.4789H202.734C197.876 97.4789 193.945 101.389 193.945 106.221C193.945 111.053 197.876 114.963 202.734 114.963H220.312C225.171 114.963 229.102 111.053 229.102 106.221C229.102 101.389 225.171 97.4789 220.312 97.4789ZM79.6875 114.963H97.2656C102.124 114.963 106.055 111.053 106.055 106.221C106.055 101.389 102.124 97.4789 97.2656 97.4789H79.6875C74.8295 97.4789 70.8984 101.389 70.8984 106.221C70.8984 111.053 74.8295 114.963 79.6875 114.963ZM150 184.898C154.858 184.898 158.789 180.988 158.789 176.156V158.672C158.789 153.84 154.858 149.93 150 149.93C145.142 149.93 141.211 153.84 141.211 158.672V176.156C141.211 180.988 145.142 184.898 150 184.898ZM150 62.5114C154.858 62.5114 158.789 58.6014 158.789 53.7695V36.2858C158.789 31.4538 154.858 27.5439 150 27.5439C145.142 27.5439 141.211 31.4538 141.211 36.2858V53.7695C141.211 58.6014 145.142 62.5114 150 62.5114ZM158.789 202.381H35.1562C15.767 202.381 0 218.064 0 237.349C0 256.634 15.767 272.316 35.1562 272.316H158.789C178.178 272.316 193.945 256.634 193.945 237.349C193.945 218.064 178.178 202.381 158.789 202.381Z" fill="url(#paint1_linear_145_131)"/>
<defs>
<linearGradient id="paint0_linear_145_131" x1="211.816" y1="272.316" x2="211.816" y2="79.9951" gradientUnits="userSpaceOnUse">
<stop stop-color="#C3FFE8"/>
<stop offset="0.9973" stop-color="#F0FFF4"/>
</linearGradient>
<linearGradient id="paint1_linear_145_131" x1="114.551" y1="272.316" x2="114.551" y2="27.5439" gradientUnits="userSpaceOnUse">
<stop stop-color="#00B59C"/>
<stop offset="1" stop-color="#9CFFAC"/>
</linearGradient>
</defs>
</svg>
