<svg id="Layer_1" enable-background="new 0 0 512 512" height="512" viewBox="0 0 512 512" width="512" xmlns="http://www.w3.org/2000/svg"><g><path d="m284.33 309.054h-259.606c-13.655 0-24.724-11.069-24.724-24.724v-259.606c0-13.655 11.069-24.724 24.724-24.724h259.606c13.655 0 24.724 11.069 24.724 24.724v259.606c0 13.655-11.069 24.724-24.724 24.724z" fill="#7be492"/><path d="m284.33 0h-30.905c13.655 0 24.724 11.069 24.724 24.724v259.606c0 13.655-11.069 24.724-24.724 24.724h30.905c13.655 0 24.724-11.069 24.724-24.724v-259.606c0-13.655-11.069-24.724-24.724-24.724z" fill="#45d987"/><path d="m30.905 274.028v-239.002c0-2.276 1.845-4.121 4.121-4.121h239.002c2.276 0 4.121 1.845 4.121 4.121v239.002c0 2.276-1.845 4.121-4.121 4.121h-239.002c-2.276 0-4.121-1.845-4.121-4.121z" fill="#f78e36"/><path d="m274.028 30.905h-30.905c2.276 0 4.121 1.845 4.121 4.121v239.002c0 2.276-1.845 4.121-4.121 4.121h30.905c2.276 0 4.121-1.845 4.121-4.121v-239.002c0-2.275-1.845-4.121-4.121-4.121z" fill="#f86f1b"/><path d="m274.028 278.149h-239.002c-2.276 0-4.121-1.845-4.121-4.121v-49.449h247.243v49.449c.001 2.276-1.844 4.121-4.12 4.121z" fill="#29cef6"/><path d="m247.243 224.579v49.449c0 2.276-1.845 4.121-4.121 4.121h30.905c2.276 0 4.121-1.845 4.121-4.121v-49.449z" fill="#22b5ed"/><path d="m140.496 224.579 66.071-61.131c1.58-1.462 4.02-1.461 5.599.002l65.983 61.129z" fill="#d2d2d2"/><path d="m247.243 224.579h30.906l-30.906-28.631z" fill="#bbb"/><circle cx="200.37" cy="92.201" fill="#ffc328" r="23.694"/><path d="m487.027 512h-116.944c-13.792 0-24.973-11.181-24.973-24.973v-116.944c0-13.792 11.181-24.973 24.973-24.973h116.944c13.792 0 24.973 11.181 24.973 24.973v116.944c0 13.792-11.181 24.973-24.973 24.973z" fill="#7be492"/><path d="m487.027 345.111h-30.905c13.792 0 24.973 11.181 24.973 24.973v116.944c0 13.792-11.181 24.973-24.973 24.973h30.905c13.792-.001 24.973-11.182 24.973-24.974v-116.944c0-13.792-11.181-24.972-24.973-24.972z" fill="#45d987"/><path d="m376.016 479.034v-100.958c0-1.138.922-2.06 2.06-2.06h100.958c1.138 0 2.06.922 2.06 2.06v100.958c0 1.138-.922 2.06-2.06 2.06h-100.958c-1.137.001-2.06-.922-2.06-2.06z" fill="#f78e36"/><path d="m479.034 481.095h-100.958c-1.138 0-2.06-.922-2.06-2.06v-33.556h105.078v33.556c.001 1.137-.922 2.06-2.06 2.06z" fill="#29cef6"/><path d="m428.555 445.478h52.539l-24.656-31.048c-.825-1.039-2.402-1.039-3.227 0z" fill="#e4e4e4"/><path d="m376.016 445.478h64.862l-30.817-38.807c-.825-1.039-2.402-1.039-3.227 0z" fill="#f3f3f3"/><path d="m30.905 224.579 88.925-82.277c1.58-1.462 4.02-1.461 5.599.002l88.808 82.275z" fill="#f3f3f3"/><g fill="#43809f"><path d="m443.824 287.489-1.973-35.907c-.227-4.137-3.772-7.314-7.899-7.077-4.136.227-7.305 3.764-7.077 7.899l.872 15.874-49.269-49.269c-2.93-2.928-7.678-2.928-10.607 0-2.929 2.93-2.929 7.678 0 10.607l49.484 49.484-15.994-1.082c-4.104-.25-7.709 2.844-7.989 6.978-.279 4.133 2.845 7.709 6.978 7.989l35.481 2.398c.169.011.338.017.506.017 1.966 0 3.861-.772 5.27-2.163 1.528-1.509 2.335-3.602 2.217-5.748z"/><path d="m292.896 400.538c-.227-4.137-3.771-7.316-7.899-7.077-4.136.227-7.305 3.764-7.077 7.899l.872 15.873-49.269-49.269c-2.93-2.928-7.678-2.928-10.607 0-2.929 2.93-2.929 7.678 0 10.607l49.484 49.484-15.994-1.082c-4.107-.27-7.71 2.844-7.989 6.978-.279 4.133 2.845 7.709 6.978 7.989l35.481 2.398c.169.011.338.017.506.017 1.966 0 3.861-.772 5.27-2.163 1.529-1.51 2.337-3.603 2.219-5.748z"/></g></g></svg>