<svg width="300" height="302" viewBox="0 0 300 302" fill="none" xmlns="http://www.w3.org/2000/svg">
<g clip-path="url(#clip0_145_236)">
<path d="M9.41838 179.626C20.3912 217.33 52.0201 294.244 105.466 287.34C159.072 280.415 138.137 210.919 187.209 201.394C208.811 197.201 223.454 234.789 245.104 233.62C272.987 232.114 287.18 204.363 294.972 181.034C311.493 131.569 286.751 47.6903 228.844 33.1637C178.31 20.4869 172.399 82.5627 128.46 64.5321C103.763 54.3978 106.23 24.134 76.152 18.0274C-14.8435 -0.446832 -5.1826 129.456 9.41838 179.626Z" fill="url(#paint0_linear_145_236)"/>
<path d="M275.666 59.4434V244.574C275.666 249.458 271.729 253.411 266.877 253.411H33.123C28.2715 253.411 24.334 249.458 24.334 244.574V59.4434C24.334 54.5598 28.2715 50.6069 33.123 50.6069H266.877C271.729 50.6069 275.666 54.5598 275.666 59.4434Z" fill="white"/>
<path d="M275.666 120.551V244.574C275.666 249.458 271.729 253.411 266.877 253.411H46.3711C55.8926 237.635 76.002 215.679 113.941 216.321C173.004 217.317 146.607 137.37 199.4 143.007C250.359 148.457 241.055 110.931 275.666 120.551Z" fill="#8399FE"/>
<path d="M238.787 156.209C238.787 171.52 226.441 183.926 211.213 183.926C195.984 183.926 183.639 171.52 183.639 156.209C183.639 151.632 184.746 147.308 186.703 143.502C190.354 142.695 194.543 142.489 199.4 143.007C215.098 144.686 225.076 142.289 232.383 138.442C236.379 143.255 238.787 149.452 238.787 156.209Z" fill="#6583FE"/>
<path d="M102.838 253.412H46.2141V202.452C46.2141 200.825 47.526 199.506 49.1438 199.506H99.9083C101.526 199.506 102.838 200.825 102.838 202.452V253.412Z" fill="#D2DEFF"/>
<path d="M178.312 253.412H121.688V202.452C121.688 200.825 123 199.506 124.618 199.506H175.382C177.001 199.506 178.312 200.825 178.312 202.452V253.412Z" fill="#D2DEFF"/>
<path d="M253.786 253.412H197.162V202.452C197.162 200.825 198.474 199.506 200.092 199.506H250.856C252.474 199.506 253.786 200.825 253.786 202.452V253.412Z" fill="#D2DEFF"/>
<path d="M275.666 91.4375V59.4417C275.666 54.5616 271.731 50.6052 266.877 50.6052H33.123C28.2691 50.6052 24.334 54.5616 24.334 59.4417V91.4375H275.666Z" fill="#01ECA5"/>
<path d="M50.1698 78.7654C53.6974 78.7654 56.5571 75.8903 56.5571 72.3437C56.5571 68.797 53.6974 65.9219 50.1698 65.9219C46.6422 65.9219 43.7825 68.797 43.7825 72.3437C43.7825 75.8903 46.6422 78.7654 50.1698 78.7654Z" fill="#FF5BA8"/>
<path d="M70.5609 78.7654C74.0885 78.7654 76.9482 75.8903 76.9482 72.3437C76.9482 68.797 74.0885 65.9219 70.5609 65.9219C67.0333 65.9219 64.1736 68.797 64.1736 72.3437C64.1736 75.8903 67.0333 78.7654 70.5609 78.7654Z" fill="white"/>
<path d="M90.9515 78.7654C94.4791 78.7654 97.3388 75.8903 97.3388 72.3437C97.3388 68.797 94.4791 65.9219 90.9515 65.9219C87.4239 65.9219 84.5642 68.797 84.5642 72.3437C84.5642 75.8903 87.4239 78.7654 90.9515 78.7654Z" fill="#97FFD2"/>
<path d="M253.288 79.5583H173.507V65.1283H253.288C254.906 65.1283 256.218 66.4473 256.218 68.0738V76.6134C256.218 78.2399 254.906 79.5583 253.288 79.5583Z" fill="#DCFDEE"/>
<path d="M173.9 65.3116C170.803 62.1976 165.763 62.1976 162.666 65.3116C159.568 68.4255 159.568 73.4924 162.666 76.6064C165.031 78.9846 168.527 79.5401 171.427 78.2865L173.975 80.8479C175.119 81.9978 176.974 81.9978 178.118 80.8479C179.262 79.698 179.262 77.8323 178.118 76.6824L175.57 74.121C176.818 71.2043 176.265 67.6898 173.9 65.3116ZM166.809 69.4771C167.622 68.66 168.944 68.66 169.757 69.4771C170.569 70.2942 170.569 71.6238 169.757 72.4409C168.944 73.2579 167.622 73.2579 166.809 72.4409C165.996 71.6238 165.996 70.2942 166.809 69.4771Z" fill="white"/>
<path d="M81.0065 219.086C81.5896 215.469 79.1463 212.062 75.5492 211.476C71.9522 210.89 68.5635 213.346 67.9804 216.963C67.3973 220.579 69.8405 223.986 73.4376 224.572C77.0347 225.159 80.4233 222.702 81.0065 219.086Z" fill="white"/>
<path d="M85.858 232.949H63.1934C61.5756 232.949 60.2637 234.268 60.2637 235.894C60.2637 237.521 61.5756 238.84 63.1934 238.84H85.858C87.4758 238.84 88.7877 237.521 88.7877 235.894C88.7877 234.268 87.4764 232.949 85.858 232.949Z" fill="#8399FE"/>
<path d="M156.467 219.093C157.05 215.476 154.606 212.069 151.009 211.483C147.412 210.897 144.024 213.353 143.441 216.97C142.857 220.586 145.301 223.993 148.898 224.579C152.495 225.165 155.884 222.709 156.467 219.093Z" fill="white"/>
<path d="M161.332 232.949H138.668C137.05 232.949 135.738 234.268 135.738 235.894C135.738 237.521 137.05 238.84 138.668 238.84H161.333C162.95 238.84 164.262 237.521 164.262 235.894C164.262 234.268 162.95 232.949 161.332 232.949Z" fill="#8399FE"/>
<path d="M231.927 219.099C232.51 215.483 230.067 212.076 226.47 211.49C222.873 210.903 219.484 213.36 218.901 216.976C218.318 220.593 220.761 224 224.358 224.586C227.955 225.172 231.344 222.716 231.927 219.099Z" fill="white"/>
<path d="M236.806 232.949H214.141C212.524 232.949 211.212 234.268 211.212 235.894C211.212 237.521 212.524 238.84 214.141 238.84H236.806C238.424 238.84 239.736 237.521 239.736 235.894C239.736 234.268 238.424 232.949 236.806 232.949Z" fill="#8399FE"/>
<path d="M138.78 185.6H58.4419C55.2058 185.6 52.5825 182.963 52.5825 179.709V176.286C52.5825 173.033 55.2058 170.395 58.4419 170.395H138.78C142.016 170.395 144.639 173.033 144.639 176.286V179.709C144.64 182.963 142.017 185.6 138.78 185.6Z" fill="#FF7EB8"/>
<path d="M116.849 150.316H55.5122C53.8944 150.316 52.5825 151.635 52.5825 153.262C52.5825 154.888 53.8944 156.207 55.5122 156.207H116.849C118.467 156.207 119.778 154.888 119.778 153.262C119.778 151.635 118.467 150.316 116.849 150.316Z" fill="#8399FE"/>
<path d="M102.786 138.872H55.5122C53.8944 138.872 52.5825 140.191 52.5825 141.817C52.5825 143.444 53.8944 144.763 55.5122 144.763H102.786C104.404 144.763 105.716 143.444 105.716 141.817C105.716 140.191 104.404 138.872 102.786 138.872Z" fill="#8399FE"/>
<path d="M62.3565 125.119H55.5122C53.8944 125.119 52.5825 126.438 52.5825 128.064C52.5825 129.691 53.8944 131.01 55.5122 131.01H62.3565C63.9743 131.01 65.2862 129.691 65.2862 128.064C65.2862 126.438 63.9743 125.119 62.3565 125.119Z" fill="#FF7EB8"/>
<path d="M97.5128 105.041H55.5122C53.8944 105.041 52.5825 106.36 52.5825 107.986C52.5825 109.613 53.8944 110.932 55.5122 110.932H97.5128C99.1306 110.932 100.442 109.613 100.442 107.986C100.442 106.359 99.1306 105.041 97.5128 105.041Z" fill="#02FFB3"/>
<path d="M211.212 173.157C226.44 173.157 238.785 160.745 238.785 145.435C238.785 130.125 226.44 117.713 211.212 117.713C195.984 117.713 183.639 130.125 183.639 145.435C183.639 160.745 195.984 173.157 211.212 173.157Z" fill="#02FFB3"/>
<path d="M221.804 163.605C222.063 161.999 220.978 160.486 219.38 160.225C217.783 159.965 216.278 161.056 216.019 162.662C215.76 164.268 216.845 165.782 218.443 166.042C220.04 166.302 221.545 165.211 221.804 163.605Z" fill="white"/>
<path d="M232.494 166.091C230.876 166.091 229.563 164.772 229.563 163.144C229.563 161.517 230.875 160.197 232.494 160.197C234.112 160.197 235.425 161.516 235.425 163.144C235.424 164.771 234.112 166.091 232.494 166.091Z" fill="white"/>
<path d="M246.022 166.091C244.404 166.091 243.091 164.772 243.091 163.144C243.091 161.517 244.403 160.197 246.022 160.197C247.641 160.197 248.953 161.516 248.953 163.144C248.952 164.771 247.641 166.091 246.022 166.091Z" fill="white"/>
<path d="M225.73 155.143C224.112 155.143 222.799 153.824 222.799 152.197C222.799 150.57 224.111 149.25 225.73 149.25C227.348 149.25 228.661 150.569 228.661 152.197C228.66 153.824 227.348 155.143 225.73 155.143Z" fill="white"/>
<path d="M239.258 155.143C237.64 155.143 236.327 153.824 236.327 152.197C236.327 150.57 237.639 149.25 239.258 149.25C240.877 149.25 242.189 150.569 242.189 152.197C242.188 153.824 240.876 155.143 239.258 155.143Z" fill="white"/>
<path d="M225.73 177.038C224.112 177.038 222.799 175.719 222.799 174.091C222.799 172.464 224.111 171.145 225.73 171.145C227.348 171.145 228.661 172.464 228.661 174.091C228.66 175.718 227.348 177.038 225.73 177.038Z" fill="white"/>
<path d="M239.258 177.038C237.64 177.038 236.327 175.719 236.327 174.091C236.327 172.464 237.639 171.145 239.258 171.145C240.877 171.145 242.189 172.464 242.189 174.091C242.188 175.718 240.876 177.038 239.258 177.038Z" fill="white"/>
<path d="M262.808 35.4624C258.19 35.4624 254.433 31.6857 254.433 27.043C254.433 22.4009 258.19 18.6241 262.808 18.6241C267.425 18.6241 271.181 22.4009 271.181 27.043C271.181 31.6857 267.425 35.4624 262.808 35.4624ZM262.808 24.5151C261.421 24.5151 260.293 25.6492 260.293 27.043C260.293 28.4368 261.421 29.5714 262.808 29.5714C264.194 29.5714 265.322 28.4368 265.322 27.043C265.322 25.6492 264.194 24.5151 262.808 24.5151Z" fill="#FF5BA8"/>
<path d="M58.9347 289.861C54.3175 289.861 50.561 286.084 50.561 281.442C50.561 276.799 54.3175 273.022 58.9347 273.022C63.5519 273.022 67.3089 276.799 67.3089 281.442C67.3083 286.084 63.5519 289.861 58.9347 289.861ZM58.9347 278.913C57.5483 278.913 56.4204 280.048 56.4204 281.442C56.4204 282.836 57.5483 283.97 58.9347 283.97C60.321 283.97 61.4495 282.836 61.4495 281.442C61.4489 280.048 60.321 278.913 58.9347 278.913Z" fill="#6583FE"/>
<path d="M87.7792 289.861C83.1621 289.861 79.405 286.084 79.405 281.442C79.405 276.799 83.1615 273.022 87.7792 273.022C92.3964 273.022 96.1535 276.799 96.1535 281.442C96.1535 286.084 92.3964 289.861 87.7792 289.861ZM87.7792 278.913C86.3929 278.913 85.2644 280.048 85.2644 281.442C85.2644 282.836 86.3923 283.97 87.7792 283.97C89.1656 283.97 90.2941 282.836 90.2941 281.442C90.2941 280.048 89.1656 278.913 87.7792 278.913Z" fill="#01ECA5"/>
<path d="M142.024 30.9699C140.406 30.9699 139.094 29.6515 139.094 28.0244C139.094 26.075 137.517 24.4898 135.578 24.4898C133.961 24.4898 132.649 23.1714 132.649 21.5443C132.649 19.9172 133.961 18.5988 135.578 18.5988C137.517 18.5988 139.094 17.0135 139.094 15.0642C139.094 13.4371 140.406 12.1187 142.024 12.1187C143.641 12.1187 144.953 13.4371 144.953 15.0642C144.953 17.0135 146.53 18.5988 148.469 18.5988C150.087 18.5988 151.399 19.9172 151.399 21.5443C151.399 23.1714 150.087 24.4898 148.469 24.4898C146.53 24.4898 144.953 26.075 144.953 28.0244C144.953 29.6515 143.641 30.9699 142.024 30.9699Z" fill="#01ECA5"/>
<path d="M168.949 38.2105C167.331 38.2105 166.02 36.8921 166.02 35.265C166.02 33.3162 164.443 31.7304 162.504 31.7304C160.886 31.7304 159.574 30.412 159.574 28.7849C159.574 27.1578 160.886 25.8394 162.504 25.8394C164.443 25.8394 166.02 24.2541 166.02 22.3048C166.02 20.6777 167.331 19.3593 168.949 19.3593C170.567 19.3593 171.879 20.6777 171.879 22.3048C171.879 24.2541 173.456 25.8394 175.395 25.8394C177.012 25.8394 178.324 27.1578 178.324 28.7849C178.324 30.412 177.012 31.7304 175.395 31.7304C173.456 31.7304 171.879 33.3162 171.879 35.265C171.879 36.8921 170.567 38.2105 168.949 38.2105Z" fill="#FF5BA8"/>
<path d="M275.666 59.4434V244.574C275.666 249.458 271.729 253.411 266.877 253.411H33.123C28.2715 253.411 24.334 249.458 24.334 244.574V59.4434C24.334 54.5598 28.2715 50.6069 33.123 50.6069H266.877C271.729 50.6069 275.666 54.5598 275.666 59.4434Z" fill="url(#paint1_linear_145_236)"/>
</g>
<defs>
<linearGradient id="paint0_linear_145_236" x1="13.9576" y1="203.419" x2="269.942" y2="56.4196" gradientUnits="userSpaceOnUse">
<stop stop-color="#DCFDEE" stop-opacity="0"/>
<stop offset="0.6288" stop-color="#D2F3E4"/>
</linearGradient>
<linearGradient id="paint1_linear_145_236" x1="150" y1="50.6069" x2="150" y2="253.411" gradientUnits="userSpaceOnUse">
<stop offset="0.0028" stop-color="#FF7EB8" stop-opacity="0"/>
<stop offset="1" stop-color="#FF7EB8" stop-opacity="0.6"/>
</linearGradient>
<clipPath id="clip0_145_236">
<rect width="300" height="301.619" fill="white" transform="translate(0 0.179932)"/>
</clipPath>
</defs>
</svg>
