<svg width="300" height="301" viewBox="0 0 300 301" fill="none" xmlns="http://www.w3.org/2000/svg">
<g clip-path="url(#clip0_145_173)">
<path d="M138.281 203.458V162.443H97.2656C90.7928 162.443 85.5469 157.197 85.5469 150.724C85.5469 144.253 90.7928 139.005 97.2656 139.005H138.281V97.9895C138.281 91.519 143.527 86.2708 150 86.2708C156.473 86.2708 161.719 91.519 161.719 97.9895V139.005H202.734C209.207 139.005 214.453 144.253 214.453 150.724C214.453 157.197 209.207 162.443 202.734 162.443H161.719V203.458C161.719 209.931 156.473 215.177 150 215.177C143.527 215.177 138.281 209.931 138.281 203.458ZM256.066 44.6692C227.735 16.3382 190.066 0.735352 150 0.735352C109.934 0.735352 72.2649 16.3382 43.9339 44.6692C15.6029 73.0002 0 110.67 0 150.735C0 190.801 15.6029 228.47 43.9339 256.801C72.2649 285.132 109.934 300.735 150 300.735C177.429 300.735 204.268 293.26 227.614 279.117C233.15 275.764 234.92 268.559 231.567 263.025C228.214 257.488 221.006 255.719 215.472 259.072C195.788 270.994 173.147 277.298 150 277.298C80.2139 277.298 23.4375 220.521 23.4375 150.735C23.4375 80.9493 80.2139 24.1729 150 24.1729C219.786 24.1729 276.562 80.9493 276.562 150.735C276.562 175.69 269.142 199.979 255.103 220.981C251.505 226.36 252.951 233.639 258.332 237.237C263.711 240.832 270.989 239.386 274.587 234.007C291.211 209.139 300 180.344 300 150.735C300 110.67 284.397 73.0002 256.066 44.6692Z" fill="url(#paint0_linear_145_173)"/>
</g>
<defs>
<linearGradient id="paint0_linear_145_173" x1="0" y1="150.735" x2="300" y2="150.735" gradientUnits="userSpaceOnUse">
<stop stop-color="#00F2FE"/>
<stop offset="0.0208" stop-color="#03EFFE"/>
<stop offset="0.2931" stop-color="#24D2FE"/>
<stop offset="0.5538" stop-color="#3CBDFE"/>
<stop offset="0.7956" stop-color="#4AB0FE"/>
<stop offset="1" stop-color="#4FACFE"/>
</linearGradient>
<clipPath id="clip0_145_173">
<rect width="300" height="300" fill="white" transform="translate(0 0.735352)"/>
</clipPath>
</defs>
</svg>
