<svg width="300" height="302" viewBox="0 0 300 302" fill="none" xmlns="http://www.w3.org/2000/svg">
<g clip-path="url(#clip0_145_175)">
<path d="M55.0781 164.377H199.219V187.838H55.0781V164.377ZM55.0781 233.001H199.219V209.54H55.0781V233.001ZM292.435 137.983V265.86C292.424 284.474 277.885 299.751 259.57 300.96V301.038H43.3594C23.9731 301.038 8.20312 285.253 8.20312 265.847V35.9271C8.20312 16.5212 23.9731 0.735352 43.3594 0.735352H210.938C230.324 0.735352 246.094 16.5212 246.094 35.9271V102.791H257.279C276.663 102.791 292.435 118.577 292.435 137.983ZM224.664 277.577C223.363 273.907 222.656 269.957 222.656 265.847V35.9271C222.656 29.4593 217.399 24.1965 210.938 24.1965H43.3594C36.898 24.1965 31.6406 29.4593 31.6406 35.9271V265.847C31.6406 272.314 36.898 277.577 43.3594 277.577H224.664ZM268.998 137.983C268.998 131.515 263.741 126.253 257.279 126.253H246.094V265.847C246.094 272.216 251.193 277.417 257.52 277.573C263.871 277.417 268.993 272.221 268.998 265.854V137.983ZM148.828 142.675H199.219V119.214H148.828V142.675ZM148.828 95.7531H199.219V72.2919H148.828V95.7531ZM125.391 142.675H55.0781V72.2919H125.391V142.675ZM101.953 95.7531H78.5156V119.214H101.953V95.7531Z" fill="url(#paint0_linear_145_175)"/>
</g>
<defs>
<linearGradient id="paint0_linear_145_175" x1="150.319" y1="0.735352" x2="150.319" y2="301.038" gradientUnits="userSpaceOnUse">
<stop stop-color="#2AF598"/>
<stop offset="1" stop-color="#009EFD"/>
</linearGradient>
<clipPath id="clip0_145_175">
<rect width="300" height="300.303" fill="white" transform="translate(0 0.735352)"/>
</clipPath>
</defs>
</svg>
