<svg width="300" height="301" viewBox="0 0 300 301" fill="none" xmlns="http://www.w3.org/2000/svg">
<g clip-path="url(#clip0_145_139)">
<path d="M295.781 275.775L210 189.993C225.996 169.485 234.609 144.173 234.609 118.216C234.609 53.5284 181.992 0.911255 117.305 0.911255C52.6172 0.911255 0 53.5284 0 118.216C0 182.903 52.6172 235.521 117.305 235.521C143.496 235.521 168.926 226.79 189.492 210.618L275.215 296.341C281.133 301.79 290.273 301.38 295.723 295.462C300.82 289.896 300.82 281.341 295.781 275.775ZM29.0039 118.216C29.0039 69.5245 68.6133 29.9738 117.246 29.9738C165.879 29.9738 205.488 69.5831 205.488 118.216C205.488 166.849 165.879 206.458 117.246 206.458C68.6133 206.458 29.0039 166.849 29.0039 118.216Z" fill="url(#paint0_linear_145_139)"/>
</g>
<defs>
<linearGradient id="paint0_linear_145_139" x1="149.784" y1="0.322388" x2="149.784" y2="295.846" gradientUnits="userSpaceOnUse">
<stop stop-color="#26F09B"/>
<stop offset="1" stop-color="#05A0FA"/>
</linearGradient>
<clipPath id="clip0_145_139">
<rect width="300" height="300" fill="white" transform="translate(0 0.735474)"/>
</clipPath>
</defs>
</svg>
