<svg id="Capa_1" enable-background="new 0 0 512 512" height="512" viewBox="0 0 512 512" width="512" xmlns="http://www.w3.org/2000/svg" xmlns:xlink="http://www.w3.org/1999/xlink"><linearGradient id="SVGID_1_" gradientUnits="userSpaceOnUse" x1="256" x2="256" y1="425" y2="205"><stop offset="0" stop-color="#addcff"/><stop offset=".5028" stop-color="#eaf6ff"/><stop offset="1" stop-color="#eaf6ff"/></linearGradient><linearGradient id="SVGID_00000040535932161806343810000011532777252155621268_" gradientUnits="userSpaceOnUse" x1="256" x2="256" y1="512" y2="0"><stop offset="0" stop-color="#5558ff"/><stop offset="1" stop-color="#00c0ff"/></linearGradient><g><path d="m472 425h-432c-22.091 0-40-17.909-40-40v-140c0-22.091 17.909-40 40-40h432c22.091 0 40 17.909 40 40v140c0 22.092-17.909 40-40 40z" fill="url(#SVGID_1_)"/><path d="m125.394 124.394 120-120c5.858-5.858 15.355-5.858 21.213 0l120 120c9.449 9.449 2.756 25.606-10.607 25.606h-45v55h-150v-55h-45c-13.363 0-20.056-16.157-10.606-25.606zm55.606 300.606v72c0 8.284 6.716 15 15 15h120c8.284 0 15-6.716 15-15v-72zm-48.867-122.994c-14.7-5.422-28.386-11.327-32.593-13.169-3.242-2.609-3.133-6.242-2.915-7.757.302-2.106 1.833-7.255 9.499-9.565 15.182-4.572 27.51 2.559 30.529 5.117 4.374 5.795 12.438 7.707 19.037 4.176 7.306-3.907 10.061-12.996 6.154-20.301-5.802-10.847-33.779-26.934-64.374-17.716-16.541 4.983-28.244 18.021-30.542 34.027-2.155 15.019 4.354 29.466 16.99 37.704.663.432 1.358.811 2.081 1.133.692.309 17.182 7.648 35.751 14.498 5.241 1.933 17.262 7.388 15.677 16.262-1.192 6.678-9.329 13.585-20.882 13.585-11.891 0-23.333-4.792-30.609-12.82-5.563-6.138-15.051-6.604-21.188-1.041-6.139 5.563-6.604 15.049-1.041 21.188 12.869 14.197 32.621 22.673 52.839 22.673 25.248 0 46.451-16.113 50.415-38.312 2.982-16.707-4.6-38.532-34.828-49.682zm121.004-32.006c8.284 0 15-6.716 15-15s-6.716-15-15-15h-50.563c-8.284 0-15 6.716-15 15v120c0 8.284 6.716 15 15 15h50.563c8.284 0 15-6.716 15-15s-6.716-15-15-15h-35.563v-30h31.835c8.284 0 15-6.716 15-15s-6.716-15-15-15h-31.835v-30zm92.022 89.899c-.028 0-.058 0-.086 0-9.248.052-19.155.09-26.937.1v-104.999c0-8.284-6.716-15-15-15s-15 6.716-15 15v119.899c0 7.306 5.263 13.548 12.464 14.784 1.068.183 1.889.325 15.263.324 6.424 0 15.746-.032 29.378-.108 8.284-.046 14.962-6.8 14.916-15.084-.046-8.256-6.753-14.916-14.998-14.916zm92.021 0c-.028 0-.058 0-.086 0-9.248.052-19.155.09-26.937.1v-104.999c0-8.284-6.716-15-15-15s-15 6.716-15 15v119.899c0 7.306 5.263 13.548 12.464 14.784 1.068.183 1.889.325 15.263.324 6.423 0 15.746-.032 29.378-.108 8.284-.046 14.962-6.8 14.916-15.084-.047-8.256-6.753-14.916-14.998-14.916z" fill="url(#SVGID_00000040535932161806343810000011532777252155621268_)"/></g></svg>