<svg id="Capa_1" enable-background="new 0 0 512 512" height="512" viewBox="0 0 512 512" width="512" xmlns="http://www.w3.org/2000/svg" xmlns:xlink="http://www.w3.org/1999/xlink"><linearGradient id="SVGID_1_" gradientUnits="userSpaceOnUse" x1="256" x2="256" y1="512" y2="81.017"><stop offset="0" stop-color="#a4ffe7"/><stop offset=".9973" stop-color="#e9fff3"/></linearGradient><linearGradient id="SVGID_2_" gradientUnits="userSpaceOnUse" x1="256" x2="256" y1="512" y2="0"><stop offset="0" stop-color="#00b59b"/><stop offset="1" stop-color="#4effa8"/></linearGradient><g><path d="m481 268.128v228.872c0 8.284-6.716 15-15 15h-420c-8.284 0-15-6.716-15-15v-228.872c3.953 1.215 8.149 1.872 12.5 1.872 23.472 0 42.5-19.028 42.5-42.5 0 23.472 19.028 42.5 42.5 42.5 23.472 0 42.5-19.028 42.5-42.5 0 23.472 19.028 42.5 42.5 42.5 23.472 0 42.5-19.028 42.5-42.5 0 23.472 19.028 42.5 42.5 42.5 23.472 0 42.5-19.028 42.5-42.5 0 23.472 19.028 42.5 42.5 42.5 23.472 0 42.5-19.028 42.5-42.5 0 23.472 19.028 42.5 42.5 42.5 4.351 0 8.548-.657 12.5-1.872zm28.023-120.57-38.023-66.541h-430l-38.023 66.541c-1.296 2.266-1.977 4.832-1.977 7.442h510c0-2.61-.681-5.176-1.977-7.442z" fill="url(#SVGID_1_)"/><path d="m471 81.017h-430v-36.017c0-24.853 20.147-45 45-45h340c24.853 0 45 20.147 45 45zm-245 220.983h-120c-8.284 0-15 6.716-15 15v195h150v-195c0-8.284-6.716-15-15-15zm-225-147v72.5c0 23.472 19.028 42.5 42.5 42.5 23.472 0 42.5-19.028 42.5-42.5 0 23.472 19.028 42.5 42.5 42.5 23.472 0 42.5-19.028 42.5-42.5 0 23.472 19.028 42.5 42.5 42.5 23.472 0 42.5-19.028 42.5-42.5 0 23.472 19.028 42.5 42.5 42.5 23.472 0 42.5-19.028 42.5-42.5 0 23.472 19.028 42.5 42.5 42.5 23.472 0 42.5-19.028 42.5-42.5 0 23.472 19.028 42.5 42.5 42.5 23.472 0 42.5-19.028 42.5-42.5v-72.5zm405 147h-120c-8.284 0-15 6.716-15 15v120c0 8.284 6.716 15 15 15h120c8.284 0 15-6.716 15-15v-120c0-8.284-6.716-15-15-15z" fill="url(#SVGID_2_)"/></g></svg>