<svg height="512" viewBox="0 0 96 96" width="512" xmlns="http://www.w3.org/2000/svg" xmlns:xlink="http://www.w3.org/1999/xlink"><linearGradient id="New_Gradient_Swatch_1" gradientUnits="userSpaceOnUse" x1="29.75" x2="66.25" y1="37.75" y2="1.25"><stop offset="0" stop-color="#34cdfa"/><stop offset="1" stop-color="#e8d9f1"/></linearGradient><g id="_02-shop" data-name="02-shop"><g id="Flat"><path d="m95.846 30.9-8-28a4 4 0 0 0 -3.846-2.9h-72a4 4 0 0 0 -3.846 2.9l-8 28a4 4 0 0 0 3.846 5.1h88a4 4 0 0 0 3.846-5.1z" fill="#ccf2fe"/><rect fill="#67d9fb" height="64" rx="4" width="88" x="4" y="32"/><path d="m31 0-3 36h40l-3-36z" fill="url(#New_Gradient_Swatch_1)"/><g fill="#99e6fd"><path d="m68 32h28a0 0 0 0 1 0 0v4a8 8 0 0 1 -8 8h-12a8 8 0 0 1 -8-8v-4a0 0 0 0 1 0 0z"/><path d="m0 32h28a0 0 0 0 1 0 0v4a8 8 0 0 1 -8 8h-12a8 8 0 0 1 -8-8v-4a0 0 0 0 1 0 0z"/><path d="m28 32h40a0 0 0 0 1 0 0v4a8 8 0 0 1 -8 8h-24a8 8 0 0 1 -8-8v-4a0 0 0 0 1 0 0z"/></g><path d="m16 56h24v40h-24z" fill="#01c0f9"/><path d="m44 96h-8v-36h-16v36h-8v-40a4 4 0 0 1 4-4h24a4 4 0 0 1 4 4z" fill="#ccf2fe"/><path d="m60 56h20v16h-20z" fill="#34cdfa"/><path d="m60 56h20v16h-20z" fill="#01c0f9"/><path d="m80 76h-20a4 4 0 0 1 -4-4v-16a4 4 0 0 1 4-4h20a4 4 0 0 1 4 4v16a4 4 0 0 1 -4 4zm-16-8h12v-8h-12z" fill="#ccf2fe"/></g></g></svg>