<svg width="300" height="303" viewBox="0 0 300 303" fill="none" xmlns="http://www.w3.org/2000/svg">
<path fill-rule="evenodd" clip-rule="evenodd" d="M254.228 149.539H271.401C283.368 149.539 293.159 159.396 293.159 171.444V216.27C293.159 228.318 283.368 238.176 271.401 238.176H254.228C251.428 238.176 249.138 235.869 249.138 233.051V154.664C249.138 151.846 251.428 149.539 254.228 149.539ZM211.623 54.9574C236.097 74.0854 250.761 103.554 250.761 135.118V140.524C251.872 140.247 253.033 140.101 254.228 140.101H271.401C271.926 140.101 272.447 140.114 272.965 140.14V135.117C272.965 95.8939 254.397 59.3964 223.549 36.1161L211.623 54.9574ZM49.2386 135.118C49.2386 103.554 63.9022 74.0854 88.3769 54.9574L76.4507 36.1167C45.6034 59.3964 27.0345 95.8951 27.0345 135.118V140.14C27.553 140.115 28.0745 140.101 28.5989 140.101H45.7722C46.9669 140.101 48.1282 140.248 49.2392 140.524V135.118H49.2386ZM217.556 126.806C221.587 126.806 224.876 130.116 224.876 134.175V194.513C224.876 198.572 221.587 201.883 217.556 201.883H207.295V224.287L176.301 201.883H121.91C119.991 201.883 118.239 201.132 116.931 199.907L126.715 192.835H178.089C187.295 192.835 194.784 185.296 194.784 176.027V126.806H217.556ZM82.4442 108.32H178.089C182.121 108.32 185.409 111.63 185.409 115.69V176.027C185.409 180.087 182.121 183.397 178.089 183.397H123.698L92.7046 205.801V183.397H82.4437C78.4118 183.397 75.1235 180.087 75.1235 176.027V115.69C75.1241 111.63 78.4124 108.32 82.4442 108.32ZM96.9532 131.807H163.581C166.169 131.807 168.268 129.694 168.268 127.088C168.268 124.482 166.169 122.369 163.581 122.369H96.9532C94.3646 122.369 92.2657 124.482 92.2657 127.088C92.2657 129.694 94.3646 131.807 96.9532 131.807ZM96.9532 150.577H163.581C166.169 150.577 168.268 148.464 168.268 145.858C168.268 143.252 166.169 141.139 163.581 141.139H96.9532C94.3646 141.139 92.2657 143.252 92.2657 145.858C92.2657 148.464 94.3646 150.577 96.9532 150.577ZM96.9532 169.348H163.581C166.169 169.348 168.268 167.235 168.268 164.629C168.268 162.022 166.169 159.909 163.581 159.909H96.9532C94.3646 159.909 92.2657 162.022 92.2657 164.629C92.2657 167.235 94.3646 169.348 96.9532 169.348ZM136.26 268.508H163.74C170.058 268.508 175.468 272.627 177.452 278.328C198.153 278.355 218.858 278.41 239.559 278.41C249.802 278.41 258.126 269.981 258.126 259.679V247.613H267.501V259.679C267.501 275.165 254.952 287.848 239.559 287.848C218.88 287.848 198.198 287.768 177.519 287.729C175.592 293.535 170.132 297.748 163.739 297.748H136.26C128.273 297.748 121.738 291.17 121.738 283.129C121.738 275.087 128.272 268.508 136.26 268.508ZM81.2015 26.0584C101.701 12.8813 125.668 5.74945 150 5.74945C174.332 5.74945 198.298 12.8813 218.798 26.0584L200.99 54.1923C185.618 44.3116 168.23 39.2491 150 39.2491C131.77 39.2491 114.381 44.3116 99.0093 54.1923L81.2015 26.0584ZM45.7716 149.539H28.5989C16.6329 149.539 6.84131 159.396 6.84131 171.444V216.27C6.84131 228.318 16.6329 238.176 28.5989 238.176H45.7722C48.5718 238.176 50.8628 235.869 50.8628 233.051V154.664C50.8622 151.846 48.5718 149.539 45.7716 149.539Z" fill="url(#paint0_linear_145_201)"/>
<defs>
<linearGradient id="paint0_linear_145_201" x1="52.5444" y1="271.318" x2="258.858" y2="66.3892" gradientUnits="userSpaceOnUse">
<stop stop-color="#EC2AFF"/>
<stop offset="1" stop-color="#6AC6FF"/>
</linearGradient>
</defs>
</svg>
