<svg id="Layer_4" height="512" viewBox="0 0 24 24" width="512" xmlns="http://www.w3.org/2000/svg" xmlns:xlink="http://www.w3.org/1999/xlink" data-name="Layer 4"><linearGradient id="linear-gradient" gradientUnits="userSpaceOnUse" x1="6.043" x2="17.957" y1="10.957" y2="22.871"><stop offset="0" stop-color="#effff4"/><stop offset="1" stop-color="#d1ffec"/></linearGradient><linearGradient id="linear-gradient-2" gradientUnits="userSpaceOnUse" x1="7.861" x2="9.794" y1="19.724" y2="21.656"><stop offset="0" stop-color="#6be8a7"/><stop offset="1" stop-color="#01b59c"/></linearGradient><linearGradient id="linear-gradient-3" x1="13.864" x2="15.796" xlink:href="#linear-gradient-2" y1="19.724" y2="21.656"/><linearGradient id="linear-gradient-4" x1="6.543" x2="17.457" xlink:href="#linear-gradient-2" y1="5.629" y2="16.543"/><g id="Gradient"><g id="Theme_Clean" data-name="Theme, Clean"><path d="m20 13h-16v7a2 2 0 0 0 2 2h12a2 2 0 0 0 2-2z" fill="url(#linear-gradient)"/><path d="m10.96 19.27a6.662 6.662 0 0 1 -.97 2.07 7.333 7.333 0 0 1 -.54.66h-3.45a.757.757 0 0 1 -.15-.01 4.95 4.95 0 0 0 2.5-1.8 4.781 4.781 0 0 0 .69-1.46 1 1 0 1 1 1.92.54z" fill="url(#linear-gradient-2)"/><path d="m16.962 19.27a6.662 6.662 0 0 1 -.97 2.07 7.333 7.333 0 0 1 -.54.66h-3.452a.757.757 0 0 1 -.15-.01 4.95 4.95 0 0 0 2.5-1.8 4.781 4.781 0 0 0 .69-1.46 1 1 0 1 1 1.92.54z" fill="url(#linear-gradient-3)"/><path d="m15 7v-3a2 2 0 0 0 -2-2h-2a2 2 0 0 0 -2 2v3a5.006 5.006 0 0 0 -5 5v2h16v-2a5.006 5.006 0 0 0 -5-5z" fill="url(#linear-gradient-4)"/></g></g></svg>