<svg width="36" height="36" viewBox="0 0 36 36" fill="none" xmlns="http://www.w3.org/2000/svg">
<path fill-rule="evenodd" clip-rule="evenodd" d="M11.2779 15.8889C9.99458 15.8889 8.94458 16.9389 8.94458 18.2222C8.94458 19.5055 9.99458 20.5555 11.2779 20.5555C12.5612 20.5555 13.6112 19.5055 13.6112 18.2222C13.6112 16.9389 12.5612 15.8889 11.2779 15.8889ZM25.2779 15.8889C23.9945 15.8889 22.9445 16.9389 22.9445 18.2222C22.9445 19.5055 23.9945 20.5555 25.2779 20.5555C26.5612 20.5555 27.6112 19.5055 27.6112 18.2222C27.6112 16.9389 26.5612 15.8889 25.2779 15.8889ZM18.278 15.8889C16.9947 15.8889 15.9447 16.9389 15.9447 18.2222C15.9447 19.5055 16.9947 20.5555 18.278 20.5555C19.5614 20.5555 20.6114 19.5055 20.6114 18.2222C20.6114 16.9389 19.5614 15.8889 18.278 15.8889Z" fill="#FFCB33"/>
</svg>
