<svg width="300" height="302" viewBox="0 0 300 302" fill="none" xmlns="http://www.w3.org/2000/svg">
<g clip-path="url(#clip0_145_88)">
<path d="M101.367 290.04C101.367 296.546 96.1212 301.818 89.6484 301.818H62.6953C36.8477 301.818 15.8203 280.685 15.8203 254.706V47.4147C15.8203 21.4366 36.8477 0.302979 62.6953 0.302979H206.772C232.617 0.302979 253.647 21.4366 253.647 47.4147V117.493C253.647 123.999 248.399 129.271 241.928 129.271C235.455 129.271 230.209 123.999 230.209 117.493V47.4147C230.209 34.4268 219.695 23.8588 206.772 23.8588H62.6953C49.7726 23.8588 39.2578 34.4268 39.2578 47.4147V254.706C39.2578 267.694 49.7726 278.262 62.6953 278.262H89.6484C96.1212 278.262 101.367 283.535 101.367 290.04ZM206.77 82.7485C206.77 76.2431 201.524 70.9706 195.051 70.9706H74.3477C67.8772 70.9706 62.6289 76.2431 62.6289 82.7485C62.6289 89.254 67.8772 94.5265 74.3477 94.5265H195.051C201.524 94.5265 206.77 89.254 206.77 82.7485ZM159.961 129.86C159.961 123.355 154.715 118.082 148.242 118.082H74.3477C67.8772 118.082 62.6289 123.355 62.6289 129.86C62.6289 136.366 67.8772 141.638 74.3477 141.638H148.242C154.715 141.638 159.961 136.366 159.961 129.86ZM74.3477 165.194C67.8772 165.194 62.6289 170.467 62.6289 176.972C62.6289 183.477 67.8772 188.75 74.3477 188.75H123.047C129.52 188.75 134.766 183.477 134.766 176.972C134.766 170.467 129.52 165.194 123.047 165.194H74.3477ZM278.794 293.056C274.285 298.625 267.632 301.818 260.538 301.818H146.102C138.97 301.818 132.296 298.627 127.792 293.065C123.26 287.468 121.5 280.197 122.962 273.116C126.748 254.787 136.775 238.109 151.195 226.154C156.656 221.627 162.657 217.859 169.02 214.914C161.929 206.819 157.617 196.212 157.617 184.607C157.617 159.277 178.118 138.673 203.32 138.673C228.522 138.673 249.023 159.277 249.023 184.607C249.023 196.212 244.711 206.819 237.621 214.914C243.983 217.859 249.985 221.625 255.446 226.154C269.577 237.87 279.488 254.122 283.443 272.017C283.534 272.327 283.612 272.64 283.678 272.96C285.148 280.082 283.367 287.406 278.794 293.056ZM181.055 184.607C181.055 196.946 191.043 206.985 203.32 206.985C215.598 206.985 225.586 196.946 225.586 184.607C225.586 172.268 215.598 162.229 203.32 162.229C191.043 162.229 181.055 172.268 181.055 184.607ZM260.735 277.929C260.733 277.922 260.731 277.913 260.731 277.906C255.103 250.667 230.958 230.895 203.32 230.895C175.683 230.895 151.536 250.667 145.91 277.906C145.857 278.17 146.038 278.255 146.038 278.258C146.043 278.258 146.063 278.262 146.102 278.262H260.538C260.545 278.255 260.703 278.136 260.735 277.929Z" fill="url(#paint0_linear_145_88)"/>
</g>
<defs>
<linearGradient id="paint0_linear_145_88" x1="15.8201" y1="151.061" x2="284.182" y2="151.061" gradientUnits="userSpaceOnUse">
<stop stop-color="#00F2FE"/>
<stop offset="0.0208" stop-color="#03EFFE"/>
<stop offset="0.2931" stop-color="#24D2FE"/>
<stop offset="0.5538" stop-color="#3CBDFE"/>
<stop offset="0.7956" stop-color="#4AB0FE"/>
<stop offset="1" stop-color="#4FACFE"/>
</linearGradient>
<clipPath id="clip0_145_88">
<rect width="300" height="301.515" fill="white" transform="translate(0 0.302979)"/>
</clipPath>
</defs>
</svg>
