<svg width="300" height="303" viewBox="0 0 300 303" fill="none" xmlns="http://www.w3.org/2000/svg">
<path d="M35.1562 243.667C22.2123 243.667 11.7188 254.245 11.7188 267.294C11.7188 280.343 22.2123 290.922 35.1562 290.922C48.1002 290.922 58.5938 280.343 58.5938 267.294C58.5938 254.245 48.1002 243.667 35.1562 243.667ZM35.1562 243.667V71.7137C35.1562 52.2357 50.526 36.0001 69.8455 35.7472C89.4756 35.4909 105.469 51.4554 105.469 71.1856V243.145C105.469 256.424 116.248 267.543 129.418 267.29C142.18 267.044 152.451 256.538 152.451 243.613V153.882C152.451 140.833 162.945 130.254 175.888 130.254H194.531M217.969 106.627C205.025 106.627 194.531 117.206 194.531 130.254M217.969 106.627C230.913 106.627 241.406 117.206 241.406 130.254C241.406 143.303 230.913 153.882 217.969 153.882C205.025 153.882 194.531 143.303 194.531 130.254M217.969 106.627V12.1168H288.281V59.3718H217.969" stroke="url(#paint0_linear_145_92)" stroke-width="20" stroke-miterlimit="10"/>
<defs>
<linearGradient id="paint0_linear_145_92" x1="150" y1="302.735" x2="150" y2="0.302993" gradientUnits="userSpaceOnUse">
<stop stop-color="#009EFD"/>
<stop offset="1" stop-color="#2AF598"/>
</linearGradient>
</defs>
</svg>
