<svg width="300" height="302" viewBox="0 0 300 302" fill="none" xmlns="http://www.w3.org/2000/svg">
<g clip-path="url(#clip0_145_211)">
<path d="M256.066 195.16C239.729 178.735 220.283 166.575 199.066 159.215C221.79 143.479 236.719 117.145 236.719 87.3668C236.719 39.2921 197.817 0.179932 150 0.179932C102.183 0.179932 63.2812 39.2921 63.2812 87.3668C63.2812 117.145 78.2103 143.479 100.935 159.215C79.718 166.575 60.2719 178.735 43.9342 195.16C15.6029 223.645 0 261.517 0 301.799H23.4375C23.4375 231.636 80.2131 174.554 150 174.554C219.787 174.554 276.562 231.636 276.562 301.799H300C300 261.517 284.397 223.645 256.066 195.16ZM86.7188 87.3668C86.7188 52.2847 115.107 23.744 150 23.744C184.893 23.744 213.281 52.2847 213.281 87.3668C213.281 122.449 184.893 150.99 150 150.99C115.107 150.99 86.7188 122.449 86.7188 87.3668Z" fill="url(#paint0_linear_145_211)"/>
</g>
<defs>
<linearGradient id="paint0_linear_145_211" x1="150" y1="0.179932" x2="150" y2="301.799" gradientUnits="userSpaceOnUse">
<stop stop-color="#2AF598"/>
<stop offset="1" stop-color="#009EFD"/>
</linearGradient>
<clipPath id="clip0_145_211">
<rect width="300" height="301.619" fill="white" transform="translate(0 0.179932)"/>
</clipPath>
</defs>
</svg>
