<svg width="300" height="301" viewBox="0 0 300 301" fill="none" xmlns="http://www.w3.org/2000/svg">
<g clip-path="url(#clip0_145_228)">
<path d="M290.93 76.2639C283.055 47.2776 252.908 17.1252 223.916 9.25024C206.139 4.82056 182.326 0.256104 150 0.179932C117.674 0.256104 93.8613 4.82056 76.084 9.25024C47.0977 17.1252 16.9453 47.2717 9.07031 76.2639C4.64062 94.0413 0.0761719 117.854 0 150.18C0.0761719 182.506 4.64062 206.319 9.07031 224.096C16.9453 253.088 47.0977 283.235 76.084 291.11C93.8613 295.539 117.686 300.104 150 300.18C182.32 300.104 206.139 295.539 223.916 291.11C252.908 283.235 283.055 253.088 290.93 224.096C295.359 206.319 299.924 182.494 300 150.18C299.924 117.854 295.359 94.0413 290.93 76.2639Z" fill="#DFF8FF"/>
<path d="M240.99 130.422C236.861 126.406 232.723 122.377 228.574 118.334C228.457 112.721 228.311 107.104 228.135 101.483C227.9 93.9651 224.654 86.7932 219.076 81.2151C213.704 75.7313 206.444 72.5005 198.773 72.1799C193.141 72.0041 187.512 71.8577 181.887 71.7405C177.816 67.6155 173.787 63.4885 169.799 59.3596C167.268 56.6401 164.204 54.4712 160.799 52.9882C157.393 51.5051 153.718 50.7397 150.003 50.7397C146.288 50.7397 142.613 51.5051 139.207 52.9882C135.801 54.4712 132.738 56.6401 130.207 59.3596C126.215 63.4924 122.178 67.6291 118.096 71.7698C112.471 71.8791 106.846 72.0237 101.221 72.2034C85.7227 72.7307 72.3867 86.0373 71.8594 101.5C71.6836 107.114 71.5371 112.731 71.4199 118.352C67.2754 122.403 63.1367 126.428 59.0039 130.428C53.4902 135.789 50.3906 142.774 50.3906 150.18C50.415 153.885 51.1909 157.546 52.6714 160.942C54.1519 164.338 56.3062 167.398 59.0039 169.938C63.1367 173.934 67.2754 177.955 71.4199 182.002C71.5371 187.627 71.6836 193.25 71.8594 198.871C72.0937 206.401 75.3398 213.555 80.9121 219.139C86.2875 224.622 93.549 227.853 101.221 228.174C106.854 228.35 112.482 228.496 118.107 228.614C122.182 232.746 126.211 236.875 130.195 241C132.728 243.719 135.794 245.886 139.201 247.369C142.608 248.851 146.284 249.616 150 249.616C153.716 249.616 157.392 248.851 160.799 247.369C164.206 245.886 167.272 243.719 169.805 241C173.812 236.879 177.846 232.748 181.904 228.608C187.529 228.494 193.154 228.35 198.779 228.174C214.271 227.647 227.613 214.328 228.141 198.877C228.316 193.264 228.463 187.649 228.58 182.031C232.725 177.985 236.863 173.951 240.996 169.932C243.691 167.392 245.843 164.332 247.324 160.937C248.804 157.543 249.582 153.883 249.609 150.18C249.609 142.762 246.51 135.778 240.99 130.422Z" fill="url(#paint0_linear_145_228)"/>
<path d="M199.529 137.576C182.748 155.014 165.697 172.844 148.934 190.528C147.57 191.97 145.927 193.12 144.105 193.907C142.283 194.694 140.319 195.101 138.334 195.104H138.281C136.298 195.09 134.338 194.679 132.515 193.896C130.693 193.113 129.046 191.974 127.67 190.545C118.711 181.293 109.688 172.047 100.717 162.877C99.3521 161.506 98.2754 159.875 97.55 158.081C96.8247 156.287 96.4654 154.366 96.4932 152.431C96.521 150.497 96.9355 148.587 97.7122 146.815C98.4888 145.042 99.612 143.443 101.016 142.112C103.842 139.377 107.635 137.871 111.567 137.92C115.499 137.969 119.253 139.571 122.01 142.375C127.365 147.867 132.733 153.377 138.111 158.905C151.424 144.959 164.795 130.938 177.955 117.11C183.545 111.25 192.867 111.133 198.861 116.805C204.856 122.477 205.16 131.729 199.529 137.576Z" fill="url(#paint1_linear_145_228)"/>
</g>
<defs>
<linearGradient id="paint0_linear_145_228" x1="219" y1="219.186" x2="80.9941" y2="81.1858" gradientUnits="userSpaceOnUse">
<stop stop-color="#1EB4EB"/>
<stop offset="0.54" stop-color="#1EB4EB"/>
<stop offset="1" stop-color="#92F4FE"/>
</linearGradient>
<linearGradient id="paint1_linear_145_228" x1="174.516" y1="164.951" x2="126.322" y2="116.758" gradientUnits="userSpaceOnUse">
<stop stop-color="#BCE4ED"/>
<stop offset="0.57" stop-color="white"/>
<stop offset="1" stop-color="white"/>
</linearGradient>
<clipPath id="clip0_145_228">
<rect width="300" height="300" fill="white" transform="translate(0 0.179932)"/>
</clipPath>
</defs>
</svg>
