<svg width="300" height="301" viewBox="0 0 300 301" fill="none" xmlns="http://www.w3.org/2000/svg">
<path d="M270.293 100.024V235.727C270.293 241.645 265.43 246.508 259.512 246.508L40.4883 246.449C34.5703 246.449 29.707 241.586 29.707 235.668V100.024H270.293ZM252.129 224.184V181.762C252.129 179.36 250.195 177.367 247.793 177.367H200.449C198.047 177.367 196.113 179.301 196.113 181.762V224.184C196.113 226.586 198.047 228.578 200.449 228.578H247.793C250.137 228.578 252.07 226.586 252.129 224.184ZM252.07 154.164V125.395C252.07 121.293 248.73 118.012 244.687 118.012H93.1055H55.2539C51.1523 118.012 47.8711 121.352 47.8711 125.395V154.164C47.8711 158.266 51.2109 161.547 55.2539 161.547H93.1055H244.746C248.789 161.547 252.07 158.207 252.07 154.164ZM178.008 224.418C178.008 224.36 178.008 224.301 178.008 224.242V181.821C178.008 179.418 176.074 177.426 173.613 177.426H126.27C123.867 177.426 121.875 179.36 121.875 181.821V224.242C121.875 226.645 123.809 228.637 126.27 228.637H173.613C175.898 228.578 177.832 226.703 178.008 224.418ZM103.887 224.418C103.887 224.36 103.887 224.301 103.887 224.242V181.821C103.887 179.418 101.953 177.426 99.5508 177.426H52.207C49.8047 177.426 47.8125 179.36 47.8125 181.821V224.242C47.8125 226.645 49.7461 228.637 52.207 228.637H99.4922C101.777 228.578 103.711 226.703 103.887 224.418ZM270.293 64.5745V94.3401H29.707V64.5745C29.707 58.5979 34.4531 53.9104 40.4883 53.9104V53.8518H259.512C265.43 53.8518 270.293 58.6565 270.293 64.5745ZM248.379 76.9963C249.961 76.9963 251.25 75.7073 251.191 74.1252C251.191 72.5432 249.902 71.2542 248.32 71.2542H156.387C154.805 71.2542 153.516 72.5432 153.516 74.1252C153.516 75.7073 154.805 76.9963 156.387 76.9963H248.379ZM134.414 74.1252C134.414 67.9143 129.316 62.8167 123.105 62.8167C116.895 62.8167 111.797 67.9143 111.797 74.1252C111.797 80.3362 116.895 85.4338 123.105 85.4338C129.316 85.4338 134.414 80.3948 134.414 74.1252ZM102.891 74.1252C102.891 67.9143 97.793 62.8167 91.582 62.8167C85.3711 62.8167 80.2734 67.9143 80.2734 74.1252C80.2734 80.3362 85.3711 85.4338 91.582 85.4338C97.793 85.4338 102.891 80.3948 102.891 74.1252ZM71.3672 74.1838C71.3672 67.9729 66.2695 62.8752 60.0586 62.8752C53.8477 62.8752 48.75 67.9729 48.75 74.1252C48.75 80.3362 53.8477 85.4338 60.0586 85.4338C66.2695 85.4338 71.3672 80.3948 71.3672 74.1838ZM201.855 183.168H246.445V222.836H201.855V183.168ZM127.734 183.168H172.324V222.836H127.734V183.168ZM123.105 68.6174C126.152 68.6174 128.672 71.137 128.672 74.1838C128.672 77.2307 126.152 79.7502 123.105 79.7502C120.059 79.7502 117.539 77.2307 117.539 74.1838C117.539 71.137 120.059 68.6174 123.105 68.6174ZM53.6133 183.168H98.2031V222.836H53.6133V183.168ZM91.582 68.6174C94.6289 68.6174 97.1484 71.137 97.1484 74.1838C97.1484 77.2307 94.6289 79.7502 91.582 79.7502C88.5352 79.7502 86.0156 77.2307 86.0156 74.1838C86.0156 71.137 88.5352 68.6174 91.582 68.6174ZM90.293 123.754V155.864H55.2539C54.3164 155.864 53.6133 155.16 53.6133 154.223V125.453C53.6133 124.516 54.3164 123.813 55.2539 123.813L90.293 123.754ZM83.7891 151.645C84.9023 150.531 84.9023 148.715 83.7891 147.602L79.1016 142.973C79.9805 141.449 80.5078 139.633 80.5078 137.758C80.5078 131.899 75.7617 127.153 69.9023 127.153C64.043 127.153 59.2969 131.899 59.2969 137.758C59.2969 143.617 64.043 148.364 69.9023 148.364C71.7773 148.364 73.5352 147.895 75.0586 147.016L79.7461 151.703C80.2734 152.231 81.0352 152.524 81.7383 152.524C82.4414 152.465 83.2031 152.172 83.7891 151.645ZM74.7656 137.699C74.7656 140.395 72.5977 142.621 69.9023 142.621C67.207 142.621 65.0391 140.453 65.0391 137.699C65.0391 135.004 67.207 132.836 69.9023 132.836C72.5977 132.836 74.7656 135.004 74.7656 137.699ZM60.1172 68.6174C63.1641 68.6174 65.6836 71.137 65.6836 74.1838C65.6836 77.2307 63.1641 79.7502 60.1172 79.7502C57.0703 79.7502 54.5508 77.2307 54.5508 74.1838C54.5508 71.137 57.0703 68.6174 60.1172 68.6174ZM246.387 125.453V154.223C246.387 155.16 245.684 155.864 244.746 155.864H95.9766V123.754H244.687C245.625 123.754 246.387 124.457 246.387 125.453Z" fill="url(#paint0_linear_145_234)"/>
<defs>
<linearGradient id="paint0_linear_145_234" x1="150" y1="53.8518" x2="150" y2="246.508" gradientUnits="userSpaceOnUse">
<stop stop-color="#F704FE"/>
<stop offset="1" stop-color="#24BCE3"/>
</linearGradient>
</defs>
</svg>
