<svg id="Capa_1" enable-background="new 0 0 512 512" height="512" viewBox="0 0 512 512" width="512" xmlns="http://www.w3.org/2000/svg" xmlns:xlink="http://www.w3.org/1999/xlink"><linearGradient id="SVGID_1_" gradientUnits="userSpaceOnUse" x1="256" x2="256" y1="512" y2="0"><stop offset="0" stop-color="#5558ff"/><stop offset="1" stop-color="#00c0ff"/></linearGradient><linearGradient id="SVGID_00000026128633068288253920000003211750114945684869_" gradientUnits="userSpaceOnUse" x1="256" x2="256" y1="512" y2="0"><stop offset="0" stop-color="#addcff"/><stop offset=".5028" stop-color="#eaf6ff"/><stop offset="1" stop-color="#eaf6ff"/></linearGradient><g><path d="m512 115.001c0 63.411-51.589 114.999-115 114.999-15.2 0-29.717-2.971-43.01-8.351l-34.351 34.351-63.639-63.639 34.351-34.351c-5.38-13.293-8.351-27.81-8.351-43.009 0-63.412 51.589-115.001 115-115.001 7.96 0 15.734.814 23.242 2.363 11.674 2.408 15.959 16.868 7.531 25.296-20.428 20.428-37.806 37.807-37.806 37.807l7.071 49.498 49.498 7.071s17.004-17.004 37.804-37.804c8.429-8.429 22.89-4.146 25.298 7.529 1.548 7.507 2.362 15.28 2.362 23.241zm-256 204.638-34.351 34.352c5.38 13.293 8.351 27.81 8.351 43.01 0 63.411-51.589 114.999-115 114.999s-115-51.588-115-114.999c0-63.412 51.589-115.001 115-115.001 15.2 0 29.716 2.971 43.01 8.352l34.351-34.352zm-101 77.361c0-22.091-17.909-40-40-40-22.092 0-40 17.909-40 40s17.908 40 40 40c22.091 0 40-17.908 40-40z" fill="url(#SVGID_1_)"/><path d="m0 115.001c0 63.411 51.589 114.999 115 114.999 15.2 0 29.717-2.971 43.01-8.351l132.341 132.342c-5.38 13.293-8.351 27.81-8.351 43.01 0 63.411 51.589 114.999 115 114.999s115-51.588 115-114.999c0-63.412-51.589-115.001-115-115.001-15.2 0-29.716 2.971-43.01 8.352l-132.341-132.342c5.38-13.293 8.351-27.81 8.351-43.009 0-63.412-51.589-115.001-115-115.001-7.96 0-15.734.814-23.242 2.363-11.674 2.408-15.959 16.868-7.53 25.296 20.428 20.428 37.806 37.807 37.806 37.807l-7.071 49.498-49.498 7.071s-17.004-17.004-37.804-37.804c-8.429-8.429-22.89-4.145-25.298 7.529-1.549 7.507-2.363 15.28-2.363 23.241zm397 321.999c-22.091 0-40-17.909-40-40s17.909-40 40-40c22.092 0 40 17.909 40 40s-17.908 40-40 40z" fill="url(#SVGID_00000026128633068288253920000003211750114945684869_)"/></g></svg>