<svg width="172" height="173" viewBox="0 0 172 173" fill="none" xmlns="http://www.w3.org/2000/svg">
<rect x="36" y="17" width="100" height="100" rx="16" fill="url(#paint0_linear_43_1221)" stroke="#D0D0D0" stroke-width="2" stroke-dasharray="9 9"/>
<rect x="2" y="2" width="168" height="169" rx="18" stroke="#FBD7CA" stroke-width="4"/>
<path d="M54.9979 151V133.658H61.8879C63.2225 133.658 64.3405 133.84 65.2419 134.204C66.1432 134.551 66.8279 135.079 67.2959 135.79C67.7639 136.483 67.9979 137.359 67.9979 138.416C67.9979 139.179 67.8245 139.803 67.4779 140.288C67.1485 140.773 66.7412 141.163 66.2559 141.458C65.7879 141.735 65.3459 141.978 64.9299 142.186L64.5399 141.458C65.3372 141.527 66.0652 141.744 66.7239 142.108C67.3999 142.455 67.9372 142.94 68.3359 143.564C68.7345 144.188 68.9339 144.951 68.9339 145.852C68.9339 147.048 68.6479 148.027 68.0759 148.79C67.5212 149.553 66.7585 150.116 65.7879 150.48C64.8345 150.827 63.7512 151 62.5379 151H54.9979ZM58.5339 148.192H62.3559C62.8759 148.192 63.3612 148.123 63.8119 147.984C64.2625 147.845 64.6265 147.594 64.9039 147.23C65.1812 146.866 65.3199 146.363 65.3199 145.722C65.3199 145.219 65.2332 144.821 65.0599 144.526C64.8865 144.214 64.6525 143.98 64.3579 143.824C64.0632 143.651 63.7339 143.538 63.3699 143.486C63.0232 143.417 62.6592 143.382 62.2779 143.382H58.5339V148.192ZM58.5339 140.678H62.1739C62.5379 140.678 62.8932 140.626 63.2399 140.522C63.5865 140.401 63.8639 140.201 64.0719 139.924C64.2972 139.629 64.4099 139.222 64.4099 138.702C64.4099 137.853 64.1759 137.272 63.7079 136.96C63.2399 136.648 62.6419 136.492 61.9139 136.492H58.5339V140.678ZM75.2571 151H71.9811V132.956H75.2571V151ZM84.6334 151.39C82.484 151.39 80.872 150.792 79.7974 149.596C78.7227 148.4 78.1854 146.675 78.1854 144.422C78.1854 142.013 78.7314 140.262 79.8234 139.17C80.9327 138.078 82.5274 137.532 84.6074 137.532C86.0634 137.532 87.2767 137.792 88.2474 138.312C89.2181 138.815 89.9374 139.577 90.4054 140.6C90.8907 141.623 91.1334 142.897 91.1334 144.422C91.1334 146.675 90.57 148.4 89.4434 149.596C88.3341 150.792 86.7307 151.39 84.6334 151.39ZM84.6334 148.686C85.396 148.686 86.0114 148.513 86.4794 148.166C86.9647 147.819 87.32 147.334 87.5454 146.71C87.7707 146.069 87.8834 145.306 87.8834 144.422C87.8834 143.434 87.762 142.628 87.5194 142.004C87.2941 141.38 86.9387 140.921 86.4534 140.626C85.9854 140.331 85.3787 140.184 84.6334 140.184C83.8707 140.184 83.2554 140.34 82.7874 140.652C82.3194 140.964 81.9727 141.432 81.7474 142.056C81.5394 142.68 81.4354 143.469 81.4354 144.422C81.4354 145.809 81.6867 146.866 82.1894 147.594C82.692 148.322 83.5067 148.686 84.6334 148.686ZM100.025 151.286C99.1583 151.286 98.3263 151.165 97.529 150.922C96.7316 150.679 96.021 150.289 95.397 149.752C94.773 149.215 94.279 148.521 93.915 147.672C93.551 146.823 93.369 145.791 93.369 144.578C93.369 143.313 93.5423 142.238 93.889 141.354C94.2356 140.47 94.7123 139.751 95.319 139.196C95.9256 138.624 96.6276 138.217 97.425 137.974C98.2396 137.714 99.0976 137.584 99.999 137.584C100.692 137.584 101.403 137.653 102.131 137.792C102.859 137.931 103.509 138.13 104.081 138.39V141.25C103.492 140.99 102.902 140.782 102.313 140.626C101.724 140.453 101.117 140.366 100.493 140.366C99.2796 140.366 98.335 140.669 97.659 141.276C96.983 141.883 96.645 142.879 96.645 144.266C96.645 145.687 96.9483 146.745 97.555 147.438C98.179 148.131 99.2016 148.478 100.623 148.478C101.264 148.478 101.888 148.383 102.495 148.192C103.102 147.984 103.639 147.759 104.107 147.516V150.402C103.5 150.697 102.868 150.913 102.209 151.052C101.55 151.208 100.822 151.286 100.025 151.286ZM109.62 143.59L114.69 137.896H118.72L111.31 145.332L109.62 143.59ZM110.322 151H107.046V132.956H110.348L110.322 151ZM111.986 142.316L119.214 151H115.028L109.646 144.526L111.986 142.316Z" fill="#666666"/>
<defs>
<linearGradient id="paint0_linear_43_1221" x1="86" y1="17" x2="86" y2="117" gradientUnits="userSpaceOnUse">
<stop stop-color="#F1612A"/>
<stop offset="1" stop-color="#FBD7CA"/>
</linearGradient>
</defs>
</svg>
