<svg width="172" height="173" viewBox="0 0 172 173" fill="none" xmlns="http://www.w3.org/2000/svg">
<path d="M67.6414 151.286C64.9027 151.286 62.8227 150.558 61.4014 149.102C59.98 147.629 59.2694 145.367 59.2694 142.316C59.2694 139.352 59.9627 137.116 61.3494 135.608C62.736 134.083 64.8334 133.32 67.6414 133.32C68.56 133.32 69.4787 133.433 70.3974 133.658C71.3334 133.883 72.2347 134.195 73.1014 134.594V137.714C72.2174 137.159 71.3594 136.761 70.5274 136.518C69.6954 136.275 68.8894 136.154 68.1094 136.154C66.9654 136.154 66.0034 136.362 65.2234 136.778C64.4607 137.177 63.88 137.827 63.4814 138.728C63.1 139.629 62.9094 140.834 62.9094 142.342C62.9094 143.833 63.1087 145.029 63.5074 145.93C63.906 146.831 64.4954 147.481 65.2754 147.88C66.0727 148.279 67.0607 148.478 68.2394 148.478C68.95 148.478 69.7127 148.357 70.5274 148.114C71.3594 147.871 72.2174 147.481 73.1014 146.944V150.064C72.5987 150.307 72.0354 150.523 71.4114 150.714C70.8047 150.905 70.1807 151.043 69.5394 151.13C68.898 151.234 68.2654 151.286 67.6414 151.286ZM81.1601 151.39C80.4321 151.39 79.7388 151.321 79.0801 151.182C78.4215 151.043 77.8321 150.818 77.3121 150.506C76.7921 150.177 76.3761 149.735 76.0641 149.18C75.7695 148.608 75.6221 147.897 75.6221 147.048C75.6221 146.164 75.8041 145.419 76.1681 144.812C76.5321 144.188 77.0608 143.72 77.7541 143.408C78.4648 143.079 79.3315 142.914 80.3541 142.914C80.9781 142.914 81.5588 142.975 82.0961 143.096C82.6335 143.2 83.1188 143.347 83.5521 143.538C83.9855 143.729 84.3408 143.937 84.6181 144.162L84.8521 146.008C84.4881 145.765 84.0201 145.575 83.4481 145.436C82.8935 145.28 82.2868 145.202 81.6281 145.202C80.7095 145.202 80.0248 145.349 79.5741 145.644C79.1235 145.939 78.8981 146.398 78.8981 147.022C78.8981 147.455 79.0195 147.819 79.2621 148.114C79.5048 148.391 79.8168 148.608 80.1981 148.764C80.5795 148.903 80.9781 148.972 81.3941 148.972C82.3475 148.972 83.0321 148.911 83.4481 148.79C83.8815 148.651 84.0981 148.365 84.0981 147.932V142.758C84.0981 141.909 83.8295 141.293 83.2921 140.912C82.7548 140.513 82.0008 140.314 81.0301 140.314C80.2848 140.314 79.5221 140.444 78.7421 140.704C77.9621 140.947 77.3295 141.267 76.8441 141.666V138.676C77.3121 138.381 78.0141 138.121 78.9501 137.896C79.8861 137.671 80.8915 137.558 81.9661 137.558C82.4168 137.558 82.8935 137.601 83.3961 137.688C83.8988 137.775 84.3755 137.913 84.8261 138.104C85.2941 138.295 85.7188 138.563 86.1001 138.91C86.4815 139.239 86.7848 139.664 87.0101 140.184C87.2355 140.687 87.3481 141.302 87.3481 142.03V148.244C87.3481 149.059 87.0881 149.7 86.5681 150.168C86.0481 150.619 85.3288 150.931 84.4101 151.104C83.4915 151.295 82.4081 151.39 81.1601 151.39ZM90.9987 151V139.17C91.2414 139.014 91.666 138.806 92.2727 138.546C92.8967 138.286 93.616 138.061 94.4307 137.87C95.2454 137.662 96.0687 137.558 96.9007 137.558C97.5247 137.558 98.0187 137.61 98.3827 137.714C98.764 137.801 99.0587 137.913 99.2667 138.052V140.548C98.92 140.496 98.5214 140.453 98.0707 140.418C97.6374 140.383 97.1867 140.375 96.7187 140.392C96.268 140.392 95.826 140.409 95.3927 140.444C94.9767 140.479 94.6127 140.522 94.3007 140.574V151H90.9987ZM107.187 151.39C106.286 151.39 105.428 151.286 104.613 151.078C103.798 150.87 103.079 150.506 102.455 149.986C101.831 149.466 101.337 148.747 100.973 147.828C100.626 146.909 100.453 145.739 100.453 144.318C100.453 142.221 100.964 140.565 101.987 139.352C103.01 138.139 104.561 137.532 106.641 137.532C106.936 137.532 107.317 137.567 107.785 137.636C108.253 137.705 108.73 137.827 109.215 138C109.718 138.156 110.151 138.407 110.515 138.754L109.787 139.794V132.462H113.037V147.932C113.037 148.521 112.864 149.033 112.517 149.466C112.188 149.899 111.737 150.263 111.165 150.558C110.593 150.835 109.96 151.043 109.267 151.182C108.574 151.321 107.88 151.39 107.187 151.39ZM107.291 148.582C108.002 148.582 108.591 148.495 109.059 148.322C109.544 148.149 109.787 147.897 109.787 147.568V140.912C109.406 140.687 108.998 140.522 108.565 140.418C108.132 140.314 107.716 140.262 107.317 140.262C106.52 140.262 105.861 140.409 105.341 140.704C104.821 140.981 104.431 141.432 104.171 142.056C103.911 142.663 103.781 143.443 103.781 144.396C103.781 145.228 103.885 145.956 104.093 146.58C104.301 147.204 104.656 147.698 105.159 148.062C105.679 148.409 106.39 148.582 107.291 148.582Z" fill="#666666"/>
<rect x="2" y="2" width="168" height="169" rx="18" stroke="#FBD7CA" stroke-width="4"/>
<path d="M27.2725 68C27.2725 46.0025 25.2725 35.0008 32.1092 28.17C38.94 21.3333 51.9417 21.3333 73.9392 21.3333H97.2725C119.27 21.3333 133.272 21.3333 140.102 28.17C146.939 35.0008 143.939 46.0025 143.939 68C143.939 89.9975 146.939 100.999 140.102 107.83C133.272 114.667 119.27 114.667 97.2725 114.667H73.9392C51.9417 114.667 38.94 114.667 32.1092 107.83C25.2725 100.999 27.2725 89.9975 27.2725 68Z" stroke="#F1612A" stroke-width="4.5"/>
<path d="M73.9391 94.25H50.6058M62.2725 76.75H50.6058M27.2725 56.3333H143.939" stroke="#F1612A" stroke-width="4.5" stroke-linecap="round"/>
<path d="M97.606 83C97.606 74.513 97.606 70.274 100.243 67.637C102.88 65 107.119 65 115.606 65C124.093 65 128.332 65 130.969 67.637C133.606 70.274 133.606 74.513 133.606 83C133.606 91.487 133.606 95.726 130.969 98.363C128.332 101 124.093 101 115.606 101C107.119 101 102.88 101 100.243 98.363C97.606 95.726 97.606 91.487 97.606 83Z" stroke="#F1612A" stroke-width="4.5"/>
</svg>
