<svg width="173" height="173" viewBox="0 0 173 173" fill="none" xmlns="http://www.w3.org/2000/svg">
<rect x="2" y="2" width="169" height="169" rx="18" stroke="#FBD7CA" stroke-width="4"/>
<path d="M142 32V101M32 32V101M114.5 32H59.5C55.8533 32 52.3559 33.4539 49.7773 36.0419C47.1987 38.6299 45.75 42.14 45.75 45.8V87.2C45.75 90.86 47.1987 94.3701 49.7773 96.9581C52.3559 99.5461 55.8533 101 59.5 101H114.5C118.147 101 121.644 99.5461 124.223 96.9581C126.801 94.3701 128.25 90.86 128.25 87.2V45.8C128.25 42.14 126.801 38.6299 124.223 36.0419C121.644 33.4539 118.147 32 114.5 32Z" stroke="#F1612A" stroke-width="4" stroke-linecap="round" stroke-linejoin="round"/>
<path d="M42.741 151.286C40.0023 151.286 37.9223 150.558 36.501 149.102C35.0796 147.629 34.369 145.367 34.369 142.316C34.369 139.352 35.0623 137.116 36.449 135.608C37.8356 134.083 39.933 133.32 42.741 133.32C43.6596 133.32 44.5783 133.433 45.497 133.658C46.433 133.883 47.3343 134.195 48.201 134.594V137.714C47.317 137.159 46.459 136.761 45.627 136.518C44.795 136.275 43.989 136.154 43.209 136.154C42.065 136.154 41.103 136.362 40.323 136.778C39.5603 137.177 38.9796 137.827 38.581 138.728C38.1996 139.629 38.009 140.834 38.009 142.342C38.009 143.833 38.2083 145.029 38.607 145.93C39.0056 146.831 39.595 147.481 40.375 147.88C41.1723 148.279 42.1603 148.478 43.339 148.478C44.0496 148.478 44.8123 148.357 45.627 148.114C46.459 147.871 47.317 147.481 48.201 146.944V150.064C47.6983 150.307 47.135 150.523 46.511 150.714C45.9043 150.905 45.2803 151.043 44.639 151.13C43.9976 151.234 43.365 151.286 42.741 151.286ZM56.2598 151.39C55.5318 151.39 54.8384 151.321 54.1798 151.182C53.5211 151.043 52.9318 150.818 52.4118 150.506C51.8918 150.177 51.4758 149.735 51.1638 149.18C50.8691 148.608 50.7218 147.897 50.7218 147.048C50.7218 146.164 50.9038 145.419 51.2678 144.812C51.6318 144.188 52.1604 143.72 52.8538 143.408C53.5644 143.079 54.4311 142.914 55.4538 142.914C56.0778 142.914 56.6584 142.975 57.1958 143.096C57.7331 143.2 58.2184 143.347 58.6518 143.538C59.0851 143.729 59.4404 143.937 59.7178 144.162L59.9518 146.008C59.5878 145.765 59.1198 145.575 58.5478 145.436C57.9931 145.28 57.3864 145.202 56.7278 145.202C55.8091 145.202 55.1244 145.349 54.6738 145.644C54.2231 145.939 53.9978 146.398 53.9978 147.022C53.9978 147.455 54.1191 147.819 54.3618 148.114C54.6044 148.391 54.9164 148.608 55.2978 148.764C55.6791 148.903 56.0778 148.972 56.4938 148.972C57.4471 148.972 58.1318 148.911 58.5478 148.79C58.9811 148.651 59.1978 148.365 59.1978 147.932V142.758C59.1978 141.909 58.9291 141.293 58.3918 140.912C57.8544 140.513 57.1004 140.314 56.1298 140.314C55.3844 140.314 54.6218 140.444 53.8418 140.704C53.0618 140.947 52.4291 141.267 51.9438 141.666V138.676C52.4118 138.381 53.1138 138.121 54.0498 137.896C54.9858 137.671 55.9911 137.558 57.0658 137.558C57.5164 137.558 57.9931 137.601 58.4958 137.688C58.9984 137.775 59.4751 137.913 59.9258 138.104C60.3938 138.295 60.8184 138.563 61.1998 138.91C61.5811 139.239 61.8844 139.664 62.1098 140.184C62.3351 140.687 62.4478 141.302 62.4478 142.03V148.244C62.4478 149.059 62.1878 149.7 61.6678 150.168C61.1478 150.619 60.4284 150.931 59.5098 151.104C58.5911 151.295 57.5078 151.39 56.2598 151.39ZM66.0983 151V139.17C66.341 139.014 66.7657 138.806 67.3723 138.546C67.9963 138.286 68.7157 138.061 69.5303 137.87C70.345 137.662 71.1683 137.558 72.0003 137.558C72.6243 137.558 73.1183 137.61 73.4823 137.714C73.8637 137.801 74.1583 137.913 74.3663 138.052V140.548C74.0197 140.496 73.621 140.453 73.1703 140.418C72.737 140.383 72.2863 140.375 71.8183 140.392C71.3677 140.392 70.9257 140.409 70.4923 140.444C70.0763 140.479 69.7123 140.522 69.4003 140.574V151H66.0983ZM82.0006 151.39C79.8512 151.39 78.2392 150.792 77.1646 149.596C76.0899 148.4 75.5526 146.675 75.5526 144.422C75.5526 142.013 76.0986 140.262 77.1906 139.17C78.2999 138.078 79.8946 137.532 81.9746 137.532C83.4306 137.532 84.6439 137.792 85.6146 138.312C86.5852 138.815 87.3046 139.577 87.7726 140.6C88.2579 141.623 88.5006 142.897 88.5006 144.422C88.5006 146.675 87.9372 148.4 86.8106 149.596C85.7012 150.792 84.0979 151.39 82.0006 151.39ZM82.0006 148.686C82.7632 148.686 83.3786 148.513 83.8466 148.166C84.3319 147.819 84.6872 147.334 84.9126 146.71C85.1379 146.069 85.2506 145.306 85.2506 144.422C85.2506 143.434 85.1292 142.628 84.8866 142.004C84.6612 141.38 84.3059 140.921 83.8206 140.626C83.3526 140.331 82.7459 140.184 82.0006 140.184C81.2379 140.184 80.6226 140.34 80.1546 140.652C79.6866 140.964 79.3399 141.432 79.1146 142.056C78.9066 142.68 78.8026 143.469 78.8026 144.422C78.8026 145.809 79.0539 146.866 79.5566 147.594C80.0592 148.322 80.8739 148.686 82.0006 148.686ZM97.4182 151.39C96.2048 151.39 95.1475 151.199 94.2462 150.818C93.3622 150.419 92.6688 149.83 92.1662 149.05C91.6808 148.27 91.4382 147.273 91.4382 146.06V137.896H94.7402V145.722C94.7402 146.693 94.9568 147.412 95.3902 147.88C95.8235 148.348 96.4995 148.582 97.4182 148.582C98.3715 148.582 99.0562 148.348 99.4722 147.88C99.9055 147.412 100.122 146.693 100.122 145.722V137.896H103.242V146.06C103.242 147.863 102.722 149.206 101.682 150.09C100.659 150.957 99.2382 151.39 97.4182 151.39ZM110.724 151.39C109.788 151.39 108.99 151.286 108.332 151.078C107.673 150.887 107.04 150.653 106.434 150.376V147.412C106.832 147.672 107.248 147.923 107.682 148.166C108.132 148.391 108.609 148.573 109.112 148.712C109.632 148.851 110.186 148.92 110.776 148.92C111.469 148.92 111.98 148.79 112.31 148.53C112.656 148.253 112.83 147.923 112.83 147.542C112.83 147.178 112.7 146.901 112.44 146.71C112.18 146.502 111.842 146.329 111.426 146.19C111.01 146.051 110.568 145.913 110.1 145.774C109.666 145.67 109.224 145.531 108.774 145.358C108.34 145.185 107.942 144.951 107.578 144.656C107.214 144.361 106.919 143.989 106.694 143.538C106.486 143.07 106.382 142.507 106.382 141.848C106.382 141.068 106.538 140.409 106.85 139.872C107.162 139.335 107.569 138.901 108.072 138.572C108.574 138.243 109.129 138.009 109.736 137.87C110.342 137.714 110.932 137.636 111.504 137.636C112.492 137.671 113.289 137.792 113.896 138C114.502 138.191 115.074 138.442 115.612 138.754L115.638 141.432C115.031 141.103 114.442 140.808 113.87 140.548C113.298 140.271 112.648 140.132 111.92 140.132C111.244 140.132 110.715 140.253 110.334 140.496C109.97 140.721 109.788 141.042 109.788 141.458C109.788 141.822 109.9 142.117 110.126 142.342C110.351 142.567 110.646 142.741 111.01 142.862C111.374 142.983 111.772 143.105 112.206 143.226C112.639 143.347 113.09 143.486 113.558 143.642C114.026 143.781 114.459 143.989 114.858 144.266C115.256 144.543 115.577 144.916 115.82 145.384C116.08 145.835 116.21 146.441 116.21 147.204C116.192 148.209 115.924 149.024 115.404 149.648C114.884 150.255 114.199 150.697 113.35 150.974C112.518 151.251 111.642 151.39 110.724 151.39ZM124.962 151.39C123.662 151.39 122.527 151.13 121.556 150.61C120.585 150.073 119.831 149.293 119.294 148.27C118.757 147.247 118.488 146.017 118.488 144.578C118.488 142.29 119.034 140.548 120.126 139.352C121.235 138.139 122.787 137.532 124.78 137.532C126.219 137.532 127.371 137.844 128.238 138.468C129.122 139.092 129.763 139.985 130.162 141.146C130.578 142.29 130.777 143.659 130.76 145.254H120.62L120.36 143.018H128.134L127.51 143.954C127.475 142.585 127.233 141.605 126.782 141.016C126.349 140.409 125.647 140.106 124.676 140.106C124.087 140.106 123.567 140.245 123.116 140.522C122.683 140.782 122.345 141.224 122.102 141.848C121.877 142.472 121.764 143.33 121.764 144.422C121.764 145.774 122.085 146.814 122.726 147.542C123.367 148.253 124.347 148.608 125.664 148.608C126.201 148.608 126.713 148.556 127.198 148.452C127.701 148.331 128.16 148.192 128.576 148.036C129.009 147.88 129.373 147.733 129.668 147.594V150.506C129.061 150.766 128.368 150.974 127.588 151.13C126.825 151.303 125.95 151.39 124.962 151.39ZM136.939 151H133.663V132.956H136.939V151Z" fill="#666666"/>
</svg>
