<svg width="173" height="173" viewBox="0 0 173 173" fill="none" xmlns="http://www.w3.org/2000/svg">
<rect x="2" y="2" width="169" height="169" rx="18" stroke="#FBD7CA" stroke-width="4"/>
<rect x="49" y="18" width="74.697" height="94" rx="8" stroke="#F1612A" stroke-width="4"/>
<rect x="61.1061" y="40.5" width="46.1528" height="4.45455" fill="#F1612A"/>
<rect x="61.1061" y="49.4091" width="49.7424" height="4.45455" fill="#F1612A"/>
<rect x="61.1061" y="58.3182" width="47.6912" height="4.45455" fill="#F1612A"/>
<rect x="61.1061" y="67.2273" width="44.6143" height="4.45455" fill="#F1612A"/>
<rect x="61.1061" y="76.1364" width="49.7424" height="4.45455" fill="#F1612A"/>
<rect x="61.1061" y="85.0455" width="19.9995" height="4.45455" fill="#F1612A"/>
<path d="M25.1209 151V133.658H31.6469C34.5242 133.658 36.6476 134.386 38.0169 135.842C39.4036 137.298 40.0969 139.456 40.0969 142.316C40.0969 145.176 39.4036 147.343 38.0169 148.816C36.6476 150.272 34.5242 151 31.6469 151H25.1209ZM28.6569 148.166H31.2569C33.0076 148.166 34.3162 147.707 35.1829 146.788C36.0496 145.852 36.4829 144.361 36.4829 142.316C36.4829 140.288 36.0496 138.806 35.1829 137.87C34.3162 136.934 33.0076 136.466 31.2569 136.466H28.6569V148.166ZM48.8912 151.39C46.7419 151.39 45.1299 150.792 44.0552 149.596C42.9805 148.4 42.4432 146.675 42.4432 144.422C42.4432 142.013 42.9892 140.262 44.0812 139.17C45.1905 138.078 46.7852 137.532 48.8652 137.532C50.3212 137.532 51.5345 137.792 52.5052 138.312C53.4759 138.815 54.1952 139.577 54.6632 140.6C55.1485 141.623 55.3912 142.897 55.3912 144.422C55.3912 146.675 54.8279 148.4 53.7012 149.596C52.5919 150.792 50.9885 151.39 48.8912 151.39ZM48.8912 148.686C49.6539 148.686 50.2692 148.513 50.7372 148.166C51.2225 147.819 51.5779 147.334 51.8032 146.71C52.0285 146.069 52.1412 145.306 52.1412 144.422C52.1412 143.434 52.0199 142.628 51.7772 142.004C51.5519 141.38 51.1965 140.921 50.7112 140.626C50.2432 140.331 49.6365 140.184 48.8912 140.184C48.1285 140.184 47.5132 140.34 47.0452 140.652C46.5772 140.964 46.2305 141.432 46.0052 142.056C45.7972 142.68 45.6932 143.469 45.6932 144.422C45.6932 145.809 45.9445 146.866 46.4472 147.594C46.9499 148.322 47.7645 148.686 48.8912 148.686ZM64.2828 151.286C63.4161 151.286 62.5841 151.165 61.7868 150.922C60.9895 150.679 60.2788 150.289 59.6548 149.752C59.0308 149.215 58.5368 148.521 58.1728 147.672C57.8088 146.823 57.6268 145.791 57.6268 144.578C57.6268 143.313 57.8001 142.238 58.1468 141.354C58.4935 140.47 58.9701 139.751 59.5768 139.196C60.1835 138.624 60.8855 138.217 61.6828 137.974C62.4975 137.714 63.3555 137.584 64.2568 137.584C64.9501 137.584 65.6608 137.653 66.3888 137.792C67.1168 137.931 67.7668 138.13 68.3388 138.39V141.25C67.7495 140.99 67.1601 140.782 66.5708 140.626C65.9815 140.453 65.3748 140.366 64.7508 140.366C63.5375 140.366 62.5928 140.669 61.9168 141.276C61.2408 141.883 60.9028 142.879 60.9028 144.266C60.9028 145.687 61.2061 146.745 61.8128 147.438C62.4368 148.131 63.4595 148.478 64.8808 148.478C65.5221 148.478 66.1461 148.383 66.7528 148.192C67.3595 147.984 67.8968 147.759 68.3648 147.516V150.402C67.7581 150.697 67.1255 150.913 66.4668 151.052C65.8081 151.208 65.0801 151.286 64.2828 151.286ZM77.2834 151.39C76.0701 151.39 75.0127 151.199 74.1114 150.818C73.2274 150.419 72.5341 149.83 72.0314 149.05C71.5461 148.27 71.3034 147.273 71.3034 146.06V137.896H74.6054V145.722C74.6054 146.693 74.8221 147.412 75.2554 147.88C75.6887 148.348 76.3647 148.582 77.2834 148.582C78.2367 148.582 78.9214 148.348 79.3374 147.88C79.7707 147.412 79.9874 146.693 79.9874 145.722V137.896H83.1074V146.06C83.1074 147.863 82.5874 149.206 81.5474 150.09C80.5247 150.957 79.1034 151.39 77.2834 151.39ZM98.4929 142.264V151H95.2169V142.836C95.2169 142.507 95.1736 142.195 95.0869 141.9C95.0002 141.588 94.8529 141.319 94.6449 141.094C94.4369 140.851 94.1509 140.669 93.7869 140.548C93.4229 140.409 92.9549 140.34 92.3829 140.34C91.9496 140.34 91.5249 140.383 91.1089 140.47C90.7102 140.557 90.3549 140.669 90.0429 140.808V151H86.7409V138.988C87.1049 138.815 87.5382 138.641 88.0409 138.468C88.5436 138.295 89.0896 138.147 89.6789 138.026C90.2682 137.887 90.8576 137.783 91.4469 137.714C92.0536 137.627 92.6256 137.584 93.1629 137.584C94.3762 137.584 95.3729 137.749 96.1529 138.078C96.9329 138.39 97.5136 138.893 97.8949 139.586C98.2936 140.262 98.4929 141.155 98.4929 142.264ZM94.9569 139.768C95.5116 139.3 96.1442 138.91 96.8549 138.598C97.5656 138.269 98.3109 138.017 99.0909 137.844C99.8709 137.671 100.616 137.584 101.327 137.584C102.54 137.584 103.537 137.749 104.317 138.078C105.097 138.39 105.678 138.893 106.059 139.586C106.458 140.262 106.657 141.155 106.657 142.264V151H103.381V142.836C103.381 142.507 103.338 142.195 103.251 141.9C103.164 141.588 103.017 141.319 102.809 141.094C102.601 140.851 102.315 140.669 101.951 140.548C101.587 140.409 101.119 140.34 100.547 140.34C100.114 140.34 99.6889 140.401 99.2729 140.522C98.8742 140.643 98.5189 140.825 98.2069 141.068L94.9569 139.768ZM116.075 151.39C114.775 151.39 113.64 151.13 112.669 150.61C111.699 150.073 110.945 149.293 110.407 148.27C109.87 147.247 109.601 146.017 109.601 144.578C109.601 142.29 110.147 140.548 111.239 139.352C112.349 138.139 113.9 137.532 115.893 137.532C117.332 137.532 118.485 137.844 119.351 138.468C120.235 139.092 120.877 139.985 121.275 141.146C121.691 142.29 121.891 143.659 121.873 145.254H111.733L111.473 143.018H119.247L118.623 143.954C118.589 142.585 118.346 141.605 117.895 141.016C117.462 140.409 116.76 140.106 115.789 140.106C115.2 140.106 114.68 140.245 114.229 140.522C113.796 140.782 113.458 141.224 113.215 141.848C112.99 142.472 112.877 143.33 112.877 144.422C112.877 145.774 113.198 146.814 113.839 147.542C114.481 148.253 115.46 148.608 116.777 148.608C117.315 148.608 117.826 148.556 118.311 148.452C118.814 148.331 119.273 148.192 119.689 148.036C120.123 147.88 120.487 147.733 120.781 147.594V150.506C120.175 150.766 119.481 150.974 118.701 151.13C117.939 151.303 117.063 151.39 116.075 151.39ZM124.776 138.988C125.14 138.815 125.573 138.641 126.076 138.468C126.579 138.295 127.125 138.147 127.714 138.026C128.303 137.887 128.893 137.783 129.482 137.714C130.089 137.627 130.661 137.584 131.198 137.584C132.411 137.584 133.417 137.749 134.214 138.078C135.029 138.39 135.635 138.893 136.034 139.586C136.45 140.262 136.658 141.155 136.658 142.264V151H133.382V142.836C133.382 142.507 133.339 142.195 133.252 141.9C133.165 141.588 133.018 141.319 132.81 141.094C132.602 140.851 132.316 140.669 131.952 140.548C131.588 140.409 131.12 140.34 130.548 140.34C130.115 140.34 129.673 140.383 129.222 140.47C128.771 140.557 128.39 140.669 128.078 140.808V151H124.776V138.988ZM145.308 151.416C143.956 151.416 142.924 151.087 142.214 150.428C141.503 149.752 141.148 148.781 141.148 147.516V140.496H139.12V137.896H141.148V134.282H144.554V137.896H147.596V140.496H144.554V146.996C144.554 147.533 144.658 147.932 144.866 148.192C145.074 148.452 145.438 148.582 145.958 148.582C146.235 148.582 146.521 148.539 146.816 148.452C147.128 148.348 147.388 148.227 147.596 148.088V150.948C147.249 151.121 146.868 151.243 146.452 151.312C146.053 151.381 145.672 151.416 145.308 151.416Z" fill="#666666"/>
</svg>
