<svg width="172" height="173" viewBox="0 0 172 173" fill="none" xmlns="http://www.w3.org/2000/svg">
<path d="M53.1697 154V136.658H64.7917V139.492H56.7057V143.886H63.7257V146.746H56.7057V151.166H64.7917V154H53.1697ZM72.7443 154L67.2583 140.896H70.7943L75.0323 151.4L74.2263 151.452L78.1003 140.896H81.5323L76.0463 154H72.7443ZM89.0266 154.39C87.7266 154.39 86.5912 154.13 85.6206 153.61C84.6499 153.073 83.8959 152.293 83.3586 151.27C82.8212 150.247 82.5526 149.017 82.5526 147.578C82.5526 145.29 83.0986 143.548 84.1906 142.352C85.2999 141.139 86.8512 140.532 88.8446 140.532C90.2832 140.532 91.4359 140.844 92.3026 141.468C93.1866 142.092 93.8279 142.985 94.2266 144.146C94.6426 145.29 94.8419 146.659 94.8246 148.254H84.6846L84.4246 146.018H92.1986L91.5746 146.954C91.5399 145.585 91.2972 144.605 90.8466 144.016C90.4132 143.409 89.7112 143.106 88.7406 143.106C88.1512 143.106 87.6312 143.245 87.1806 143.522C86.7472 143.782 86.4092 144.224 86.1666 144.848C85.9412 145.472 85.8286 146.33 85.8286 147.422C85.8286 148.774 86.1492 149.814 86.7906 150.542C87.4319 151.253 88.4112 151.608 89.7286 151.608C90.2659 151.608 90.7772 151.556 91.2626 151.452C91.7652 151.331 92.2246 151.192 92.6406 151.036C93.0739 150.88 93.4379 150.733 93.7326 150.594V153.506C93.1259 153.766 92.4326 153.974 91.6526 154.13C90.8899 154.303 90.0146 154.39 89.0266 154.39ZM97.7272 141.988C98.0912 141.815 98.5246 141.641 99.0272 141.468C99.5299 141.295 100.076 141.147 100.665 141.026C101.255 140.887 101.844 140.783 102.433 140.714C103.04 140.627 103.612 140.584 104.149 140.584C105.363 140.584 106.368 140.749 107.165 141.078C107.98 141.39 108.587 141.893 108.985 142.586C109.401 143.262 109.609 144.155 109.609 145.264V154H106.333V145.836C106.333 145.507 106.29 145.195 106.203 144.9C106.117 144.588 105.969 144.319 105.761 144.094C105.553 143.851 105.267 143.669 104.903 143.548C104.539 143.409 104.071 143.34 103.499 143.34C103.066 143.34 102.624 143.383 102.173 143.47C101.723 143.557 101.341 143.669 101.029 143.808V154H97.7272V141.988ZM118.259 154.416C116.907 154.416 115.876 154.087 115.165 153.428C114.454 152.752 114.099 151.781 114.099 150.516V143.496H112.071V140.896H114.099V137.282H117.505V140.896H120.547V143.496H117.505V149.996C117.505 150.533 117.609 150.932 117.817 151.192C118.025 151.452 118.389 151.582 118.909 151.582C119.186 151.582 119.472 151.539 119.767 151.452C120.079 151.348 120.339 151.227 120.547 151.088V153.948C120.2 154.121 119.819 154.243 119.403 154.312C119.004 154.381 118.623 154.416 118.259 154.416Z" fill="#666666"/>
<rect x="2" y="2" width="168" height="169" rx="18" stroke="#FBD7CA" stroke-width="4"/>
<path d="M125.656 27.7188H111.875V21.8125C111.875 21.2904 111.668 20.7896 111.298 20.4204C110.929 20.0512 110.428 19.8438 109.906 19.8438C109.384 19.8438 108.883 20.0512 108.514 20.4204C108.145 20.7896 107.938 21.2904 107.938 21.8125V27.7188H64.625V21.8125C64.625 21.2904 64.4176 20.7896 64.0484 20.4204C63.6792 20.0512 63.1784 19.8438 62.6562 19.8438C62.1341 19.8438 61.6333 20.0512 61.2641 20.4204C60.8949 20.7896 60.6875 21.2904 60.6875 21.8125V27.7188H46.9062C45.3398 27.7188 43.8375 28.341 42.7299 29.4486C41.6223 30.5563 41 32.0586 41 33.625V112.375C41 113.941 41.6223 115.444 42.7299 116.551C43.8375 117.659 45.3398 118.281 46.9062 118.281H125.656C127.223 118.281 128.725 117.659 129.833 116.551C130.94 115.444 131.562 113.941 131.562 112.375V33.625C131.562 32.0586 130.94 30.5563 129.833 29.4486C128.725 28.341 127.223 27.7188 125.656 27.7188ZM46.9062 31.6562H60.6875V37.5625C60.6875 38.0846 60.8949 38.5854 61.2641 38.9546C61.6333 39.3238 62.1341 39.5312 62.6562 39.5312C63.1784 39.5312 63.6792 39.3238 64.0484 38.9546C64.4176 38.5854 64.625 38.0846 64.625 37.5625V31.6562H107.938V37.5625C107.938 38.0846 108.145 38.5854 108.514 38.9546C108.883 39.3238 109.384 39.5312 109.906 39.5312C110.428 39.5312 110.929 39.3238 111.298 38.9546C111.668 38.5854 111.875 38.0846 111.875 37.5625V31.6562H125.656C126.178 31.6562 126.679 31.8637 127.048 32.2329C127.418 32.6021 127.625 33.1029 127.625 33.625V51.3438H44.9375V33.625C44.9375 33.1029 45.1449 32.6021 45.5141 32.2329C45.8833 31.8637 46.3841 31.6562 46.9062 31.6562ZM125.656 114.344H46.9062C46.3841 114.344 45.8833 114.136 45.5141 113.767C45.1449 113.398 44.9375 112.897 44.9375 112.375V55.2812H127.625V112.375C127.625 112.897 127.418 113.398 127.048 113.767C126.679 114.136 126.178 114.344 125.656 114.344ZM76.4375 69.0625V100.562C76.4375 101.085 76.2301 101.585 75.8609 101.955C75.4917 102.324 74.9909 102.531 74.4688 102.531C73.9466 102.531 73.4458 102.324 73.0766 101.955C72.7074 101.585 72.5 101.085 72.5 100.562V72.247L67.4748 74.762C67.0074 74.9957 66.4664 75.0341 65.9708 74.8689C65.4751 74.7037 65.0654 74.3483 64.8317 73.881C64.5981 73.4137 64.5596 72.8727 64.7248 72.377C64.8901 71.8814 65.2454 71.4716 65.7127 71.238L73.5877 67.3005C73.888 67.1502 74.2217 67.0793 74.5571 67.0943C74.8925 67.1094 75.2185 67.21 75.5041 67.3866C75.7897 67.5632 76.0254 67.8098 76.1887 68.1032C76.3521 68.3965 76.4377 68.7267 76.4375 69.0625ZM105.969 82.8438L94.1562 98.5938H105.969C106.491 98.5938 106.992 98.8012 107.361 99.1704C107.73 99.5396 107.938 100.04 107.938 100.562C107.938 101.085 107.73 101.585 107.361 101.955C106.992 102.324 106.491 102.531 105.969 102.531H90.2188C89.8531 102.531 89.4947 102.429 89.1837 102.237C88.8727 102.045 88.6214 101.77 88.4578 101.443C88.2943 101.116 88.2251 100.75 88.258 100.386C88.2908 100.022 88.4244 99.6737 88.6438 99.3813L102.809 80.496C103.586 79.4729 104.005 78.2223 104 76.9375C104.001 75.6361 103.573 74.3707 102.781 73.3378C101.99 72.305 100.879 71.5625 99.6219 71.2258C98.3648 70.8891 97.0318 70.977 95.8298 71.4758C94.6278 71.9747 93.6242 72.8565 92.975 73.9844C92.7026 74.4129 92.2751 74.7196 91.7819 74.8404C91.2887 74.9612 90.7679 74.8868 90.3283 74.6327C89.8887 74.3786 89.5642 73.9644 89.4228 73.4767C89.2813 72.989 89.3337 72.4656 89.5691 72.0156C90.6526 70.1391 92.325 68.6726 94.327 67.8434C96.3289 67.0142 98.5485 66.8688 100.642 67.4296C102.735 67.9904 104.584 69.2262 105.903 70.9453C107.222 72.6643 107.937 74.7706 107.938 76.9375C107.945 79.0686 107.253 81.1434 105.969 82.8438Z" fill="#F1612A"/>
</svg>
