<svg width="173" height="173" viewBox="0 0 173 173" fill="none" xmlns="http://www.w3.org/2000/svg">
<rect x="2" y="2" width="169" height="169" rx="18" stroke="#FBD7CA" stroke-width="4"/>
<path d="M48.0232 151V133.658H59.4892V136.492H51.5592V141.146H58.4492V144.006H51.5592V151H48.0232ZM67.5533 151.39C65.404 151.39 63.792 150.792 62.7173 149.596C61.6426 148.4 61.1053 146.675 61.1053 144.422C61.1053 142.013 61.6513 140.262 62.7433 139.17C63.8526 138.078 65.4473 137.532 67.5273 137.532C68.9833 137.532 70.1966 137.792 71.1673 138.312C72.138 138.815 72.8573 139.577 73.3253 140.6C73.8106 141.623 74.0533 142.897 74.0533 144.422C74.0533 146.675 73.49 148.4 72.3633 149.596C71.254 150.792 69.6506 151.39 67.5533 151.39ZM67.5533 148.686C68.316 148.686 68.9313 148.513 69.3993 148.166C69.8846 147.819 70.24 147.334 70.4653 146.71C70.6906 146.069 70.8033 145.306 70.8033 144.422C70.8033 143.434 70.682 142.628 70.4393 142.004C70.214 141.38 69.8586 140.921 69.3733 140.626C68.9053 140.331 68.2986 140.184 67.5533 140.184C66.7906 140.184 66.1753 140.34 65.7073 140.652C65.2393 140.964 64.8926 141.432 64.6673 142.056C64.4593 142.68 64.3553 143.469 64.3553 144.422C64.3553 145.809 64.6066 146.866 65.1093 147.594C65.612 148.322 66.4266 148.686 67.5533 148.686ZM82.7369 151.39C80.5876 151.39 78.9756 150.792 77.9009 149.596C76.8262 148.4 76.2889 146.675 76.2889 144.422C76.2889 142.013 76.8349 140.262 77.9269 139.17C79.0362 138.078 80.6309 137.532 82.7109 137.532C84.1669 137.532 85.3802 137.792 86.3509 138.312C87.3216 138.815 88.0409 139.577 88.5089 140.6C88.9942 141.623 89.2369 142.897 89.2369 144.422C89.2369 146.675 88.6736 148.4 87.5469 149.596C86.4376 150.792 84.8342 151.39 82.7369 151.39ZM82.7369 148.686C83.4996 148.686 84.1149 148.513 84.5829 148.166C85.0682 147.819 85.4236 147.334 85.6489 146.71C85.8742 146.069 85.9869 145.306 85.9869 144.422C85.9869 143.434 85.8656 142.628 85.6229 142.004C85.3976 141.38 85.0422 140.921 84.5569 140.626C84.0889 140.331 83.4822 140.184 82.7369 140.184C81.9742 140.184 81.3589 140.34 80.8909 140.652C80.4229 140.964 80.0762 141.432 79.8509 142.056C79.6429 142.68 79.5389 143.469 79.5389 144.422C79.5389 145.809 79.7902 146.866 80.2929 147.594C80.7956 148.322 81.6102 148.686 82.7369 148.686ZM97.1925 151.416C95.8405 151.416 94.8092 151.087 94.0985 150.428C93.3878 149.752 93.0325 148.781 93.0325 147.516V140.496H91.0045V137.896H93.0325V134.282H96.4385V137.896H99.4805V140.496H96.4385V146.996C96.4385 147.533 96.5425 147.932 96.7505 148.192C96.9585 148.452 97.3225 148.582 97.8425 148.582C98.1198 148.582 98.4058 148.539 98.7005 148.452C99.0125 148.348 99.2725 148.227 99.4805 148.088V150.948C99.1338 151.121 98.7525 151.243 98.3365 151.312C97.9378 151.381 97.5565 151.416 97.1925 151.416ZM108.306 151.39C107.006 151.39 105.871 151.13 104.9 150.61C103.929 150.073 103.175 149.293 102.638 148.27C102.101 147.247 101.832 146.017 101.832 144.578C101.832 142.29 102.378 140.548 103.47 139.352C104.579 138.139 106.131 137.532 108.124 137.532C109.563 137.532 110.715 137.844 111.582 138.468C112.466 139.092 113.107 139.985 113.506 141.146C113.922 142.29 114.121 143.659 114.104 145.254H103.964L103.704 143.018H111.478L110.854 143.954C110.819 142.585 110.577 141.605 110.126 141.016C109.693 140.409 108.991 140.106 108.02 140.106C107.431 140.106 106.911 140.245 106.46 140.522C106.027 140.782 105.689 141.224 105.446 141.848C105.221 142.472 105.108 143.33 105.108 144.422C105.108 145.774 105.429 146.814 106.07 147.542C106.711 148.253 107.691 148.608 109.008 148.608C109.545 148.608 110.057 148.556 110.542 148.452C111.045 148.331 111.504 148.192 111.92 148.036C112.353 147.88 112.717 147.733 113.012 147.594V150.506C112.405 150.766 111.712 150.974 110.932 151.13C110.169 151.303 109.294 151.39 108.306 151.39ZM117.007 151V139.17C117.249 139.014 117.674 138.806 118.281 138.546C118.905 138.286 119.624 138.061 120.439 137.87C121.253 137.662 122.077 137.558 122.909 137.558C123.533 137.558 124.027 137.61 124.391 137.714C124.772 137.801 125.067 137.913 125.275 138.052V140.548C124.928 140.496 124.529 140.453 124.079 140.418C123.645 140.383 123.195 140.375 122.727 140.392C122.276 140.392 121.834 140.409 121.401 140.444C120.985 140.479 120.621 140.522 120.309 140.574V151H117.007Z" fill="#666666"/>
<rect x="16" y="88" width="140.757" height="28" rx="5" fill="#FBD7CA"/>
<rect x="16" y="22" width="141" height="66" rx="5" fill="#F6F6F6"/>
<path d="M45.1642 92.5405H27.7006C26.2539 92.5405 25.0811 93.7163 25.0811 95.1666V109.173C25.0811 110.623 26.2539 111.799 27.7006 111.799H45.1642C46.6109 111.799 47.7838 110.623 47.7838 109.173V95.1666C47.7838 93.7163 46.6109 92.5405 45.1642 92.5405Z" stroke="#F1612A" stroke-linejoin="round"/>
<path d="M40.8164 99.5862C41.8108 99.5862 42.617 98.7801 42.617 97.7857C42.617 96.7912 41.8108 95.9851 40.8164 95.9851C39.822 95.9851 39.0159 96.7912 39.0159 97.7857C39.0159 98.7801 39.822 99.5862 40.8164 99.5862Z" stroke="#F1612A" stroke-miterlimit="10"/>
<path d="M39.0519 106.498L34.1043 101.512C33.7895 101.194 33.3663 101.009 32.9213 100.996C32.4763 100.983 32.0431 101.142 31.7101 101.44L25.0811 107.391M34.686 111.799L41.4172 105.003C41.725 104.691 42.137 104.507 42.5723 104.487C43.0077 104.467 43.4348 104.611 43.7699 104.893L47.7838 108.272" stroke="#F1612A" stroke-linecap="round" stroke-linejoin="round"/>
<path d="M71.6406 96.4219H90.4138M71.6406 101.5H90.4138M71.6406 106.578H90.4138" stroke="#F1612A" stroke-width="2" stroke-miterlimit="10" stroke-linecap="round"/>
<path d="M98.6406 96.4219H117.414M98.6406 101.5H117.414M98.6406 106.578H117.414" stroke="#F1612A" stroke-width="2" stroke-miterlimit="10" stroke-linecap="round"/>
<path d="M125.641 96.4219H144.414M125.641 101.5H144.414M125.641 106.578H144.414" stroke="#F1612A" stroke-width="2" stroke-miterlimit="10" stroke-linecap="round"/>
</svg>
