<svg width="172" height="173" viewBox="0 0 172 173" fill="none" xmlns="http://www.w3.org/2000/svg">
<rect x="2" y="2" width="168" height="169" rx="18" stroke="#FBD7CA" stroke-width="4"/>
<path d="M56.2498 151V133.658H67.7158V136.492H59.7858V141.146H66.6758V144.006H59.7858V151H56.2498ZM75.7799 151.39C73.6305 151.39 72.0185 150.792 70.9439 149.596C69.8692 148.4 69.3319 146.675 69.3319 144.422C69.3319 142.013 69.8779 140.262 70.9699 139.17C72.0792 138.078 73.6739 137.532 75.7539 137.532C77.2099 137.532 78.4232 137.792 79.3939 138.312C80.3645 138.815 81.0839 139.577 81.5519 140.6C82.0372 141.623 82.2799 142.897 82.2799 144.422C82.2799 146.675 81.7165 148.4 80.5899 149.596C79.4805 150.792 77.8772 151.39 75.7799 151.39ZM75.7799 148.686C76.5425 148.686 77.1579 148.513 77.6259 148.166C78.1112 147.819 78.4665 147.334 78.6919 146.71C78.9172 146.069 79.0299 145.306 79.0299 144.422C79.0299 143.434 78.9085 142.628 78.6659 142.004C78.4405 141.38 78.0852 140.921 77.5999 140.626C77.1319 140.331 76.5252 140.184 75.7799 140.184C75.0172 140.184 74.4019 140.34 73.9339 140.652C73.4659 140.964 73.1192 141.432 72.8939 142.056C72.6859 142.68 72.5819 143.469 72.5819 144.422C72.5819 145.809 72.8332 146.866 73.3359 147.594C73.8385 148.322 74.6532 148.686 75.7799 148.686ZM85.2175 151V139.17C85.4601 139.014 85.8848 138.806 86.4915 138.546C87.1155 138.286 87.8348 138.061 88.6495 137.87C89.4641 137.662 90.2875 137.558 91.1195 137.558C91.7435 137.558 92.2375 137.61 92.6015 137.714C92.9828 137.801 93.2775 137.913 93.4855 138.052V140.548C93.1388 140.496 92.7401 140.453 92.2895 140.418C91.8561 140.383 91.4055 140.375 90.9375 140.392C90.4868 140.392 90.0448 140.409 89.6115 140.444C89.1955 140.479 88.8315 140.522 88.5195 140.574V151H85.2175ZM107.71 142.264V151H104.434V142.836C104.434 142.507 104.39 142.195 104.304 141.9C104.217 141.588 104.07 141.319 103.862 141.094C103.654 140.851 103.368 140.669 103.004 140.548C102.64 140.409 102.172 140.34 101.6 140.34C101.166 140.34 100.742 140.383 100.326 140.47C99.927 140.557 99.5717 140.669 99.2597 140.808V151H95.9577V138.988C96.3217 138.815 96.755 138.641 97.2577 138.468C97.7604 138.295 98.3064 138.147 98.8957 138.026C99.485 137.887 100.074 137.783 100.664 137.714C101.27 137.627 101.842 137.584 102.38 137.584C103.593 137.584 104.59 137.749 105.37 138.078C106.15 138.39 106.73 138.893 107.112 139.586C107.51 140.262 107.71 141.155 107.71 142.264ZM104.174 139.768C104.728 139.3 105.361 138.91 106.072 138.598C106.782 138.269 107.528 138.017 108.308 137.844C109.088 137.671 109.833 137.584 110.544 137.584C111.757 137.584 112.754 137.749 113.534 138.078C114.314 138.39 114.894 138.893 115.276 139.586C115.674 140.262 115.874 141.155 115.874 142.264V151H112.598V142.836C112.598 142.507 112.554 142.195 112.468 141.9C112.381 141.588 112.234 141.319 112.026 141.094C111.818 140.851 111.532 140.669 111.168 140.548C110.804 140.409 110.336 140.34 109.764 140.34C109.33 140.34 108.906 140.401 108.49 140.522C108.091 140.643 107.736 140.825 107.424 141.068L104.174 139.768Z" fill="#666666"/>
<g clip-path="url(#clip0_43_1219)">
<path d="M94.1666 51.6667H56.0555C55.3335 51.6667 54.6411 51.3799 54.1306 50.8694C53.6201 50.3588 53.3333 49.6664 53.3333 48.9445V38.0556C53.3333 37.3336 53.6201 36.6412 54.1306 36.1307C54.6411 35.6201 55.3335 35.3333 56.0555 35.3333H94.1666C94.8886 35.3333 95.581 35.6201 96.0915 36.1307C96.602 36.6412 96.8888 37.3336 96.8888 38.0556V48.9445C96.8888 49.6664 96.602 50.3588 96.0915 50.8694C95.581 51.3799 94.8886 51.6667 94.1666 51.6667ZM58.7777 46.2222H91.4444V40.6145H58.7777V46.2222Z" fill="#F1612A"/>
<path d="M94.1666 57.3289H56.0555C55.3335 57.3289 54.6411 57.6157 54.1306 58.1262C53.6201 58.6367 53.3333 59.3291 53.3333 60.0511V70.7222C53.3333 71.4442 53.6201 72.1366 54.1306 72.6471C54.6411 73.1576 55.3335 73.4444 56.0555 73.4444H86.9799L96.8888 63.3722V60.0511C96.8888 59.3291 96.602 58.6367 96.0915 58.1262C95.581 57.6157 94.8886 57.3289 94.1666 57.3289ZM91.4444 68H58.7777V62.5556H91.4444V68Z" fill="#F1612A"/>
<path d="M67.1077 104.777V104.614L67.9788 100.83H47.8888V29.8889H102.333V57.7917L107.778 52.6467V27.1667C107.778 26.4447 107.491 25.7523 106.98 25.2418C106.47 24.7313 105.777 24.4445 105.055 24.4445H45.1666C44.4446 24.4445 43.7522 24.7313 43.2417 25.2418C42.7311 25.7523 42.4443 26.4447 42.4443 27.1667V103.389C42.4443 104.111 42.7311 104.803 43.2417 105.314C43.7522 105.824 44.4446 106.111 45.1666 106.111H66.9443C66.9668 105.663 67.0214 105.217 67.1077 104.777Z" fill="#F1612A"/>
<path d="M96.889 71.185L94.7656 73.3356C95.2924 73.227 95.7752 72.9647 96.1531 72.582C96.531 72.1992 96.7871 71.7131 96.889 71.185Z" fill="#F1612A"/>
<path d="M53.3333 92.3367C53.3333 93.0586 53.6201 93.751 54.1306 94.2616C54.6411 94.7721 55.3335 95.0589 56.0555 95.0589H69.231L70.0477 91.52L70.4016 90.0228V89.8867H58.7777V84.3333H76.0366L81.481 78.8889H56.0555C55.3335 78.8889 54.6411 79.1757 54.1306 79.6862C53.6201 80.1967 53.3333 80.8891 53.3333 81.6111V92.3367Z" fill="#F1612A"/>
<path d="M128.167 64.3795L118.993 55.2056C118.586 54.7973 118.103 54.4734 117.57 54.2524C117.037 54.0314 116.467 53.9176 115.89 53.9176C115.313 53.9176 114.743 54.0314 114.21 54.2524C113.677 54.4734 113.194 54.7973 112.787 55.2056L75.465 92.745L72.3889 105.839C72.2737 106.404 72.2711 106.986 72.3813 107.552C72.4914 108.118 72.7121 108.656 73.0307 109.137C73.3493 109.617 73.7596 110.03 74.2381 110.352C74.7165 110.673 75.2537 110.897 75.8189 111.011C76.0995 111.039 76.3822 111.039 76.6628 111.011C76.9963 111.065 77.3364 111.065 77.67 111.011L90.8728 108.098L128.167 70.7222C128.575 70.3174 128.898 69.836 129.119 69.3058C129.339 68.7755 129.453 68.2068 129.453 67.6325C129.453 67.0582 129.339 66.4895 129.119 65.9592C128.898 65.429 128.575 64.9476 128.167 64.5428V64.3795ZM88.0961 103.144L78.1328 105.349L80.5555 95.4672L108.54 67.1833L116.217 74.86L88.0961 103.144ZM119.293 71.7839L111.616 64.1072L115.944 59.8333L123.676 67.5645L119.293 71.7839Z" fill="#F1612A"/>
</g>
<defs>
<clipPath id="clip0_43_1219">
<rect width="98" height="98" fill="white" transform="translate(37 19)"/>
</clipPath>
</defs>
</svg>
