<svg width="173" height="173" viewBox="0 0 173 173" fill="none" xmlns="http://www.w3.org/2000/svg">
<rect x="2" y="2" width="169" height="169" rx="18" stroke="#FBD7CA" stroke-width="4"/>
<path d="M44.41 151V133.658H47.946V140.912H55.148V133.658H58.658V151H55.148V143.85H47.946V151H44.41ZM68.2063 151.39C66.9063 151.39 65.7709 151.13 64.8003 150.61C63.8296 150.073 63.0756 149.293 62.5383 148.27C62.0009 147.247 61.7323 146.017 61.7323 144.578C61.7323 142.29 62.2783 140.548 63.3703 139.352C64.4796 138.139 66.0309 137.532 68.0243 137.532C69.4629 137.532 70.6156 137.844 71.4823 138.468C72.3663 139.092 73.0076 139.985 73.4063 141.146C73.8223 142.29 74.0216 143.659 74.0043 145.254H63.8643L63.6043 143.018H71.3783L70.7543 143.954C70.7196 142.585 70.4769 141.605 70.0263 141.016C69.5929 140.409 68.8909 140.106 67.9203 140.106C67.3309 140.106 66.8109 140.245 66.3603 140.522C65.9269 140.782 65.5889 141.224 65.3463 141.848C65.1209 142.472 65.0083 143.33 65.0083 144.422C65.0083 145.774 65.3289 146.814 65.9703 147.542C66.6116 148.253 67.5909 148.608 68.9083 148.608C69.4456 148.608 69.9569 148.556 70.4423 148.452C70.9449 148.331 71.4043 148.192 71.8203 148.036C72.2536 147.88 72.6176 147.733 72.9123 147.594V150.506C72.3056 150.766 71.6123 150.974 70.8323 151.13C70.0696 151.303 69.1943 151.39 68.2063 151.39ZM81.7949 151.39C81.0669 151.39 80.3736 151.321 79.7149 151.182C79.0562 151.043 78.4669 150.818 77.9469 150.506C77.4269 150.177 77.0109 149.735 76.6989 149.18C76.4042 148.608 76.2569 147.897 76.2569 147.048C76.2569 146.164 76.4389 145.419 76.8029 144.812C77.1669 144.188 77.6956 143.72 78.3889 143.408C79.0996 143.079 79.9662 142.914 80.9889 142.914C81.6129 142.914 82.1936 142.975 82.7309 143.096C83.2682 143.2 83.7536 143.347 84.1869 143.538C84.6202 143.729 84.9756 143.937 85.2529 144.162L85.4869 146.008C85.1229 145.765 84.6549 145.575 84.0829 145.436C83.5282 145.28 82.9216 145.202 82.2629 145.202C81.3442 145.202 80.6596 145.349 80.2089 145.644C79.7582 145.939 79.5329 146.398 79.5329 147.022C79.5329 147.455 79.6542 147.819 79.8969 148.114C80.1396 148.391 80.4516 148.608 80.8329 148.764C81.2142 148.903 81.6129 148.972 82.0289 148.972C82.9822 148.972 83.6669 148.911 84.0829 148.79C84.5162 148.651 84.7329 148.365 84.7329 147.932V142.758C84.7329 141.909 84.4642 141.293 83.9269 140.912C83.3896 140.513 82.6356 140.314 81.6649 140.314C80.9196 140.314 80.1569 140.444 79.3769 140.704C78.5969 140.947 77.9642 141.267 77.4789 141.666V138.676C77.9469 138.381 78.6489 138.121 79.5849 137.896C80.5209 137.671 81.5262 137.558 82.6009 137.558C83.0516 137.558 83.5282 137.601 84.0309 137.688C84.5336 137.775 85.0102 137.913 85.4609 138.104C85.9289 138.295 86.3536 138.563 86.7349 138.91C87.1162 139.239 87.4196 139.664 87.6449 140.184C87.8702 140.687 87.9829 141.302 87.9829 142.03V148.244C87.9829 149.059 87.7229 149.7 87.2029 150.168C86.6829 150.619 85.9636 150.931 85.0449 151.104C84.1262 151.295 83.0429 151.39 81.7949 151.39ZM97.6655 151.39C96.7641 151.39 95.9061 151.286 95.0915 151.078C94.2768 150.87 93.5575 150.506 92.9335 149.986C92.3095 149.466 91.8155 148.747 91.4515 147.828C91.1048 146.909 90.9315 145.739 90.9315 144.318C90.9315 142.221 91.4428 140.565 92.4655 139.352C93.4881 138.139 95.0395 137.532 97.1195 137.532C97.4141 137.532 97.7955 137.567 98.2635 137.636C98.7315 137.705 99.2081 137.827 99.6935 138C100.196 138.156 100.629 138.407 100.993 138.754L100.265 139.794V132.462H103.515V147.932C103.515 148.521 103.342 149.033 102.995 149.466C102.666 149.899 102.215 150.263 101.643 150.558C101.071 150.835 100.439 151.043 99.7455 151.182C99.0521 151.321 98.3588 151.39 97.6655 151.39ZM97.7695 148.582C98.4801 148.582 99.0695 148.495 99.5375 148.322C100.023 148.149 100.265 147.897 100.265 147.568V140.912C99.8841 140.687 99.4768 140.522 99.0435 140.418C98.6101 140.314 98.1941 140.262 97.7955 140.262C96.9981 140.262 96.3395 140.409 95.8195 140.704C95.2995 140.981 94.9095 141.432 94.6495 142.056C94.3895 142.663 94.2595 143.443 94.2595 144.396C94.2595 145.228 94.3635 145.956 94.5715 146.58C94.7795 147.204 95.1348 147.698 95.6375 148.062C96.1575 148.409 96.8681 148.582 97.7695 148.582ZM112.919 151.39C111.619 151.39 110.484 151.13 109.513 150.61C108.542 150.073 107.788 149.293 107.251 148.27C106.714 147.247 106.445 146.017 106.445 144.578C106.445 142.29 106.991 140.548 108.083 139.352C109.192 138.139 110.744 137.532 112.737 137.532C114.176 137.532 115.328 137.844 116.195 138.468C117.079 139.092 117.72 139.985 118.119 141.146C118.535 142.29 118.734 143.659 118.717 145.254H108.577L108.317 143.018H116.091L115.467 143.954C115.432 142.585 115.19 141.605 114.739 141.016C114.306 140.409 113.604 140.106 112.633 140.106C112.044 140.106 111.524 140.245 111.073 140.522C110.64 140.782 110.302 141.224 110.059 141.848C109.834 142.472 109.721 143.33 109.721 144.422C109.721 145.774 110.042 146.814 110.683 147.542C111.324 148.253 112.304 148.608 113.621 148.608C114.158 148.608 114.67 148.556 115.155 148.452C115.658 148.331 116.117 148.192 116.533 148.036C116.966 147.88 117.33 147.733 117.625 147.594V150.506C117.018 150.766 116.325 150.974 115.545 151.13C114.782 151.303 113.907 151.39 112.919 151.39ZM121.62 151V139.17C121.862 139.014 122.287 138.806 122.894 138.546C123.518 138.286 124.237 138.061 125.052 137.87C125.866 137.662 126.69 137.558 127.522 137.558C128.146 137.558 128.64 137.61 129.004 137.714C129.385 137.801 129.68 137.913 129.888 138.052V140.548C129.541 140.496 129.142 140.453 128.692 140.418C128.258 140.383 127.808 140.375 127.34 140.392C126.889 140.392 126.447 140.409 126.014 140.444C125.598 140.479 125.234 140.522 124.922 140.574V151H121.62Z" fill="#666666"/>
<rect x="16" y="20" width="140.757" height="28" rx="5" fill="#FBD7CA"/>
<rect x="16" y="48" width="141" height="66" rx="5" fill="#F6F6F6"/>
<path d="M45.1642 24.5405H27.7006C26.2539 24.5405 25.0811 25.7163 25.0811 27.1666V41.1726C25.0811 42.6229 26.2539 43.7987 27.7006 43.7987H45.1642C46.6109 43.7987 47.7838 42.6229 47.7838 41.1726V27.1666C47.7838 25.7163 46.6109 24.5405 45.1642 24.5405Z" stroke="#F1612A" stroke-linejoin="round"/>
<path d="M40.8164 31.5862C41.8108 31.5862 42.617 30.7801 42.617 29.7857C42.617 28.7912 41.8108 27.9851 40.8164 27.9851C39.822 27.9851 39.0159 28.7912 39.0159 29.7857C39.0159 30.7801 39.822 31.5862 40.8164 31.5862Z" stroke="#F1612A" stroke-miterlimit="10"/>
<path d="M39.0519 38.4976L34.1043 33.5116C33.7895 33.1938 33.3663 33.0094 32.9213 32.9961C32.4763 32.9828 32.0431 33.1416 31.7101 33.44L25.0811 39.3908M34.686 43.7987L41.4172 37.0027C41.725 36.6913 42.137 36.5074 42.5723 36.487C43.0077 36.4666 43.4348 36.6112 43.7699 36.8925L47.7838 40.2724" stroke="#F1612A" stroke-linecap="round" stroke-linejoin="round"/>
<path d="M126.368 29.152H143.254M126.368 34.3784H143.254M126.368 39.6047H143.254" stroke="#F1612A" stroke-width="2" stroke-miterlimit="10" stroke-linecap="round"/>
</svg>
