<svg width="173" height="173" viewBox="0 0 173 173" fill="none" xmlns="http://www.w3.org/2000/svg">
<rect x="2" y="2" width="169" height="169" rx="18" stroke="#FBD7CA" stroke-width="4"/>
<path d="M50.2322 151V133.658H53.7682V151H50.2322ZM69.2937 142.264V151H66.0177V142.836C66.0177 142.507 65.9743 142.195 65.8877 141.9C65.801 141.588 65.6537 141.319 65.4457 141.094C65.2377 140.851 64.9517 140.669 64.5877 140.548C64.2237 140.409 63.7557 140.34 63.1837 140.34C62.7503 140.34 62.3257 140.383 61.9097 140.47C61.511 140.557 61.1557 140.669 60.8437 140.808V151H57.5417V138.988C57.9057 138.815 58.339 138.641 58.8417 138.468C59.3443 138.295 59.8903 138.147 60.4797 138.026C61.069 137.887 61.6583 137.783 62.2477 137.714C62.8543 137.627 63.4263 137.584 63.9637 137.584C65.177 137.584 66.1737 137.749 66.9537 138.078C67.7337 138.39 68.3143 138.893 68.6957 139.586C69.0943 140.262 69.2937 141.155 69.2937 142.264ZM65.7577 139.768C66.3123 139.3 66.945 138.91 67.6557 138.598C68.3663 138.269 69.1117 138.017 69.8917 137.844C70.6717 137.671 71.417 137.584 72.1277 137.584C73.341 137.584 74.3377 137.749 75.1177 138.078C75.8977 138.39 76.4783 138.893 76.8597 139.586C77.2583 140.262 77.4577 141.155 77.4577 142.264V151H74.1817V142.836C74.1817 142.507 74.1383 142.195 74.0517 141.9C73.965 141.588 73.8177 141.319 73.6097 141.094C73.4017 140.851 73.1157 140.669 72.7517 140.548C72.3877 140.409 71.9197 140.34 71.3477 140.34C70.9143 140.34 70.4897 140.401 70.0737 140.522C69.675 140.643 69.3197 140.825 69.0077 141.068L65.7577 139.768ZM85.9922 151.39C85.2642 151.39 84.5708 151.321 83.9122 151.182C83.2535 151.043 82.6642 150.818 82.1442 150.506C81.6242 150.177 81.2082 149.735 80.8962 149.18C80.6015 148.608 80.4542 147.897 80.4542 147.048C80.4542 146.164 80.6362 145.419 81.0002 144.812C81.3642 144.188 81.8928 143.72 82.5862 143.408C83.2968 143.079 84.1635 142.914 85.1862 142.914C85.8102 142.914 86.3908 142.975 86.9282 143.096C87.4655 143.2 87.9508 143.347 88.3842 143.538C88.8175 143.729 89.1728 143.937 89.4502 144.162L89.6842 146.008C89.3202 145.765 88.8522 145.575 88.2802 145.436C87.7255 145.28 87.1188 145.202 86.4602 145.202C85.5415 145.202 84.8568 145.349 84.4062 145.644C83.9555 145.939 83.7302 146.398 83.7302 147.022C83.7302 147.455 83.8515 147.819 84.0942 148.114C84.3368 148.391 84.6488 148.608 85.0302 148.764C85.4115 148.903 85.8102 148.972 86.2262 148.972C87.1795 148.972 87.8642 148.911 88.2802 148.79C88.7135 148.651 88.9302 148.365 88.9302 147.932V142.758C88.9302 141.909 88.6615 141.293 88.1242 140.912C87.5868 140.513 86.8328 140.314 85.8622 140.314C85.1168 140.314 84.3542 140.444 83.5742 140.704C82.7942 140.947 82.1615 141.267 81.6762 141.666V138.676C82.1442 138.381 82.8462 138.121 83.7822 137.896C84.7182 137.671 85.7235 137.558 86.7982 137.558C87.2488 137.558 87.7255 137.601 88.2282 137.688C88.7308 137.775 89.2075 137.913 89.6582 138.104C90.1262 138.295 90.5508 138.563 90.9322 138.91C91.3135 139.239 91.6168 139.664 91.8422 140.184C92.0675 140.687 92.1802 141.302 92.1802 142.03V148.244C92.1802 149.059 91.9202 149.7 91.4002 150.168C90.8802 150.619 90.1608 150.931 89.2422 151.104C88.3235 151.295 87.2402 151.39 85.9922 151.39ZM100.953 151.39C99.7221 151.355 98.6734 151.087 97.8067 150.584C96.9401 150.081 96.2727 149.353 95.8047 148.4C95.3541 147.429 95.1287 146.242 95.1287 144.838C95.1287 143.365 95.3107 142.16 95.6747 141.224C96.0387 140.271 96.5414 139.534 97.1827 139.014C97.8414 138.477 98.6041 138.104 99.4707 137.896C100.355 137.688 101.291 137.584 102.279 137.584C103.301 137.584 104.203 137.714 104.983 137.974C105.78 138.234 106.404 138.615 106.855 139.118C107.323 139.621 107.557 140.262 107.557 141.042V151.286C107.557 152.083 107.427 152.803 107.167 153.444C106.907 154.103 106.508 154.666 105.971 155.134C105.451 155.602 104.792 155.957 103.995 156.2C103.197 156.46 102.244 156.59 101.135 156.59C100.112 156.59 99.2194 156.512 98.4567 156.356C97.6941 156.2 97.0874 156.027 96.6367 155.836V152.898C96.8967 153.002 97.2521 153.123 97.7027 153.262C98.1707 153.418 98.6907 153.548 99.2627 153.652C99.8347 153.756 100.407 153.808 100.979 153.808C101.897 153.808 102.591 153.687 103.059 153.444C103.544 153.201 103.873 152.881 104.047 152.482C104.22 152.083 104.307 151.65 104.307 151.182V149.128L105.061 149.7C104.766 150.029 104.402 150.324 103.969 150.584C103.553 150.827 103.085 151.017 102.565 151.156C102.062 151.312 101.525 151.39 100.953 151.39ZM101.655 148.842C102.123 148.842 102.582 148.79 103.033 148.686C103.501 148.565 103.925 148.391 104.307 148.166V141.718C104.307 141.302 104.194 140.999 103.969 140.808C103.761 140.6 103.475 140.461 103.111 140.392C102.764 140.305 102.383 140.262 101.967 140.262C101.048 140.262 100.329 140.453 99.8087 140.834C99.3061 141.215 98.9507 141.744 98.7427 142.42C98.5347 143.096 98.4307 143.85 98.4307 144.682C98.4307 145.947 98.7081 146.961 99.2627 147.724C99.8174 148.469 100.615 148.842 101.655 148.842ZM116.837 151.39C115.537 151.39 114.402 151.13 113.431 150.61C112.46 150.073 111.706 149.293 111.169 148.27C110.632 147.247 110.363 146.017 110.363 144.578C110.363 142.29 110.909 140.548 112.001 139.352C113.11 138.139 114.662 137.532 116.655 137.532C118.094 137.532 119.246 137.844 120.113 138.468C120.997 139.092 121.638 139.985 122.037 141.146C122.453 142.29 122.652 143.659 122.635 145.254H112.495L112.235 143.018H120.009L119.385 143.954C119.35 142.585 119.108 141.605 118.657 141.016C118.224 140.409 117.522 140.106 116.551 140.106C115.962 140.106 115.442 140.245 114.991 140.522C114.558 140.782 114.22 141.224 113.977 141.848C113.752 142.472 113.639 143.33 113.639 144.422C113.639 145.774 113.96 146.814 114.601 147.542C115.242 148.253 116.222 148.608 117.539 148.608C118.076 148.608 118.588 148.556 119.073 148.452C119.576 148.331 120.035 148.192 120.451 148.036C120.884 147.88 121.248 147.733 121.543 147.594V150.506C120.936 150.766 120.243 150.974 119.463 151.13C118.7 151.303 117.825 151.39 116.837 151.39Z" fill="#666666"/>
<path d="M125.346 24H47.6538C41.2176 24 36 29.2307 36 35.6831V97.9928C36 104.445 41.2176 109.676 47.6538 109.676H125.346C131.782 109.676 137 104.445 137 97.9928V35.6831C137 29.2307 131.782 24 125.346 24Z" stroke="#F1612A" stroke-width="4" stroke-linejoin="round"/>
<path d="M106.004 55.3448C110.427 55.3448 114.014 51.7585 114.014 47.3345C114.014 42.9105 110.427 39.3241 106.004 39.3241C101.58 39.3241 97.9932 42.9105 97.9932 47.3345C97.9932 51.7585 101.58 55.3448 106.004 55.3448Z" stroke="#F1612A" stroke-width="4" stroke-miterlimit="10"/>
<path d="M98.1538 86.0922L76.1426 63.9106C74.742 62.4968 72.8594 61.6765 70.8797 61.6172C68.9 61.558 66.9726 62.2644 65.4915 63.592L36 90.0657M78.7308 109.676L108.676 79.4419C110.046 78.0564 111.879 77.238 113.815 77.1473C115.752 77.0566 117.652 77.7002 119.143 78.9516L137 93.9877" stroke="#F1612A" stroke-width="4" stroke-linecap="round" stroke-linejoin="round"/>
</svg>
