<svg width="173" height="173" viewBox="0 0 173 173" fill="none" xmlns="http://www.w3.org/2000/svg">
<rect x="90.2339" y="30.9481" width="58.4416" height="13.6364" rx="6.81818" fill="#FBD7CA"/>
<rect x="90.2339" y="51.4026" width="58.4416" height="13.6364" rx="6.81818" fill="#FBD7CA"/>
<rect x="90.2339" y="71.8571" width="58.4416" height="13.6364" rx="6.81818" fill="#FBD7CA"/>
<rect x="90.2339" y="89.3896" width="58.4416" height="13.6364" rx="6.81818" fill="#FBD7CA"/>
<rect x="24" y="49.4545" width="58.4416" height="13.6364" rx="6.81818" fill="#F1612A"/>
<rect x="24" y="69.9091" width="58.4416" height="13.6364" rx="6.81818" fill="#F1612A"/>
<rect x="24" y="90.3636" width="58.4416" height="13.6364" rx="6.81818" fill="#F1612A"/>
<rect x="24" y="29" width="58.4416" height="13.6364" rx="6.81818" fill="#F1612A"/>
<rect x="2" y="2" width="169" height="169" rx="18" stroke="#FBD7CA" stroke-width="4"/>
<path d="M7.2459 151V133.658H10.7819V151H7.2459ZM14.5554 138.988C14.9194 138.815 15.3527 138.641 15.8554 138.468C16.358 138.295 16.904 138.147 17.4934 138.026C18.0827 137.887 18.672 137.783 19.2614 137.714C19.868 137.627 20.44 137.584 20.9774 137.584C22.1907 137.584 23.196 137.749 23.9934 138.078C24.808 138.39 25.4147 138.893 25.8134 139.586C26.2294 140.262 26.4374 141.155 26.4374 142.264V151H23.1614V142.836C23.1614 142.507 23.118 142.195 23.0314 141.9C22.9447 141.588 22.7974 141.319 22.5894 141.094C22.3814 140.851 22.0954 140.669 21.7314 140.548C21.3674 140.409 20.8994 140.34 20.3274 140.34C19.894 140.34 19.452 140.383 19.0014 140.47C18.5507 140.557 18.1694 140.669 17.8574 140.808V151H14.5554V138.988ZM30.069 138.988C30.433 138.815 30.8664 138.641 31.369 138.468C31.8717 138.295 32.4177 138.147 33.007 138.026C33.5964 137.887 34.1857 137.783 34.775 137.714C35.3817 137.627 35.9537 137.584 36.491 137.584C37.7044 137.584 38.7097 137.749 39.507 138.078C40.3217 138.39 40.9284 138.893 41.327 139.586C41.743 140.262 41.951 141.155 41.951 142.264V151H38.675V142.836C38.675 142.507 38.6317 142.195 38.545 141.9C38.4584 141.588 38.311 141.319 38.103 141.094C37.895 140.851 37.609 140.669 37.245 140.548C36.881 140.409 36.413 140.34 35.841 140.34C35.4077 140.34 34.9657 140.383 34.515 140.47C34.0644 140.557 33.683 140.669 33.371 140.808V151H30.069V138.988ZM51.3547 151.39C50.0547 151.39 48.9194 151.13 47.9487 150.61C46.978 150.073 46.224 149.293 45.6867 148.27C45.1494 147.247 44.8807 146.017 44.8807 144.578C44.8807 142.29 45.4267 140.548 46.5187 139.352C47.628 138.139 49.1794 137.532 51.1727 137.532C52.6114 137.532 53.764 137.844 54.6307 138.468C55.5147 139.092 56.156 139.985 56.5547 141.146C56.9707 142.29 57.17 143.659 57.1527 145.254H47.0127L46.7527 143.018H54.5267L53.9027 143.954C53.868 142.585 53.6254 141.605 53.1747 141.016C52.7414 140.409 52.0394 140.106 51.0687 140.106C50.4794 140.106 49.9594 140.245 49.5087 140.522C49.0754 140.782 48.7374 141.224 48.4947 141.848C48.2694 142.472 48.1567 143.33 48.1567 144.422C48.1567 145.774 48.4774 146.814 49.1187 147.542C49.76 148.253 50.7394 148.608 52.0567 148.608C52.594 148.608 53.1054 148.556 53.5907 148.452C54.0934 148.331 54.5527 148.192 54.9687 148.036C55.402 147.88 55.766 147.733 56.0607 147.594V150.506C55.454 150.766 54.7607 150.974 53.9807 151.13C53.218 151.303 52.3427 151.39 51.3547 151.39ZM60.0554 151V139.17C60.298 139.014 60.7227 138.806 61.3294 138.546C61.9534 138.286 62.6727 138.061 63.4874 137.87C64.302 137.662 65.1254 137.558 65.9574 137.558C66.5814 137.558 67.0754 137.61 67.4394 137.714C67.8207 137.801 68.1154 137.913 68.3234 138.052V140.548C67.9767 140.496 67.578 140.453 67.1274 140.418C66.694 140.383 66.2434 140.375 65.7754 140.392C65.3247 140.392 64.8827 140.409 64.4494 140.444C64.0334 140.479 63.6694 140.522 63.3574 140.574V151H60.0554ZM83.7767 151.312C82.8927 151.312 82.104 151.269 81.4107 151.182C80.7347 151.095 80.1107 150.957 79.5387 150.766C78.984 150.575 78.4207 150.333 77.8487 150.038V146.632C78.5767 147.221 79.426 147.689 80.3967 148.036C81.3847 148.365 82.39 148.53 83.4127 148.53C84.3487 148.53 85.0507 148.348 85.5187 147.984C86.004 147.603 86.2467 147.057 86.2467 146.346C86.2467 145.809 86.0474 145.375 85.6487 145.046C85.2674 144.717 84.756 144.431 84.1147 144.188C83.4734 143.945 82.7714 143.694 82.0087 143.434C81.4714 143.243 80.9427 143.035 80.4227 142.81C79.92 142.567 79.4607 142.264 79.0447 141.9C78.646 141.536 78.3254 141.085 78.0827 140.548C77.84 139.993 77.7187 139.317 77.7187 138.52C77.7187 137.879 77.84 137.246 78.0827 136.622C78.3254 135.998 78.698 135.443 79.2007 134.958C79.7034 134.455 80.3534 134.057 81.1507 133.762C81.948 133.467 82.9014 133.32 84.0107 133.32C84.704 133.32 85.3107 133.363 85.8307 133.45C86.368 133.537 86.8794 133.667 87.3647 133.84C87.85 134.013 88.3527 134.23 88.8727 134.49V137.896C88.4567 137.601 88.0147 137.324 87.5467 137.064C87.0787 136.787 86.576 136.561 86.0387 136.388C85.5187 136.215 84.9554 136.119 84.3487 136.102C83.7247 136.085 83.1874 136.154 82.7367 136.31C82.286 136.466 81.9394 136.7 81.6967 137.012C81.454 137.324 81.3327 137.697 81.3327 138.13C81.3327 138.667 81.48 139.101 81.7747 139.43C82.0694 139.742 82.4854 140.002 83.0227 140.21C83.56 140.418 84.1754 140.635 84.8687 140.86C85.5447 141.068 86.1774 141.302 86.7667 141.562C87.3734 141.805 87.902 142.117 88.3527 142.498C88.8207 142.879 89.1847 143.347 89.4447 143.902C89.722 144.457 89.8607 145.133 89.8607 145.93C89.8607 146.901 89.6354 147.793 89.1847 148.608C88.734 149.423 88.058 150.081 87.1567 150.584C86.2727 151.069 85.146 151.312 83.7767 151.312ZM98.6828 151.39C97.3828 151.39 96.2475 151.13 95.2768 150.61C94.3062 150.073 93.5522 149.293 93.0148 148.27C92.4775 147.247 92.2088 146.017 92.2088 144.578C92.2088 142.29 92.7548 140.548 93.8468 139.352C94.9562 138.139 96.5075 137.532 98.5008 137.532C99.9395 137.532 101.092 137.844 101.959 138.468C102.843 139.092 103.484 139.985 103.883 141.146C104.299 142.29 104.498 143.659 104.481 145.254H94.3408L94.0808 143.018H101.855L101.231 143.954C101.196 142.585 100.953 141.605 100.503 141.016C100.069 140.409 99.3675 140.106 98.3968 140.106C97.8075 140.106 97.2875 140.245 96.8368 140.522C96.4035 140.782 96.0655 141.224 95.8228 141.848C95.5975 142.472 95.4848 143.33 95.4848 144.422C95.4848 145.774 95.8055 146.814 96.4468 147.542C97.0882 148.253 98.0675 148.608 99.3848 148.608C99.9222 148.608 100.433 148.556 100.919 148.452C101.421 148.331 101.881 148.192 102.297 148.036C102.73 147.88 103.094 147.733 103.389 147.594V150.506C102.782 150.766 102.089 150.974 101.309 151.13C100.546 151.303 99.6708 151.39 98.6828 151.39ZM113.337 151.286C112.471 151.286 111.639 151.165 110.841 150.922C110.044 150.679 109.333 150.289 108.709 149.752C108.085 149.215 107.591 148.521 107.227 147.672C106.863 146.823 106.681 145.791 106.681 144.578C106.681 143.313 106.855 142.238 107.201 141.354C107.548 140.47 108.025 139.751 108.631 139.196C109.238 138.624 109.94 138.217 110.737 137.974C111.552 137.714 112.41 137.584 113.311 137.584C114.005 137.584 114.715 137.653 115.443 137.792C116.171 137.931 116.821 138.13 117.393 138.39V141.25C116.804 140.99 116.215 140.782 115.625 140.626C115.036 140.453 114.429 140.366 113.805 140.366C112.592 140.366 111.647 140.669 110.971 141.276C110.295 141.883 109.957 142.879 109.957 144.266C109.957 145.687 110.261 146.745 110.867 147.438C111.491 148.131 112.514 148.478 113.935 148.478C114.577 148.478 115.201 148.383 115.807 148.192C116.414 147.984 116.951 147.759 117.419 147.516V150.402C116.813 150.697 116.18 150.913 115.521 151.052C114.863 151.208 114.135 151.286 113.337 151.286ZM125.376 151.416C124.024 151.416 122.993 151.087 122.282 150.428C121.571 149.752 121.216 148.781 121.216 147.516V140.496H119.188V137.896H121.216V134.282H124.622V137.896H127.664V140.496H124.622V146.996C124.622 147.533 124.726 147.932 124.934 148.192C125.142 148.452 125.506 148.582 126.026 148.582C126.303 148.582 126.589 148.539 126.884 148.452C127.196 148.348 127.456 148.227 127.664 148.088V150.948C127.317 151.121 126.936 151.243 126.52 151.312C126.121 151.381 125.74 151.416 125.376 151.416ZM130.795 151V138.026H134.097L134.123 151H130.795ZM130.717 135.946V133.242H134.175V135.946H130.717ZM143.573 151.39C141.424 151.39 139.812 150.792 138.737 149.596C137.662 148.4 137.125 146.675 137.125 144.422C137.125 142.013 137.671 140.262 138.763 139.17C139.872 138.078 141.467 137.532 143.547 137.532C145.003 137.532 146.216 137.792 147.187 138.312C148.158 138.815 148.877 139.577 149.345 140.6C149.83 141.623 150.073 142.897 150.073 144.422C150.073 146.675 149.51 148.4 148.383 149.596C147.274 150.792 145.67 151.39 143.573 151.39ZM143.573 148.686C144.336 148.686 144.951 148.513 145.419 148.166C145.904 147.819 146.26 147.334 146.485 146.71C146.71 146.069 146.823 145.306 146.823 144.422C146.823 143.434 146.702 142.628 146.459 142.004C146.234 141.38 145.878 140.921 145.393 140.626C144.925 140.331 144.318 140.184 143.573 140.184C142.81 140.184 142.195 140.34 141.727 140.652C141.259 140.964 140.912 141.432 140.687 142.056C140.479 142.68 140.375 143.469 140.375 144.422C140.375 145.809 140.626 146.866 141.129 147.594C141.632 148.322 142.446 148.686 143.573 148.686ZM153.01 138.988C153.374 138.815 153.808 138.641 154.31 138.468C154.813 138.295 155.359 138.147 155.948 138.026C156.538 137.887 157.127 137.783 157.716 137.714C158.323 137.627 158.895 137.584 159.432 137.584C160.646 137.584 161.651 137.749 162.448 138.078C163.263 138.39 163.87 138.893 164.268 139.586C164.684 140.262 164.892 141.155 164.892 142.264V151H161.616V142.836C161.616 142.507 161.573 142.195 161.486 141.9C161.4 141.588 161.252 141.319 161.044 141.094C160.836 140.851 160.55 140.669 160.186 140.548C159.822 140.409 159.354 140.34 158.782 140.34C158.349 140.34 157.907 140.383 157.456 140.47C157.006 140.557 156.624 140.669 156.312 140.808V151H153.01V138.988Z" fill="#666666"/>
</svg>
