<svg width="172" height="173" viewBox="0 0 172 173" fill="none" xmlns="http://www.w3.org/2000/svg">
<rect x="2" y="2" width="168" height="169" rx="18" stroke="#FBD7CA" stroke-width="4"/>
<path d="M39 37.1562H132.188M39 66H132.188M39 94.8438H132.188" stroke="#F1612A" stroke-width="10" stroke-miterlimit="10" stroke-linecap="round"/>
<path d="M54.9725 151V133.658H58.6125L64.6965 142.394L62.6945 142.55L69.0645 133.658H72.6005V151H69.0905V136.466L69.8965 137.402L63.6305 145.904L57.5465 137.376L58.3785 136.648V151H54.9725ZM82.1457 151.39C80.8457 151.39 79.7104 151.13 78.7397 150.61C77.769 150.073 77.015 149.293 76.4777 148.27C75.9404 147.247 75.6717 146.017 75.6717 144.578C75.6717 142.29 76.2177 140.548 77.3097 139.352C78.419 138.139 79.9704 137.532 81.9637 137.532C83.4024 137.532 84.555 137.844 85.4217 138.468C86.3057 139.092 86.947 139.985 87.3457 141.146C87.7617 142.29 87.961 143.659 87.9437 145.254H77.8037L77.5437 143.018H85.3177L84.6937 143.954C84.659 142.585 84.4164 141.605 83.9657 141.016C83.5324 140.409 82.8304 140.106 81.8597 140.106C81.2704 140.106 80.7504 140.245 80.2997 140.522C79.8664 140.782 79.5284 141.224 79.2857 141.848C79.0604 142.472 78.9477 143.33 78.9477 144.422C78.9477 145.774 79.2684 146.814 79.9097 147.542C80.551 148.253 81.5304 148.608 82.8477 148.608C83.385 148.608 83.8964 148.556 84.3817 148.452C84.8844 148.331 85.3437 148.192 85.7597 148.036C86.193 147.88 86.557 147.733 86.8517 147.594V150.506C86.245 150.766 85.5517 150.974 84.7717 151.13C84.009 151.303 83.1337 151.39 82.1457 151.39ZM90.8464 138.988C91.2104 138.815 91.6437 138.641 92.1464 138.468C92.649 138.295 93.195 138.147 93.7844 138.026C94.3737 137.887 94.963 137.783 95.5524 137.714C96.159 137.627 96.731 137.584 97.2684 137.584C98.4817 137.584 99.487 137.749 100.284 138.078C101.099 138.39 101.706 138.893 102.104 139.586C102.52 140.262 102.728 141.155 102.728 142.264V151H99.4524V142.836C99.4524 142.507 99.409 142.195 99.3224 141.9C99.2357 141.588 99.0884 141.319 98.8804 141.094C98.6724 140.851 98.3864 140.669 98.0224 140.548C97.6584 140.409 97.1904 140.34 96.6184 140.34C96.185 140.34 95.743 140.383 95.2924 140.47C94.8417 140.557 94.4604 140.669 94.1484 140.808V151H90.8464V138.988ZM112.34 151.39C111.127 151.39 110.069 151.199 109.168 150.818C108.284 150.419 107.591 149.83 107.088 149.05C106.603 148.27 106.36 147.273 106.36 146.06V137.896H109.662V145.722C109.662 146.693 109.879 147.412 110.312 147.88C110.745 148.348 111.421 148.582 112.34 148.582C113.293 148.582 113.978 148.348 114.394 147.88C114.827 147.412 115.044 146.693 115.044 145.722V137.896H118.164V146.06C118.164 147.863 117.644 149.206 116.604 150.09C115.581 150.957 114.16 151.39 112.34 151.39Z" fill="#666666"/>
</svg>
