<svg width="172" height="173" viewBox="0 0 172 173" fill="none" xmlns="http://www.w3.org/2000/svg">
<path d="M18.3084 153V135.658H21.4804L30.9444 148.606L29.9304 150.686V135.658H33.2064V153H30.3464L20.6484 140L21.6104 138.414V153H18.3084ZM42.7395 153.39C41.4395 153.39 40.3041 153.13 39.3335 152.61C38.3628 152.073 37.6088 151.293 37.0715 150.27C36.5341 149.247 36.2655 148.017 36.2655 146.578C36.2655 144.29 36.8115 142.548 37.9035 141.352C39.0128 140.139 40.5641 139.532 42.5575 139.532C43.9961 139.532 45.1488 139.844 46.0155 140.468C46.8995 141.092 47.5408 141.985 47.9395 143.146C48.3555 144.29 48.5548 145.659 48.5375 147.254H38.3975L38.1375 145.018H45.9115L45.2875 145.954C45.2528 144.585 45.0101 143.605 44.5595 143.016C44.1261 142.409 43.4241 142.106 42.4535 142.106C41.8641 142.106 41.3441 142.245 40.8935 142.522C40.4601 142.782 40.1221 143.224 39.8795 143.848C39.6541 144.472 39.5415 145.33 39.5415 146.422C39.5415 147.774 39.8621 148.814 40.5035 149.542C41.1448 150.253 42.1241 150.608 43.4415 150.608C43.9788 150.608 44.4901 150.556 44.9755 150.452C45.4781 150.331 45.9375 150.192 46.3535 150.036C46.7868 149.88 47.1508 149.733 47.4455 149.594V152.506C46.8388 152.766 46.1455 152.974 45.3655 153.13C44.6028 153.303 43.7275 153.39 42.7395 153.39ZM54.7161 153L50.3481 139.896H53.8841L57.0041 150.79L55.9901 150.894L58.9801 139.896H61.5281L64.4661 150.582H63.6601L66.7281 139.896H70.1601L65.7921 153H62.7761L59.9161 143.64L60.4881 143.796L57.7581 153H54.7161ZM76.5655 153.39C75.6295 153.39 74.8321 153.286 74.1735 153.078C73.5148 152.887 72.8821 152.653 72.2755 152.376V149.412C72.6741 149.672 73.0901 149.923 73.5235 150.166C73.9741 150.391 74.4508 150.573 74.9535 150.712C75.4735 150.851 76.0281 150.92 76.6175 150.92C77.3108 150.92 77.8221 150.79 78.1515 150.53C78.4981 150.253 78.6715 149.923 78.6715 149.542C78.6715 149.178 78.5415 148.901 78.2815 148.71C78.0215 148.502 77.6835 148.329 77.2675 148.19C76.8515 148.051 76.4095 147.913 75.9415 147.774C75.5081 147.67 75.0661 147.531 74.6155 147.358C74.1821 147.185 73.7835 146.951 73.4195 146.656C73.0555 146.361 72.7608 145.989 72.5355 145.538C72.3275 145.07 72.2235 144.507 72.2235 143.848C72.2235 143.068 72.3795 142.409 72.6915 141.872C73.0035 141.335 73.4108 140.901 73.9135 140.572C74.4161 140.243 74.9708 140.009 75.5775 139.87C76.1841 139.714 76.7735 139.636 77.3455 139.636C78.3335 139.671 79.1308 139.792 79.7375 140C80.3441 140.191 80.9161 140.442 81.4535 140.754L81.4795 143.432C80.8728 143.103 80.2835 142.808 79.7115 142.548C79.1395 142.271 78.4895 142.132 77.7615 142.132C77.0855 142.132 76.5568 142.253 76.1755 142.496C75.8115 142.721 75.6295 143.042 75.6295 143.458C75.6295 143.822 75.7421 144.117 75.9675 144.342C76.1928 144.567 76.4875 144.741 76.8515 144.862C77.2155 144.983 77.6141 145.105 78.0475 145.226C78.4808 145.347 78.9315 145.486 79.3995 145.642C79.8675 145.781 80.3008 145.989 80.6995 146.266C81.0981 146.543 81.4188 146.916 81.6615 147.384C81.9215 147.835 82.0515 148.441 82.0515 149.204C82.0341 150.209 81.7655 151.024 81.2455 151.648C80.7255 152.255 80.0408 152.697 79.1915 152.974C78.3595 153.251 77.4841 153.39 76.5655 153.39ZM95.985 147.046V153H92.449V135.658H99.781C101.774 135.658 103.334 136.117 104.461 137.036C105.588 137.955 106.151 139.35 106.151 141.222C106.151 143.094 105.588 144.533 104.461 145.538C103.334 146.543 101.774 147.046 99.781 147.046H95.985ZM95.985 144.212H99.339C99.9284 144.212 100.422 144.143 100.821 144.004C101.22 143.848 101.532 143.64 101.757 143.38C101.982 143.103 102.138 142.799 102.225 142.47C102.329 142.141 102.381 141.785 102.381 141.404C102.381 141.005 102.329 140.633 102.225 140.286C102.138 139.939 101.982 139.627 101.757 139.35C101.532 139.073 101.22 138.865 100.821 138.726C100.422 138.57 99.9284 138.492 99.339 138.492H95.985V144.212ZM109.204 153V141.17C109.446 141.014 109.871 140.806 110.478 140.546C111.102 140.286 111.821 140.061 112.636 139.87C113.45 139.662 114.274 139.558 115.106 139.558C115.73 139.558 116.224 139.61 116.588 139.714C116.969 139.801 117.264 139.913 117.472 140.052V142.548C117.125 142.496 116.726 142.453 116.276 142.418C115.842 142.383 115.392 142.375 114.924 142.392C114.473 142.392 114.031 142.409 113.598 142.444C113.182 142.479 112.818 142.522 112.506 142.574V153H109.204ZM125.132 153.39C123.832 153.39 122.697 153.13 121.726 152.61C120.755 152.073 120.001 151.293 119.464 150.27C118.927 149.247 118.658 148.017 118.658 146.578C118.658 144.29 119.204 142.548 120.296 141.352C121.405 140.139 122.957 139.532 124.95 139.532C126.389 139.532 127.541 139.844 128.408 140.468C129.292 141.092 129.933 141.985 130.332 143.146C130.748 144.29 130.947 145.659 130.93 147.254H120.79L120.53 145.018H128.304L127.68 145.954C127.645 144.585 127.403 143.605 126.952 143.016C126.519 142.409 125.817 142.106 124.846 142.106C124.257 142.106 123.737 142.245 123.286 142.522C122.853 142.782 122.515 143.224 122.272 143.848C122.047 144.472 121.934 145.33 121.934 146.422C121.934 147.774 122.255 148.814 122.896 149.542C123.537 150.253 124.517 150.608 125.834 150.608C126.371 150.608 126.883 150.556 127.368 150.452C127.871 150.331 128.33 150.192 128.746 150.036C129.179 149.88 129.543 149.733 129.838 149.594V152.506C129.231 152.766 128.538 152.974 127.758 153.13C126.995 153.303 126.12 153.39 125.132 153.39ZM137.681 153.39C136.745 153.39 135.947 153.286 135.289 153.078C134.63 152.887 133.997 152.653 133.391 152.376V149.412C133.789 149.672 134.205 149.923 134.639 150.166C135.089 150.391 135.566 150.573 136.069 150.712C136.589 150.851 137.143 150.92 137.733 150.92C138.426 150.92 138.937 150.79 139.267 150.53C139.613 150.253 139.787 149.923 139.787 149.542C139.787 149.178 139.657 148.901 139.397 148.71C139.137 148.502 138.799 148.329 138.383 148.19C137.967 148.051 137.525 147.913 137.057 147.774C136.623 147.67 136.181 147.531 135.731 147.358C135.297 147.185 134.899 146.951 134.535 146.656C134.171 146.361 133.876 145.989 133.651 145.538C133.443 145.07 133.339 144.507 133.339 143.848C133.339 143.068 133.495 142.409 133.807 141.872C134.119 141.335 134.526 140.901 135.029 140.572C135.531 140.243 136.086 140.009 136.693 139.87C137.299 139.714 137.889 139.636 138.461 139.636C139.449 139.671 140.246 139.792 140.853 140C141.459 140.191 142.031 140.442 142.569 140.754L142.595 143.432C141.988 143.103 141.399 142.808 140.827 142.548C140.255 142.271 139.605 142.132 138.877 142.132C138.201 142.132 137.672 142.253 137.291 142.496C136.927 142.721 136.745 143.042 136.745 143.458C136.745 143.822 136.857 144.117 137.083 144.342C137.308 144.567 137.603 144.741 137.967 144.862C138.331 144.983 138.729 145.105 139.163 145.226C139.596 145.347 140.047 145.486 140.515 145.642C140.983 145.781 141.416 145.989 141.815 146.266C142.213 146.543 142.534 146.916 142.777 147.384C143.037 147.835 143.167 148.441 143.167 149.204C143.149 150.209 142.881 151.024 142.361 151.648C141.841 152.255 141.156 152.697 140.307 152.974C139.475 153.251 138.599 153.39 137.681 153.39ZM149.995 153.39C149.059 153.39 148.262 153.286 147.603 153.078C146.944 152.887 146.312 152.653 145.705 152.376V149.412C146.104 149.672 146.52 149.923 146.953 150.166C147.404 150.391 147.88 150.573 148.383 150.712C148.903 150.851 149.458 150.92 150.047 150.92C150.74 150.92 151.252 150.79 151.581 150.53C151.928 150.253 152.101 149.923 152.101 149.542C152.101 149.178 151.971 148.901 151.711 148.71C151.451 148.502 151.113 148.329 150.697 148.19C150.281 148.051 149.839 147.913 149.371 147.774C148.938 147.67 148.496 147.531 148.045 147.358C147.612 147.185 147.213 146.951 146.849 146.656C146.485 146.361 146.19 145.989 145.965 145.538C145.757 145.07 145.653 144.507 145.653 143.848C145.653 143.068 145.809 142.409 146.121 141.872C146.433 141.335 146.84 140.901 147.343 140.572C147.846 140.243 148.4 140.009 149.007 139.87C149.614 139.714 150.203 139.636 150.775 139.636C151.763 139.671 152.56 139.792 153.167 140C153.774 140.191 154.346 140.442 154.883 140.754L154.909 143.432C154.302 143.103 153.713 142.808 153.141 142.548C152.569 142.271 151.919 142.132 151.191 142.132C150.515 142.132 149.986 142.253 149.605 142.496C149.241 142.721 149.059 143.042 149.059 143.458C149.059 143.822 149.172 144.117 149.397 144.342C149.622 144.567 149.917 144.741 150.281 144.862C150.645 144.983 151.044 145.105 151.477 145.226C151.91 145.347 152.361 145.486 152.829 145.642C153.297 145.781 153.73 145.989 154.129 146.266C154.528 146.543 154.848 146.916 155.091 147.384C155.351 147.835 155.481 148.441 155.481 149.204C155.464 150.209 155.195 151.024 154.675 151.648C154.155 152.255 153.47 152.697 152.621 152.974C151.789 153.251 150.914 153.39 149.995 153.39Z" fill="#666666"/>
<rect x="2" y="2" width="168" height="169" rx="18" stroke="#FBD7CA" stroke-width="4"/>
<path d="M56.7499 50.675C56.7499 49.886 57.0633 49.1293 57.6213 48.5714C58.1792 48.0134 58.9359 47.7 59.7249 47.7H101.375C102.164 47.7 102.921 48.0134 103.479 48.5714C104.036 49.1293 104.35 49.886 104.35 50.675C104.35 51.464 104.036 52.2207 103.479 52.7786C102.921 53.3366 102.164 53.65 101.375 53.65H59.7249C58.9359 53.65 58.1792 53.3366 57.6213 52.7786C57.0633 52.2207 56.7499 51.464 56.7499 50.675ZM89.4749 65.55C88.6859 65.55 87.9292 65.8634 87.3713 66.4214C86.8133 66.9793 86.4999 67.736 86.4999 68.525C86.4999 69.314 86.8133 70.0707 87.3713 70.6286C87.9292 71.1866 88.6859 71.5 89.4749 71.5H101.375C102.164 71.5 102.921 71.1866 103.479 70.6286C104.036 70.0707 104.35 69.314 104.35 68.525C104.35 67.736 104.036 66.9793 103.479 66.4214C102.921 65.8634 102.164 65.55 101.375 65.55H89.4749ZM86.4999 86.375C86.4999 85.586 86.8133 84.8293 87.3713 84.2714C87.9292 83.7134 88.6859 83.4 89.4749 83.4H101.375C102.164 83.4 102.921 83.7134 103.479 84.2714C104.036 84.8293 104.35 85.586 104.35 86.375C104.35 87.164 104.036 87.9207 103.479 88.4786C102.921 89.0366 102.164 89.35 101.375 89.35H89.4749C88.6859 89.35 87.9292 89.0366 87.3713 88.4786C86.8133 87.9207 86.4999 87.164 86.4999 86.375ZM59.7249 65.55C58.9359 65.55 58.1792 65.8634 57.6213 66.4214C57.0633 66.9793 56.7499 67.736 56.7499 68.525V86.375C56.7499 87.164 57.0633 87.9207 57.6213 88.4786C58.1792 89.0366 58.9359 89.35 59.7249 89.35H77.5749C78.3639 89.35 79.1206 89.0366 79.6785 88.4786C80.2365 87.9207 80.5499 87.164 80.5499 86.375V68.525C80.5499 67.736 80.2365 66.9793 79.6785 66.4214C79.1206 65.8634 78.3639 65.55 77.5749 65.55H59.7249ZM62.6999 83.4V71.5H74.5999V83.4H62.6999ZM38.8999 41.75C38.8999 38.5939 40.1536 35.5671 42.3853 33.3354C44.617 31.1037 47.6438 29.85 50.7999 29.85H110.3C113.456 29.85 116.483 31.1037 118.714 33.3354C120.946 35.5671 122.2 38.5939 122.2 41.75V47.7C125.356 47.7 128.383 48.9537 130.614 51.1854C132.846 53.4171 134.1 56.4439 134.1 59.6V92.325C134.1 96.2701 132.533 100.054 129.743 102.843C126.954 105.633 123.17 107.2 119.225 107.2H53.7749C49.8298 107.2 46.0463 105.633 43.2567 102.843C40.4671 100.054 38.8999 96.2701 38.8999 92.325V41.75ZM116.25 41.75C116.25 40.172 115.623 38.6586 114.507 37.5427C113.391 36.4269 111.878 35.8 110.3 35.8H50.7999C49.2219 35.8 47.7085 36.4269 46.5926 37.5427C45.4768 38.6586 44.8499 40.172 44.8499 41.75V92.325C44.8499 94.6921 45.7902 96.9622 47.464 98.6359C49.1377 100.31 51.4078 101.25 53.7749 101.25H119.225C121.592 101.25 123.862 100.31 125.536 98.6359C127.21 96.9622 128.15 94.6921 128.15 92.325V59.6C128.15 58.022 127.523 56.5086 126.407 55.3927C125.291 54.2769 123.778 53.65 122.2 53.65V92.325C122.2 93.114 121.886 93.8707 121.329 94.4286C120.771 94.9866 120.014 95.3 119.225 95.3C118.436 95.3 117.679 94.9866 117.121 94.4286C116.563 93.8707 116.25 93.114 116.25 92.325V41.75Z" fill="#F1612A"/>
</svg>
