<svg width="172" height="173" viewBox="0 0 172 173" fill="none" xmlns="http://www.w3.org/2000/svg">
<path d="M27.6081 145.046V151H24.0721V133.658H31.4041C33.3974 133.658 34.9574 134.117 36.0841 135.036C37.2107 135.955 37.7741 137.35 37.7741 139.222C37.7741 141.094 37.2107 142.533 36.0841 143.538C34.9574 144.543 33.3974 145.046 31.4041 145.046H27.6081ZM27.6081 142.212H30.9621C31.5514 142.212 32.0454 142.143 32.4441 142.004C32.8427 141.848 33.1547 141.64 33.3801 141.38C33.6054 141.103 33.7614 140.799 33.8481 140.47C33.9521 140.141 34.0041 139.785 34.0041 139.404C34.0041 139.005 33.9521 138.633 33.8481 138.286C33.7614 137.939 33.6054 137.627 33.3801 137.35C33.1547 137.073 32.8427 136.865 32.4441 136.726C32.0454 136.57 31.5514 136.492 30.9621 136.492H27.6081V142.212ZM45.7148 151.39C44.9868 151.39 44.2935 151.321 43.6348 151.182C42.9762 151.043 42.3868 150.818 41.8668 150.506C41.3468 150.177 40.9308 149.735 40.6188 149.18C40.3242 148.608 40.1768 147.897 40.1768 147.048C40.1768 146.164 40.3588 145.419 40.7228 144.812C41.0868 144.188 41.6155 143.72 42.3088 143.408C43.0195 143.079 43.8862 142.914 44.9088 142.914C45.5328 142.914 46.1135 142.975 46.6508 143.096C47.1882 143.2 47.6735 143.347 48.1068 143.538C48.5402 143.729 48.8955 143.937 49.1728 144.162L49.4068 146.008C49.0428 145.765 48.5748 145.575 48.0028 145.436C47.4482 145.28 46.8415 145.202 46.1828 145.202C45.2642 145.202 44.5795 145.349 44.1288 145.644C43.6782 145.939 43.4528 146.398 43.4528 147.022C43.4528 147.455 43.5742 147.819 43.8168 148.114C44.0595 148.391 44.3715 148.608 44.7528 148.764C45.1342 148.903 45.5328 148.972 45.9488 148.972C46.9022 148.972 47.5868 148.911 48.0028 148.79C48.4362 148.651 48.6528 148.365 48.6528 147.932V142.758C48.6528 141.909 48.3842 141.293 47.8468 140.912C47.3095 140.513 46.5555 140.314 45.5848 140.314C44.8395 140.314 44.0768 140.444 43.2968 140.704C42.5168 140.947 41.8842 141.267 41.3988 141.666V138.676C41.8668 138.381 42.5688 138.121 43.5048 137.896C44.4408 137.671 45.4462 137.558 46.5208 137.558C46.9715 137.558 47.4482 137.601 47.9508 137.688C48.4535 137.775 48.9302 137.913 49.3808 138.104C49.8488 138.295 50.2735 138.563 50.6548 138.91C51.0362 139.239 51.3395 139.664 51.5648 140.184C51.7902 140.687 51.9028 141.302 51.9028 142.03V148.244C51.9028 149.059 51.6428 149.7 51.1228 150.168C50.6028 150.619 49.8835 150.931 48.9648 151.104C48.0462 151.295 46.9628 151.39 45.7148 151.39ZM55.5534 151V139.17C55.7961 139.014 56.2207 138.806 56.8274 138.546C57.4514 138.286 58.1707 138.061 58.9854 137.87C59.8001 137.662 60.6234 137.558 61.4554 137.558C62.0794 137.558 62.5734 137.61 62.9374 137.714C63.3187 137.801 63.6134 137.913 63.8214 138.052V140.548C63.4747 140.496 63.0761 140.453 62.6254 140.418C62.1921 140.383 61.7414 140.375 61.2734 140.392C60.8227 140.392 60.3807 140.409 59.9474 140.444C59.5314 140.479 59.1674 140.522 58.8554 140.574V151H55.5534ZM71.1816 151.39C70.4536 151.39 69.7603 151.321 69.1016 151.182C68.443 151.043 67.8536 150.818 67.3336 150.506C66.8136 150.177 66.3976 149.735 66.0856 149.18C65.791 148.608 65.6436 147.897 65.6436 147.048C65.6436 146.164 65.8256 145.419 66.1896 144.812C66.5536 144.188 67.0823 143.72 67.7756 143.408C68.4863 143.079 69.353 142.914 70.3756 142.914C70.9996 142.914 71.5803 142.975 72.1176 143.096C72.655 143.2 73.1403 143.347 73.5736 143.538C74.007 143.729 74.3623 143.937 74.6396 144.162L74.8736 146.008C74.5096 145.765 74.0416 145.575 73.4696 145.436C72.915 145.28 72.3083 145.202 71.6496 145.202C70.731 145.202 70.0463 145.349 69.5956 145.644C69.145 145.939 68.9196 146.398 68.9196 147.022C68.9196 147.455 69.041 147.819 69.2836 148.114C69.5263 148.391 69.8383 148.608 70.2196 148.764C70.601 148.903 70.9996 148.972 71.4156 148.972C72.369 148.972 73.0536 148.911 73.4696 148.79C73.903 148.651 74.1196 148.365 74.1196 147.932V142.758C74.1196 141.909 73.851 141.293 73.3136 140.912C72.7763 140.513 72.0223 140.314 71.0516 140.314C70.3063 140.314 69.5436 140.444 68.7636 140.704C67.9836 140.947 67.351 141.267 66.8656 141.666V138.676C67.3336 138.381 68.0356 138.121 68.9716 137.896C69.9076 137.671 70.913 137.558 71.9876 137.558C72.4383 137.558 72.915 137.601 73.4176 137.688C73.9203 137.775 74.397 137.913 74.8476 138.104C75.3156 138.295 75.7403 138.563 76.1216 138.91C76.503 139.239 76.8063 139.664 77.0316 140.184C77.257 140.687 77.3696 141.302 77.3696 142.03V148.244C77.3696 149.059 77.1096 149.7 76.5896 150.168C76.0696 150.619 75.3503 150.931 74.4316 151.104C73.513 151.295 72.4296 151.39 71.1816 151.39ZM86.1422 151.39C84.9115 151.355 83.8629 151.087 82.9962 150.584C82.1295 150.081 81.4622 149.353 80.9942 148.4C80.5435 147.429 80.3182 146.242 80.3182 144.838C80.3182 143.365 80.5002 142.16 80.8642 141.224C81.2282 140.271 81.7309 139.534 82.3722 139.014C83.0309 138.477 83.7935 138.104 84.6602 137.896C85.5442 137.688 86.4802 137.584 87.4682 137.584C88.4909 137.584 89.3922 137.714 90.1722 137.974C90.9695 138.234 91.5935 138.615 92.0442 139.118C92.5122 139.621 92.7462 140.262 92.7462 141.042V151.286C92.7462 152.083 92.6162 152.803 92.3562 153.444C92.0962 154.103 91.6975 154.666 91.1602 155.134C90.6402 155.602 89.9815 155.957 89.1842 156.2C88.3869 156.46 87.4335 156.59 86.3242 156.59C85.3015 156.59 84.4089 156.512 83.6462 156.356C82.8835 156.2 82.2769 156.027 81.8262 155.836V152.898C82.0862 153.002 82.4415 153.123 82.8922 153.262C83.3602 153.418 83.8802 153.548 84.4522 153.652C85.0242 153.756 85.5962 153.808 86.1682 153.808C87.0869 153.808 87.7802 153.687 88.2482 153.444C88.7335 153.201 89.0629 152.881 89.2362 152.482C89.4095 152.083 89.4962 151.65 89.4962 151.182V149.128L90.2502 149.7C89.9555 150.029 89.5915 150.324 89.1582 150.584C88.7422 150.827 88.2742 151.017 87.7542 151.156C87.2515 151.312 86.7142 151.39 86.1422 151.39ZM86.8442 148.842C87.3122 148.842 87.7715 148.79 88.2222 148.686C88.6902 148.565 89.1149 148.391 89.4962 148.166V141.718C89.4962 141.302 89.3835 140.999 89.1582 140.808C88.9502 140.6 88.6642 140.461 88.3002 140.392C87.9535 140.305 87.5722 140.262 87.1562 140.262C86.2375 140.262 85.5182 140.453 84.9982 140.834C84.4955 141.215 84.1402 141.744 83.9322 142.42C83.7242 143.096 83.6202 143.85 83.6202 144.682C83.6202 145.947 83.8975 146.961 84.4522 147.724C85.0069 148.469 85.8042 148.842 86.8442 148.842ZM96.2546 151V139.17C96.4972 139.014 96.9219 138.806 97.5286 138.546C98.1526 138.286 98.8719 138.061 99.6866 137.87C100.501 137.662 101.325 137.558 102.157 137.558C102.781 137.558 103.275 137.61 103.639 137.714C104.02 137.801 104.315 137.913 104.523 138.052V140.548C104.176 140.496 103.777 140.453 103.327 140.418C102.893 140.383 102.443 140.375 101.975 140.392C101.524 140.392 101.082 140.409 100.649 140.444C100.233 140.479 99.8686 140.522 99.5566 140.574V151H96.2546ZM111.883 151.39C111.155 151.39 110.461 151.321 109.803 151.182C109.144 151.043 108.555 150.818 108.035 150.506C107.515 150.177 107.099 149.735 106.787 149.18C106.492 148.608 106.345 147.897 106.345 147.048C106.345 146.164 106.527 145.419 106.891 144.812C107.255 144.188 107.783 143.72 108.477 143.408C109.187 143.079 110.054 142.914 111.077 142.914C111.701 142.914 112.281 142.975 112.819 143.096C113.356 143.2 113.841 143.347 114.275 143.538C114.708 143.729 115.063 143.937 115.341 144.162L115.575 146.008C115.211 145.765 114.743 145.575 114.171 145.436C113.616 145.28 113.009 145.202 112.351 145.202C111.432 145.202 110.747 145.349 110.297 145.644C109.846 145.939 109.621 146.398 109.621 147.022C109.621 147.455 109.742 147.819 109.985 148.114C110.227 148.391 110.539 148.608 110.921 148.764C111.302 148.903 111.701 148.972 112.117 148.972C113.07 148.972 113.755 148.911 114.171 148.79C114.604 148.651 114.821 148.365 114.821 147.932V142.758C114.821 141.909 114.552 141.293 114.015 140.912C113.477 140.513 112.723 140.314 111.753 140.314C111.007 140.314 110.245 140.444 109.465 140.704C108.685 140.947 108.052 141.267 107.567 141.666V138.676C108.035 138.381 108.737 138.121 109.673 137.896C110.609 137.671 111.614 137.558 112.689 137.558C113.139 137.558 113.616 137.601 114.119 137.688C114.621 137.775 115.098 137.913 115.549 138.104C116.017 138.295 116.441 138.563 116.823 138.91C117.204 139.239 117.507 139.664 117.733 140.184C117.958 140.687 118.071 141.302 118.071 142.03V148.244C118.071 149.059 117.811 149.7 117.291 150.168C116.771 150.619 116.051 150.931 115.133 151.104C114.214 151.295 113.131 151.39 111.883 151.39ZM128.247 151.364C127.953 151.364 127.554 151.329 127.051 151.26C126.566 151.208 126.063 151.095 125.543 150.922C125.041 150.749 124.599 150.497 124.217 150.168L124.971 149.128V155.966H121.721V140.548C121.721 139.993 121.886 139.525 122.215 139.144C122.562 138.763 123.013 138.459 123.567 138.234C124.139 137.991 124.772 137.818 125.465 137.714C126.176 137.593 126.913 137.532 127.675 137.532C128.923 137.532 130.033 137.749 131.003 138.182C131.974 138.615 132.745 139.352 133.317 140.392C133.889 141.432 134.175 142.845 134.175 144.63C134.175 145.982 133.941 147.169 133.473 148.192C133.005 149.197 132.329 149.977 131.445 150.532C130.561 151.087 129.495 151.364 128.247 151.364ZM127.415 148.686C128.178 148.686 128.811 148.539 129.313 148.244C129.833 147.949 130.215 147.499 130.457 146.892C130.717 146.268 130.847 145.488 130.847 144.552C130.847 143.72 130.752 142.983 130.561 142.342C130.388 141.701 130.059 141.207 129.573 140.86C129.105 140.496 128.438 140.314 127.571 140.314C126.722 140.314 126.072 140.401 125.621 140.574C125.188 140.747 124.971 140.99 124.971 141.302V148.036C125.353 148.244 125.76 148.409 126.193 148.53C126.627 148.634 127.034 148.686 127.415 148.686ZM137.083 151V132.54H140.385V140.158L139.163 139.378C139.856 138.841 140.645 138.407 141.529 138.078C142.413 137.749 143.297 137.584 144.181 137.584C145.169 137.584 146.027 137.749 146.755 138.078C147.483 138.407 148.046 138.945 148.445 139.69C148.861 140.418 149.069 141.406 149.069 142.654V151H145.767V143.226C145.767 142.255 145.533 141.536 145.065 141.068C144.614 140.583 143.929 140.34 143.011 140.34C142.543 140.34 142.075 140.409 141.607 140.548C141.139 140.687 140.731 140.86 140.385 141.068L140.359 151H137.083Z" fill="#666666"/>
<rect x="2" y="2" width="168" height="169" rx="18" stroke="#FBD7CA" stroke-width="4"/>
<rect x="38" y="23" width="90" height="6" fill="#F1612A"/>
<rect x="38" y="35" width="97" height="6" fill="#F1612A"/>
<rect x="38" y="47" width="93" height="6" fill="#F1612A"/>
<rect x="38" y="59" width="87" height="6" fill="#F1612A"/>
<rect x="38" y="71" width="97" height="6" fill="#F1612A"/>
<rect x="38" y="83" width="39" height="6" fill="#F1612A"/>
</svg>
