<svg width="173" height="173" viewBox="0 0 173 173" fill="none" xmlns="http://www.w3.org/2000/svg">
<rect x="30" y="32" width="114" height="28.9524" rx="14.4762" fill="#F1612A"/>
<rect x="30" y="79.0476" width="114" height="28.9524" rx="14.4762" fill="#FBD7CA"/>
<rect x="2" y="2" width="169" height="169" rx="18" stroke="#FBD7CA" stroke-width="4"/>
<path d="M48.7933 151.312C47.9093 151.312 47.1206 151.269 46.4273 151.182C45.7513 151.095 45.1273 150.957 44.5553 150.766C44.0006 150.575 43.4373 150.333 42.8653 150.038V146.632C43.5933 147.221 44.4426 147.689 45.4133 148.036C46.4013 148.365 47.4066 148.53 48.4293 148.53C49.3653 148.53 50.0673 148.348 50.5353 147.984C51.0206 147.603 51.2633 147.057 51.2633 146.346C51.2633 145.809 51.064 145.375 50.6653 145.046C50.284 144.717 49.7726 144.431 49.1313 144.188C48.49 143.945 47.788 143.694 47.0253 143.434C46.488 143.243 45.9593 143.035 45.4393 142.81C44.9366 142.567 44.4773 142.264 44.0613 141.9C43.6626 141.536 43.342 141.085 43.0993 140.548C42.8566 139.993 42.7353 139.317 42.7353 138.52C42.7353 137.879 42.8566 137.246 43.0993 136.622C43.342 135.998 43.7146 135.443 44.2173 134.958C44.72 134.455 45.37 134.057 46.1673 133.762C46.9646 133.467 47.918 133.32 49.0273 133.32C49.7206 133.32 50.3273 133.363 50.8473 133.45C51.3846 133.537 51.896 133.667 52.3813 133.84C52.8666 134.013 53.3693 134.23 53.8893 134.49V137.896C53.4733 137.601 53.0313 137.324 52.5633 137.064C52.0953 136.787 51.5926 136.561 51.0553 136.388C50.5353 136.215 49.972 136.119 49.3653 136.102C48.7413 136.085 48.204 136.154 47.7533 136.31C47.3026 136.466 46.956 136.7 46.7133 137.012C46.4706 137.324 46.3493 137.697 46.3493 138.13C46.3493 138.667 46.4966 139.101 46.7913 139.43C47.086 139.742 47.502 140.002 48.0393 140.21C48.5766 140.418 49.192 140.635 49.8853 140.86C50.5613 141.068 51.194 141.302 51.7833 141.562C52.39 141.805 52.9186 142.117 53.3693 142.498C53.8373 142.879 54.2013 143.347 54.4613 143.902C54.7386 144.457 54.8773 145.133 54.8773 145.93C54.8773 146.901 54.652 147.793 54.2013 148.608C53.7506 149.423 53.0746 150.081 52.1733 150.584C51.2893 151.069 50.1626 151.312 48.7933 151.312ZM63.6994 151.39C62.3994 151.39 61.2641 151.13 60.2934 150.61C59.3228 150.073 58.5688 149.293 58.0314 148.27C57.4941 147.247 57.2254 146.017 57.2254 144.578C57.2254 142.29 57.7714 140.548 58.8634 139.352C59.9728 138.139 61.5241 137.532 63.5174 137.532C64.9561 137.532 66.1088 137.844 66.9754 138.468C67.8594 139.092 68.5008 139.985 68.8994 141.146C69.3154 142.29 69.5148 143.659 69.4974 145.254H59.3574L59.0974 143.018H66.8714L66.2474 143.954C66.2128 142.585 65.9701 141.605 65.5194 141.016C65.0861 140.409 64.3841 140.106 63.4134 140.106C62.8241 140.106 62.3041 140.245 61.8534 140.522C61.4201 140.782 61.0821 141.224 60.8394 141.848C60.6141 142.472 60.5014 143.33 60.5014 144.422C60.5014 145.774 60.8221 146.814 61.4634 147.542C62.1048 148.253 63.0841 148.608 64.4014 148.608C64.9388 148.608 65.4501 148.556 65.9354 148.452C66.4381 148.331 66.8974 148.192 67.3134 148.036C67.7468 147.88 68.1108 147.733 68.4054 147.594V150.506C67.7988 150.766 67.1054 150.974 66.3254 151.13C65.5628 151.303 64.6874 151.39 63.6994 151.39ZM78.3541 151.286C77.4874 151.286 76.6554 151.165 75.8581 150.922C75.0607 150.679 74.3501 150.289 73.7261 149.752C73.1021 149.215 72.6081 148.521 72.2441 147.672C71.8801 146.823 71.6981 145.791 71.6981 144.578C71.6981 143.313 71.8714 142.238 72.2181 141.354C72.5647 140.47 73.0414 139.751 73.6481 139.196C74.2547 138.624 74.9567 138.217 75.7541 137.974C76.5687 137.714 77.4267 137.584 78.3281 137.584C79.0214 137.584 79.7321 137.653 80.4601 137.792C81.1881 137.931 81.8381 138.13 82.4101 138.39V141.25C81.8207 140.99 81.2314 140.782 80.6421 140.626C80.0527 140.453 79.4461 140.366 78.8221 140.366C77.6087 140.366 76.6641 140.669 75.9881 141.276C75.3121 141.883 74.9741 142.879 74.9741 144.266C74.9741 145.687 75.2774 146.745 75.8841 147.438C76.5081 148.131 77.5307 148.478 78.9521 148.478C79.5934 148.478 80.2174 148.383 80.8241 148.192C81.4307 147.984 81.9681 147.759 82.4361 147.516V150.402C81.8294 150.697 81.1967 150.913 80.5381 151.052C79.8794 151.208 79.1514 151.286 78.3541 151.286ZM90.3927 151.416C89.0407 151.416 88.0094 151.087 87.2987 150.428C86.588 149.752 86.2327 148.781 86.2327 147.516V140.496H84.2047V137.896H86.2327V134.282H89.6387V137.896H92.6807V140.496H89.6387V146.996C89.6387 147.533 89.7427 147.932 89.9507 148.192C90.1587 148.452 90.5227 148.582 91.0427 148.582C91.32 148.582 91.606 148.539 91.9007 148.452C92.2127 148.348 92.4727 148.227 92.6807 148.088V150.948C92.334 151.121 91.9527 151.243 91.5367 151.312C91.138 151.381 90.7567 151.416 90.3927 151.416ZM95.8121 151V138.026H99.1141L99.1401 151H95.8121ZM95.7341 135.946V133.242H99.1921V135.946H95.7341ZM108.589 151.39C106.44 151.39 104.828 150.792 103.753 149.596C102.679 148.4 102.141 146.675 102.141 144.422C102.141 142.013 102.687 140.262 103.779 139.17C104.889 138.078 106.483 137.532 108.563 137.532C110.019 137.532 111.233 137.792 112.203 138.312C113.174 138.815 113.893 139.577 114.361 140.6C114.847 141.623 115.089 142.897 115.089 144.422C115.089 146.675 114.526 148.4 113.399 149.596C112.29 150.792 110.687 151.39 108.589 151.39ZM108.589 148.686C109.352 148.686 109.967 148.513 110.435 148.166C110.921 147.819 111.276 147.334 111.501 146.71C111.727 146.069 111.839 145.306 111.839 144.422C111.839 143.434 111.718 142.628 111.475 142.004C111.25 141.38 110.895 140.921 110.409 140.626C109.941 140.331 109.335 140.184 108.589 140.184C107.827 140.184 107.211 140.34 106.743 140.652C106.275 140.964 105.929 141.432 105.703 142.056C105.495 142.68 105.391 143.469 105.391 144.422C105.391 145.809 105.643 146.866 106.145 147.594C106.648 148.322 107.463 148.686 108.589 148.686ZM118.027 138.988C118.391 138.815 118.824 138.641 119.327 138.468C119.83 138.295 120.376 138.147 120.965 138.026C121.554 137.887 122.144 137.783 122.733 137.714C123.34 137.627 123.912 137.584 124.449 137.584C125.662 137.584 126.668 137.749 127.465 138.078C128.28 138.39 128.886 138.893 129.285 139.586C129.701 140.262 129.909 141.155 129.909 142.264V151H126.633V142.836C126.633 142.507 126.59 142.195 126.503 141.9C126.416 141.588 126.269 141.319 126.061 141.094C125.853 140.851 125.567 140.669 125.203 140.548C124.839 140.409 124.371 140.34 123.799 140.34C123.366 140.34 122.924 140.383 122.473 140.47C122.022 140.557 121.641 140.669 121.329 140.808V151H118.027V138.988Z" fill="#666666"/>
</svg>
