<svg id="Layer_1" enable-background="new 0 0 24 24" height="512" viewBox="0 0 24 24" width="512" xmlns="http://www.w3.org/2000/svg" xmlns:xlink="http://www.w3.org/1999/xlink"><linearGradient id="SVGID_1_" gradientTransform="matrix(1 0 0 -1 0 -1448)" gradientUnits="userSpaceOnUse" x1="0" x2="24" y1="-1460" y2="-1460"><stop offset="0" stop-color="#da22ff"/><stop offset="1" stop-color="#9733ee"/></linearGradient><circle cx="12" cy="12" fill="url(#SVGID_1_)" r="12"/><g><g><path d="m12 20c-.2 0-.5-.2-.6-.3l-3.6-5.2c-.2-.2-.2-.6-.1-.8.2-.2.4-.4.7-.4h7.2c.3 0 .6.2.7.4.2.2.1.6-.1.8l-3.6 5.2c-.1.1-.4.3-.6.3zm-2.1-5.2 2.1 3 2.1-3z" fill="#fff"/></g><g><path d="m15.6 10.7h-7.2c-.3 0-.6-.2-.7-.4-.2-.2-.1-.6.1-.8l3.6-5.2c.3-.4 1-.4 1.3 0l3.6 5.2c.2.2.2.6.1.8-.2.3-.5.4-.8.4zm-5.7-1.6h4.2l-2.1-3z" fill="#fff"/></g></g></svg>