<svg width="173" height="173" viewBox="0 0 173 173" fill="none" xmlns="http://www.w3.org/2000/svg">
<rect x="2" y="2" width="169" height="169" rx="18" stroke="#FBD7CA" stroke-width="4"/>
<path d="M61.0153 106.267V38.0523H35V27H100.279V38.0523H74.2638V106.267H61.0153Z" fill="#F1612A"/>
<path d="M115.145 106.267V66.1409H100.279V59.6395H137.581V66.1409H122.716V106.267H115.145Z" fill="#F1612A"/>
<path d="M65.9431 151V136.492H60.6911V133.658H74.7571V136.492H69.4791V151H65.9431ZM80.6604 151.39C79.3604 151.39 78.225 151.13 77.2544 150.61C76.2837 150.073 75.5297 149.293 74.9924 148.27C74.455 147.247 74.1864 146.017 74.1864 144.578C74.1864 142.29 74.7324 140.548 75.8244 139.352C76.9337 138.139 78.485 137.532 80.4784 137.532C81.917 137.532 83.0697 137.844 83.9364 138.468C84.8204 139.092 85.4617 139.985 85.8604 141.146C86.2764 142.29 86.4757 143.659 86.4584 145.254H76.3184L76.0584 143.018H83.8324L83.2084 143.954C83.1737 142.585 82.931 141.605 82.4804 141.016C82.047 140.409 81.345 140.106 80.3744 140.106C79.785 140.106 79.265 140.245 78.8144 140.522C78.381 140.782 78.043 141.224 77.8004 141.848C77.575 142.472 77.4624 143.33 77.4624 144.422C77.4624 145.774 77.783 146.814 78.4244 147.542C79.0657 148.253 80.045 148.608 81.3624 148.608C81.8997 148.608 82.411 148.556 82.8964 148.452C83.399 148.331 83.8584 148.192 84.2744 148.036C84.7077 147.88 85.0717 147.733 85.3664 147.594V150.506C84.7597 150.766 84.0664 150.974 83.2864 151.13C82.5237 151.303 81.6484 151.39 80.6604 151.39ZM95.497 145.618L91.701 151H88.191L93.911 143.486L95.497 145.618ZM101.711 151H97.759L88.321 137.896H92.247L101.711 151ZM94.431 143.382L98.279 137.896H101.841L95.965 145.618L94.431 143.382ZM109.359 151.416C108.007 151.416 106.976 151.087 106.265 150.428C105.555 149.752 105.199 148.781 105.199 147.516V140.496H103.171V137.896H105.199V134.282H108.605V137.896H111.647V140.496H108.605V146.996C108.605 147.533 108.709 147.932 108.917 148.192C109.125 148.452 109.489 148.582 110.009 148.582C110.287 148.582 110.573 148.539 110.867 148.452C111.179 148.348 111.439 148.227 111.647 148.088V150.948C111.301 151.121 110.919 151.243 110.503 151.312C110.105 151.381 109.723 151.416 109.359 151.416Z" fill="#666666"/>
</svg>
