<svg width="173" height="173" viewBox="0 0 173 173" fill="none" xmlns="http://www.w3.org/2000/svg">
<rect x="2" y="2" width="169" height="169" rx="18" stroke="#FBD7CA" stroke-width="4"/>
<path d="M58.3896 151L51.8636 133.658H55.8936L61.1196 148.712H59.9496L65.1496 133.684L68.8676 133.658L62.1076 151H58.3896ZM71.1451 151V138.026H74.4471L74.4731 151H71.1451ZM71.0671 135.946V133.242H74.5251V135.946H71.0671ZM84.2084 151.39C83.3071 151.39 82.4491 151.286 81.6344 151.078C80.8198 150.87 80.1004 150.506 79.4764 149.986C78.8524 149.466 78.3584 148.747 77.9944 147.828C77.6478 146.909 77.4744 145.739 77.4744 144.318C77.4744 142.221 77.9858 140.565 79.0084 139.352C80.0311 138.139 81.5824 137.532 83.6624 137.532C83.9571 137.532 84.3384 137.567 84.8064 137.636C85.2744 137.705 85.7511 137.827 86.2364 138C86.7391 138.156 87.1724 138.407 87.5364 138.754L86.8084 139.794V132.462H90.0584V147.932C90.0584 148.521 89.8851 149.033 89.5384 149.466C89.2091 149.899 88.7584 150.263 88.1864 150.558C87.6144 150.835 86.9818 151.043 86.2884 151.182C85.5951 151.321 84.9018 151.39 84.2084 151.39ZM84.3124 148.582C85.0231 148.582 85.6124 148.495 86.0804 148.322C86.5658 148.149 86.8084 147.897 86.8084 147.568V140.912C86.4271 140.687 86.0198 140.522 85.5864 140.418C85.1531 140.314 84.7371 140.262 84.3384 140.262C83.5411 140.262 82.8824 140.409 82.3624 140.704C81.8424 140.981 81.4524 141.432 81.1924 142.056C80.9324 142.663 80.8024 143.443 80.8024 144.396C80.8024 145.228 80.9064 145.956 81.1144 146.58C81.3224 147.204 81.6778 147.698 82.1804 148.062C82.7004 148.409 83.4111 148.582 84.3124 148.582ZM99.4621 151.39C98.1621 151.39 97.0268 151.13 96.0561 150.61C95.0855 150.073 94.3315 149.293 93.7941 148.27C93.2568 147.247 92.9881 146.017 92.9881 144.578C92.9881 142.29 93.5341 140.548 94.6261 139.352C95.7355 138.139 97.2868 137.532 99.2801 137.532C100.719 137.532 101.871 137.844 102.738 138.468C103.622 139.092 104.263 139.985 104.662 141.146C105.078 142.29 105.277 143.659 105.26 145.254H95.1201L94.8601 143.018H102.634L102.01 143.954C101.975 142.585 101.733 141.605 101.282 141.016C100.849 140.409 100.147 140.106 99.1761 140.106C98.5868 140.106 98.0668 140.245 97.6161 140.522C97.1828 140.782 96.8448 141.224 96.6021 141.848C96.3768 142.472 96.2641 143.33 96.2641 144.422C96.2641 145.774 96.5848 146.814 97.2261 147.542C97.8675 148.253 98.8468 148.608 100.164 148.608C100.701 148.608 101.213 148.556 101.698 148.452C102.201 148.331 102.66 148.192 103.076 148.036C103.509 147.88 103.873 147.733 104.168 147.594V150.506C103.561 150.766 102.868 150.974 102.088 151.13C101.325 151.303 100.45 151.39 99.4621 151.39ZM113.909 151.39C111.759 151.39 110.147 150.792 109.073 149.596C107.998 148.4 107.461 146.675 107.461 144.422C107.461 142.013 108.007 140.262 109.099 139.17C110.208 138.078 111.803 137.532 113.883 137.532C115.339 137.532 116.552 137.792 117.523 138.312C118.493 138.815 119.213 139.577 119.681 140.6C120.166 141.623 120.409 142.897 120.409 144.422C120.409 146.675 119.845 148.4 118.719 149.596C117.609 150.792 116.006 151.39 113.909 151.39ZM113.909 148.686C114.671 148.686 115.287 148.513 115.755 148.166C116.24 147.819 116.595 147.334 116.821 146.71C117.046 146.069 117.159 145.306 117.159 144.422C117.159 143.434 117.037 142.628 116.795 142.004C116.569 141.38 116.214 140.921 115.729 140.626C115.261 140.331 114.654 140.184 113.909 140.184C113.146 140.184 112.531 140.34 112.063 140.652C111.595 140.964 111.248 141.432 111.023 142.056C110.815 142.68 110.711 143.469 110.711 144.422C110.711 145.809 110.962 146.866 111.465 147.594C111.967 148.322 112.782 148.686 113.909 148.686Z" fill="#666666"/>
<path fill-rule="evenodd" clip-rule="evenodd" d="M87 117.5C93.5004 117.5 99.9372 116.22 105.943 113.732C111.948 111.244 117.405 107.598 122.002 103.002C126.598 98.4053 130.244 92.9484 132.732 86.9428C135.22 80.9372 136.5 74.5004 136.5 68C136.5 61.4996 135.22 55.0628 132.732 49.0572C130.244 43.0516 126.598 37.5947 122.002 32.9982C117.405 28.4017 111.948 24.7556 105.943 22.268C99.9372 19.7804 93.5004 18.5 87 18.5C73.8718 18.5 61.2813 23.7152 51.9982 32.9982C42.7152 42.2813 37.5 54.8718 37.5 68C37.5 81.1282 42.7152 93.7187 51.9982 103.002C61.2813 112.285 73.8718 117.5 87 117.5ZM74.5535 45.274L110.161 63.083C111.074 63.5397 111.843 64.2419 112.38 65.1108C112.917 65.9798 113.202 66.9812 113.202 68.0027C113.202 69.0243 112.917 70.0257 112.38 70.8947C111.843 71.7636 111.074 72.4658 110.161 72.9225L74.5535 90.726C73.5469 91.2297 72.4282 91.4676 71.3037 91.4171C70.1793 91.3666 69.0864 91.0293 68.1291 90.4373C67.1717 89.8454 66.3816 89.0184 65.8339 88.0351C65.2863 87.0517 64.9992 85.9446 65 84.819V51.1865C64.9992 50.0609 65.2863 48.9538 65.8339 47.9704C66.3816 46.9871 67.1717 46.1601 68.1291 45.5682C69.0864 44.9762 70.1793 44.6389 71.3037 44.5884C72.4282 44.5379 73.5469 44.7703 74.5535 45.274Z" fill="#F1612A" fill-opacity="0.25"/>
<path d="M110.161 63.083L74.5535 45.274C73.5469 44.7703 72.4282 44.5324 71.3037 44.5829C70.1793 44.6334 69.0864 44.9707 68.1291 45.5627C67.1717 46.1546 66.3816 46.9816 65.8339 47.9649C65.2863 48.9483 64.9992 50.0554 65 51.181V84.819C64.9992 85.9446 65.2863 87.0517 65.8339 88.035C66.3816 89.0184 67.1717 89.8454 68.1291 90.4373C69.0864 91.0293 70.1793 91.3665 71.3037 91.4171C72.4282 91.4676 73.5469 91.2297 74.5535 90.726L110.161 72.917C111.073 72.4597 111.84 71.7576 112.376 70.8893C112.912 70.0209 113.196 69.0205 113.196 68C113.196 66.9795 112.912 65.9791 112.376 65.1107C111.84 64.2423 111.073 63.5403 110.161 63.083Z" stroke="#F1612A" stroke-width="2" stroke-linecap="round" stroke-linejoin="round"/>
<path d="M87 117.5C114.338 117.5 136.5 95.3381 136.5 68C136.5 40.6619 114.338 18.5 87 18.5C59.6619 18.5 37.5 40.6619 37.5 68C37.5 95.3381 59.6619 117.5 87 117.5Z" stroke="#F1612A" stroke-width="2"/>
</svg>
